<svg id="Layer_1" data-name="Layer 1" xmlns="http://www.w3.org/2000/svg" viewBox="0 0 97.42 20.09"><title>bravedots</title><path d="M18.63,455.67a15.16,15.16,0,0,0-19.11,0,0,0,0,1,1-.06-.06,15.16,15.16,0,0,0,0-19.11,0,0,0,1,1,.06-.06,15.16,15.16,0,0,0,19.11,0,0,0,0,1,1,.06.06,15.16,15.16,0,0,0,0,19.11A0,0,0,1,1,18.63,455.67Z" transform="translate(78.71 -435.95)" style="fill:#222"/><path d="M-39.63,450.59c-5.39,3.94-11.49,4.87-13.14,2.61s.8-7.72,6.19-11.66,11.68-4.87,13.34-2.61S-34.23,446.65-39.63,450.59Z" transform="translate(78.71 -435.95)" style="fill:#222"/><path d="M-63,446.25A69.24,69.24,0,0,1-57.2,436,69.22,69.22,0,0,1-67.9,440.1a71.61,71.61,0,0,1-10.82,2.5l12,13.44A69.4,69.4,0,0,1-63,446.25Z" transform="translate(78.71 -435.95)" style="fill:#222"/><path d="M-12.26,454.31a10,10,0,0,0-.57-4.75,6,6,0,0,1-6.47,3.84,6.07,6.07,0,0,1-5.2-5.51,6,6,0,0,1,5.25-6.46,9,9,0,0,0-4-1.44.18.18,0,0,1-.09-.33c4.63-3.05,11.54-3.38,14.55.42s1,10.63-3.13,14.41A.18.18,0,0,1-12.26,454.31Z" transform="translate(78.71 -435.95)" style="fill:#222"/></svg>