<svg id="Layer_1" data-name="Layer 1" xmlns="http://www.w3.org/2000/svg" viewBox="0 0 94.41 45"><title>logo_park_white</title><path d="M-96,458.77c-.17,1.28.71,2,2.12,2.23,2.34.3,4.33-1,4.73-4.08l0-.29-3.92.14C-94.8,456.84-95.8,457.52-96,458.77Z" transform="translate(135.47 -434.13)" style="fill:#fff"/><path d="M-109.11,449.13a4.48,4.48,0,0,0-5.08,4,4.48,4.48,0,0,0,3.89,5.19,4.48,4.48,0,0,0,5.08-4A4.48,4.48,0,0,0-109.11,449.13Z" transform="translate(135.47 -434.13)" style="fill:#fff"/><path d="M-131.15,434.13l-4.32,33.33,90.09,11.67,4.32-33.33Zm30,20.72c-.66,5.09-4.51,7.95-8.74,7.4a6.43,6.43,0,0,1-4.84-3.07l-1.1,8.49-4-.52,2.9-22.41,4,.52-.29,2.27a6.73,6.73,0,0,1,5.86-2C-103.37,446-100.44,449.57-101.12,454.85Zm16.45-.54-.86,6.63A6.18,6.18,0,0,0-85,465l-4.1-.53a4.16,4.16,0,0,1-.44-2.63,5.78,5.78,0,0,1-5.7,2.29c-3.14-.41-5.09-2.65-4.7-5.66.42-3.23,3.32-4.49,6.35-4.52l4.87-.12.08-.61c.2-1.54-.65-2.53-2.6-2.78s-3,.43-3.08,1.42a.64.64,0,0,0,0,.39l-3.78.75a3.19,3.19,0,0,1-.11-1.38c.32-2.47,3.06-4.55,7.32-4C-86.39,448.23-84.17,450.44-84.67,454.31Zm11.31-.55c-2.43-.31-4.1,1.52-4.45,4.21l-1,7.84-4-.52,2.06-15.88,4,.52-.33,2.53a4.83,4.83,0,0,1,4.8-2.41,4.84,4.84,0,0,1,1.35.37l-1.13,3.73A3.57,3.57,0,0,0-73.37,453.76Zm16.63,14.92-4.64-.6-3.78-8-1.37,1-.81,6.24-4-.52,2.9-22.41,4,.52-1.47,11.33,5.46-4.18,5,.65L-62,457.61Z" transform="translate(135.47 -434.13)" style="fill:#fff"/></svg>