<?xml version="1.0" encoding="UTF-8"?>
<svg width="58px" height="68px" viewBox="0 0 58 68" version="1.1" xmlns="http://www.w3.org/2000/svg" xmlns:xlink="http://www.w3.org/1999/xlink">
    <!-- Generator: Sketch 61.2 (89653) - https://sketch.com -->
    <title>white_tongue</title>
    <desc>Created with Sketch.</desc>
    <g id="Page-1" stroke="none" stroke-width="1" fill="none" fill-rule="evenodd">
        <g id="white_tongue" fill="#FFFFFF">
            <path d="M40.5399871,34.6714695 C40.4319871,34.6484695 40.3229871,34.6234695 40.2139871,34.5994695 C40.1619871,34.9574695 40.1099871,35.3164695 40.0469871,35.7524695 C40.7439871,35.4724695 40.1309871,34.9374695 40.5399871,34.6714695 L40.5399871,34.6714695 Z M12.5969871,16.3054695 C12.5259871,15.8414695 12.4939871,15.6264695 12.4529871,15.3594695 C12.2289871,15.5014695 12.0869871,15.5924695 11.8709871,15.7304695 C12.0999871,15.9124695 12.2609871,16.0384695 12.5969871,16.3054695 L12.5969871,16.3054695 Z M15.4079871,9.81746946 C15.6179871,9.91546946 15.7859871,9.99446946 16.0649871,10.1264695 C15.9579871,9.75246946 15.8879871,9.51046946 15.7849871,9.15046946 C15.6249871,9.43246946 15.5329871,9.59746946 15.4079871,9.81746946 L15.4079871,9.81746946 Z M45.5929871,15.8864695 C45.8039871,15.9704695 46.0249871,16.0584695 46.4319871,16.2184695 C46.1949871,15.7384695 46.0419871,15.4294695 45.8409871,15.0214695 C45.7409871,15.3704695 45.6779871,15.5914695 45.5929871,15.8864695 L45.5929871,15.8864695 Z M41.0859871,9.96046946 C41.6389871,9.43646946 41.6389871,9.43646946 41.1919871,8.73246946 C41.1609871,9.09646946 41.1299871,9.45746946 41.0859871,9.96046946 L41.0859871,9.96046946 Z M33.9089871,26.2624695 C33.1279871,26.4684695 33.1279871,26.4684695 32.8849871,26.6954695 C31.4649871,28.0314695 30.1879871,29.5714695 29.9659871,30.2754695 C30.3179871,30.3974695 30.6729871,30.5194695 31.0479871,30.6494695 C30.9549871,31.0834695 30.3859871,31.2994695 30.4559871,31.9784695 C31.1979871,31.3504695 31.8269871,30.8174695 32.5989871,30.1614695 C32.0919871,29.8804695 31.7449871,29.6884695 31.4489871,29.5234695 C32.2389871,28.4754695 33.0279871,27.4304695 33.9089871,26.2624695 L33.9089871,26.2624695 Z M18.5159871,30.9704695 C18.8059871,31.6974695 19.0919871,32.4164695 19.3779871,33.1344695 C19.3279871,31.9414695 19.3769871,30.7534695 18.9049871,29.5444695 C18.5679871,29.8314695 18.3529871,30.0154695 18.0779871,30.2494695 C17.9109871,29.7414695 17.7719871,29.2524695 17.5899871,28.7804695 C17.2619871,27.9304695 16.9299871,27.0794695 16.5449871,26.2544695 C16.4699871,26.0944695 16.1199871,25.9354695 15.9439871,25.9774695 C15.6709871,26.0414695 15.6259871,26.3244695 15.7349871,26.6094695 C16.2579871,27.9724695 16.7559871,29.3444695 17.2979871,30.6994695 C17.4519871,31.0824695 17.6139871,31.5254695 18.1979871,31.6224695 C18.3059871,31.4014695 18.4079871,31.1924695 18.5159871,30.9704695 L18.5159871,30.9704695 Z M18.1769871,15.7634695 C17.7249871,15.5344695 17.3619871,15.4564695 17.3719871,14.8964695 C17.3779871,14.5924695 17.0649871,14.2824695 16.8489871,13.8894695 C16.3999871,14.5304695 16.5899871,15.1284695 16.5879871,15.6894695 C16.5829871,17.0734695 17.1709871,18.3284695 17.5039871,19.6394695 C17.6509871,20.2194695 17.8299871,20.7904695 18.0589871,21.5924695 C18.2959871,20.3154695 18.4649871,19.2794695 18.6829871,18.2564695 C18.8969871,17.2534695 19.1439871,16.2564695 19.4079871,15.2654695 C19.6719871,14.2724695 20.2829871,13.3894695 20.4569871,12.3444695 C19.5999871,12.5114695 19.5849871,13.5674695 18.6969871,13.7444695 C18.5169871,13.9004695 19.0519871,14.4794695 18.3889871,14.5184695 C18.3249871,14.8954695 18.2609871,15.2714695 18.1769871,15.7634695 L18.1769871,15.7634695 Z M37.3289871,12.1464695 C37.7979871,13.3604695 38.2219871,14.3194695 38.5339871,15.3134695 C38.8399871,16.2844695 39.0549871,17.2874695 39.2689871,18.2854695 C39.4859871,19.3004695 39.6529871,20.3254695 39.8769871,21.5364695 C40.3429871,19.9824695 40.8189871,18.6514695 41.1229871,17.2824695 C41.3279871,16.3674695 41.3069871,15.3994695 41.3389871,14.4514695 C41.3449871,14.2724695 41.1249871,14.0844695 40.9139871,13.7474695 C40.6629871,14.4104695 40.4739871,14.8664695 40.3179871,15.3324695 C40.2079871,15.6594695 40.0249871,15.7114695 39.6809871,15.5414695 C39.7619871,14.9864695 38.9519871,14.5134695 39.4109871,13.8654695 C39.2469871,13.7364695 38.9129871,13.6004695 38.8069871,13.3624695 C38.5449871,12.7724695 38.0269871,12.5844695 37.3289871,12.1464695 L37.3289871,12.1464695 Z M25.1909871,36.3634695 C25.1749871,36.0134695 25.1519871,35.8344695 25.1609871,35.6584695 C25.2119871,34.6344695 25.2729871,33.6094695 25.3259871,32.5844695 C25.3749871,31.6324695 25.3469871,30.6704695 25.4769871,29.7304695 C25.7539871,27.7344695 26.0729871,25.7434695 26.4469871,23.7654695 C27.0309871,20.6704695 27.4349871,17.5334695 28.4729871,14.5374695 C28.5259871,14.3864695 28.4349871,14.1864695 28.3839871,13.8044695 C28.1329871,14.1544695 27.9669871,14.3054695 27.8999871,14.4924695 C27.2559871,16.2854695 26.4989871,18.0514695 26.0219871,19.8894695 C24.3209871,26.4524695 22.8379871,33.0674695 21.6329871,39.7404695 C21.5189871,40.3724695 21.5029871,41.0214695 21.4209871,41.8714695 C22.8639871,41.1824695 24.1279871,40.5774695 25.5669871,39.8914695 C25.4529871,40.4734695 25.3609871,40.8904695 25.2899871,41.3104695 C25.0879871,42.5004695 24.7809871,43.6884695 24.7199871,44.8864695 C24.5559871,48.0784695 24.5679871,51.2674695 25.3299871,54.4084695 C26.0139871,57.2254695 27.3989871,59.5674695 29.8079871,61.2404695 C30.0219871,61.3894695 30.2889871,61.4614695 30.5329871,61.5684695 C30.5759871,61.5094695 30.6189871,61.4504695 30.6619871,61.3914695 C30.4319871,61.1284695 30.2339871,60.8244695 29.9669871,60.6084695 C29.1429871,59.9424695 28.5769871,59.0874695 28.1759871,58.1364695 C27.6939871,56.9884695 27.2929871,55.8084695 26.8639871,54.6394695 C26.0179871,52.3384695 26.0109871,49.9674695 26.3069871,47.5774695 C26.4689871,46.2684695 26.7189871,44.9684695 26.8499871,43.6554695 C27.1219871,40.9314695 27.6569871,38.2904695 29.0639871,35.8934695 C29.1549871,35.7374695 29.2299871,35.5624695 29.2619871,35.3864695 C29.3419871,34.9454695 29.0589871,34.6544695 28.6269871,34.7604695 C28.3099871,34.8364695 28.0039871,34.9774695 27.7079871,35.1194695 C26.9199871,35.4984695 26.1399871,35.8934695 25.1909871,36.3634695 L25.1909871,36.3634695 Z M44.9439871,11.0994695 C45.1139871,11.3064695 45.2829871,11.5134695 45.4649871,11.7354695 C45.1749871,11.9874695 44.9639871,12.1704695 44.6679871,12.4264695 C44.3649871,11.8744695 44.0989871,11.3504695 43.7869871,10.8554695 C43.7149871,10.7414695 43.4819871,10.7324695 43.1439871,10.6094695 C43.6519871,11.1944695 43.3769871,11.6654695 43.4949871,12.2284695 C43.2409871,12.1344695 43.0109871,12.0674695 43.0149871,12.0474695 C43.1089871,11.5814695 42.8359871,11.4324695 42.4609871,11.3124695 C42.3029871,11.2614695 42.1879871,11.0834695 42.0419871,10.9814695 C42.0129871,10.9604695 41.9289871,11.0194695 41.8599871,11.0454695 C41.9259871,11.2334695 41.9939871,11.4224695 42.0719871,11.6464695 C41.4569871,11.9144695 41.4529871,11.5914695 41.5299871,11.1804695 C41.2949871,11.0924695 41.0609871,11.0054695 40.8409871,10.9234695 C40.6379871,11.0614695 40.4489871,11.1894695 40.2449871,11.3264695 C40.0989871,10.9954695 39.9869871,10.7424695 39.8369871,10.4024695 C38.9129871,11.0254695 38.5069871,10.0874695 37.8629871,9.83146946 C37.7039871,9.95946946 37.5449871,10.0884695 37.3849871,10.2174695 C37.1209871,9.98046946 36.9069871,9.78746946 36.7229871,9.62246946 C36.5129871,9.77046946 36.3329871,9.89546946 36.1619871,10.0154695 C37.1079871,10.4864695 37.9449871,10.9284695 38.8039871,11.3254695 C39.9329871,11.8484695 41.0359871,12.5174695 42.2269871,12.7974695 C43.8579871,13.1804695 45.5579871,13.3914695 47.2329871,13.4264695 C48.8349871,13.4604695 50.4489871,13.2184695 52.0469871,13.0134695 C53.0339871,12.8874695 54.0009871,12.6034695 55.2039871,12.3404695 C54.8089871,12.1574695 54.6539871,12.0544695 54.4829871,12.0124695 C53.2869871,11.7114695 52.2509871,11.1044695 51.2569871,10.3954695 C49.9009871,9.42846946 48.7289871,8.27746946 47.6649871,7.00346946 C45.3329871,4.21346946 42.4599871,2.27446946 38.8419871,1.60046946 C37.1659871,1.28846946 35.4999871,1.28046946 33.9249871,2.16546946 C33.2949871,2.51946946 32.5689871,2.70646946 31.8769871,2.94446946 C30.6639871,3.36146946 29.4029871,3.14446946 28.1629871,3.19546946 C26.6919871,3.25646946 25.3029871,2.90546946 24.0479871,2.18246946 C22.5469871,1.31646946 20.9329871,1.27146946 19.3459871,1.54346946 C16.1059871,2.10146946 13.3619871,3.66846946 11.1149871,6.07746946 C10.3899871,6.85646946 9.72898714,7.69746946 8.97098714,8.44246946 C7.44498714,9.93946946 5.80398714,11.2834695 3.70998714,11.9374695 C3.44298714,12.0214695 3.18998714,12.1494695 2.87498714,12.2784695 C3.02198714,12.3594695 3.08198714,12.4104695 3.14998714,12.4264695 C6.48298714,13.2234695 9.83398714,13.7694695 13.2809871,13.2674695 C15.0349871,13.0114695 16.7199871,12.6074695 18.3009871,11.7534695 C19.5399871,11.0844695 20.7359871,10.2934695 22.3339871,10.0484695 C21.8819871,9.69946946 21.6439871,9.37146946 21.1609871,9.61646946 C21.0169871,9.69046946 20.7859871,9.72146946 20.6509871,9.65446946 C20.0949871,9.38546946 19.6859871,9.63246946 19.3389871,10.0234695 C19.1389871,9.86746946 18.9979871,9.75846946 18.8969871,9.67946946 C18.6269871,9.95546946 18.3699871,10.2194695 18.1109871,10.4834695 C18.0499871,10.4394695 17.9879871,10.3954695 17.9259871,10.3514695 C17.9949871,10.1724695 18.0629871,9.99346946 18.1339871,9.81046946 C17.9799871,9.77646946 17.8469871,9.74846946 17.6449871,9.70546946 C17.7099871,10.3364695 17.4989871,10.7594695 16.6429871,10.9104695 C16.8639871,10.5644695 16.9849871,10.3724695 17.1279871,10.1494695 C16.3929871,10.0604695 16.3809871,10.0754695 16.3979871,10.8304695 C15.9269871,10.7814695 15.4439871,10.7324695 14.8499871,10.6704695 L14.8499871,9.64946946 C14.5199871,9.40146946 14.1959871,9.15946946 13.8719871,8.91646946 C13.8349871,8.95046946 13.7989871,8.98446946 13.7629871,9.01846946 C14.0019871,9.34346946 14.2409871,9.66946946 14.4909871,10.0094695 C14.3899871,10.1974695 14.2909871,10.3804695 14.2169871,10.5174695 C14.3829871,10.6954695 14.5329871,10.8564695 14.7039871,11.0394695 C14.2779871,11.3254695 13.9069871,11.2324695 13.7589871,10.9564695 C13.6439871,10.7414695 13.7969871,10.3834695 13.8359871,10.0454695 C13.4979871,9.81346946 13.1579871,9.68946946 12.7869871,10.0084695 C12.8909871,10.3534695 13.4549871,10.4004695 13.2519871,10.9494695 C13.0069871,10.8354695 12.7979871,10.6934695 12.5679871,10.6424695 C12.2639871,10.5714695 11.9439871,10.5674695 11.6309871,10.5494695 C11.5999871,10.5484695 11.5629871,10.6554695 11.5749871,10.6354695 C11.6719871,10.8644695 11.7479871,11.0454695 11.8859871,11.3724695 C11.1619871,11.1514695 10.6249871,10.8394695 10.0269871,11.2234695 C10.1489871,11.3004695 10.2589871,11.3694695 10.4089871,11.4654695 C10.1069871,11.4854695 9.84598714,11.5034695 9.42998714,11.5304695 C9.69098714,11.0554695 9.88498714,10.7004695 10.0719871,10.3594695 C10.4109871,10.4994695 10.6279871,10.5894695 10.9689871,10.7304695 C10.8909871,10.3804695 10.8429871,10.1664695 10.7789871,9.88146946 C11.1059871,9.90246946 11.3449871,9.91946946 11.5979871,9.93746946 C11.5559871,9.75346946 11.5249871,9.61846946 11.4819871,9.43346946 L12.2319871,9.43346946 C12.2789871,9.08846946 12.3429871,8.81946946 12.8219871,8.87046946 C13.0779871,8.89846946 12.9199871,8.32146946 13.3819871,8.33146946 C13.6149871,8.33646946 13.8549871,8.02446946 14.0929871,7.85546946 C14.4029871,8.16346946 14.7209871,8.48146946 15.0389871,8.79846946 C15.0829871,8.76446946 15.1269871,8.73046946 15.1709871,8.69546946 C15.0139871,8.32246946 14.8559871,7.95046946 14.6999871,7.58246946 C15.0329871,7.35546946 15.2769871,7.12046946 15.5679871,7.00046946 C17.7349871,6.10846946 19.7909871,6.21946946 21.6649871,7.75046946 C21.9209871,7.95846946 22.1609871,8.18846946 22.4229871,8.38846946 C23.6089871,9.29346946 24.7379871,10.2504695 26.1929871,10.7774695 C27.7559871,11.3454695 29.2729871,11.7304695 30.8839871,11.0814695 C31.7979871,10.7144695 32.7669871,10.4254695 33.5949871,9.91346946 C34.4909871,9.36046946 35.2509871,8.58746946 36.0719871,7.91346946 C36.8839871,7.24646946 37.7549871,6.77346946 38.8699871,6.86046946 C39.7469871,6.93046946 40.6309871,6.89246946 41.5119871,6.91846946 C42.0629871,6.93446946 42.5769871,7.01146946 43.0239871,7.43446946 C43.2209871,7.62046946 43.6249871,7.58646946 43.8249871,7.62946946 C44.3509871,8.67446946 45.2569871,9.18346946 46.1649871,9.66246946 C45.9839871,9.80746946 45.8419871,9.91946946 45.6999871,10.0324695 C45.7169871,10.0674695 45.7339871,10.1044695 45.7519871,10.1394695 C46.1169871,10.0464695 46.4809871,9.95246946 46.8379871,9.86046946 C47.1349871,10.7904695 47.1349871,10.7904695 46.3459871,11.2434695 C46.3919871,11.5424695 46.4379871,11.8434695 46.4919871,12.1954695 C45.8909871,12.2114695 45.6829871,11.9374695 45.6749871,11.4784695 C45.6649871,10.8874695 45.6749871,10.8874695 45.2169871,10.5374695 C45.1339871,10.7394695 45.0519871,10.9394695 44.9699871,11.1394695 C44.7379871,10.8404695 44.5059871,10.5424695 44.1489871,10.0834695 C44.2259871,10.5174695 44.2139871,10.7974695 44.3289871,11.0094695 C44.4499871,11.2344695 44.6959871,11.3644695 44.9439871,11.0994695 L44.9439871,11.0994695 Z M46.9029871,20.1184695 L46.9299871,20.1434695 C46.6639871,19.9234695 46.3979871,19.7024695 46.1439871,19.4924695 C46.5489871,18.8644695 46.9649871,18.2054695 47.4039871,17.5634695 C47.4389871,17.5114695 47.6359871,17.5704695 47.8919871,17.5864695 C47.3299871,16.9434695 48.6029871,16.8024695 48.1749871,16.0094695 C47.1809871,16.8184695 46.3729871,17.6974695 45.6409871,18.6414695 C45.2099871,19.1944695 45.0249871,19.8424695 44.9189871,20.5634695 C44.6489871,22.4074695 44.2509871,24.2334695 43.9009871,26.0674695 C43.7779871,26.7134695 43.7419871,27.3974695 43.4979871,27.9954695 C42.8499871,29.5884695 42.1089871,31.1434695 41.4079871,32.7144695 C41.3299871,32.8904695 41.2709871,33.0744695 41.2039871,33.2554695 C41.6109871,33.0584695 41.8309871,32.7234695 42.1349871,32.5074695 C42.4529871,32.2824695 42.2579871,31.9434695 42.4029871,31.7434695 C42.5609871,31.5254695 42.8649871,31.4134695 43.1019871,31.2504695 C43.1249871,31.2344695 43.1249871,31.1854695 43.1369871,31.1464695 C43.0799871,30.9554695 43.0199871,30.7594695 42.9629871,30.5684695 C43.1839871,30.4404695 43.3629871,30.3354695 43.5289871,30.2384695 C43.4869871,29.9874695 43.4529871,29.7814695 43.4089871,29.5214695 C43.6389871,29.4884695 43.8279871,29.4634695 44.1379871,29.4194695 C43.6269871,29.8794695 44.0619871,30.4814695 43.6039871,30.8914695 C43.3699871,31.1004695 43.0959871,31.9634695 43.0859871,31.9704695 C43.0639871,32.3374695 43.1499871,32.8274695 43.0099871,32.9044695 C42.5769871,33.1414695 42.4989871,33.4534695 42.5049871,33.8784695 C42.5069871,34.0034695 42.4189871,34.1634695 42.3219871,34.2514695 C42.0379871,34.5084695 41.6269871,34.6714695 41.7309871,35.1744695 C41.3379871,35.3364695 41.2089871,35.6884695 41.0559871,36.0474695 C40.9619871,36.2684695 40.7899871,36.5264695 40.5859871,36.6164695 C39.8679871,36.9334695 39.4949871,37.7984695 38.6029871,37.8364695 C38.4949871,37.8404695 38.3689871,38.0024695 38.2929871,38.1194695 C38.0689871,38.4664695 37.8659871,38.8274695 37.5689871,39.3274695 C39.4359871,38.8294695 40.8699871,37.9954695 41.8799871,36.5724695 C42.4039871,35.8334695 42.7969871,34.9964695 43.2069871,34.1834695 C43.7349871,33.1374695 44.3299871,32.1064695 44.7039871,31.0044695 C45.4819871,28.7154695 46.0939871,26.3704695 46.8539871,24.0754695 C47.2089871,23.0054695 47.6869871,21.9624695 48.2249871,20.9704695 C48.8169871,19.8784695 49.6099871,18.8954695 50.1869871,17.7964695 C50.6539871,16.9074695 51.1809871,16.0884695 51.8539871,15.3534695 C51.9749871,15.2214695 52.0639871,15.0614695 52.1679871,14.9144695 C51.2239871,15.4264695 50.4259871,16.0634695 49.6309871,16.7034695 C49.6169871,16.7154695 49.6579871,16.7824695 49.6439871,16.8084695 C49.3319871,17.4024695 49.2579871,17.4304695 48.5399871,17.3014695 C48.4659871,17.2884695 48.3709871,17.3934695 48.2279871,17.4764695 C48.4269871,17.6194695 48.5889871,17.7364695 48.8609871,17.9334695 C48.0359871,18.3904695 47.9979871,19.4324695 47.0999871,19.5754695 C47.1919871,19.7684695 47.2889871,19.9714695 47.4619871,20.3344695 C47.1549871,20.2154695 47.0289871,20.1674695 46.9029871,20.1184695 L46.9029871,20.1184695 Z M9.68598714,18.1304695 C9.30198714,18.3864695 9.07998714,18.1344695 8.88598714,17.8594695 C8.43298714,17.2164695 8.11598714,16.4704695 7.38198714,16.0484695 C7.22898714,15.9614695 7.18698714,15.6834695 7.07498714,15.4534695 C6.85398714,15.4884695 6.63198714,15.5254695 6.38398714,15.5654695 C6.80298714,16.2204695 7.18098714,16.8004695 7.54998714,17.3864695 C7.93798714,18.0034695 8.31498714,18.6284695 8.70298714,19.2464695 C9.55998714,20.6114695 10.4459871,21.9634695 10.9419871,23.5144695 C11.4319871,25.0484695 11.8849871,26.5934695 12.3639871,28.1314695 C12.6439871,29.0284695 12.9419871,29.9194695 13.2319871,30.8144695 C13.4289871,29.7014695 13.4569871,28.6104695 13.0759871,27.5804695 C12.9189871,27.1584695 13.1099871,26.9294695 13.3089871,26.6404695 C12.8539871,26.4884695 12.6299871,26.2014695 12.5349871,25.6654695 C12.8599871,25.7084695 13.1029871,25.7404695 13.3469871,25.7734695 C13.3729871,25.7214695 13.3989871,25.6684695 13.4249871,25.6164695 C12.9949871,25.2994695 12.5649871,24.9824695 12.0789871,24.6214695 C12.5259871,24.4034695 12.8509871,24.2444695 13.2429871,24.0534695 C12.7929871,23.7974695 12.2689871,23.9624695 12.0289871,23.3844695 C12.4179871,23.2064695 12.7949871,23.0354695 13.1899871,22.8554695 C13.1899871,22.5194695 13.2329871,22.1864695 13.1819871,21.8674695 C12.9869871,20.6524695 13.0499871,19.3474695 12.1209871,18.3624695 C11.3169871,17.5104695 10.4869871,16.6824695 9.65198714,15.8604695 C9.45098714,15.6624695 9.18398714,15.5304695 9.04798714,15.4384695 C8.74498714,15.6194695 8.50698714,15.7624695 8.15998714,15.9714695 C8.76198714,16.2644695 9.33198714,15.7954695 9.59498714,16.3814695 C9.09598714,16.7574695 9.09598714,16.7574695 9.12898714,17.4754695 C9.32998714,17.2454695 9.48698714,17.0674695 9.68398714,16.8434695 C9.90198714,16.9874695 10.1259871,17.1374695 10.4869871,17.3764695 C9.96298714,17.5254695 9.54598714,17.6374695 9.64898714,18.1684695 L9.68598714,18.1304695 Z M30.8449871,67.0614695 C28.2569871,67.0044695 25.6699871,65.8414695 23.4719871,63.7984695 C22.1769871,62.5964695 21.0859871,61.2374695 20.2409871,59.6504695 C19.0329871,57.3824695 17.7889871,55.1224695 16.9109871,52.7144695 C16.2499871,50.9004695 15.8869871,48.9744695 15.4469871,47.0854695 C14.9889871,45.1244695 14.5639871,43.1544695 14.1879871,41.1774695 C13.9499871,39.9204695 13.8089871,38.6434695 13.6539871,37.3714695 C13.5429871,36.4614695 13.5549871,35.5304695 13.3699871,34.6394695 C13.2319871,33.9744695 12.8669871,33.3564695 12.6019871,32.7164695 C12.4069871,32.2444695 12.1769871,31.7844695 12.0199871,31.3004695 C11.3079871,29.1064695 10.6919871,26.8764695 9.89198714,24.7144695 C9.37198714,23.3134695 8.60698714,22.0004695 7.92798714,20.6594695 C7.44698714,19.7114695 6.91798714,18.7884695 6.42398714,17.8474695 C5.70798714,16.4824695 4.66798714,15.4024695 3.41798714,14.5344695 C2.51998714,13.9104695 1.68198714,13.1824695 0.625987137,12.8004695 C0.271987137,12.6724695 -0.0520128631,12.4554695 0.00698713691,12.0014695 C0.0639871369,11.5674695 0.412987137,11.4344695 0.779987137,11.3234695 C1.48198714,11.1124695 2.17498714,10.8724695 2.87998714,10.6744695 C4.93198714,10.0994695 6.50398714,8.78846946 7.98798714,7.34946946 C8.35598714,6.99246946 8.68198714,6.59046946 9.00998714,6.19546946 C10.9679871,3.83546946 13.3179871,2.00846946 16.1899871,0.887469458 C19.4399871,-0.380530542 22.6729871,-0.326530542 25.7669871,1.28746946 C26.9819871,1.92246946 28.1969871,2.03646946 29.4759871,2.00446946 C30.4269871,1.98046946 31.2959871,1.72346946 32.1889871,1.28046946 C34.6489871,0.0604694577 37.2529871,-0.315530542 39.9869871,0.355469458 C43.6749871,1.25946946 46.5289871,3.38246946 48.9509871,6.20746946 C49.5699871,6.93046946 50.2369871,7.61646946 50.9349871,8.26346946 C52.5029871,9.71746946 54.3729871,10.6124695 56.4439871,11.1114695 C56.7639871,11.1894695 57.1059871,11.2514695 57.3809871,11.4144695 C57.6049871,11.5474695 57.8229871,11.7964695 57.9019871,12.0394695 C58.0039871,12.3544695 57.7689871,12.5924695 57.4719871,12.7154695 C56.5849871,13.0824695 55.8219871,13.6464695 55.0289871,14.1744695 C53.3059871,15.3194695 51.9609871,16.7474695 51.1179871,18.6674695 C50.6629871,19.7044695 50.0489871,20.6734695 49.4789871,21.6574695 C48.3119871,23.6744695 47.6369871,25.8834695 46.9389871,28.0844695 C46.5959871,29.1654695 46.3009871,30.2644695 45.9189871,31.3324695 C45.6489871,32.0874695 45.2889871,32.8134695 44.9339871,33.5354695 C44.4189871,34.5864695 43.9139871,35.6454695 43.3319871,36.6594695 C42.0869871,38.8294695 40.1099871,40.0254695 37.7409871,40.5864695 C37.1599871,40.7244695 36.8639871,40.9484695 36.6389871,41.4734695 C36.0619871,42.8174695 35.3969871,44.1224695 34.8239871,45.4684695 C33.7829871,47.9134695 33.3469871,50.4854695 33.7659871,53.1074695 C34.1239871,55.3494695 35.7449871,56.5494695 37.8289871,57.1174695 C38.7429871,57.3664695 39.7069871,57.4244695 40.6469871,57.5784695 C41.0069871,57.6384695 41.3769871,57.6814695 41.7149871,57.8064695 C42.5399871,58.1114695 42.7909871,58.5674695 42.6539871,59.4314695 C42.2929871,61.7144695 40.9719871,63.3614695 39.1609871,64.6864695 C36.8169871,66.4004695 34.1489871,67.0314695 30.8449871,67.0614695 L30.8449871,67.0614695 Z" id="Fill-82"></path>
            <path d="M38.0682871,4.54446946 C38.4472871,4.46646946 38.6982871,4.41346946 38.9492871,4.36146946 C38.6692871,4.28046946 38.3452871,3.88446946 38.0682871,4.54446946 M36.0542871,3.20346946 C35.9252871,3.38146946 35.3632871,3.18946946 35.6692871,3.64546946 C35.7852871,3.81846946 35.9902871,3.93346946 36.3302871,4.22546946 C36.1932871,3.71846946 36.1242871,3.46046946 36.0542871,3.20346946 M36.2342871,5.79946946 C36.2452871,5.06246946 36.1512871,4.80846946 35.8142871,4.74046946 C35.7502871,4.72746946 35.6412871,4.93846946 35.5432871,5.05746946 C35.7772871,5.30846946 35.9872871,5.53446946 36.2342871,5.79946946 M36.6682871,4.85046946 C37.0502871,5.02446946 37.0502871,5.02446946 37.5302871,4.48246946 C37.0222871,4.10546946 36.8872871,4.55946946 36.6682871,4.85046946 M33.1682871,5.89046946 C32.8592871,5.59746946 32.5572871,5.31246946 32.2562871,5.02646946 C32.2112871,5.05646946 32.1672871,5.08646946 32.1222871,5.11546946 C32.2912871,5.46846946 32.4602871,5.82046946 32.6312871,6.17946946 C32.8382871,6.06846946 32.9922871,5.98446946 33.1682871,5.89046946 M35.2542871,6.45746946 C35.3342871,6.64846946 35.4142871,6.83946946 35.4802871,6.99546946 C34.9502871,7.72646946 34.2082871,6.61846946 33.6682871,7.32846946 C33.7912871,7.37946946 33.8772871,7.40946946 33.9572871,7.45046946 C34.0882871,7.51746946 34.2152871,7.59046946 34.3442871,7.66146946 C34.2242871,7.75246946 34.0912871,7.93446946 33.9862871,7.91946946 C33.4832871,7.84946946 33.2492871,8.10346946 33.1582871,8.62246946 C32.8192871,8.47846946 32.5452871,8.35946946 32.2452871,8.23246946 L32.2452871,9.25846946 C32.1772871,9.29246946 32.1102871,9.32546946 32.0422871,9.35946946 C31.9772871,9.13246946 31.9122871,8.90446946 31.8322871,8.62746946 C31.6262871,8.88646946 31.5562871,8.94046946 31.5652871,8.96846946 C31.7272871,9.45746946 31.4882871,9.84446946 31.0682871,9.88146946 C30.5922871,9.92346946 30.1862871,10.3134695 29.6302871,10.0714695 C29.3612871,9.95546946 28.9492871,10.1724695 28.5792871,10.2424695 C28.3532871,10.0474695 28.1152871,9.84246946 27.8732871,9.63446946 C28.0022871,8.98646946 28.4232871,9.21246946 28.8052871,9.31946946 C28.8972871,9.32246946 28.9892871,9.32546946 29.0822871,9.32846946 C29.3592871,9.21646946 29.6352871,9.10346946 29.9642871,8.96946946 C29.2862871,8.33446946 29.2132871,7.99346946 29.3772871,7.03246946 C29.4202871,6.77646946 29.3362871,6.50046946 29.3112871,6.23246946 L29.2722871,6.27146946 C29.5712871,6.43846946 29.8702871,6.60646946 30.4362871,6.92246946 C30.0532871,7.10046946 29.8592871,7.19046946 29.6382871,7.29146946 C29.7952871,7.63546946 29.9112871,7.89046946 29.9852871,8.05346946 C30.4842871,8.08746946 30.9152871,8.11746946 31.2972871,8.14446946 C31.0772871,7.82446946 31.0772871,7.82446946 30.3722871,7.73946946 C30.5732871,6.94146946 30.5732871,6.94146946 30.9492871,6.81846946 C30.8052871,6.70346946 30.6622871,6.59146946 30.5232871,6.47546946 C30.4962871,6.45346946 30.4832871,6.41446946 30.4642871,6.38346946 C30.6152871,5.95646946 31.2142871,6.37246946 31.3912871,5.83646946 C31.5452871,5.36946946 31.5042871,5.07746946 31.1312871,4.78646946 C30.4982871,4.99346946 31.0132871,5.36846946 30.9882871,5.73846946 L30.2032871,5.73846946 C30.2302871,5.36446946 30.2172871,5.07846946 30.2782871,4.80946946 C30.3742871,4.39246946 30.5842871,4.07846946 31.1002871,4.17546946 C31.2962871,4.21146946 31.6482871,4.28546946 31.6702871,4.23246946 C31.8082871,3.90646946 32.1222871,4.05146946 32.3092871,3.93446946 C33.1252871,3.42246946 34.0632871,3.15746946 34.8562871,2.57946946 C35.2402871,2.29946946 35.8012871,2.07246946 36.3462871,2.39646946 C36.4342871,2.44746946 36.5832871,2.52346946 36.6342871,2.48846946 C37.3142871,2.01946946 37.9812871,2.75346946 38.6782871,2.50446946 C38.8362871,2.44746946 39.1312871,2.77546946 39.4172871,2.96246946 C39.5912871,2.90246946 39.8292871,2.82246946 40.1302871,2.72046946 C40.3452871,3.22446946 40.7422871,3.35046946 41.2022871,3.02346946 C41.3972871,3.33946946 41.5282871,3.55246946 41.6592871,3.76546946 C41.4952871,4.11046946 41.3312871,4.45646946 41.1682871,4.80246946 C41.0962871,5.03646946 41.0252871,5.27246946 40.9512871,5.51446946 C40.3042871,5.55546946 39.6922871,5.59546946 39.0802871,5.63346946 C38.9872871,5.63946946 38.8362871,5.67946946 38.8062871,5.63646946 C38.2692871,4.86446946 37.7992871,5.56646946 37.4242871,5.78246946 C37.0822871,5.97946946 36.4662871,5.83746946 36.3992871,6.45346946 C36.0042871,6.46646946 35.6092871,6.47946946 35.2142871,6.49246946 C35.2092871,6.21146946 35.5152871,5.92346946 35.1752871,5.65246946 C35.1512871,5.92446946 34.4512871,6.24546946 35.2542871,6.45746946" id="Fill-84"></path>
            <path d="M23.5916871,7.10596946 C23.1956871,7.13196946 22.8006871,7.15896946 22.3016871,7.19196946 C22.3546871,6.92296946 22.4036871,6.67696946 22.4376871,6.49996946 C22.1646871,6.49996946 21.8856871,6.58196946 21.6966871,6.48696946 C20.5276871,5.89496946 19.3446871,5.41596946 17.9886871,5.52096946 C17.8206871,5.53396946 17.6296871,5.25696946 17.5016871,5.15696946 C16.9406871,5.87396946 15.8576871,5.59296946 15.1206871,6.16996946 C14.3756871,6.75396946 13.4286871,7.08096946 12.5136871,7.54796946 C12.4406871,7.51196946 12.2846871,7.43596946 12.0496871,7.32096946 C11.9256871,7.62096946 11.8106871,7.89896946 11.6926871,8.18396946 L10.8206871,8.18396946 C10.7586871,7.64996946 11.3846871,7.67296946 11.4486871,7.42396946 C11.5766871,6.93296946 12.3156871,7.03996946 12.2596871,6.46396946 C12.6876871,6.34496946 12.8866871,5.94396946 13.2046871,5.68796946 C13.3646871,5.55896946 13.4296871,5.31596946 13.5846871,5.17596946 C13.8986871,4.89096946 14.2636871,4.40296946 14.5726871,4.42696946 C15.1256871,4.47096946 15.3796871,3.83396946 15.6816871,3.94096946 C16.2656871,4.14696946 16.4266871,3.66196946 16.8176871,3.46396946 C16.9156871,3.64196946 17.0046871,3.80296946 17.1736871,4.10696946 C17.2926871,3.29496946 17.7656871,3.08896946 18.3946871,3.06796946 C18.6216871,3.05996946 18.8456871,2.94496946 19.1376871,2.85896946 C19.2626871,2.99796946 19.4246871,3.17596946 19.6466871,3.42196946 C19.6306871,3.16896946 19.6186871,2.99396946 19.6026871,2.74096946 C19.9886871,2.77096946 20.3496871,2.79896946 20.8026871,2.83496946 C20.9256871,3.24796946 21.0586871,3.69196946 21.1506871,3.99696946 C21.2196871,4.60896946 20.2356871,4.70296946 20.7656871,5.47096946 C21.1866871,4.79296946 21.5496871,4.20796946 21.9126871,3.61996946 C21.5776871,3.41696946 21.3436871,3.28896946 21.1326871,3.12996946 C21.1036871,3.10996946 21.1826871,2.94296946 21.2316871,2.77596946 C21.5526871,2.86696946 21.8496871,2.94996946 22.0916871,3.01796946 C22.6376871,3.89796946 22.0586871,4.60696946 21.8956871,5.36396946 C21.8716871,5.47496946 21.9286871,5.60396946 21.9606871,5.78996946 C22.6516871,5.31196946 22.6996871,4.31496946 23.6116871,4.12296946 C23.9726871,4.72796946 23.4186871,4.96396946 23.1986871,5.31596946 C23.6476871,5.87196946 23.6476871,5.87196946 24.2786871,5.20896946 C24.2636871,5.79696946 24.6096871,6.30996946 24.1246871,6.77896946 C24.0356871,6.60496946 23.9456871,6.42996946 23.7946871,6.13196946 C23.6886871,6.56796946 23.6196871,6.85196946 23.5516871,7.13696946 L23.5916871,7.10596946 Z" id="Fill-86"></path>
            <path d="M41.1678871,4.80226946 C41.3318871,4.45626946 41.4958871,4.11126946 41.6588871,3.76526946 C42.3558871,3.95326946 42.3558871,3.95326946 42.3858871,4.68926946 C41.8758871,4.80226946 42.0528871,5.21826946 42.0028871,5.53726946 C42.2918871,5.33426946 42.5148871,5.10126946 42.4178871,4.71026946 C42.8068871,4.49726946 43.1648871,4.45226946 43.4568871,4.87826946 C43.6478871,5.15626946 43.8818871,5.37926946 44.2588871,5.35726946 C44.2938871,5.35426946 44.3288871,5.37026946 44.3648871,5.37426946 C44.7808871,5.42126946 44.4258871,6.18726946 45.0888871,6.10826946 C45.3138871,6.08026946 45.5958871,6.53626946 45.9078871,6.82326946 C45.6458871,7.06126946 45.4678871,7.22226946 45.2558871,7.41426946 C44.9008871,7.10926946 44.6148871,6.75726946 44.2458871,6.57626946 C43.8888871,6.40226946 43.4408871,6.42426946 43.0428871,6.32326946 C42.4358871,6.17026946 41.8358871,5.98526946 41.1768871,5.79826946 C41.5238871,5.40626946 41.5908871,5.08226946 41.1678871,4.80226946" id="Fill-88"></path>
            <path d="M48.5531871,12.4038695 C48.5421871,11.7038695 48.3411871,11.2858695 47.5151871,11.0888695 C47.7771871,11.5088695 47.9301871,11.7558695 48.1251871,12.0688695 C47.8761871,12.1838695 47.6911871,12.2688695 47.5111871,12.3518695 C47.0131871,11.6638695 47.0611871,11.0018695 47.5241871,10.2808695 C47.9111871,10.7738695 48.9071871,10.4388695 48.9251871,11.4898695 C49.1841871,11.3188695 49.3941871,11.1798695 49.7031871,10.9778695 C49.7281871,11.4308695 49.7461871,11.7698695 49.7651871,12.1158695 C49.5651871,12.0838695 49.4041871,11.8088695 49.2411871,12.1728695 C49.1841871,12.2998695 48.8611871,12.3078695 48.5531871,12.4038695" id="Fill-90"></path>
            <path d="M23.5516871,7.13726946 C23.9246871,7.13726946 24.2976871,7.13826946 24.6706871,7.13926946 L24.6506871,7.12026946 C24.6606871,7.15526946 24.6746871,7.19026946 24.6796871,7.22526946 C24.8036871,7.99126946 24.8706871,8.02126946 25.5516871,7.61626946 C25.7566871,8.22426946 25.7426871,8.24726946 26.2816871,8.56226946 C26.5346871,8.71026946 26.6706871,8.85826946 26.6206871,9.14926946 L26.6556871,9.10426946 C26.1316871,8.80426946 25.9466871,9.38226946 25.6116871,9.52526946 C24.9556871,9.26926946 25.7836871,8.61326946 25.1676871,8.28626946 C24.9286871,8.43726946 24.6446871,8.61726946 24.2806871,8.84726946 C24.2286871,8.45326946 24.1846871,8.12526946 24.1226871,7.66326946 C23.7376871,7.85626946 23.4316871,8.00826946 23.1156871,8.16526946 C22.8996871,7.63826946 23.3956871,7.43826946 23.5916871,7.10626946 L23.5516871,7.13726946 Z" id="Fill-92"></path>
            <path d="M29.0823871,9.32866946 C28.9893871,9.32566946 28.8973871,9.32266946 28.8053871,9.31966946 C28.6543871,9.11766946 28.5023871,8.91566946 28.3393871,8.69666946 C28.1503871,8.77466946 27.9673871,8.85066946 27.7353871,8.94666946 C27.7273871,8.32666946 27.8363871,7.72666946 27.2073871,7.25866946 C27.5563871,7.22566946 27.7773871,7.20566946 27.8913871,7.19466946 C28.2393871,7.65366946 28.5073871,8.10166946 28.8703871,8.45366946 C29.1593871,8.73366946 29.1723871,8.99866946 29.0823871,9.32866946" id="Fill-94"></path>
            <path d="M45.5926871,7.79446946 C45.8006871,7.46046946 45.9496871,7.22246946 46.1416871,6.91546946 C46.5306871,7.47446946 47.5676871,7.61546946 46.9436871,8.68246946 C46.5176871,8.40246946 46.1086871,8.13346946 45.5926871,7.79446946" id="Fill-96"></path>
            <path d="M26.6209871,9.14896946 C27.0619871,8.91196946 27.0619871,8.91196946 27.6909871,9.29296946 C27.5059871,9.57496946 27.3229871,9.85396946 27.1219871,10.1599695 C26.7439871,9.81196946 26.4089871,9.57296946 26.6559871,9.10396946 L26.6209871,9.14896946 Z" id="Fill-98"></path>
            <path d="M29.3108871,6.23296946 C28.5628871,6.03396946 28.5628871,6.03396946 28.6408871,5.24896946 C29.0478871,5.31096946 29.4558871,5.37396946 29.9808871,5.45396946 C29.8768871,5.61996946 29.7758871,5.86696946 29.7218871,5.85696946 C29.3588871,5.79096946 29.2598871,5.95796946 29.2718871,6.27096946 L29.3108871,6.23296946 Z" id="Fill-100"></path>
            <path d="M28.6604871,6.86766946 C28.3074871,6.62266946 27.7024871,6.73866946 27.6414871,6.11366946 C28.4284871,6.16066946 28.5664871,6.24766946 28.6604871,6.86766946" id="Fill-102"></path>
            <path d="M28.9685871,4.30036946 C29.2545871,4.31636946 29.5395871,4.33236946 29.9615871,4.35636946 C29.7935871,4.71236946 29.6955871,4.91936946 29.5525871,5.22236946 C29.3015871,4.95236946 29.0995871,4.73836946 28.8995871,4.52436946 C28.9225871,4.44836946 28.9455871,4.37436946 28.9685871,4.30036946" id="Fill-104"></path>
            <path d="M24.6707871,7.13916946 C24.7007871,6.91016946 24.7307871,6.68316946 24.7787871,6.31516946 C25.1107871,6.55116946 25.3227871,6.70216946 25.5807871,6.88516946 C25.4417871,6.99916946 25.3717871,7.10416946 25.2917871,7.11316946 C25.0807871,7.13716946 24.8647871,7.12016946 24.6507871,7.12016946 L24.6707871,7.13916946 Z" id="Fill-106"></path>
            <path d="M28.2351871,5.65486946 C27.5271871,5.41086946 27.5471871,5.14386946 27.8441871,4.68086946 C27.9721871,4.99986946 28.0611871,5.22186946 28.2351871,5.65486946" id="Fill-108"></path>
            <path d="M46.6444871,21.1040695 C46.5884871,21.5140695 46.6204871,21.9370695 46.2034871,22.2380695 C46.0954871,22.3160695 46.1864871,22.6710695 46.1864871,22.9680695 C45.9874871,22.9870695 45.7564871,23.0080695 45.4834871,23.0340695 C45.6794871,22.3960695 46.2254871,21.9000695 45.8334871,21.2040695 C46.0744871,21.1470695 46.3074871,21.0920695 46.5404871,21.0380695 C46.5894871,21.0390695 46.6244871,21.0610695 46.6444871,21.1040695" id="Fill-110"></path>
            <path d="M46.6444871,21.1040695 C46.6244871,21.0610695 46.5894871,21.0390695 46.5404871,21.0380695 C46.2934871,20.7590695 46.0464871,20.4800695 45.7474871,20.1430695 L46.9304871,20.1430695 L46.9034871,20.1190695 C46.9204871,20.4740695 47.1514871,20.8860695 46.6444871,21.1040695" id="Fill-112"></path>
            <path d="M9.64878714,18.1684695 C9.75378714,18.1474695 9.87778714,18.1564695 9.95978714,18.1024695 C10.0747871,18.0234695 10.1587871,17.8984695 10.3187871,17.7264695 C10.5567871,18.1374695 11.2737871,18.2574695 10.8897871,18.9934695 C10.7587871,18.9154695 10.6377871,18.8444695 10.5177871,18.7724695 L10.5527871,18.8004695 C10.4607871,18.7304695 10.3157871,18.5844695 10.2837871,18.6054695 C10.1217871,18.7134695 9.98878714,18.8654695 9.75378714,19.0904695 C9.72678714,18.7124695 9.70678714,18.4214695 9.68578714,18.1304695 L9.64878714,18.1684695 Z" id="Fill-114"></path>
            <path d="M11.6692871,22.2368695 C11.9532871,21.8708695 12.3072871,21.8578695 12.7292871,21.9888695 C12.1832871,22.7638695 12.0312871,22.7958695 11.6692871,22.2368695" id="Fill-116"></path>
            <path d="M10.5179871,18.7729695 C10.6219871,19.1799695 10.6599871,19.5739695 10.3099871,19.9779695 C10.0249871,19.4399695 10.2459871,19.1099695 10.5529871,18.7999695 L10.5179871,18.7729695 Z" id="Fill-118"></path>
        </g>
    </g>
</svg>