<?xml version="1.0" encoding="UTF-8"?>
<svg width="29px" height="53px" viewBox="0 0 29 53" version="1.1" xmlns="http://www.w3.org/2000/svg" xmlns:xlink="http://www.w3.org/1999/xlink">
    <!-- Generator: Sketch 61.2 (89653) - https://sketch.com -->
    <title>white_leave</title>
    <desc>Created with Sketch.</desc>
    <g id="Page-1" stroke="none" stroke-width="1" fill="none" fill-rule="evenodd">
        <path d="M11.2352492,34.3458893 C10.8332492,34.6748893 10.8332492,34.6748893 10.6092492,34.3458893 L11.2352492,34.3458893 Z M0.514249218,51.5848893 C0.944249218,51.4868893 1.33624922,51.3958893 1.81224922,51.2858893 C1.55324922,51.7348893 1.20024922,51.8358893 0.817249218,51.8778893 C0.640249218,51.8978893 0.512249218,51.8348893 0.514249218,51.5848893 L0.514249218,51.5848893 Z M23.9532492,7.76988931 L23.8672492,7.74888931 C23.8542492,7.68688931 23.8152492,7.61588931 23.8322492,7.56288931 C23.9582492,7.16988931 24.0092492,6.77488931 23.9502492,6.36388931 C23.9342492,6.25688931 23.9612492,6.13488931 24.0002492,6.03188931 C24.0982492,5.76788931 24.2742492,5.70588931 24.5692492,5.87388931 C24.3612492,6.51488931 24.1572492,7.14188931 23.9532492,7.76988931 L23.9532492,7.76988931 Z M21.5432492,4.05288931 C21.1262492,3.53188931 20.9552492,3.03888931 20.8512492,2.15088931 C21.4332492,2.34188931 21.6742492,2.79788931 21.7982492,3.34488931 C21.8032492,3.36888931 21.7622492,3.40488931 21.7442492,3.43288931 C21.6622492,3.33588931 21.5792492,3.23888931 21.4132492,3.04288931 C21.4632492,3.43488931 21.4982492,3.70588931 21.5432492,4.05288931 L21.5432492,4.05288931 Z M21.0612492,8.61288931 C20.0382492,7.89788931 19.4602492,6.89188931 19.0822492,5.63488931 C19.3502492,5.73788931 19.5352492,5.80788931 19.7452492,5.88788931 C19.7172492,5.74388931 19.6992492,5.64788931 19.6802492,5.54588931 C20.2972492,5.64988931 21.0862492,6.57388931 21.3742492,7.51388931 C21.2572492,7.60888931 21.1442492,7.69988931 21.0172492,7.80288931 C20.8612492,7.51488931 20.7332492,7.24588931 20.5762492,6.99488931 C20.4292492,6.75688931 20.5482492,6.35588931 20.0842492,6.21988931 C20.1752492,7.16188931 20.6682492,7.86488931 21.0612492,8.61288931 L21.0612492,8.61288931 Z M25.5052492,10.7198893 C25.8742492,11.0898893 25.7882492,11.5048893 25.6822492,11.8528893 C25.3752492,12.8588893 25.0052492,13.8448893 24.6642492,14.8258893 C24.4962492,14.8038893 24.3972492,14.7908893 24.2772492,14.7758893 C24.3182492,14.9548893 24.3462492,15.0778893 24.4032492,15.3278893 C24.0682492,14.8888893 24.0622492,14.8178893 24.2782492,14.5668893 C24.3342492,14.5018893 24.4672492,14.4338893 24.4582492,14.3958893 C24.3432492,13.9568893 24.7032492,13.6468893 24.7452492,13.2548893 C24.7622492,13.1048893 24.7702492,12.9538893 24.7822492,12.8038893 C24.7602492,12.7978893 24.7382492,12.7918893 24.7162492,12.7868893 L24.1312492,14.0678893 C24.2092492,13.0738893 24.4792492,12.1458893 24.8352492,11.2778893 L25.4472492,11.2778893 C25.4672492,11.0828893 25.4852492,10.9198893 25.5052492,10.7198893 L25.5052492,10.7198893 Z M21.0082492,14.4428893 C20.2732492,13.8098893 20.0812492,13.5278893 19.7012492,12.4918893 C19.6802492,12.4358893 19.7812492,12.3338893 19.8242492,12.2538893 C19.8322492,12.2408893 19.8322492,12.2228893 19.8412492,12.1778893 C19.5892492,12.2138893 19.4342492,12.1388893 19.5182492,11.8458893 C19.6422492,11.8458893 19.7652492,11.8258893 19.8792492,11.8528893 C19.9592492,11.8708893 20.0192492,11.9638893 20.0992492,11.9978893 C20.1452492,12.0178893 20.2122492,11.9878893 20.2952492,11.9758893 C20.1922492,11.8248893 20.1082492,11.7018893 20.0242492,11.5808893 C20.0812492,11.5078893 20.1172492,11.4498893 20.1662492,11.4048893 C20.1952492,11.3758893 20.2432492,11.3668893 20.3212492,11.3328893 C20.9382492,12.0808893 21.4422492,12.9038893 21.8682492,13.8018893 C21.1862492,13.9808893 21.1812492,13.9798893 20.8922492,13.5608893 C20.8112492,13.4438893 20.7362492,13.3228893 20.6582492,13.2028893 C20.6232492,13.2198893 20.5872492,13.2368893 20.5512492,13.2528893 C20.6972492,13.6328893 20.8432492,14.0138893 21.0082492,14.4428893 L21.0082492,14.4428893 Z M26.8722492,17.9088893 C26.4572492,18.7708893 25.9652492,19.5728893 25.1682492,20.2278893 C25.0902492,19.4538893 25.8712492,19.0108893 25.7022492,18.2098893 C25.5862492,18.3428893 25.5072492,18.4118893 25.4542492,18.4978893 C25.2882492,18.7658893 25.1252492,19.0358893 24.9732492,19.3128893 C24.8492492,19.5398893 24.6972492,19.6878893 24.4042492,19.6348893 C24.8332492,18.4938893 26.0132492,16.8058893 26.2892492,16.9238893 C26.5582492,17.1488893 26.2032492,17.1918893 26.1792492,17.2888893 C26.3102492,17.3918893 26.4142492,17.5418893 26.5142492,17.5388893 C26.8772492,17.5318893 26.4502492,17.1848893 26.6872492,17.0898893 C27.1522492,17.3728893 26.6712492,17.5798893 26.6252492,17.8188893 C26.7112492,17.8498893 26.7942492,17.8798893 26.8722492,17.9088893 L26.8722492,17.9088893 Z M25.2452492,23.8888893 C24.7042492,24.1108893 24.5272492,24.7318893 23.9332492,24.9148893 C23.6822492,24.9918893 23.7222492,25.1218893 23.3332492,25.0578893 C24.0432492,24.2688893 24.7742492,23.5498893 25.6772492,23.0228893 C25.7662492,23.1608893 25.8452492,23.2828893 25.9672492,23.4738893 C25.9882492,23.1868893 26.0032492,22.9898893 26.0272492,22.6548893 C26.1392492,22.9658893 26.1602492,23.1608893 26.2652492,23.2838893 C26.5172492,23.5808893 26.4022492,23.8268893 26.2072492,24.0658893 C26.0362492,24.2738893 25.8612492,24.4868893 25.6542492,24.6548893 C25.0262492,25.1648893 24.3832492,25.6578893 23.7412492,26.1518893 C23.6302492,26.2378893 23.4952492,26.2938893 23.3692492,26.3668893 C23.2402492,26.0878893 23.3592492,25.9718893 23.5342492,25.8218893 C24.1912492,25.2558893 24.8172492,24.6568893 25.2452492,23.8888893 L25.2452492,23.8888893 Z M18.6112492,24.1018893 C18.5962492,23.8488893 18.6052492,23.5938893 18.9032492,23.5378893 C19.1902492,23.4848893 19.2932492,23.7218893 19.3582492,23.9418893 C19.5992492,24.7588893 19.9182492,25.5578893 19.9552492,26.4268893 C19.9662492,26.6908893 19.9262492,26.8948893 19.6652492,26.9928893 C19.7712492,27.1078893 19.8452492,27.1868893 20.0182492,27.3728893 C19.7102492,27.3198893 19.5542492,27.2928893 19.3832492,27.2638893 C19.4702492,27.0288893 19.5462492,26.8238893 19.6222492,26.6198893 C19.1612492,26.3478893 19.1572492,26.3378893 19.0982492,25.8508893 C19.0412492,25.3698893 19.0152492,24.8818893 18.7812492,24.2878893 C18.2822492,25.4688893 18.8092492,26.5208893 18.7042492,27.5878893 C18.6022492,27.6238893 18.4712492,27.6708893 18.3342492,27.7198893 C18.0422492,26.8008893 17.9652492,25.9038893 17.9042492,25.0048893 C17.8932492,24.8488893 17.8802492,24.6788893 17.9272492,24.5358893 C17.9742492,24.3968893 18.0772492,24.2538893 18.1942492,24.1668893 C18.2802492,24.1028893 18.4312492,24.1248893 18.6112492,24.1018893 L18.6112492,24.1018893 Z M19.7322492,17.4588893 C20.3662492,17.7798893 20.6952492,18.3018893 21.0272492,18.8278893 C21.2522492,19.1848893 21.3682492,19.5188893 20.9872492,19.8908893 C20.6532492,19.4608893 20.3142492,19.0238893 19.9742492,18.5868893 C19.9922492,18.8008893 20.0762492,18.9778893 20.1492492,19.1578893 C20.4122492,19.8098893 20.9942492,20.3418893 20.8822492,21.1348893 C20.8742492,21.1928893 20.9342492,21.2568893 20.9562492,21.3208893 C21.0502492,21.5948893 21.1422492,21.8698893 21.2352492,22.1448893 C19.8992492,21.1378893 19.2422492,19.7568893 18.8532492,18.2248893 C18.8222492,18.1048893 18.9232492,17.9498893 18.9802492,17.7548893 C19.0682492,17.9128893 19.1152492,17.9988893 19.1712492,18.0998893 C19.2982492,17.9578893 19.3912492,17.8548893 19.5162492,17.7158893 C19.5352492,17.9068893 19.5482492,18.0268893 19.5632492,18.1718893 C19.9522492,17.9928893 19.7072492,17.7278893 19.7322492,17.4588893 L19.7322492,17.4588893 Z M20.4962492,31.3858893 C21.3182492,30.3868893 23.2182492,29.2438893 24.2442492,29.1538893 C24.2552492,29.3208893 24.2222492,29.5068893 24.2892492,29.6458893 C24.3602492,29.7928893 24.5262492,29.8948893 24.6502492,30.0178893 C23.5782492,31.0588893 21.4252492,32.5888893 20.6582492,32.8668893 C20.2712492,32.4288893 20.9602492,32.4628893 20.9872492,32.1388893 C21.0082492,31.9058893 21.3592492,31.6818893 21.5922492,31.4908893 C21.8532492,31.2778893 22.1412492,31.0958893 22.4292492,30.9188893 C22.7122492,30.7458893 23.0082492,30.5958893 23.2992492,30.4348893 C23.2822492,30.3918893 23.2652492,30.3478893 23.2482492,30.3038893 C22.9542492,30.3858893 22.6542492,30.4498893 22.3702492,30.5558893 C22.0552492,30.6728893 21.6632492,30.7528893 21.4742492,30.9868893 C21.2492492,31.2638893 20.8302492,31.1708893 20.6952492,31.5138893 C20.6302492,31.4718893 20.5652492,31.4298893 20.4962492,31.3858893 L20.4962492,31.3858893 Z M15.9422492,28.4818893 C15.8052492,28.8518893 15.6982492,29.1388893 15.5842492,29.4498893 C15.6592492,29.5448893 15.7522492,29.6628893 15.8602492,29.7998893 C15.9242492,29.4268893 16.1512492,29.2498893 16.5092492,29.1098893 C16.5592492,29.2668893 16.6462492,29.4068893 16.6402492,29.5418893 C16.6232492,29.9238893 16.5682492,30.3028893 16.5292492,30.6838893 C16.4772492,31.1998893 16.4452492,31.7178893 16.3682492,32.2298893 C16.2922492,32.7408893 16.1412492,33.2418893 16.0772492,33.7528893 C16.0142492,34.2558893 15.6192492,34.6338893 15.6022492,35.1478893 C15.6012492,35.1798893 15.4672492,35.2078893 15.2572492,35.2948893 C15.5492492,34.9688893 15.1032492,34.5978893 15.5722492,34.4608893 C15.3232492,34.1018893 15.3232492,34.1018893 15.4722492,33.7598893 C15.4962492,33.7038893 15.5472492,33.6298893 15.5292492,33.5918893 C15.2952492,33.0898893 15.4852492,32.5708893 15.4562492,32.0608893 C15.4312492,31.6358893 15.4532492,31.2068893 15.2072492,30.7738893 C15.1262492,31.6608893 15.0482492,32.5038893 14.9712492,33.3358893 C14.8962492,33.3278893 14.8322492,33.3218893 14.7932492,33.3178893 L14.7932492,33.9628893 C14.4642492,33.9428893 14.9752492,34.4428893 14.5452492,34.3608893 C14.5282492,34.3208893 14.4992492,34.2808893 14.4972492,34.2388893 C14.4082492,32.7258893 14.4722492,31.2218893 14.7792492,29.7358893 C14.8422492,29.4298893 14.9642492,29.1358893 15.0582492,28.8358893 C15.4172492,28.9048893 15.2102492,28.5118893 15.4162492,28.4198893 C15.5422492,28.4348893 15.6952492,28.4518893 15.9422492,28.4818893 L15.9422492,28.4818893 Z M8.98924922,48.8418893 C8.94224922,48.7958893 8.89524922,48.7508893 8.84824922,48.7058893 C8.91224922,48.4088893 9.15724922,48.3958893 9.37624922,48.3928893 C9.47924922,48.3918893 9.58524922,48.4998893 9.66624922,48.5458893 C9.91124922,48.4498893 10.1632492,48.2968893 10.4332492,48.2538893 C11.2102492,48.1278893 11.9942492,48.0508893 12.7742492,47.9428893 C12.8802492,47.9278893 12.9762492,47.8408893 13.1792492,47.7338893 C12.5362492,47.7338893 12.0062492,47.6598893 11.5072492,47.7538893 C11.0122492,47.8468893 10.5432492,47.5328893 10.0742492,47.7718893 C10.0402492,47.6628893 10.0152492,47.5818893 9.97724922,47.4608893 C9.70524922,47.5678893 9.45024922,47.6658893 9.17724922,47.7718893 C9.08324922,47.4338893 9.28724922,47.2688893 9.54024922,47.1708893 C9.83324922,47.0578893 10.1402492,46.9778893 10.4462492,46.9038893 C11.6262492,46.6168893 12.8252492,46.7208893 14.0182492,46.7628893 C14.4012492,46.7768893 14.7882492,46.8768893 15.1582492,46.9888893 C15.3412492,47.0438893 15.3242492,47.2238893 15.1572492,47.3988893 C14.9972492,47.2088893 14.8232492,47.0148893 14.4982492,47.1008893 C14.9952492,47.4688893 14.9952492,47.4688893 14.8042492,47.8208893 C14.7162492,47.6928893 14.6312492,47.5698893 14.5222492,47.4098893 C14.4252492,47.5468893 14.3522492,47.6508893 14.2782492,47.7538893 C14.2122492,47.8468893 14.1442492,47.9388893 13.9912492,48.1488893 C14.3142492,48.0618893 14.4912492,48.0138893 14.6742492,47.9648893 C14.7762492,48.7038893 14.7732492,48.7348893 14.2012492,48.8618893 C12.8242492,49.1668893 11.4342492,49.0808893 10.0492492,49.0078893 C10.0392492,48.8638893 10.0322492,48.7678893 10.0232492,48.6378893 C9.67224922,49.0268893 9.61124922,49.0188893 9.08624922,48.5198893 C9.05424922,48.6258893 9.02124922,48.7338893 8.98924922,48.8418893 L8.98924922,48.8418893 Z M12.7612492,43.9818893 C13.0652492,43.6978893 13.0652492,43.6978893 13.3242492,43.9738893 C13.5292492,43.7348893 13.7132492,43.7138893 14.1352492,43.5418893 C14.3362492,43.4598893 14.4692492,43.5748893 14.6262492,43.5238893 C15.6952492,43.1788893 16.7892492,43.1968893 17.8892492,43.2938893 C17.9532492,43.2998893 18.0232492,43.2378893 18.2342492,43.1418893 C17.1242492,42.9558893 16.1812492,42.7528893 15.2062492,42.9158893 C15.1232492,42.9298893 14.9742492,42.9248893 14.9552492,42.8828893 C14.8092492,42.5648893 14.6002492,42.8168893 14.4422492,42.8358893 C14.2772492,42.8558893 14.1252492,42.9808893 13.9562492,43.0658893 C13.8662492,42.9438893 13.7952492,42.8468893 13.7222492,42.7458893 C13.5372492,42.9088893 13.3632492,43.0148893 13.1042492,42.7928893 C13.5092492,42.5238893 13.8202492,42.1598893 14.3172492,42.0688893 C15.6642492,41.8188893 16.9792492,41.3948893 18.3752492,41.4198893 C18.8702492,41.4288893 19.2792492,41.4948893 19.5052492,41.9728893 C19.6522492,41.8918893 19.7522492,41.8368893 19.8552492,41.7808893 C19.8882492,41.8858893 19.9222492,41.9908893 19.9572492,42.0988893 C20.1782492,41.9738893 20.3992492,41.8098893 20.5832492,42.1998893 C20.3972492,42.2608893 20.2292492,42.3178893 20.0602492,42.3738893 C20.0632492,42.4088893 20.0662492,42.4458893 20.0692492,42.4818893 C20.2742492,42.5108893 20.4802492,42.5398893 20.6802492,42.5688893 C20.7932492,42.4138893 20.8852492,42.2878893 21.0142492,42.1118893 C21.0372492,42.3878893 21.0522492,42.5768893 21.0702492,42.8048893 C20.7222492,42.8718893 20.7042492,43.1658893 20.7162492,43.4338893 C20.5392492,43.5408893 20.3062492,43.7358893 20.2612492,43.6998893 C19.9052492,43.4098893 20.1072492,43.9418893 19.9162492,43.9178893 C19.8002492,43.9048893 19.6732492,44.0178893 19.5472492,44.0598893 C18.2002492,44.5058893 16.8072492,44.5618893 15.4072492,44.5278893 C14.9122492,44.5158893 14.4182492,44.4678893 13.9232492,44.4398893 C13.5712492,44.4188893 13.1802492,44.5008893 13.0032492,44.0528893 C12.9882492,44.0148893 12.8812492,44.0148893 12.7612492,43.9818893 L12.7612492,43.9818893 Z M4.46424922,38.7258893 C4.75024922,38.6238893 5.16324922,38.6068893 5.29624922,38.4048893 C5.57224922,37.9838893 5.86124922,38.5308893 6.07924922,38.2318893 C6.12624922,38.5188893 6.16124922,38.7298893 6.19924922,38.9648893 C6.08824922,39.0078893 5.98624922,39.0468893 5.82624922,39.1088893 C6.31124922,39.1378893 6.32924922,39.4648893 6.35924922,39.7868893 C6.48924922,41.2138893 6.35924922,42.6278893 6.11624922,44.0318893 C6.01624922,44.6048893 5.83124922,45.1618893 5.68124922,45.7418893 C5.51824922,45.6538893 5.41224922,45.5958893 5.30124922,45.5358893 C5.41724922,45.4038893 5.51524922,45.2888893 5.69924922,45.0768893 C5.37924922,45.1318893 5.20224922,45.1618893 5.02524922,45.1938893 C5.01624922,45.1668893 5.00724922,45.1408893 4.99924922,45.1138893 L5.75224922,44.6508893 C5.74224922,44.6268893 5.73324922,44.6038893 5.72324922,44.5798893 C5.49724922,44.6318893 5.27124922,44.6848893 4.98624922,44.7498893 C5.16124922,43.7278893 5.16924922,42.7228893 5.12724922,41.7168893 C5.07524922,41.7118893 5.02424922,41.7068893 4.97324922,41.7018893 C4.78624922,42.7178893 4.59824922,43.7338893 4.42124922,44.6978893 C4.26224922,44.6728893 4.12024922,44.6508893 3.95424922,44.6248893 C3.86324922,43.1878893 3.84924922,41.7448893 3.91124922,40.3008893 C3.92324922,40.0348893 3.95524922,39.7738893 4.14424922,39.5928893 C4.28924922,39.6178893 4.40524922,39.6398893 4.52124922,39.6598893 C4.48424922,39.5058893 4.40024922,39.4688893 4.32924922,39.4138893 C4.12424922,39.2578893 4.03124922,39.0888893 4.29224922,38.8968893 C4.34924922,38.8398893 4.40624922,38.7828893 4.46424922,38.7258893 L4.46424922,38.7258893 Z M10.5502492,40.6438893 C10.6772492,40.9668893 10.6022492,41.2338893 10.3342492,41.4558893 C10.0232492,41.2178893 10.1782492,40.9428893 10.2162492,40.6588893 L10.5652492,40.6588893 C10.5482492,40.5738893 10.5292492,40.4888893 10.5112492,40.4028893 C10.4102492,40.4358893 10.3212492,40.4658893 10.1852492,40.5118893 C10.2562492,40.3438893 10.3312492,40.2448893 10.3332492,40.1448893 C10.3502492,39.2958893 10.3582492,38.4478893 10.3572492,37.5978893 C10.3572492,37.4968893 10.2882492,37.3968893 10.2162492,37.1998893 C9.85824922,38.5308893 9.92224922,39.8298893 9.56624922,41.0948893 C9.37924922,41.0238893 9.26324922,40.9788893 9.14924922,40.9348893 C9.08024922,41.0188893 9.01524922,41.0978893 8.88424922,41.2588893 C8.86924922,41.0258893 8.84124922,40.8788893 8.85424922,40.7368893 C8.93124922,39.8838893 9.00024922,39.0308893 9.10724922,38.1808893 C9.20824922,37.3768893 9.35424922,36.5778893 9.47824922,35.7768893 C9.50824922,35.5778893 9.60024922,35.4498893 9.81424922,35.4468893 C9.95524922,35.6138893 10.0952492,35.7808893 10.2252492,35.9348893 C10.4142492,35.8738893 10.5972492,35.8158893 10.7932492,35.7528893 C10.7192492,35.6168893 10.6642492,35.5148893 10.5972492,35.3908893 C10.8812492,35.2998893 11.1242492,35.2208893 11.3962492,35.1328893 C11.4292492,35.2698893 11.4742492,35.3738893 11.4772492,35.4808893 C11.5002492,36.1808893 11.5152492,36.8798893 11.5302492,37.5798893 C11.5522492,38.6178893 11.2672492,39.5818893 10.8092492,40.4998893 C10.7732492,40.5738893 10.6392492,40.5978893 10.5502492,40.6438893 L10.5502492,40.6438893 Z M23.4232492,35.7518893 C23.5692492,35.8068893 23.6472492,35.7788893 23.7382492,35.6238893 C23.8502492,35.4358893 24.0212492,35.4578893 24.1372492,35.6508893 C23.9982492,36.0268893 23.7392492,36.2548893 23.4202492,36.3438893 L23.4202492,36.8788893 C21.9322492,37.5938893 20.3562492,37.8848893 18.5992492,38.0498893 C18.7422492,37.8588893 18.7892492,37.7288893 18.8722492,37.6998893 C18.9812492,37.6628893 19.1552492,37.7608893 19.2352492,37.7058893 C19.9292492,37.2268893 20.7412492,37.0708893 21.5242492,36.8338893 C21.6612492,36.7918893 21.7882492,36.7148893 21.9202492,36.6548893 C21.7022492,36.5768893 21.5012492,36.5678893 21.3072492,36.5998893 C20.6492492,36.7078893 19.9962492,36.8478893 19.3362492,36.9368893 C19.1712492,36.9588893 19.0562492,36.9718893 18.9522492,37.1118893 C18.8352492,37.2688893 18.6902492,37.3278893 18.4842492,37.2028893 C18.3882492,37.1458893 18.2272492,37.1938893 18.0952492,37.1938893 C18.2902492,37.0018893 18.5022492,36.8738893 18.7302492,36.7868893 C19.4882492,36.4968893 20.2442492,36.1998893 21.0152492,35.9488893 C21.6352492,35.7458893 22.2772492,35.6098893 22.9082492,35.4368893 C23.2142492,35.3528893 23.3812492,35.4708893 23.4412492,35.7688893 L23.4232492,35.7518893 Z M18.8322492,30.9218893 C18.2472492,32.7118893 17.2582492,34.2748893 16.2762492,35.8568893 C16.2922492,35.7388893 16.2912492,35.6158893 16.3272492,35.5038893 C16.7932492,34.0358893 17.1252492,32.5438893 17.2142492,31.0018893 C17.2382492,30.5748893 17.3042492,30.1518893 17.3352492,29.7248893 C17.3942492,28.9068893 17.2362492,28.1068893 17.1152492,27.3028893 C17.0342492,26.7668893 16.7612492,26.3268893 16.4432492,25.9168893 C16.0642492,25.4268893 15.7022492,25.4758893 15.4302492,26.0368893 C14.4552492,28.0478893 13.8072492,30.1538893 13.7512492,32.3998893 C13.7222492,33.5488893 13.7562492,34.7058893 13.8692492,35.8498893 C13.9412492,36.5798893 14.1812492,37.2998893 14.3992492,38.0088893 C14.5042492,38.3518893 14.4782492,38.6038893 14.2552492,38.8798893 C13.5152492,39.7918893 12.8142492,40.7368893 12.0522492,41.6288893 C11.7072492,42.0338893 11.2542492,42.3458893 10.8492492,42.6998893 C10.8132492,42.6728893 10.7772492,42.6468893 10.7402492,42.6198893 C10.7862492,42.5108893 10.8302492,42.4018893 10.8772492,42.2928893 C11.2322492,41.4898893 11.6262492,40.6998893 11.9292492,39.8768893 C12.1202492,39.3548893 12.2442492,38.7868893 12.2792492,38.2328893 C12.3602492,36.9688893 12.3242492,35.7038893 12.0592492,34.4568893 C11.8732492,33.5818893 11.4022492,32.8278893 10.9932492,32.0528893 C10.7622492,31.6158893 10.4332492,31.6098893 10.1692492,32.0448893 C9.89124922,32.5028893 9.66224922,33.0008893 9.47824922,33.5058893 C8.82424922,35.2988893 8.48624922,37.1558893 8.39824922,39.0648893 C8.34724922,40.1438893 8.22624922,41.2208893 8.14724922,42.2988893 C8.09024922,43.0688893 8.14724922,43.8298893 8.38724922,44.5748893 C7.62824922,45.2648893 6.88724922,45.9368893 6.14724922,46.6088893 C6.12124922,46.5948893 6.09624922,46.5808893 6.07024922,46.5668893 C6.16024922,46.3208893 6.24824922,46.0738893 6.33924922,45.8268893 C7.18624922,43.5088893 7.40024922,41.1368893 6.96724922,38.7028893 C6.71324922,37.2738893 6.14324922,35.9908893 5.24824922,34.8528893 C5.14824922,34.7248893 4.96724922,34.5648893 4.84124922,34.5788893 C4.71624922,34.5928893 4.55724922,34.7888893 4.50924922,34.9368893 C4.17024922,35.9868893 3.80824922,37.0338893 3.54824922,38.1048893 C3.33124922,38.9988893 3.16624922,39.9208893 3.11424922,40.8378893 C3.04324922,42.0998893 3.05724922,43.3688893 3.11424922,44.6318893 C3.17124922,45.8848893 3.59724922,47.0588893 4.09624922,48.2008893 C4.11324922,48.2418893 4.12724922,48.2838893 4.16224922,48.3758893 C3.72124922,48.7278893 3.26724922,49.0888893 2.82024922,49.4448893 C2.29824922,49.0888893 1.80324922,48.7448893 1.30024922,48.4118893 C1.19124922,48.3388893 1.06224922,48.2788893 0.934249218,48.2538893 C0.686249218,48.2048893 0.507249218,48.3198893 0.370249218,48.5338893 C0.234249218,48.7448893 0.292249218,48.9338893 0.429249218,49.0918893 C0.560249218,49.2428893 0.730249218,49.3618893 0.888249218,49.4878893 C1.14924922,49.6968893 1.41524922,49.9008893 1.75524922,50.1668893 C1.31324922,50.4388893 0.939249218,50.6678893 0.565249218,50.8988893 C0.276249218,51.0758893 -0.0667507816,51.2348893 0.0112492184,51.6578893 C0.0932492184,52.1008893 0.467249218,52.1388893 0.834249218,52.2208893 C1.20424922,52.3038893 1.50124922,52.2118893 1.78124922,52.0038893 C2.10724922,51.7618893 2.42424922,51.5078893 2.81224922,51.2068893 C3.03524922,51.5228893 3.25024922,51.8248893 3.46424922,52.1268893 C3.59524922,52.3108893 3.70324922,52.5158893 3.86224922,52.6688893 C4.08924922,52.8888893 4.33124922,52.8818893 4.60824922,52.7268893 C4.86724922,52.5798893 4.92524922,52.3458893 4.87224922,52.0898893 C4.83624922,51.9198893 4.75024922,51.7508893 4.65124922,51.6058893 C4.38624922,51.2128893 4.10424922,50.8318893 3.82024922,50.4368893 C4.31824922,49.9258893 4.80724922,49.4068893 5.32124922,48.9118893 C5.41124922,48.8258893 5.63924922,48.7778893 5.74424922,48.8298893 C6.75824922,49.3368893 7.88124922,49.3628893 8.95924922,49.5748893 C10.4742492,49.8738893 12.0132492,49.9368893 13.5402492,49.7248893 C15.2162492,49.4928893 16.8872492,49.1898893 18.3442492,48.2288893 C18.4942492,48.1298893 18.6562492,48.0368893 18.7782492,47.9088893 C19.0982492,47.5708893 19.0242492,47.2058893 18.5822492,47.0788893 C17.6722492,46.8188893 16.7562492,46.5698893 15.8332492,46.3638893 C14.6822492,46.1068893 13.5092492,46.0628893 12.3312492,46.0568893 C10.9012492,46.0498893 9.56024922,46.3778893 8.27024922,46.9658893 C7.94324922,47.1148893 7.61124922,47.2538893 7.23824922,47.3388893 C8.31124922,46.3828893 9.38324922,45.4268893 10.4752492,44.4538893 C10.7702492,44.5438893 11.0712492,44.6268893 11.3682492,44.7258893 C12.1452492,44.9858893 12.9372492,45.1278893 13.7592492,45.1398893 C14.6392492,45.1528893 15.5182492,45.2378893 16.3992492,45.2478893 C18.1142492,45.2698893 19.7652492,44.9968893 21.2972492,44.1508893 C22.1432492,43.6828893 23.0282492,43.2838893 23.8962492,42.8538893 C23.9772492,42.8138893 24.0592492,42.7738893 24.1332492,42.7228893 C24.5002492,42.4728893 24.5112492,42.1458893 24.1392492,41.9268893 C23.8682492,41.7688893 23.5822492,41.6048893 23.2812492,41.5328893 C21.9872492,41.2288893 20.6952492,40.8948893 19.3832492,40.6928893 C18.3572492,40.5328893 17.3112492,40.6898893 16.2872492,40.8838893 C15.5652492,41.0218893 14.8482492,41.1938893 13.9942492,41.3788893 C14.6302492,40.5308893 15.1762492,39.8008893 15.7402492,39.0478893 C16.6372492,38.9948893 17.5622492,38.9928893 18.4722492,38.8748893 C19.9252492,38.6868893 21.3752492,38.4498893 22.7592492,37.9328893 C24.3332492,37.3448893 25.5152492,36.2538893 26.5362492,34.9598893 C26.6042492,34.8728893 26.6622492,34.7708893 26.6962492,34.6648893 C26.8052492,34.3308893 26.6742492,34.1268893 26.3272492,34.1198893 C25.9892492,34.1138893 25.6462492,34.1138893 25.3142492,34.1658893 C24.3802492,34.3148893 23.4392492,34.4448893 22.5222492,34.6698893 C20.8292492,35.0848893 19.1912492,35.6558893 17.7282492,36.6398893 C17.5992492,36.7268893 17.4562492,36.7908893 17.1742492,36.9448893 C17.3082492,36.6948893 17.3692492,36.5728893 17.4372492,36.4528893 C17.7612492,35.8858893 18.0962492,35.3248893 18.4072492,34.7508893 C18.5312492,34.5208893 18.6722492,34.3688893 18.9402492,34.2858893 C21.7462492,33.4088893 24.0272492,31.7048893 26.1042492,29.6898893 C26.4112492,29.3908893 26.6952492,29.0688893 26.9762492,28.7448893 C27.0782492,28.6278893 27.1592492,28.4838893 27.2162492,28.3378893 C27.3282492,28.0588893 27.2072492,27.8228893 26.9072492,27.7958893 C26.5962492,27.7688893 26.2742492,27.7718893 25.9652492,27.8218893 C23.8992492,28.1608893 22.0182492,28.9228893 20.4322492,30.3278893 C20.3822492,30.3718893 20.3212492,30.4038893 20.2042492,30.4818893 C20.2172492,30.3388893 20.2062492,30.2408893 20.2382492,30.1598893 C20.4902492,29.5338893 20.7672492,28.9148893 21.0002492,28.2828893 C21.1082492,27.9918893 21.2822492,27.8258893 21.5712492,27.7778893 C22.9122492,27.5498893 23.9912492,26.8258893 25.0062492,25.9768893 C25.2832492,25.7438893 25.5812492,25.5368893 25.8572492,25.3038893 C26.8462492,24.4708893 27.5252492,23.4168893 27.9922492,22.2238893 C28.0822492,21.9948893 28.1422492,21.7448893 28.1612492,21.5018893 C28.1892492,21.1418893 27.9382492,20.9478893 27.5972492,21.0778893 C27.1142492,21.2648893 26.5942492,21.4238893 26.1902492,21.7278893 C25.1632492,22.4998893 24.1722492,23.3228893 23.2082492,24.1728893 C22.8092492,24.5268893 22.5172492,25.0018893 22.1312492,25.4778893 C22.1072492,25.0978893 22.2722492,24.8298893 22.3382492,24.5398893 C22.5712492,23.5118893 23.0762492,22.7118893 23.9852492,22.1088893 C24.6552492,21.6638893 25.2092492,21.0418893 25.8042492,20.4888893 C26.5252492,19.8188893 27.0652492,19.0138893 27.5012492,18.1388893 C27.9172492,17.3028893 27.9742492,16.4018893 27.9132492,15.4918893 C27.8792492,14.9868893 27.6062492,14.8828893 27.1852492,15.1958893 C25.9162492,16.1378893 24.8902492,17.2958893 24.1372492,18.6898893 C24.0312492,18.8858893 23.9222492,19.0798893 23.7302492,19.2608893 C23.7302492,18.5358893 23.7082492,17.8098893 23.7432492,17.0858893 C23.7542492,16.8828893 23.8992492,16.6598893 24.0392492,16.4938893 C25.5712492,14.6828893 26.0902492,12.4588893 26.5682492,10.2278893 C26.6652492,9.78088931 26.5732492,9.28888931 26.5382492,8.81988931 C26.5302492,8.70888931 26.4202492,8.54988931 26.3222492,8.51788931 C26.2332492,8.48888931 26.0572492,8.56888931 25.9872492,8.65588931 C25.6212492,9.11188931 25.2772492,9.58588931 24.9242492,10.0528893 C24.4572492,10.6718893 24.1232492,11.3578893 23.8822492,12.0918893 C23.8362492,12.2338893 23.7622492,12.3668893 23.6332492,12.6538893 C23.5682492,11.8018893 23.5102492,11.1168893 23.4682492,10.4318893 C23.4622492,10.3278893 23.5182492,10.2168893 23.5592492,10.1148893 C24.0232492,8.96788931 24.5042492,7.82788931 24.9502492,6.67588931 C25.3782492,5.57188931 25.3532492,4.41888931 25.2102492,3.26788931 C25.1942492,3.14388931 25.0692492,2.99388931 24.9552492,2.93788931 C24.8952492,2.90888931 24.6992492,3.02988931 24.6492492,3.12588931 C24.2822492,3.82388931 23.9132492,4.52088931 23.5942492,5.23988931 C23.3442492,5.80588931 23.1652492,6.40288931 22.9012492,7.13588931 C22.7042492,6.41388931 22.4362492,5.89288931 22.5012492,5.25288931 C22.6472492,3.81888931 22.3052492,2.46488931 21.5702492,1.23788931 C21.3122492,0.805889306 20.8972492,0.454889306 20.5092492,0.116889306 C20.2292492,-0.129110694 19.9392492,0.0318893061 19.9252492,0.424889306 C19.9052492,1.01088931 19.9402492,1.59088931 20.1102492,2.16588931 C20.4042492,3.16388931 20.7712492,4.12988931 21.2202492,5.06988931 C21.4192492,5.48588931 21.5442492,5.93788931 21.6122492,6.41588931 C21.1432492,5.92488931 20.6652492,5.44088931 20.2042492,4.94088931 C19.7342492,4.42988931 19.1332492,4.11788931 18.5152492,3.84588931 C18.0322492,3.63288931 17.8222492,3.80888931 17.8792492,4.31888931 C17.8892492,4.40888931 17.8972492,4.50088931 17.9262492,4.58488931 C18.3342492,5.75888931 18.7562492,6.93288931 19.4572492,7.96688931 C19.7562492,8.40888931 20.1602492,8.78988931 20.5622492,9.14788931 C21.0822492,9.61288931 21.6462492,10.0298893 22.1962492,10.4588893 C22.3672492,10.5918893 22.4642492,10.7348893 22.4772492,10.9638893 C22.5342492,11.9308893 22.6122492,12.8948893 22.6432492,13.8828893 C21.5552492,11.9048893 20.3882492,10.0118893 18.2422492,9.04288931 C17.9642492,9.14688931 17.9022492,9.31188931 17.9662492,9.54188931 C18.3532492,10.9318893 18.6722492,12.3478893 19.3552492,13.6338893 C19.9652492,14.7838893 20.9152492,15.6378893 22.0182492,16.2738893 C22.6172492,16.6188893 22.7472492,17.0708893 22.7432492,17.6558893 C22.7362492,18.8948893 22.6152492,20.1208893 22.2742492,21.4588893 C22.1972492,21.1658893 22.1382492,20.9998893 22.1132492,20.8288893 C21.7782492,18.5928893 20.4912492,17.0608893 18.5492492,16.0178893 C18.1992492,15.8288893 17.9262492,15.9748893 17.9262492,16.4098893 C17.9252492,16.9478893 17.9512492,17.5048893 18.0952492,18.0168893 C18.3202492,18.8178893 18.6012492,19.6138893 18.9542492,20.3658893 C19.5192492,21.5698893 20.3212492,22.5938893 21.5322492,23.2338893 C21.5682492,23.2528893 21.5892492,23.3018893 21.6372492,23.3608893 C21.3352492,24.2578893 21.0272492,25.1698893 20.6662492,26.2428893 C20.4752492,25.5318893 20.3142492,24.9858893 20.1832492,24.4338893 C19.8982492,23.2298893 19.1592492,22.2828893 18.4312492,21.3348893 C18.1402492,20.9568893 17.7572492,21.0188893 17.6162492,21.4678893 C17.4412492,22.0248893 17.2972492,22.6028893 17.2392492,23.1808893 C17.0792492,24.7848893 17.0882492,26.3928893 17.5692492,27.9498893 C17.7952492,28.6778893 18.1232492,29.3748893 18.4182492,30.0808893 C18.5392492,30.3708893 18.6942492,30.6468893 18.8322492,30.9218893 L18.8322492,30.9218893 Z" id="white_leave" fill="#FFFFFF"></path>
    </g>
</svg>