<?xml version="1.0" encoding="UTF-8"?>
<svg width="31px" height="79px" viewBox="0 0 31 79" version="1.1" xmlns="http://www.w3.org/2000/svg" xmlns:xlink="http://www.w3.org/1999/xlink">
    <!-- Generator: Sketch 61.2 (89653) - https://sketch.com -->
    <title>white_mushroom</title>
    <desc>Created with Sketch.</desc>
    <g id="Page-1" stroke="none" stroke-width="1" fill="none" fill-rule="evenodd">
        <g id="white_mushroom" transform="translate(0.360566, 0.532508)" fill="#FFFFFF">
            <path d="M24.1512344,25.6645919 C24.6632344,25.4125919 24.9992344,25.1405919 24.8952344,24.6725919 C24.7772344,24.1415919 24.6142344,23.5905919 24.3312344,23.1345919 C24.1192344,22.7945919 23.4352344,23.0315919 23.3942344,23.4745919 C23.3542344,23.9035919 23.4312344,24.3685919 23.5672344,24.7825919 C23.6712344,25.1005919 23.9432344,25.3625919 24.1512344,25.6645919 L24.1512344,25.6645919 Z M26.8442344,23.7445919 C26.5682344,23.1095919 26.3592344,22.5515919 26.0752344,22.0345919 C25.9982344,21.8935919 25.6212344,21.7615919 25.5062344,21.8305919 C25.3242344,21.9405919 25.1252344,22.2395919 25.1492344,22.4315919 C25.2142344,22.9505919 25.3912344,23.4545919 25.5262344,23.9645919 C25.6122344,24.2935919 25.8352344,24.5725919 26.1572344,24.4455919 C26.4172344,24.3445919 26.5892344,24.0185919 26.8442344,23.7445919 L26.8442344,23.7445919 Z M12.6372344,52.3485919 C13.8572344,52.3675919 13.9682344,52.4815919 14.1582344,53.4985919 C14.4132344,54.8705919 14.6942344,56.2365919 14.9902344,57.6005919 C15.0392344,57.8265919 15.2192344,58.0255919 15.3322344,58.2245919 C15.9842344,58.0635919 15.7762344,57.6035919 15.7802344,57.2725919 C15.8162344,54.2875919 15.8352344,51.3015919 15.8492344,48.3155919 C15.8512344,47.9385919 15.8322344,47.5545919 15.7522344,47.1885919 C15.7002344,46.9545919 15.5222344,46.7465919 15.3882344,46.5355919 C15.3772344,46.5185919 15.2652344,46.5655919 15.1452344,46.5985919 C15.2972344,46.7655919 15.4312344,46.9135919 15.6322344,47.1365919 C14.8142344,47.0165919 15.4102344,47.4975919 15.3022344,47.6855919 C15.1502344,47.9515919 14.9372344,48.1835919 14.7672344,48.4055919 C14.2642344,48.3575919 13.7682344,48.3105919 13.1632344,48.2545919 C13.7362344,47.8535919 13.5322344,47.5795919 13.1562344,47.2765919 C12.9862344,47.7185919 12.8232344,48.1405919 12.6422344,48.6075919 C13.3882344,48.5815919 14.1052344,48.1175919 14.6682344,48.9065919 C14.2762344,49.1435919 13.9782344,48.9555919 13.6522344,48.8795919 C13.2782344,48.7925919 12.9062344,48.8145919 12.9642344,49.4005919 C12.9772344,49.5245919 12.7752344,49.6695919 12.6642344,49.8135919 C13.3582344,50.1345919 13.2802344,49.4905919 13.5462344,49.0935919 C13.7812344,49.6905919 14.6182344,49.6925919 14.5132344,50.5875919 C14.1712344,50.3345919 13.8922344,50.1295919 13.6512344,49.9505919 C13.2962344,50.1395919 12.9722344,50.3115919 12.6372344,50.4895919 L12.6372344,52.3485919 Z M18.0282344,41.0595919 C18.2782344,39.8575919 18.4322344,39.7225919 19.4992344,39.6975919 C19.7632344,39.6915919 20.0282344,39.6985919 20.2922344,39.6815919 C21.1252344,39.6245919 21.7232344,39.9825919 22.2252344,40.6375919 C23.0252344,41.6785919 23.3592344,42.8275919 23.2912344,44.1305919 C23.2552344,44.8095919 23.3132344,45.4935919 23.3282344,46.1755919 C23.6182344,45.9555919 23.7282344,45.7265919 23.7822344,45.4825919 C23.9452344,44.7455919 24.0342344,43.9885919 24.2502344,43.2685919 C24.6162344,42.0445919 25.2422344,41.0005919 26.4422344,40.3725919 C27.9162344,39.6015919 28.6412344,38.3745919 28.5192344,36.6835919 C28.3612344,34.4985919 28.2282344,32.3115919 28.0492344,30.1295919 C27.9702344,29.1635919 27.8062344,28.2045919 27.6572344,27.0615919 C27.2442344,27.5925919 26.9652344,27.9425919 26.6962344,28.3005919 C26.0782344,29.1205919 25.2512344,29.1935919 24.3562344,28.9285919 C23.4012344,28.6445919 23.0192344,28.0845919 22.9172344,26.9945919 C22.8402344,26.1685919 22.7252344,25.3455919 22.6382344,24.5195919 C22.5972344,24.1255919 22.4902344,23.7825919 22.0262344,23.5585919 C21.8592344,23.7095919 21.6262344,23.8455919 21.4992344,24.0485919 C21.1382344,24.6215919 20.8142344,25.2185919 20.4872344,25.8115919 C19.7162344,27.2135919 18.3272344,27.4045919 17.2112344,26.2715919 C16.7922344,25.8465919 16.6122344,25.3315919 16.5012344,24.7625919 C16.0442344,22.4305919 15.5812344,20.0995919 15.0982344,17.7725919 C14.9442344,17.0315919 14.6522344,16.5105919 13.7012344,16.4475919 C12.4172344,16.3635919 11.8902344,15.7265919 11.6662344,14.4155919 C11.6152344,14.1195919 11.5632344,13.8175919 11.5632344,13.5185919 C11.5622344,12.0445919 11.6152344,10.5685919 11.5802344,9.09659188 C11.5342344,7.20959188 11.4222344,5.32359188 11.3372344,3.43759188 C11.3052344,2.73659188 10.9732344,2.24059188 10.2752344,1.90859188 C9.08923442,2.88859188 8.10423442,4.02059188 7.45723442,5.40659188 C6.70623442,7.01559188 6.10323442,8.68059188 5.81523442,10.4445919 C5.66923442,11.3395919 5.54023442,12.2405919 5.31823442,13.1165919 C4.20923442,17.5075919 3.32223442,21.9425919 2.51623442,26.3965919 C1.85723442,30.0405919 1.16023442,33.6705919 1.31423442,37.4115919 C1.41923442,39.9775919 2.40623442,41.4455919 4.91123442,42.2695919 C6.20123442,42.6945919 7.52423442,43.0235919 8.81423442,43.4495919 C9.95223442,43.8255919 11.1202344,43.6565919 12.2682344,43.6815919 C13.4282344,43.7055919 14.5942344,43.5105919 15.7572344,43.3995919 C17.0652344,43.2765919 18.3952344,43.2785919 19.6962344,42.7745919 C19.2162344,42.2995919 19.7912344,42.1155919 19.9122344,41.7935919 C19.7042344,41.5345919 19.4982344,41.2775919 19.3212344,41.0565919 C18.7662344,41.0505919 18.4322344,41.3675919 18.1222344,41.6975919 C17.4612344,41.0385919 17.4612344,41.0385919 17.5732344,40.5755919 C17.7172344,40.7275919 17.8392344,40.8575919 18.0282344,41.0595919 L18.0282344,41.0595919 Z M13.8112344,4.07159188 C13.3282344,4.09959188 12.9012344,4.21259188 12.6952344,4.73759188 C13.2022344,4.89859188 13.2492344,4.93659188 13.5702344,5.42059188 C13.5762344,5.56959188 13.6422344,5.75559188 13.5762344,5.86059188 C13.3732344,6.18759188 13.1132344,6.47859188 12.8922344,6.79659188 C12.8522344,6.85459188 12.8572344,7.01859188 12.9012344,7.05059188 C13.3732344,7.39259188 12.7542344,7.53459188 12.7762344,7.80459188 C12.9272344,7.99859188 13.0862344,8.20359188 13.2702344,8.44059188 C12.2562344,9.01259188 13.2662344,10.0485919 12.6322344,10.6715919 C13.4152344,11.3115919 13.4052344,11.3095919 13.1552344,12.0795919 C13.0572344,12.3835919 13.0172344,12.7055919 12.9232344,13.1425919 C13.3272344,13.0075919 13.5952344,12.9165919 13.9442344,12.8005919 C13.7002344,12.6435919 13.5172344,12.5245919 13.3842344,12.4385919 C13.4902344,12.2095919 13.5272344,12.1015919 13.5862344,12.0085919 C13.6372344,11.9275919 13.7122344,11.8615919 13.7792344,11.7875919 C13.9682344,11.9715919 13.6862344,12.3345919 14.1862344,12.3725919 C14.6582344,12.4095919 14.7592344,12.8505919 14.5312344,13.3285919 C13.9572344,12.8345919 13.4882344,13.3835919 12.9612344,13.4715919 C13.3282344,14.0965919 14.0202344,13.9275919 14.5532344,14.1415919 C14.6042344,14.1615919 14.6272344,14.2515919 14.7122344,14.3895919 C14.4102344,14.4345919 14.1552344,14.4735919 13.6862344,14.5435919 C14.2722344,14.7115919 14.6392344,14.7925919 14.9882344,14.9225919 C15.5572344,15.1335919 15.3052344,15.6935919 15.4512344,16.0865919 C15.4632344,16.1205919 15.4972344,16.1455919 15.5192344,16.1765919 C16.0632344,16.9045919 16.1232344,17.7835919 16.3052344,18.6305919 C16.6622344,20.2895919 17.0532344,21.9405919 17.4442344,23.5915919 C17.4942344,23.8005919 17.6332344,23.9865919 17.7392344,24.2015919 C18.0122344,24.0115919 18.2422344,23.8515919 18.4692344,23.6925919 C18.6972344,23.8555919 18.9282344,24.0215919 19.1732344,24.1975919 C19.8762344,23.7635919 20.5202344,23.3385919 21.1912344,22.9595919 C21.7032344,22.6705919 22.2242344,22.2415919 22.6502344,22.6715919 C23.3882344,22.4175919 23.9722344,22.2175919 24.6392344,21.9885919 C24.7892344,21.1785919 25.4562344,20.8395919 26.3522344,20.7605919 C26.2182344,19.9935919 26.0972344,19.3055919 25.9422344,18.4205919 C25.4992344,18.8035919 25.1952344,19.0665919 24.8912344,19.3295919 C24.4602344,19.7035919 23.9612344,19.7985919 23.4102344,19.6895919 C22.9672344,19.6035919 22.7252344,19.3175919 22.7832344,18.8935919 C22.8422344,18.4535919 22.9442344,17.9935919 23.1452344,17.6025919 C23.7592344,16.4045919 24.4302344,15.2345919 25.1332344,13.9555919 C24.9772344,13.7395919 24.7882344,13.4155919 24.5382344,13.1455919 C24.0852344,12.6575919 23.7972344,12.1045919 23.7282344,11.4405919 C23.6612344,10.8035919 23.5512344,10.1665919 23.5342344,9.52659188 C23.5112344,8.69859188 23.6072344,7.86259188 23.0452344,7.14559188 C22.9582344,7.03559188 22.9162344,6.86759188 22.9092344,6.72359188 C22.8552344,5.47159188 22.1752344,4.51259188 21.3622344,3.67459188 C19.6602344,1.92159188 17.5352344,1.19159188 15.1052344,1.31359188 C14.8432344,1.32659188 14.5792344,1.29359188 14.3172344,1.30359188 C13.4032344,1.33859188 12.4782344,1.17759188 11.3812344,1.41859188 C11.9342344,1.92959188 12.3642344,2.32559188 12.8122344,2.74059188 C12.7162344,2.84559188 12.6202344,2.94859188 12.5622344,3.01259188 C12.7322344,3.21959188 12.8682344,3.45959188 13.0712344,3.60859188 C13.2562344,3.74459188 13.5182344,3.77359188 13.7372344,3.87059188 C13.7822344,3.89159188 13.7872344,4.00259188 13.8112344,4.07159188 L13.8112344,4.07159188 Z M26.4512344,14.4375919 C25.2592344,15.2095919 24.9432344,16.3965919 24.9912344,17.9835919 C25.3702344,17.5225919 25.5992344,17.1945919 25.8812344,16.9215919 C26.0262344,16.7795919 26.3292344,16.6135919 26.4482344,16.6755919 C26.6422344,16.7765919 26.8562344,17.0505919 26.8652344,17.2605919 C26.9172344,18.3875919 26.9532344,19.5195919 26.9042344,20.6465919 C26.8702344,21.4465919 27.0902344,22.1055919 27.5262344,22.7655919 C28.5492344,24.3125919 29.3832344,25.9625919 29.6202344,27.8305919 C30.0252344,31.0155919 30.3132344,34.2095919 30.3444689,37.4255919 C30.3512344,38.1755919 30.2022344,38.8535919 29.8022344,39.4675919 C29.3292344,40.1945919 28.8302344,40.9065919 28.3142344,41.6035919 C27.8242344,42.2665919 27.1032344,42.6235919 26.3652344,42.9235919 C25.7072344,43.1905919 25.3422344,43.6165919 25.2612344,44.3465919 C25.1862344,45.0185919 25.0492344,45.6915919 24.8502344,46.3385919 C24.5762344,47.2295919 24.0682344,47.6115919 23.3262344,47.6215919 C22.6222344,47.6315919 22.2492344,47.3635919 22.1582344,46.6665919 C22.0712344,45.9945919 22.0712344,45.3105919 22.0272344,44.6335919 C22.0162344,44.4535919 21.9812344,44.2745919 21.9592344,44.1155919 C20.2182344,44.4425919 18.5412344,44.7585919 16.8312344,45.0795919 C17.1552344,46.1335919 17.0232344,47.1455919 17.0182344,48.1485919 C17.0092344,50.0765919 16.9672344,52.0035919 16.9182344,53.9305919 C16.8652344,55.9705919 16.7832344,58.0085919 16.7262344,60.0485919 C16.7152344,60.4155919 16.6762344,60.7355919 16.2432344,60.8195919 C15.8262344,60.8995919 15.6102344,60.6605919 15.4782344,60.3115919 C15.4122344,60.1395919 15.3662344,59.9605919 15.3132344,59.7905919 C14.1892344,59.9525919 14.1682344,59.9085919 13.9612344,58.8785919 C13.6132344,57.1425919 13.2192344,55.4155919 12.8232344,53.5885919 C12.6232344,53.6615919 12.4382344,53.7545919 12.2422344,53.7935919 C11.7372344,53.8935919 11.5292344,53.7525919 11.4702344,53.2605919 C11.4392344,52.9995919 11.4652344,52.7315919 11.4652344,52.4675919 L11.4652344,45.7175919 C11.0662344,45.6515919 10.6682344,45.5695919 10.2652344,45.5205919 C7.90923442,45.2335919 5.80223442,44.1525919 3.64423442,43.3055919 C1.26123442,42.3675919 0.0362344164,40.3905919 0.00623441642,37.7985919 C-0.0137655836,36.0625919 0.00823441642,34.3175919 0.163234416,32.5915919 C0.291234416,31.1685919 0.598234416,29.7575919 0.904234416,28.3575919 C2.00223442,23.3495919 3.13823442,18.3495919 4.24723442,13.3435919 C4.63923442,11.5755919 4.90623442,9.77559188 5.38823442,8.03459188 C5.96323442,5.95659188 6.76623442,3.95059188 8.28423442,2.34259188 C8.87823442,1.71359188 9.52123442,1.12059188 10.1932344,0.576591882 C11.1312344,-0.182408118 12.2682344,0.0115918818 13.3562344,0.0515918818 C14.1062344,0.0775918818 14.8562344,0.204591882 15.6032344,0.183591882 C18.4132344,0.102591882 20.8202344,1.02559188 22.6712344,3.13959188 C23.4502344,4.02859188 23.9382344,5.11059188 24.3042344,6.30559188 C24.7472344,7.75359188 24.5702344,9.23059188 24.9232344,10.6515919 C25.0492344,11.1575919 25.2212344,11.6575919 25.4202344,12.1405919 C25.7132344,12.8545919 26.0502344,13.5525919 26.4512344,14.4375919 L26.4512344,14.4375919 Z" id="Fill-26"></path>
            <path d="M10.1732344,64.2104919 C9.41823442,64.5944919 8.83323442,65.1674919 8.42323442,65.8974919 C7.09523442,68.2584919 5.77723442,70.6254919 4.47823442,73.0034919 C3.99523442,73.8864919 3.88523442,74.8614919 3.96723442,75.8564919 C4.02723442,76.5704919 4.32123442,76.8374919 5.03923442,76.9144919 C5.79823442,76.9944919 6.37823442,76.7584919 6.96323442,76.2224919 C8.44523442,74.8634919 9.67523442,73.2954919 10.8862344,71.7144919 C11.3892344,71.0584919 11.7762344,70.2874919 11.7842344,69.3184919 C11.3442344,69.6674919 10.9052344,70.0164919 10.4762344,70.3564919 C10.4252344,70.2974919 10.3342344,70.1894919 10.1792344,70.0064919 C10.0002344,70.5264919 9.62623442,70.5544919 9.22023442,70.5224919 C9.18523442,70.5204919 9.14223442,70.6324919 9.09823442,70.6974919 C9.26523442,70.8334919 9.43423442,70.9704919 9.61423442,71.1154919 C9.08023442,71.8304919 8.95323442,70.6794919 8.47123442,70.9594919 C7.96123442,71.3994919 8.95623442,71.5964919 8.71723442,72.0494919 C8.45223442,71.9694919 8.18123442,71.8644919 7.90223442,71.8194919 C7.83023442,71.8084919 7.72823442,71.9844919 7.63923442,72.0754919 C7.18423442,72.5314919 7.06923442,71.9874919 6.83023442,71.7724919 C6.87623442,72.4164919 6.87623442,72.4164919 7.62723442,72.6964919 C7.37223442,72.9344919 6.92923442,72.9394919 6.85523442,73.3434919 C6.63423442,73.2964919 6.44723442,73.2714919 6.26823442,73.2164919 C6.06023442,73.1504919 5.85923442,73.0614919 5.54423442,72.9384919 C5.80923442,72.7094919 6.00923442,72.5634919 6.17723442,72.3864919 C6.50923442,72.0374919 6.02723442,71.9434919 5.96023442,71.7604919 C6.15223442,71.4394919 6.32923442,71.1444919 6.51823442,70.8294919 C6.69723442,70.8154919 6.98223442,70.8784919 7.12723442,70.7634919 C7.32523442,70.6074919 7.41723442,70.3174919 7.58023442,70.0414919 C7.40223442,69.9314919 7.23123442,69.8244919 6.95923442,69.6554919 C7.31023442,69.6774919 7.55523442,69.6924919 7.81023442,69.7084919 L7.81023442,69.1944919 C8.03823442,69.2804919 8.21623442,69.3484919 8.39523442,69.4154919 C8.42123442,69.3774919 8.44723442,69.3394919 8.47323442,69.3004919 C8.21823442,69.0154919 7.96323442,68.7314919 7.71923442,68.4594919 C8.08023442,68.0684919 8.59123442,67.7504919 8.71323442,67.3224919 C8.85723442,66.8124919 9.28523442,66.5334919 9.42723442,66.0674919 C9.55623442,65.6464919 9.71623442,65.2484919 10.1102344,64.9864919 C10.4712344,64.7474919 10.2322344,64.4564919 10.1472344,64.1834919 C10.7302344,64.0004919 10.9952344,63.6404919 11.0172344,62.8184919 C10.6802344,63.3754919 10.4262344,63.7934919 10.1732344,64.2104919 M11.4982344,67.8984919 C11.9262344,67.5564919 12.3332344,67.2404919 12.7292344,66.9124919 C13.0752344,66.6244919 13.3892344,66.2914919 13.7572344,66.0364919 C14.0272344,65.8504919 14.3562344,65.6724919 14.6892344,65.9654919 C15.0262344,66.2614919 14.8892344,66.5754919 14.7172344,66.8834919 C14.2232344,67.7714919 13.7262344,68.6574919 13.2252344,69.5424919 C13.1132344,69.7374919 12.9552344,69.9104919 12.8642344,70.1134919 C11.5842344,73.0044919 9.43023442,75.2184919 7.23223442,77.3974919 C6.25223442,78.3674919 5.04623442,78.1814919 3.94823442,77.7864919 C2.94023442,77.4234919 2.72323442,76.4414919 2.75323442,75.4384919 C2.78823442,74.2494919 3.08123442,73.1384919 3.65323442,72.0884919 C4.60723442,70.3354919 5.51223442,68.5574919 6.46523442,66.8054919 C7.35723442,65.1664919 8.55123442,63.7664919 9.90723442,62.4914919 C10.2572344,62.1624919 10.5162344,61.7344919 10.8122344,61.3484919 C10.9952344,61.1084919 11.1362344,60.8254919 11.3572344,60.6314919 C11.5342344,60.4764919 11.8122344,60.3284919 12.0282344,60.3504919 C12.3872344,60.3854919 12.4562344,60.7294919 12.4522344,61.0464919 C12.4462344,61.4994919 12.4592344,61.9564919 12.4022344,62.4034919 C12.1962344,64.0024919 12.1472344,65.6344919 11.4472344,67.1354919 C11.3862344,67.2664919 11.3782344,67.4274919 11.3692344,67.5764919 C11.3652344,67.6414919 11.4202344,67.7104919 11.4982344,67.8984919" id="Fill-28"></path>
            <path d="M8.45783442,58.4516919 C8.35483442,58.6656919 8.28683442,58.8816919 8.15983442,59.0556919 C7.74083442,59.6306919 7.28983442,60.1816919 6.87083442,60.7586919 C6.61983442,61.1036919 6.37383442,61.4536919 5.88883442,61.3936919 C5.41583442,61.3356919 5.15283442,60.9826919 5.06583442,60.5616919 C4.78483442,59.1926919 4.10783442,58.0396919 3.22883442,56.9796919 C3.08983442,56.8126919 2.98283442,56.5916919 2.93983442,56.3786919 C2.84383442,55.8896919 3.26583442,55.4406919 3.74183442,55.5736919 C5.38683442,56.0356919 6.95083442,56.6706919 8.14483442,57.9676919 C8.26683442,58.0976919 8.34283442,58.2706919 8.45783442,58.4516919" id="Fill-30"></path>
            <path d="M20.5408344,62.9106919 C21.0178344,62.3876919 21.2078344,61.6646919 20.9348344,61.2976919 C20.8058344,61.3096919 20.6678344,61.3236919 20.5058344,61.3396919 C20.7898344,61.5656919 20.8098344,61.8486919 20.5698344,62.0146919 C20.3988344,62.1326919 20.1058344,62.0736919 19.9188344,62.0906919 C20.1218344,62.3576919 20.3338344,62.6376919 20.5408344,62.9106919 M20.5688344,64.4496919 C20.2968344,64.2926919 19.7858344,64.0986919 19.4118344,63.7566919 C18.9438344,63.3266919 18.5518344,62.8006919 18.1978344,62.2676919 C17.8748344,61.7816919 18.0538344,61.4576919 18.6038344,61.2396919 C18.9408344,61.1066919 19.3048344,60.9606919 19.5608344,60.7186919 C20.4368344,59.8886919 21.2598344,59.0036919 22.1268344,58.1626919 C22.2928344,58.0016919 22.5828344,57.8346919 22.7798344,57.8696919 C23.1338344,57.9316919 23.1578344,58.2886919 23.1378344,58.6046919 C23.1328344,58.6796919 23.1238344,58.7606919 23.0918344,58.8266919 C22.3368344,60.4136919 22.2468344,62.1846919 21.7128344,63.8336919 C21.5498344,64.3346919 21.3238344,64.4956919 20.5688344,64.4496919" id="Fill-32"></path>
            <path d="M17.5037344,67.6703919 C18.1637344,67.8973919 18.6357344,68.2673919 18.8787344,68.9133919 C18.9837344,69.1913919 19.0977344,69.4803919 19.2707344,69.7183919 C19.5927344,70.1643919 19.5247344,70.6483919 19.2167344,70.9633919 C18.7327344,71.4603919 18.1437344,71.8673919 17.5567344,72.2483919 C17.2537344,72.4453919 16.9567344,72.2373919 16.8487344,71.9193919 C16.7677344,71.6803919 16.7457344,71.3993919 16.7777344,71.1473919 C16.9107344,70.1093919 17.0667344,69.0743919 17.2337344,68.0413919 C17.2537344,67.9163919 17.3977344,67.8113919 17.5037344,67.6703919" id="Fill-34"></path>
            <path d="M10.1785344,36.7836919 C10.5575344,37.6466919 11.3785344,38.3606919 11.8855344,38.2626919 C11.9965344,38.0896919 12.1295344,37.8846919 12.2875344,37.6396919 C12.0165344,37.4446919 11.8065344,37.2936919 11.5625344,37.1176919 C11.5315344,37.3866919 11.5115344,37.5606919 11.4615344,37.9956919 C11.2025344,37.2236919 10.6525344,37.1266919 10.1785344,36.7836919 M10.6265344,27.2016919 C10.3075344,26.9236919 9.98953442,26.6436919 9.66253442,26.3586919 C9.67553442,26.2936919 9.70453442,26.1376919 9.75653442,25.8646919 C9.92553442,25.7316919 10.2195344,25.5006919 10.5125344,25.2686919 C10.4915344,25.2276919 10.4705344,25.1866919 10.4495344,25.1446919 C10.1615344,25.2656919 9.87353442,25.3876919 9.57953442,25.5106919 C9.46253442,25.2146919 9.76953442,24.6446919 9.10653442,24.5666919 C8.72853442,25.6986919 8.81553442,26.8706919 8.80553442,28.0346919 C8.80053442,28.6566919 9.06153442,29.1016919 9.64553442,29.3776919 C10.5305344,29.7956919 10.8695344,30.5396919 10.8545344,31.4956919 C10.8365344,32.6566919 10.8505344,33.8176919 10.8505344,34.9716919 C11.4675344,35.2306919 11.8575344,35.1016919 11.9905344,34.5546919 C12.1755344,33.7906919 12.2995344,33.0096919 12.4275344,32.2306919 C12.5265344,31.6376919 12.5535344,31.0286919 12.6795344,30.4406919 C12.8785344,29.5246919 14.4295344,28.7046919 15.3005344,29.0176919 C15.6475344,29.1426919 15.7825344,29.6846919 15.4585344,29.8226919 C14.6095344,30.1836919 14.6395344,30.9646919 14.4395344,31.6466919 C14.3835344,31.7516919 14.3265344,31.8546919 14.2705344,31.9596919 C13.7865344,32.2356919 13.5435344,32.6386919 13.4875344,33.2086919 C13.4325344,33.7646919 13.2235344,34.3096919 13.1885344,34.8666919 C13.1665344,35.2176919 13.2545344,35.5266919 12.8125344,35.6716919 C12.7355344,35.6966919 12.6475344,35.9806919 12.6985344,36.0646919 C13.1775344,36.8586919 12.5405344,37.4756919 12.3875344,38.1656919 C12.3575344,38.3046919 12.2285344,38.4196919 12.1615344,38.5546919 C11.6665344,39.5456919 11.6675344,39.5466919 10.8325344,39.9196919 L10.8595344,39.8936919 C10.7655344,40.0096919 10.6715344,40.1236919 10.5755344,40.2406919 C10.3655344,39.7216919 10.3655344,39.7216919 11.1925344,38.4456919 C10.7895344,38.2386919 10.3705344,38.0666919 10.0015344,37.8196919 C9.64853442,37.5836919 9.34853442,37.2676919 8.93153442,36.9056919 C9.20553442,36.7896919 9.38753442,36.7116919 9.65553442,36.5976919 C9.51653442,36.4056919 9.38953442,36.2296919 9.23053442,36.0096919 L9.74653442,36.0096919 C9.69853442,35.4506919 9.65253442,34.9216919 9.60453442,34.3726919 C9.20453442,34.3976919 8.82453442,34.4236919 8.41253442,34.4496919 C8.62353442,34.0586919 9.00453442,33.7516919 8.62753442,33.3066919 C8.29353442,32.9126919 8.29753442,32.9096919 8.80953442,32.4826919 C8.39353442,31.5596919 7.79453442,32.4316919 7.26153442,32.3496919 C7.49553442,31.5936919 8.08853442,31.3356919 9.05953442,31.1586919 C8.25253442,30.9286919 7.87553442,30.7256919 8.03053442,30.0216919 C8.09353442,29.7366919 7.69753442,29.3106919 7.43953442,29.0086919 C7.24053442,28.7736919 6.96053442,28.5926919 7.13753442,28.2556919 C7.39353442,27.7676919 7.17553442,27.2766919 7.14053442,26.8096919 C7.10453442,26.3226919 7.22253442,26.0376919 7.78253442,25.8316919 C7.48653442,25.7926919 7.36553442,25.7766919 7.16953442,25.7506919 C7.34553442,25.2446919 7.90953442,24.8356919 7.53053442,24.1366919 C7.42153442,24.1616919 7.26653442,24.1986919 7.10253442,24.2366919 C6.82253442,23.9096919 6.44153442,23.5986919 6.95453442,23.1576919 C6.76653442,22.6396919 7.19353442,22.3546919 7.48753442,21.9416919 C7.13753442,21.8476919 6.84853442,21.7706919 6.60653442,21.7066919 C6.38753442,21.3376919 7.65553442,21.6276919 6.83153442,20.9756919 C6.56053442,20.7606919 7.00853442,19.9806919 7.43153442,19.8046919 C7.75953442,19.6696919 8.07853442,19.8496919 8.28553442,20.3396919 C8.40253442,20.6146919 8.47053442,20.9126919 8.53853442,21.2066919 C8.76753442,22.2006919 9.30053442,23.0466919 10.0765344,23.6456919 C10.6875344,24.1186919 11.0585344,24.7096919 11.5125344,25.3316919 C11.2655344,25.3976919 11.0925344,25.4456919 10.7915344,25.5266919 C11.1305344,25.7266919 11.3845344,25.8766919 11.7505344,26.0916919 C11.4085344,26.1806919 11.1615344,26.2456919 10.7895344,26.3436919 C11.0725344,26.4916919 11.2695344,26.5946919 11.6105344,26.7726919 C11.3395344,26.9436919 11.1505344,27.0626919 10.9615344,27.1816919 C10.8505344,27.1886919 10.7385344,27.1956919 10.6265344,27.2016919" id="Fill-36"></path>
            <path d="M11.0067344,38.6606919 C10.0007344,38.8296919 9.96573442,39.5016919 9.81973442,40.1916919 C9.64573442,40.0406919 9.51673442,39.9266919 9.33973442,39.7706919 C9.24873442,39.9656919 9.16673442,40.1426919 9.11373442,40.2546919 L7.65973442,40.2546919 C7.94073442,40.0886919 8.09273442,39.9616919 8.26773442,39.9056919 C8.46873442,39.8416919 8.69073442,39.8416919 8.90373442,39.8126919 C8.73673442,39.1676919 9.58973442,39.5216919 9.68073442,38.9916919 C9.75473442,38.5606919 10.2037344,38.2786919 11.0067344,38.6606919" id="Fill-38"></path>
            <path d="M5.48373442,40.4330919 L5.48373442,39.4220919 C5.74373442,39.4490919 6.06273442,39.5490919 6.34673442,39.4890919 C6.62773442,39.4280919 6.87273442,39.2050919 7.13373442,39.0550919 C7.17173442,39.1210919 7.20973442,39.1890919 7.24673442,39.2550919 C6.69373442,39.6240919 6.14073442,39.9950919 5.48373442,40.4330919" id="Fill-40"></path>
            <path d="M10.8328344,39.9194919 C11.2458344,40.1004919 11.7198344,40.1904919 12.0688344,40.7204919 C11.6238344,40.7734919 11.3108344,40.8124919 10.9828344,40.8524919 C10.9368344,40.4904919 10.8978344,40.1924919 10.8598344,39.8944919 L10.8328344,39.9194919 Z" id="Fill-42"></path>
            <path d="M10.6268344,27.2016919 C10.7388344,27.1956919 10.8508344,27.1886919 10.9618344,27.1816919 L10.9618344,28.5306919 C10.3338344,28.0246919 10.3338344,28.0246919 10.6268344,27.2016919" id="Fill-44"></path>
            <path d="M14.2708344,31.9594919 C14.3268344,31.8554919 14.3828344,31.7514919 14.4388344,31.6474919 C14.9588344,31.4274919 15.0108344,31.9194919 14.8598344,32.0684919 C14.6038344,32.3244919 14.4378344,32.5724919 14.2708344,32.9214919 L14.2708344,31.9594919 Z" id="Fill-46"></path>
            <path d="M10.0682344,5.47999188 C9.87623442,5.72399188 9.72423442,5.91699188 9.54223442,6.14999188 C9.39823442,6.05999188 9.25023442,5.96799188 9.04423442,5.83999188 C9.13723442,5.62699188 9.21923442,5.44199188 9.31423442,5.22499188 C9.54923442,5.30399188 9.77523442,5.37999188 10.0682344,5.47999188" id="Fill-48"></path>
            <path d="M27.1644344,34.0912919 C27.0244344,34.6522919 26.9454344,34.9692919 26.8434344,35.3812919 C26.5304344,34.8492919 26.5304344,34.8492919 27.1644344,34.0912919" id="Fill-50"></path>
            <path d="M9.79473442,6.76609188 C9.24873442,7.16609188 9.04673442,7.69109188 8.37773442,7.55809188 C8.74973442,7.19609188 9.00773442,6.79409188 9.79473442,6.76609188" id="Fill-52"></path>
            <path d="M13.4505344,39.7709919 C13.5725344,40.0719919 13.6865344,40.3579919 13.8545344,40.7739919 C13.0535344,40.1499919 13.0535344,40.1499919 13.4505344,39.7709919" id="Fill-54"></path>
            <path d="M9.26503442,9.49559188 C9.72703442,9.72459188 9.86303442,9.97959188 9.78503442,10.5075919 C9.40503442,10.2235919 9.23203442,9.98759188 9.26503442,9.49559188" id="Fill-56"></path>
            <path d="M22.8895344,12.9311919 C23.0545344,14.7211919 22.3365344,16.2561919 21.4445344,17.7131919 C20.9365344,18.5421919 20.2075344,19.1271919 19.1235344,19.0411919 C18.2575344,18.9731919 17.2475344,18.0291919 17.1715344,17.1561919 C17.1085344,16.4401919 17.1375344,15.7351919 17.4145344,15.0481919 C18.0455344,13.4901919 18.9745344,12.1321919 20.1445344,10.9391919 C20.5515344,10.5251919 21.0125344,10.2841919 21.6655344,10.4891919 C22.8115344,10.8481919 22.8915344,10.9031919 22.8895344,12.1401919 C22.8895344,12.4041919 22.8895344,12.6671919 22.8895344,12.9311919" id="Fill-58"></path>
            <path d="M19.5789344,7.32769188 C20.0889344,7.35269188 20.4999344,7.26269188 20.8089344,7.65369188 C21.0599344,7.97369188 21.3379344,8.27069188 21.6709344,8.65569188 C21.5629344,8.74569188 21.4049344,8.95369188 21.1959344,9.03569188 C20.8839344,9.15769188 20.5399344,9.21369188 20.2049344,9.25869188 C19.5979344,9.34169188 19.1219344,9.64369188 18.8399344,10.1636919 C18.5639344,10.6716919 18.1429344,10.8996919 17.6209344,11.0266919 C17.5089344,10.2356919 17.7749344,9.58669188 18.3139344,9.01369188 C18.5489344,8.76469188 18.4699344,8.27969188 19.1039344,8.35969188 C19.4979344,8.40969188 19.6509344,7.87869188 19.5789344,7.32769188" id="Fill-60"></path>
            <path d="M20.0174344,21.4838919 C19.9534344,21.6138919 19.8894344,21.7438919 19.8294344,21.8658919 C19.5694344,21.8728919 19.7894344,21.2488919 19.3484344,21.5248919 C19.2874344,21.4268919 19.1564344,21.3028919 19.1814344,21.2358919 C19.2374344,21.0808919 19.3384344,20.8898919 19.4754344,20.8238919 C20.0104344,20.5668919 20.5594344,20.3378919 21.1144344,20.1268919 C21.5664344,19.9548919 21.8654344,20.1528919 22.0174344,20.6798919 C22.1654344,21.1928919 22.0344344,21.4018919 21.4314344,21.4468919 C21.2254344,21.4628919 21.1774344,21.4848919 21.0464344,21.6608919 C20.6614344,22.1758919 20.3614344,22.1018919 20.0174344,21.4838919" id="Fill-62"></path>
            <path d="M13.7708344,9.29739188 C13.3268344,8.76239188 13.9308344,8.06239188 13.2588344,7.68639188 C13.4238344,7.75839188 13.6718344,7.78539188 13.7398344,7.91039188 C13.9268344,8.25239188 14.0388344,8.63539188 14.2038344,9.06339188 C14.0748344,9.13339188 13.9278344,9.21239188 13.7708344,9.29739188" id="Fill-64"></path>
            <path d="M14.1629344,6.71629188 C14.2609344,7.09129188 14.3319344,7.36429188 14.4209344,7.70629188 C13.7729344,7.39229188 13.7729344,7.39229188 14.1629344,6.71629188" id="Fill-66"></path>
            <path d="M13.5526344,5.43699188 C13.6256344,4.97099188 13.6986344,4.50399188 13.7716344,4.03799188 C13.9096344,4.29999188 14.0476344,4.56299188 14.2126344,4.87599188 C13.9906344,5.06499188 13.7716344,5.25099188 13.5526344,5.43699188" id="Fill-68"></path>
            <path d="M13.9808344,10.7914919 C14.1508344,10.9344919 14.3218344,11.0754919 14.6268344,11.3314919 C14.3138344,11.4094919 14.0598344,11.5174919 14.0298344,11.4724919 C13.9168344,11.3064919 13.8768344,11.0904919 13.8098344,10.8934919 C13.8668344,10.8594919 13.9238344,10.8254919 13.9808344,10.7914919" id="Fill-70"></path>
            <path d="M5.29333442,74.1957919 C5.48333442,74.6607919 5.46033442,75.0327919 4.71833442,75.3417919 C5.04033442,74.8837919 4.76333442,74.4067919 5.29333442,74.1957919" id="Fill-72"></path>
            <path d="M7.29383442,73.8617919 C6.71583442,74.0567919 6.32483442,74.1897919 5.84383442,74.3527919 C6.33283442,73.8267919 6.33283442,73.8267919 7.29383442,73.8617919" id="Fill-74"></path>
        </g>
    </g>
</svg>