<?xml version="1.0" encoding="UTF-8"?>
<svg width="108px" height="76px" viewBox="0 0 108 76" version="1.1" xmlns="http://www.w3.org/2000/svg" xmlns:xlink="http://www.w3.org/1999/xlink">
    <!-- Generator: Sketch 61.2 (89653) - https://sketch.com -->
    <title>white_scissors</title>
    <desc>Created with Sketch.</desc>
    <g id="Page-1" stroke="none" stroke-width="1" fill="none" fill-rule="evenodd">
        <g id="white_scissors" fill="#FFFFFF">
            <path d="M4.19578299,41.6262492 C4.05178299,41.9332492 3.95778299,42.1332492 3.78978299,42.4882492 C4.19878299,42.4382492 4.44278299,42.4072492 4.68678299,42.3772492 C4.74078299,42.2862492 4.79478299,42.1962492 4.84878299,42.1052492 C4.65878299,41.9662492 4.46778299,41.8262492 4.19578299,41.6262492 L4.19578299,41.6262492 Z M51.581783,27.2682492 C51.458783,27.7012492 51.405783,27.8862492 51.346783,28.0952492 C51.636783,28.1612492 51.897783,28.2212492 52.353783,28.3252492 C52.061783,27.9252492 51.880783,27.6782492 51.581783,27.2682492 L51.581783,27.2682492 Z M61.383783,39.0442492 C61.629783,39.0732492 61.831783,39.1302492 62.026783,39.1122492 C62.194783,39.0982492 62.355783,38.9992492 62.519783,38.9382492 C62.494783,38.8432492 62.469783,38.7482492 62.444783,38.6522492 C62.102783,38.7142492 61.686783,38.2982492 61.383783,39.0442492 L61.383783,39.0442492 Z M32.557783,9.33624918 C32.102783,9.59024918 31.783783,9.76824918 31.471783,9.94224918 C32.116783,10.4422492 32.331783,10.0162492 32.557783,9.33624918 L32.557783,9.33624918 Z M2.78478299,47.5702492 C2.52278299,47.3582492 2.26078299,47.1472492 1.96578299,46.9072492 C1.85378299,47.4982492 1.85378299,47.4982492 2.78478299,47.5702492 L2.78478299,47.5702492 Z M6.93878299,42.8812492 C7.13978299,42.9882492 7.31278299,43.0802492 7.51578299,43.1882492 C7.59778299,42.8232492 7.66578299,42.5182492 7.73478299,42.2112492 C7.18178299,42.1082492 7.14478299,42.5422492 6.93878299,42.8812492 L6.93878299,42.8812492 Z M48.061783,41.4762492 C47.584783,41.8212492 47.593783,42.0782492 48.020783,42.2732492 C48.173783,42.3442492 48.359783,42.3422492 48.632783,42.3912492 C48.406783,42.0282492 48.255783,41.7852492 48.061783,41.4762492 L48.061783,41.4762492 Z M42.342783,49.9052492 C42.403783,49.5172492 42.442783,49.2672492 42.495783,48.9262492 C42.082783,49.0822492 41.804783,49.1882492 41.527783,49.2922492 C41.758783,49.4662492 41.989783,49.6402492 42.342783,49.9052492 L42.342783,49.9052492 Z M4.50978299,44.5752492 C4.05678299,45.3792492 4.05678299,45.3792492 4.63878299,45.7402492 C4.59478299,45.3432492 4.55178299,44.9592492 4.50978299,44.5752492 L4.50978299,44.5752492 Z M50.286783,27.7452492 C49.950783,27.3892492 49.724783,27.1472492 49.498783,26.9072492 C49.412783,27.4322492 49.392783,27.8962492 50.286783,27.7452492 L50.286783,27.7452492 Z M49.529783,26.0262492 C48.987783,25.7542492 48.987783,25.7542492 48.333783,26.1042492 C48.759783,26.7572492 49.127783,25.9622492 49.529783,26.0262492 L49.529783,26.0262492 Z M74.272783,49.4632492 C75.112783,49.6382492 75.578783,49.3112492 76.078783,48.5052492 C75.401783,48.8642492 74.921783,49.1182492 74.272783,49.4632492 L74.272783,49.4632492 Z M31.778783,12.8082492 C31.868783,12.8002492 31.958783,12.7912492 32.048783,12.7832492 C32.061783,12.5882492 32.049783,12.3872492 32.094783,12.1992492 C32.134783,12.0332492 32.238783,11.8832492 32.316783,11.7242492 C31.863783,11.5592492 31.668783,11.8762492 31.581783,12.1812492 C31.530783,12.3562492 31.705783,12.5972492 31.778783,12.8082492 L31.778783,12.8082492 Z M45.161783,41.2132492 C45.101783,41.1132492 45.041783,41.0132492 44.980783,40.9132492 C44.608783,41.1122492 44.236783,41.3112492 43.802783,41.5422492 C44.574783,42.0542492 44.859783,41.6132492 45.161783,41.2132492 L45.161783,41.2132492 Z M34.491783,1.60324918 C34.265783,2.03424918 34.076783,2.43824918 34.540783,2.79824918 C34.812783,3.00824918 35.075783,3.02024918 35.323783,2.60324918 C34.451783,2.75224918 34.644783,2.06124918 34.491783,1.60324918 L34.491783,1.60324918 Z M15.779783,37.3692492 C15.963783,37.8242492 16.138783,38.2582492 16.310783,38.6832492 C16.615783,38.5762492 16.798783,38.5132492 16.882783,38.4832492 C16.674783,38.0052492 16.487783,37.5762492 16.295783,37.1342492 C16.158783,37.1962492 16.009783,37.2652492 15.779783,37.3692492 L15.779783,37.3692492 Z M6.06178299,44.3232492 C5.80878299,43.9802492 5.55678299,43.6382492 5.32278299,43.3202492 C5.41578299,43.1472492 5.49978299,42.9922492 5.63178299,42.7452492 C4.86378299,42.9692492 4.88378299,42.9702492 4.85778299,43.3072492 C4.79378299,44.1282492 5.45978299,44.1742492 6.06178299,44.3232492 L6.06178299,44.3232492 Z M39.764783,39.5462492 C38.791783,40.8212492 38.791783,40.8212492 39.412783,41.7412492 C39.554783,41.0092492 40.132783,40.4752492 39.764783,39.5462492 L39.764783,39.5462492 Z M34.617783,15.9232492 C34.856783,16.3402492 34.951783,16.5052492 35.045783,16.6692492 C33.957783,17.2862492 33.957783,17.2862492 34.016783,17.9502492 C34.544783,17.4672492 35.079783,16.9972492 35.969783,17.1032492 C35.860783,17.0082492 34.800783,16.0832492 34.617783,15.9232492 L34.617783,15.9232492 Z M101.912783,68.0632492 C100.642783,66.4152492 98.642783,64.5862492 97.362783,63.8832492 C97.278783,64.2212492 97.162783,64.5462492 97.122783,64.8802492 C97.088783,65.1712492 97.139783,65.4722492 97.151783,65.7402492 C99.546783,67.3652492 100.848783,68.0162492 101.912783,68.0632492 L101.912783,68.0632492 Z M94.913783,64.3072492 C94.709783,64.8832492 94.501783,65.1902492 94.507783,65.4942492 C94.547783,67.4862492 93.542783,69.0242492 92.402783,70.5122492 C92.271783,70.6832492 92.041783,70.8262492 92.008783,71.0102492 C91.960783,71.2722492 91.955783,71.6662492 92.111783,71.8092492 C92.268783,71.9532492 92.650783,71.9012492 92.920783,71.8562492 C93.062783,71.8322492 93.188783,71.6482492 93.299783,71.5182492 C94.257783,70.3892492 95.056783,69.1502492 95.407783,67.7072492 C95.658783,66.6762492 95.740783,65.5932492 94.913783,64.3072492 L94.913783,64.3072492 Z M42.794783,11.3512492 C43.347783,9.80724918 43.239783,9.00324918 42.425783,8.03124918 C41.621783,7.07024918 40.665783,6.68724918 39.447783,7.17224918 C38.990783,7.35524918 38.623783,7.18224918 38.269783,6.87624918 C37.880783,6.53824918 37.479783,6.20124918 37.040783,5.93424918 C35.725783,5.12924918 34.288783,5.85924918 34.062783,7.38024918 C33.895783,8.50924918 34.273783,9.41924918 35.038783,10.1932492 C35.473783,10.6342492 35.549783,11.0422492 35.185783,11.5632492 C34.990783,11.8402492 34.859783,12.1712492 34.743783,12.4942492 C34.432783,13.3532492 34.644783,14.0902492 35.282783,14.7372492 C35.909783,15.3732492 36.582783,15.6982492 37.459783,15.2422492 C37.763783,15.0842492 38.101783,14.9902492 38.404783,14.8322492 C38.899783,14.5732492 39.317783,14.6632492 39.686783,15.0562492 C39.863783,15.2432492 40.012783,15.4622492 40.204783,15.6312492 C41.032783,16.3592492 41.960783,16.9002492 43.100783,16.8652492 C44.516783,16.8222492 45.310783,15.7032492 44.820783,14.3882492 C44.584783,13.7572492 44.183783,13.1792492 43.804783,12.6112492 C43.497783,12.1512492 43.113783,11.7432492 42.794783,11.3512492 L42.794783,11.3512492 Z M94.453783,61.4402492 C89.054783,57.7572492 84.309783,53.3612492 79.279783,49.3362492 C78.885783,49.5322492 78.490783,49.7302492 78.024783,49.9622492 C78.159783,49.6682492 78.240783,49.4942492 78.320783,49.3202492 C78.268783,49.2712492 78.215783,49.2202492 78.163783,49.1702492 C77.819783,49.4132492 77.474783,49.6552492 76.980783,50.0042492 C77.089783,49.5882492 77.158783,49.3192492 77.235783,49.0272492 C76.309783,49.5232492 76.363783,49.9782492 77.408783,50.6962492 C77.582783,50.5222492 77.757783,50.3482492 77.945783,50.1602492 C78.102783,50.5612492 78.216783,50.8532492 78.305783,51.0812492 C78.132783,51.3432492 77.971783,51.5852492 77.824783,51.8072492 C77.486783,51.4672492 77.267783,51.2452492 77.047783,51.0242492 C76.815783,51.2602492 76.582783,51.4942492 76.327783,51.7512492 C75.579783,51.1602492 75.777783,50.4732492 76.133783,49.7742492 C75.300783,50.0492492 74.573783,50.2892492 73.836783,50.5332492 C73.529783,49.8252492 73.270783,49.2272492 72.976783,48.5462492 C72.681783,49.0332492 72.472783,49.3792492 72.262783,49.7262492 C72.152783,49.7712492 72.041783,49.8152492 71.930783,49.8602492 C72.085783,48.9572492 71.342783,48.7372492 70.976783,48.2042492 C70.608783,47.6702492 69.654783,47.8552492 68.854783,47.9172492 C68.994783,48.0872492 69.058783,48.2022492 69.154783,48.2752492 C72.312783,50.6842492 75.605783,52.8952492 78.977783,54.9882492 C81.720783,56.6932492 84.471783,58.3852492 87.234783,60.0572492 C89.144783,61.2142492 91.080783,62.3282492 93.043783,63.4832492 C93.532783,62.7742492 93.965783,62.1472492 94.453783,61.4402492 L94.453783,61.4402492 Z M25.532783,50.9672492 C27.229783,50.8412492 28.751783,50.2162492 29.872783,48.9422492 C30.549783,48.1732492 31.301783,47.9702492 32.231783,47.8722492 C34.185783,47.6692492 35.729783,46.7162492 36.785783,45.0542492 C37.105783,44.5512492 37.321783,43.9732492 37.038783,43.3352492 C36.383783,41.8572492 35.512783,40.6182492 33.779783,40.3142492 C32.889783,40.1582492 32.357783,39.6772492 32.027783,38.8102492 C31.808783,38.2352492 31.398783,37.6602492 30.921783,37.2742492 C30.015783,36.5442492 28.964783,36.8022492 28.164783,37.4312492 C27.183783,38.2022492 26.080783,38.3782492 24.935783,38.5412492 C24.636783,38.5832492 24.331783,38.5852492 24.032783,38.6282492 C21.994783,38.9212492 20.101783,39.5662492 18.477783,40.8882492 C17.319783,41.8312492 17.149783,43.6202492 18.246783,44.6282492 C18.900783,45.2282492 19.677783,45.7352492 20.477783,46.1202492 C21.117783,46.4282492 21.448783,46.8062492 21.418783,47.4872492 C21.387783,48.1662492 21.551783,48.8042492 21.993783,49.2932492 C22.926783,50.3282492 24.112783,50.8942492 25.532783,50.9672492 L25.532783,50.9672492 Z M49.135783,46.0812492 C49.694783,46.1552492 50.044783,45.8282492 50.294783,45.3832492 C50.503783,45.5642492 50.645783,45.6852492 50.795783,45.8132492 L50.795783,45.1192492 C50.999783,45.1942492 51.202783,45.2702492 51.428783,45.3542492 C51.421783,44.6732492 51.706783,44.1652492 52.627783,43.9802492 C52.869783,45.1272492 53.825783,44.9522492 54.665783,45.0562492 C57.146783,45.3602492 59.624783,45.6802492 62.103783,45.9912492 C64.412783,46.2812492 66.720783,46.5752492 69.030783,46.8562492 C71.425783,47.1482492 73.834783,47.3522492 76.216783,47.7302492 C79.573783,48.2632492 82.911783,48.9252492 86.258783,49.5222492 C89.353783,50.0752492 92.450783,50.6122492 95.544783,51.1662492 C97.837783,51.5752492 100.149783,51.8172492 102.470783,51.9702492 C103.002783,52.0052492 103.572783,52.1892492 104.086783,51.8522492 C103.809783,51.0422492 103.845783,50.9592492 103.203783,50.6822492 C101.985783,50.1552492 100.737783,49.6812492 99.472783,49.2802492 C97.093783,48.5272492 94.678783,47.8822492 92.302783,47.1182492 C88.696783,45.9592492 85.107783,44.7452492 81.516783,43.5382492 C78.242783,42.4382492 74.876783,41.6922492 71.520783,40.9042492 C69.717783,40.4812492 67.917783,40.1112492 66.045783,40.0812492 C63.060783,40.0322492 60.104783,40.2882492 57.153783,40.6852492 C55.924783,40.8512492 54.693783,41.0072492 53.473783,41.1662492 C53.494783,41.6052492 53.594783,41.9662492 53.501783,42.2692492 C53.430783,42.4982492 53.116783,42.6532492 52.910783,42.8432492 C52.753783,42.6682492 52.557783,42.5142492 52.449783,42.3132492 C52.333783,42.0942492 52.308783,41.8292492 52.223783,41.5922492 C52.207783,41.5472492 52.095783,41.5362492 52.004783,41.4992492 C51.809783,41.7992492 51.612783,42.1022492 51.356783,42.4952492 C51.148783,42.0842492 50.998783,41.7872492 50.853783,41.5002492 C50.700783,41.5402492 50.556783,41.5452492 50.455783,41.6132492 C50.285783,41.7262492 50.141783,41.8772492 49.989783,42.0152492 C48.790783,43.1092492 48.409783,43.1872492 47.214783,42.5862492 C46.903783,42.8112492 46.600783,43.0312492 46.113783,43.3852492 C46.076783,42.9442492 46.055783,42.6892492 46.034783,42.4352492 C46.212783,42.3492492 46.514783,42.2942492 46.545783,42.1722492 C46.634783,41.8082492 46.617783,41.4162492 46.642783,41.0402492 C46.848783,40.9822492 47.038783,40.9302492 47.460783,40.8122492 C46.964783,40.6042492 46.686783,40.4872492 46.299783,40.3252492 C46.212783,41.1132492 46.138783,41.7892492 46.064783,42.4652492 C45.792783,42.3562492 45.521783,42.2492492 45.217783,42.1282492 C45.077783,42.3982492 44.951783,42.6422492 44.799783,42.9332492 C43.888783,42.5702492 43.321783,41.5772492 42.289783,41.8402492 C42.082783,41.2082492 41.903783,40.6662492 41.679783,39.9842492 C41.032783,40.4702492 40.483783,40.8832492 39.954783,41.2792492 C40.053783,41.6342492 40.132783,41.9162492 40.236783,42.2862492 C40.936783,41.7752492 41.490783,42.0572492 42.046783,42.5032492 C41.668783,42.9222492 41.640783,43.6702492 40.854783,43.4872492 C40.749783,43.2742492 40.644783,43.0622492 40.498783,42.7652492 C40.159783,43.2842492 39.879783,43.7152492 39.439783,44.3892492 C40.086783,43.9722492 40.480783,43.7182492 40.874783,43.4652492 C40.875783,44.1232492 41.446783,44.2562492 41.891783,44.4512492 C41.689783,44.8772492 41.526783,45.2222492 41.362783,45.5672492 L41.403783,45.5272492 C40.958783,45.7332492 40.513783,45.9392492 40.065783,46.1472492 C39.907783,46.0602492 39.743783,45.9702492 39.396783,45.7772492 C39.480783,46.2262492 39.444783,46.5452492 39.585783,46.6862492 C39.977783,47.0782492 39.882783,47.4312492 39.663783,47.8412492 C39.610783,47.9402492 39.669783,48.1012492 39.676783,48.2342492 C40.690783,47.8432492 40.352783,46.8592492 40.764783,46.0782492 C40.930783,46.8252492 41.449783,47.3462492 41.219783,48.0742492 C41.204783,48.1222492 41.426783,48.2452492 41.586783,48.3702492 C41.652783,47.9902492 41.700783,47.7122492 41.759783,47.3722492 C42.079783,47.6202492 42.432783,48.0352492 42.570783,47.9742492 C43.068783,47.7482492 43.143783,47.9952492 43.291783,48.3562492 C43.383783,48.5782492 43.611783,48.7452492 43.789783,48.9272492 C43.825783,48.9642492 43.910783,48.9542492 44.005783,48.9732492 C44.088783,48.8392492 44.176783,48.6952492 44.260783,48.5612492 C44.066783,48.3312492 43.890783,48.1232492 43.689783,47.8852492 C43.959783,47.7112492 44.133783,47.6002492 44.341783,47.4652492 C43.922783,47.2742492 43.254783,47.4262492 43.269783,46.5722492 C43.641783,46.6772492 43.977783,46.7722492 44.289783,46.8602492 C44.485783,46.5692492 44.634783,46.3472492 44.784783,46.1242492 C44.851783,46.1422492 44.918783,46.1592492 44.986783,46.1772492 L44.986783,47.8132492 C45.048783,47.8182492 45.111783,47.8232492 45.174783,47.8282492 C45.413783,47.4482492 45.653783,47.0682492 45.900783,46.6782492 C46.257783,47.0112492 46.570783,47.3032492 46.881783,47.5942492 C47.382783,47.1062492 47.731783,46.5862492 48.541783,46.8272492 C48.969783,46.9542492 49.169783,46.4942492 49.163783,46.0572492 L49.135783,46.0812492 Z M61.320783,37.5312492 C61.701783,37.0902492 61.879783,37.7922492 62.195783,37.6912492 C62.335783,37.5382492 62.470783,37.3902492 62.581783,37.2682492 C62.922783,37.2332492 62.854783,37.9842492 63.369783,37.5772492 C63.528783,37.4512492 63.398783,38.1702492 63.911783,37.9902492 C64.098783,37.9252492 64.416783,38.2172492 64.666783,38.3592492 C64.963783,38.5282492 65.247783,38.7202492 65.546783,38.8862492 C65.829783,39.0432492 66.121783,39.2442492 66.462783,38.9392492 C66.370783,38.8182492 66.303783,38.7072492 66.214783,38.6182492 C63.882783,36.3142492 61.556783,34.0042492 59.207783,31.7172492 C58.747783,31.2702492 58.197783,30.9132492 57.685783,30.5212492 C57.363783,30.2732492 57.052783,30.1422492 56.623783,30.3662492 C56.104783,30.6372492 55.979783,30.2722492 55.893783,29.7942492 C56.443783,29.5792492 56.945783,29.3822492 57.448783,29.1852492 C57.216783,28.5332492 56.838783,28.2302492 56.120783,28.3052492 C56.167783,27.6642492 56.208783,27.0982492 56.258783,26.3942492 C55.997783,26.8232492 55.808783,27.1332492 55.495783,27.6472492 C55.422783,27.0252492 55.377783,26.6472492 55.327783,26.2212492 C54.937783,26.5422492 54.663783,26.8982492 54.104783,26.9842492 C54.375783,26.4392492 54.581783,26.0242492 54.784783,25.6162492 C55.060783,25.5762492 55.314783,25.5402492 55.568783,25.5042492 C55.083783,25.1092492 54.558783,24.9732492 54.063783,24.7672492 C53.674783,24.6052492 53.091783,24.6712492 53.032783,24.0312492 C53.865783,24.3762492 53.865783,24.3762492 54.475783,23.3552492 C53.855783,23.0062492 53.343783,23.3122492 52.756783,23.5282492 C52.889783,23.7642492 52.971783,23.9082492 53.053783,24.0542492 C52.795783,24.2112492 52.536783,24.3692492 52.230783,24.5562492 C51.994783,23.6892492 52.551783,23.1152492 52.796783,22.3982492 C52.529783,22.2732492 52.288783,22.1612492 51.948783,22.0022492 C51.871783,22.3972492 51.819783,22.6662492 51.754783,23.0012492 C51.553783,22.9802492 51.349783,22.9582492 51.145783,22.9372492 C51.280783,22.4002492 50.543783,22.4802492 50.529783,22.0822492 C50.518783,21.7322492 50.592783,21.3812492 50.634783,20.9692492 C50.731783,21.0422492 51.557783,21.6712492 51.566783,21.6782492 C51.591783,21.1612492 51.615783,20.6612492 51.642783,20.0922492 C51.241783,20.3122492 50.931783,20.4812492 50.583783,20.6732492 C50.477783,18.8602492 50.477783,18.8602492 49.709783,19.1272492 C49.999783,19.4072492 50.267783,19.6492492 50.089783,20.1422492 C49.965783,20.4822492 50.288783,20.8542492 49.820783,21.2612492 C49.443783,21.5872492 49.321783,22.3022492 49.266783,22.8612492 C49.239783,23.1282492 49.631783,23.4372492 49.875783,23.7852492 C49.628783,23.7852492 49.421783,23.7722492 49.217783,23.7892492 C49.042783,23.8032492 48.869783,23.8522492 48.557783,23.9112492 C48.799783,24.1052492 48.891783,24.2422492 48.987783,24.2452492 C49.347783,24.2522492 49.710783,24.2332492 50.066783,24.1832492 C50.141783,24.1712492 50.180783,23.9722492 50.254783,23.8722492 C50.505783,23.5352492 50.791783,23.3712492 51.234783,23.7062492 C50.988783,23.9212492 50.796783,24.0892492 50.604783,24.2572492 C51.090783,24.7992492 50.296783,25.2202492 50.482783,25.8102492 C50.942783,25.8972492 51.620783,25.8362492 51.517783,26.6612492 C51.246783,26.5522492 50.976783,26.4382492 50.702783,26.3392492 C50.663783,26.3242492 50.600783,26.3742492 50.464783,26.4282492 C50.729783,26.7032492 50.969783,26.9512492 51.306783,27.2992492 C51.394783,26.9402492 51.434783,26.7782492 51.474783,26.6152492 C52.320783,27.2942492 52.987783,28.2302492 54.172783,28.4192492 C54.358783,28.4482492 54.532783,28.6522492 54.679783,28.8072492 C55.002783,29.1472492 55.305783,29.5062492 55.645783,29.8912492 C55.374783,30.0182492 55.124783,30.1362492 54.790783,30.2932492 C55.131783,30.3552492 55.359783,30.3972492 55.587783,30.4392492 C55.520783,30.7062492 55.516783,31.0182492 55.368783,31.2282492 C55.216783,31.4432492 54.923783,31.5612492 54.796783,31.6482492 C56.120783,34.7142492 58.569783,36.8002492 60.590783,39.1682492 C60.861783,38.5702492 61.103783,38.0392492 61.344783,37.5082492 L61.320783,37.5312492 Z M52.795783,40.2682492 C55.103783,39.9602492 57.275783,39.6712492 59.597783,39.3622492 C59.326783,38.9952492 59.174783,38.7552492 58.988783,38.5422492 C57.460783,36.7842492 55.922783,35.0342492 54.395783,33.2742492 C53.771783,32.5562492 53.134783,32.0362492 52.063783,32.4262492 C51.476783,32.6402492 50.860783,32.3842492 50.420783,31.9092492 C49.981783,31.4372492 49.550783,30.9482492 49.175783,30.4252492 C47.436783,27.9962492 45.464783,25.7812492 43.255783,23.7692492 C42.114783,22.7302492 40.735783,22.1252492 39.363783,21.5072492 C39.043783,21.3622492 38.606783,21.3972492 38.239783,21.4562492 C37.392783,21.5902492 36.628783,21.4322492 35.868783,21.0432492 C34.353783,20.2692492 33.168783,19.1632492 32.507783,17.5962492 C32.023783,16.4512492 31.617783,15.2642492 31.295783,14.0642492 C30.849783,12.4042492 30.461783,10.7252492 30.149783,9.03424918 C29.930783,7.85424918 29.865783,6.64324918 29.758783,5.44324918 C29.394783,1.38324918 34.206783,-1.22375082 37.295783,0.58324918 C40.195783,2.27824918 43.084783,3.96224918 45.063783,6.86424918 C47.052783,9.78224918 49.273783,12.5432492 51.346783,15.4062492 C52.101783,16.4482492 52.633783,17.6582492 53.426783,18.6662492 C54.953783,20.6062492 56.111783,22.7742492 57.437783,24.8372492 C57.826783,25.4412492 58.032783,26.1662492 58.299783,26.8442492 C58.665783,27.7722492 58.654783,28.6962492 58.185783,29.5782492 C61.585783,32.4072492 64.564783,35.6442492 67.740783,38.6732492 C68.135783,39.0502492 68.573783,39.2272492 69.097783,39.3472492 C73.464783,40.3472492 77.848783,41.2822492 82.096783,42.7452492 C86.047783,44.1052492 90.009783,45.4342492 93.965783,46.7822492 C96.816783,47.7552492 99.676783,48.7022492 102.504783,49.7392492 C103.251783,50.0132492 103.962783,50.4972492 104.566783,51.0242492 C105.430783,51.7802492 105.198783,52.6102492 104.089783,52.9202492 C103.686783,53.0332492 103.237783,53.0472492 102.815783,53.0192492 C100.194783,52.8412492 97.587783,52.5632492 94.985783,52.1642492 C91.703783,51.6622492 88.435783,51.1442492 85.220783,50.2932492 C84.237783,50.0322492 83.188783,50.0232492 82.090783,49.8892492 C82.923783,51.0992492 92.842783,59.5402492 94.607783,60.5732492 C95.217783,59.8622492 95.079783,58.9672492 95.193783,58.1402492 C95.221783,57.9312492 95.109783,57.6892492 95.173783,57.5032492 C95.246783,57.2912492 95.409783,57.0402492 95.599783,56.9562492 C95.882783,56.8312492 96.169783,56.9132492 96.356783,57.2452492 C96.985783,58.3652492 97.339783,59.6122492 97.261783,60.8422492 C97.164783,62.3902492 97.899783,63.2712492 98.991783,64.1462492 C100.402783,65.2762492 101.717783,66.5262492 103.054783,67.7482492 C103.361783,68.0282492 103.586783,68.3972492 103.823783,68.6942492 C103.123783,69.8972492 103.022783,69.9752492 101.970783,69.5182492 C100.392783,68.8332492 98.845783,68.0782492 97.175783,67.3032492 C96.959783,68.1182492 96.703783,68.9192492 96.540783,69.7382492 C96.162783,71.6432492 95.025783,72.9932492 93.485783,74.0602492 C92.406783,74.8062492 90.816783,74.5982492 89.985783,73.5782492 C89.756783,73.2972492 89.587783,72.8972492 89.554783,72.5372492 C89.405783,70.8762492 89.633783,69.2652492 90.415783,67.7672492 C90.990783,66.6632492 91.587783,65.5702492 92.213783,64.4022492 C92.067783,64.2832492 91.922783,64.1362492 91.751783,64.0282492 C88.642783,62.0882492 85.515783,60.1752492 82.422783,58.2082492 C79.657783,56.4502492 76.895783,54.6862492 74.196783,52.8302492 C71.994783,51.3162492 69.863783,49.6952492 67.755783,48.0522492 C67.269783,47.6732492 66.767783,47.5312492 66.230783,47.4552492 C64.567783,47.2192492 62.896783,47.0282492 61.226783,46.8352492 C58.402783,46.5072492 55.575783,46.1902492 52.689783,45.8622492 C52.049783,47.1162492 50.856783,47.7452492 49.679783,48.3712492 C46.855783,49.8722492 43.878783,51.0092492 40.846783,52.0142492 C37.406783,53.1542492 33.893783,53.9392492 30.297783,54.4172492 C28.341783,54.6772492 26.406783,54.5042492 24.514783,54.2262492 C23.006783,54.0042492 21.577783,53.1872492 20.390783,52.1802492 C18.354783,50.4522492 16.390783,48.6392492 14.432783,46.8222492 C13.173783,45.6542492 12.100783,45.4562492 10.580783,46.2412492 C8.99078299,47.0632492 7.60478299,48.1442492 6.44278299,49.5052492 C5.43178299,50.6892492 4.11678299,51.1192492 2.62178299,50.9412492 C2.19578299,50.8912492 1.73678299,50.5962492 1.41178299,50.2872492 C-0.189217007,48.7622492 -0.442217007,46.2302492 0.722782993,44.2102492 C2.12478299,41.7782492 4.11478299,40.0332492 6.63478299,38.7982492 C8.98878299,37.6442492 11.488783,37.0442492 14.027783,36.5492492 C15.377783,36.2852492 16.750783,36.1402492 18.094783,35.8552492 C19.652783,35.5222492 21.199783,35.1312492 22.732783,34.6992492 C24.225783,34.2802492 25.681783,33.7302492 27.177783,33.3252492 C28.705783,32.9122492 30.292783,32.8752492 31.740783,33.5242492 C32.700783,33.9552492 33.648783,34.6002492 34.352783,35.3752492 C36.035783,37.2302492 38.197783,37.9972492 40.539783,38.2672492 C43.017783,38.5512492 45.523783,38.5952492 48.017783,38.7402492 C48.404783,38.7632492 48.794783,38.7512492 49.182783,38.7752492 C50.540783,38.8642492 51.848783,39.0872492 52.795783,40.2682492 L52.795783,40.2682492 Z" id="Fill-120"></path>
            <path d="M83.546383,67.3244492 C83.326383,67.3784492 83.170383,67.3704492 83.088383,67.4434492 C81.502383,68.8714492 80.947383,70.7084492 81.040383,72.7754492 C81.048383,72.9514492 81.320383,73.2124492 81.514383,73.2624492 C81.872383,73.3574492 82.107383,73.0784492 82.089383,72.7494492 C81.999383,71.0364492 82.584383,69.5554492 83.528383,68.1674492 C83.654383,67.9824492 83.546383,67.6384492 83.546383,67.3244492 M79.720383,73.0984492 C79.859383,70.4814492 80.782383,68.3934492 82.777383,66.8114492 C83.345383,66.3614492 83.781383,65.7474492 84.327383,65.2624492 C84.840383,64.8084492 85.388383,64.3784492 85.977383,64.0344492 C86.350383,63.8164492 86.833383,63.8274492 87.149383,64.2364492 C87.440383,64.6124492 87.267383,64.9744492 87.024383,65.3004492 C85.820383,66.9054492 85.335383,68.7514492 85.145383,70.7144492 C85.045383,71.7454492 84.797383,72.7564492 84.214383,73.6404492 C83.979383,73.9974492 83.721383,74.3504492 83.415383,74.6454492 C82.646383,75.3864492 81.649383,75.5594492 80.801383,75.1184492 C79.937383,74.6674492 79.577383,73.9424492 79.720383,73.0984492" id="Fill-122"></path>
            <path d="M101.998583,59.5891492 C102.960583,60.7741492 103.870583,61.8961492 104.782583,63.0161492 C104.836583,63.0821492 104.900583,63.1741492 104.971583,63.1861492 C105.206583,63.2231492 105.542583,63.3341492 105.662583,63.2241492 C105.841583,63.0601492 105.933583,62.7331492 105.939583,62.4721492 C105.943583,62.2931492 105.771583,62.0731492 105.620583,61.9351492 C104.892583,61.2671492 104.161583,60.5981492 103.394583,59.9751492 C103.040583,59.6881492 102.620583,59.4351492 101.998583,59.5891492 M99.196583,57.4911492 C99.771583,57.2481492 100.234583,57.3881492 100.656583,57.5431492 C103.624583,58.6361492 106.062583,60.3681492 107.519583,63.2811492 C108.292583,64.8281492 107.676583,65.9641492 105.942583,65.9712073 C104.309583,65.9771492 102.866583,65.5201492 102.202583,63.7901492 C101.879583,62.9491492 101.571583,62.1011492 101.198583,61.2811492 C100.736583,60.2651492 100.221583,59.2721492 99.713583,58.2771492 C99.583583,58.0221492 99.398583,57.7941492 99.196583,57.4911492" id="Fill-124"></path>
            <path d="M70.450683,43.4543492 C70.476683,42.5383492 69.526683,41.7943492 68.492683,41.9083492 C67.963683,41.9673492 67.567683,42.2773492 67.458683,42.7383492 C67.384683,43.0553492 67.536683,43.4953492 67.731683,43.7843492 C67.935683,44.0893492 68.283683,44.3263492 68.614683,44.5093492 C69.625683,45.0623492 70.417683,44.5943492 70.450683,43.4543492 L70.450683,43.4543492 Z M73.233683,43.9793492 C73.256683,44.3543492 73.280683,44.7283492 73.323683,45.4203492 C72.846683,44.9763492 72.609683,44.7073492 72.323683,44.5053492 C72.072683,44.3273492 71.766683,44.2243492 71.367683,44.2483492 C71.737683,44.5223492 72.107683,44.7973492 72.476683,45.0713492 C72.441683,45.1543492 72.405683,45.2373492 72.368683,45.3203492 C72.159683,45.2953492 71.943683,45.2253492 71.742683,45.2563492 C71.524683,45.2883492 71.321683,45.4143492 71.072683,45.5163492 C70.961683,45.3153492 70.851683,45.1163492 70.625683,44.7083492 C70.599683,45.0583492 70.590683,45.1903492 70.580683,45.3233492 C70.568683,45.4743492 70.554683,45.6253492 70.534683,45.8663492 C69.656683,45.6063492 68.933683,45.1093492 68.021683,45.3933492 C67.782683,45.4683492 67.364683,44.9723492 67.028683,44.7373492 C66.363683,44.2703492 65.660683,43.9373492 64.810683,44.0013492 C64.692683,44.0113492 64.557683,43.8073492 64.385683,43.6633492 C64.852683,42.6343492 65.478683,41.9673492 66.687683,41.9193492 C67.172683,41.8993492 67.638683,41.5483492 68.125683,41.3793492 C69.023683,41.0663492 70.246683,41.4933492 70.820683,42.3243492 C70.985683,42.2013492 71.149683,42.0783492 71.298683,41.9663492 C71.850683,42.1863492 72.393683,42.4033492 72.959683,42.6283492 C73.030683,43.0923492 72.394683,43.7363492 73.270683,44.0163492 L73.233683,43.9793492 Z" id="Fill-126"></path>
            <path d="M73.270483,44.0168492 C73.177483,43.4018492 73.148483,42.8168492 74.031483,42.4828492 C74.177483,42.9868492 74.308483,43.4388492 74.441483,43.8998492 C74.669483,43.7038492 74.915483,43.4938492 75.254483,43.2028492 L75.254483,44.1638492 C75.518483,43.7378492 75.676483,43.4828492 75.834483,43.2268492 C75.903483,43.2538492 75.973483,43.2808492 76.042483,43.3078492 C75.958483,43.6818492 75.874483,44.0568492 75.780483,44.4748492 C76.309483,44.7078492 76.770483,44.9118492 77.250483,45.1228492 C76.541483,45.4838492 75.812483,45.2258492 75.169483,44.4038492 C74.967483,44.6748492 74.769483,44.9448492 74.564483,45.2088492 C74.543483,45.2348492 74.483483,45.2298492 74.441483,45.2398492 C74.166483,45.0608492 73.876483,44.9008492 73.630483,44.6888492 C73.567483,44.6348492 73.709483,44.3768492 73.649483,44.2828492 C73.563483,44.1478492 73.376483,44.0778492 73.233483,43.9798492 L73.270483,44.0168492 Z" id="Fill-128"></path>
            <path d="M41.363283,45.5676492 C41.756283,45.7906492 42.178283,45.8226492 42.696283,45.8286492 C42.470283,46.0896492 42.244283,46.3506492 41.980283,46.6546492 C41.594283,46.3296492 41.404283,45.9796492 41.403283,45.5276492 L41.363283,45.5676492 Z" id="Fill-130"></path>
            <path d="M46.248083,44.3645492 C46.440083,44.6685492 46.537083,44.8485492 46.660083,45.0075492 C46.787083,45.1725492 46.940083,45.3155492 47.225083,45.6205492 C46.691083,45.5645492 46.391083,45.5335492 45.980083,45.4905492 C46.071083,45.1105492 46.146083,44.7915492 46.248083,44.3645492" id="Fill-132"></path>
            <path d="M42.501983,43.0266492 C42.765983,42.7826492 42.952983,42.6106492 43.139983,42.4376492 C43.240983,42.5916492 43.443983,42.7676492 43.417983,42.8946492 C43.373983,43.1006492 43.178983,43.2746492 43.047983,43.4626492 C42.904983,43.3476492 42.761983,43.2336492 42.501983,43.0266492" id="Fill-134"></path>
            <path d="M44.725083,44.9494492 C44.510083,44.3274492 44.348083,43.9504492 44.638083,43.5444492 C45.247083,43.8354492 45.247083,43.8354492 44.725083,44.9494492" id="Fill-136"></path>
            <path d="M63.334483,42.7893492 C63.489483,43.6473492 63.327483,43.7363492 62.090483,43.4313492 C62.576483,43.1803492 62.941483,42.9913492 63.334483,42.7893492" id="Fill-138"></path>
            <path d="M49.164083,46.0569492 L48.154083,46.0569492 C48.560083,45.7569492 48.755083,45.6609492 48.881083,45.5079492 C49.030083,45.3279492 49.120083,45.0999492 49.272083,44.8249492 C49.866083,45.5699492 49.151083,45.7249492 49.136083,46.0809492 L49.164083,46.0569492 Z" id="Fill-140"></path>
            <path d="M79.813483,52.5852492 C79.948483,52.4962492 80.043483,52.4002492 80.157483,52.3662492 C80.309483,52.3202492 80.476483,52.3232492 80.567483,52.3132492 C80.608483,52.7102492 80.610483,53.0532492 80.686483,53.3802492 C80.792483,53.8422492 80.577483,53.9902492 80.115483,54.0752492 C80.008483,53.5492492 79.912483,53.0702492 79.813483,52.5852492" id="Fill-142"></path>
            <path d="M78.457983,51.6067492 C78.592983,51.6987492 78.642983,51.7137492 78.659983,51.7477492 C78.834983,52.0717492 79.114983,52.4027492 78.707983,52.7417492 C78.636983,52.7997492 78.407983,52.7967492 78.362983,52.7387492 C78.089983,52.3757492 78.018983,52.0027492 78.457983,51.6067492" id="Fill-144"></path>
            <path d="M81.570783,55.1330492 C81.309783,54.4770492 81.309783,54.4770492 82.188783,54.1000492 C82.436783,54.6830492 81.841783,54.7340492 81.570783,55.1330492" id="Fill-146"></path>
            <path d="M61.344783,37.5080492 C61.113783,37.4410492 60.881783,37.3720492 60.592783,37.2870492 C60.698783,36.8260492 60.788783,36.4360492 60.879783,36.0410492 C61.860783,36.3290492 61.308783,37.0070492 61.321783,37.5310492 L61.344783,37.5080492 Z" id="Fill-148"></path>
            <path d="M53.061583,25.9201492 C53.349583,25.5501492 53.454583,24.9691492 54.262583,25.4671492 C54.076583,25.5501492 53.891583,25.6341492 53.695583,25.7231492 C53.880583,25.7991492 54.059583,25.8741492 54.297583,25.9741492 C53.843583,26.6141492 53.469583,25.8501492 53.061583,25.9201492" id="Fill-150"></path>
        </g>
    </g>
</svg>