<?xml version="1.0" encoding="UTF-8"?>
<svg width="44px" height="58px" viewBox="0 0 44 58" version="1.1" xmlns="http://www.w3.org/2000/svg" xmlns:xlink="http://www.w3.org/1999/xlink">
    <!-- Generator: Sketch 61.2 (89653) - https://sketch.com -->
    <title>white_light</title>
    <desc>Created with Sketch.</desc>
    <g id="Page-1" stroke="none" stroke-width="1" fill="none" fill-rule="evenodd">
        <g id="white_light" fill="#FFFFFF">
            <path d="M34.3987043,15.6545268 L34.2387043,15.5375268 C33.9177043,15.7655268 33.9177043,15.7655268 33.8477043,16.2925268 C34.0957043,16.0055268 34.2477043,15.8295268 34.3987043,15.6545268 M23.1587043,36.8125268 C23.2317043,37.4315268 23.2317043,37.4315268 23.6467043,37.2595268 C23.4857043,37.1135268 23.3447043,36.9835268 23.1587043,36.8125268 M18.3317043,32.6885268 C18.2827043,32.6215268 18.2337043,32.5535268 18.1847043,32.4865268 L17.8057043,32.7385268 C17.8597043,32.8035268 17.9457043,32.9345268 17.9647043,32.9255268 C18.0947043,32.8625268 18.2117043,32.7705268 18.3317043,32.6885268 M16.9307043,33.0335268 C17.2727043,32.6975268 17.3617043,32.4555268 17.0567043,32.1245268 C16.7597043,32.3485268 16.7137043,32.5885268 16.9307043,33.0335268 M36.1067043,16.2955268 C36.1697043,15.6795268 36.1487043,15.6595268 35.5557043,15.6835268 C35.7347043,15.8835268 35.9067043,16.0745268 36.1067043,16.2955268 M15.4187043,35.9135268 C15.1197043,35.9275268 14.9037043,35.9385268 14.6797043,35.9505268 C14.7427043,36.1485268 14.7987043,36.3265268 14.8627043,36.5265268 C15.0147043,36.4635268 15.1227043,36.4515268 15.1677043,36.3915268 C15.2547043,36.2755268 15.3077043,36.1335268 15.4187043,35.9135268 M23.2097043,24.6355268 C23.1407043,25.1105268 23.1407043,25.1105268 23.9417043,25.4965268 C24.0377043,24.9595268 23.4277043,25.0645268 23.2097043,24.6355268 M33.9287043,18.5115268 C34.0857043,18.1015268 34.7147043,18.1305268 34.8117043,17.5265268 C34.2567043,17.8705268 34.2567043,17.8705268 33.7437043,17.5845268 C33.8017043,17.8725268 33.8597043,18.1665268 33.9287043,18.5115268 M16.1497043,35.2135268 C16.1547043,35.5345268 16.1577043,35.7915268 16.1607043,36.0605268 C16.3127043,36.0965268 16.4507043,36.1305268 16.5297043,36.1495268 C16.6657043,35.8965268 16.7737043,35.6955268 16.9117043,35.4365268 C16.6357043,35.3555268 16.4207043,35.2925268 16.1497043,35.2135268 M33.0267043,16.4505268 C33.2537043,16.9765268 33.7307043,17.0375268 34.1617043,17.2515268 C34.2317043,16.9705268 34.2867043,16.7545268 34.3787043,16.3815268 C33.8767043,16.8285268 33.4637043,16.7395268 33.0267043,16.4505268 M34.9917043,17.4595268 C35.1627043,17.3385268 35.3927043,17.2445268 35.3867043,17.1685268 C35.3567043,16.7685268 35.2677043,16.3745268 35.1847043,15.8915268 C34.9647043,16.0985268 34.8087043,16.2465268 34.7627043,16.2895268 C34.8457043,16.7145268 34.9037043,17.0095268 34.9917043,17.4595268 M18.4147043,41.4115268 C18.0327043,41.0965268 17.7407043,40.8565268 17.4147043,40.5885268 C17.3357043,40.9075268 17.2747043,41.1535268 17.2197043,41.3785268 C16.8107043,41.4045268 16.4627043,41.4275268 16.0977043,41.4515268 C16.0917043,41.7715268 16.0867043,42.0325268 16.0807043,42.3225268 C15.9107043,42.3435268 15.7637043,42.3635268 15.7157043,42.3695268 C15.7587043,42.6945268 15.8017043,43.0195268 15.8507043,43.3865268 C16.6527043,42.7685268 17.4917043,42.1225268 18.4147043,41.4115268 M21.3447043,35.7215268 L21.3577043,35.7575268 C21.3917043,35.6485268 21.4247043,35.5395268 21.4577043,35.4335268 C21.2387043,35.3445268 21.0557043,35.2695268 20.9197043,35.2145268 C20.7447043,34.2935268 21.1147043,33.6755268 21.7867043,33.2045268 C23.0527043,32.3155268 24.3177043,31.4265268 25.5927043,30.5505268 C26.0617043,30.2275268 26.5547043,29.9395268 27.0297043,29.6395268 C26.9277043,29.2415268 26.8697043,28.9175268 26.7597043,28.6115268 C26.5897043,28.1405268 26.8437043,28.1075268 27.1857043,28.1125268 C27.3107043,28.4735268 27.1737043,28.9255268 27.6937043,29.1625268 C27.7747043,28.7115268 27.3917043,28.1805268 28.0157043,27.9675268 C28.1227043,28.1335268 28.2317043,28.3005268 28.3447043,28.4765268 C28.7527043,28.1965268 28.3457043,28.0135268 28.2907043,27.7945268 C28.1937043,27.4165268 28.3317043,27.0415268 28.5617043,27.0295268 C28.7807043,27.0185268 29.1087043,27.3485268 29.1317043,27.6515268 C29.1397043,27.7545268 29.0257043,27.8655268 28.9217043,28.0585268 C29.7967043,27.7555268 28.9317043,27.1465268 29.2967043,26.8005268 C29.3087043,26.7905268 29.2657043,26.7205268 29.2417043,26.6655268 C29.0287043,26.6985268 28.8227043,26.7315268 28.6147043,26.7645268 C28.6157043,26.1635268 27.5867043,26.1945268 27.8067043,25.4495268 C28.2767043,25.4295268 28.4607043,25.8015268 28.7847043,26.1035268 C28.7937043,25.8005268 28.7987043,25.5975268 28.8047043,25.3655268 C28.4047043,25.3095268 27.9447043,25.4825268 27.7607043,24.9825268 C27.8067043,24.8445268 27.8537043,24.7075268 27.9347043,24.4675268 C27.5847043,24.6295268 27.3747043,24.7265268 27.0767043,24.8635268 C27.3127043,24.3705268 27.4927043,23.9945268 27.6517043,23.6615268 C27.8427043,23.5515268 28.0207043,23.4665268 28.1807043,23.3555268 C28.8227043,22.9075268 29.4217043,22.3805268 30.1117043,22.0295268 C30.4747043,21.8445268 30.6427043,21.6085268 30.7467043,21.2815268 C31.4257043,21.4185268 31.7997043,21.0245268 32.1967043,20.6315268 C31.8207043,20.3715268 31.5467043,20.0775268 31.7727043,19.5725268 C31.8027043,19.5035268 31.6837043,19.3675268 31.6327043,19.2625268 L31.6447043,19.3035268 C32.0617043,18.8475268 32.4317043,19.5915268 32.8517043,19.3595268 C32.7617043,19.1265268 32.2197043,19.3585268 32.3857043,18.8915268 C32.9957043,18.7355268 32.9957043,18.7355268 33.3267043,19.1105268 C33.2977043,19.2585268 33.2547043,19.4045268 33.2467043,19.5525268 C33.2427043,19.6275268 33.3017043,19.7035268 33.3347043,19.7835268 C33.5357043,19.6645268 33.7137043,19.5575268 33.9177043,19.4355268 C33.6967043,19.3245268 33.4927043,19.2215268 33.2887043,19.1195268 C33.5737043,18.6625268 33.3107043,18.2015268 33.2527043,17.7595268 C33.1877043,17.2725268 32.7747043,16.9825268 32.3497043,16.7755268 C31.8047043,16.9505268 31.2917043,17.1065268 31.0407043,17.7355268 C30.9197043,18.0385268 30.5397043,18.2465268 30.2587043,18.4765268 C29.9367043,18.7425268 29.5947043,18.9835268 29.3167043,19.1935268 C29.3237043,19.4295268 29.3277043,19.5765268 29.3367043,19.9315268 C29.1087043,19.6675268 29.0227043,19.5655268 28.8937043,19.4165268 C28.6727043,19.5435268 28.4387043,19.6725268 28.2127043,19.8135268 C28.1877043,19.8305268 28.2107043,19.9215268 28.2107043,19.9735268 C28.4077043,19.9785268 28.6047043,19.9835268 28.9587043,19.9925268 C28.3977043,20.4745268 27.9527043,20.1715268 27.5627043,20.1755268 C27.2637043,20.4915268 26.9847043,20.7855268 26.6987043,21.0875268 C26.7787043,21.1425268 26.8567043,21.1965268 26.9357043,21.2515268 C26.6137043,21.6795268 26.1337043,21.3165268 25.8607043,21.4885268 C25.5157043,21.7055268 25.2067043,21.7645268 24.7957043,21.6315268 C24.7667043,21.9745268 24.4707043,22.2595268 25.0317043,22.3725268 C25.3237043,22.4305268 25.2307043,22.6815268 25.0607043,22.8655268 C24.5737043,22.8815268 24.0537043,22.4195268 23.5217043,22.9835268 C23.7947043,23.0325268 23.9977043,23.0685268 24.2137043,23.1065268 C24.1667043,23.3155268 24.1347043,23.4545268 24.1037043,23.5875268 C24.2317043,23.6165268 24.3497043,23.6425268 24.4327043,23.6615268 C24.4697043,23.9905268 24.5037043,24.2905268 24.5417043,24.6265268 C24.3427043,24.6015268 24.1567043,24.5795268 23.7807043,24.5345268 C23.9937043,24.7465268 24.0657043,24.8835268 24.1617043,24.9045268 C24.8697043,25.0575268 24.9337043,25.1205268 25.0187043,25.8715268 C25.0047043,25.9885268 24.9917043,26.1055268 24.9777043,26.2235268 C24.8377043,26.6785268 25.1227043,26.9095268 25.4677043,27.0865268 C25.2357043,27.2395268 25.0297043,27.3725268 24.8287043,27.5115268 C24.5947043,27.6755268 24.3867043,27.9065268 24.1287043,27.9965268 C23.7237043,28.1355268 24.0857043,28.4895268 23.8807043,28.6745268 C23.6857043,28.6205268 23.4877043,28.5655268 23.2647043,28.5045268 C23.2827043,28.7625268 23.2947043,28.9425268 23.3127043,29.1945268 C22.7627043,28.7655268 22.7627043,28.7655268 22.5307043,29.2405268 L22.5617043,29.2365268 C22.3917043,29.3525268 22.2217043,29.4675268 22.0517043,29.5845268 L22.0957043,29.5775268 C21.6487043,29.5245268 21.2117043,29.5205268 20.8457043,29.8305268 C20.8567043,30.1415268 20.8667043,30.4345268 20.8747043,30.6765268 C20.4437043,30.8585268 20.0677043,31.0165268 19.6667043,31.1855268 C18.8937043,30.6825268 18.7307043,30.7105268 18.6277043,31.3905268 C18.8657043,31.3395268 19.1047043,31.2885268 19.3367043,31.2385268 C19.2977043,31.6735268 19.2657043,32.0255268 19.2287043,32.4455268 C18.8667043,32.7265268 18.4507043,33.0515268 18.0207043,33.3865268 C18.1537043,33.6795268 18.1477043,33.7435268 17.8867043,34.0635268 C17.7237043,33.8835268 17.5837043,33.6855268 17.4007043,33.5395268 C17.2777043,33.4395268 17.0587043,33.3215268 16.9467043,33.3675268 C16.5617043,33.5275268 16.5187043,33.1205268 16.2677043,33.0105268 C16.1537043,33.1755268 16.0417043,33.3385268 15.8547043,33.6085268 C16.3987043,33.7875268 16.8697043,33.9425268 17.3777043,34.1095268 C17.3897043,34.3655268 17.3887043,34.6365268 17.4237043,34.9045268 C17.4397043,35.0235268 17.5117043,35.1455268 17.5867043,35.2435268 C17.8257043,35.5505268 17.8307043,35.5465268 17.3687043,35.6865268 C17.3347043,35.6975268 17.3057043,35.7285268 17.2307043,35.7795268 C17.4487043,35.8795268 17.6287043,35.9615268 17.8237043,36.0495268 C17.8957043,35.8655268 17.9457043,35.7375268 18.0017043,35.5935268 C18.5997043,35.6145268 18.4547043,36.0855268 18.5947043,36.4335268 C17.9137043,36.2625268 17.0497043,36.5735268 16.4497043,37.1735268 C16.4977043,37.2425268 16.5407043,37.3205268 16.5977043,37.3865268 C17.1067043,37.9745268 17.1177043,38.2285268 16.6237043,38.7905268 C16.4847043,38.9475268 16.3047043,39.0675268 16.1367043,39.1965268 C15.6317043,39.5865268 15.1327043,39.9845268 14.6147043,40.3555268 C14.3157043,40.5705268 14.0247043,40.7705268 14.0847043,41.1785268 C13.8757043,41.1925268 13.7377043,41.2025268 13.5837043,41.2125268 C13.7667043,41.6535268 14.0767043,41.8635268 14.5817043,41.9475268 C14.4177043,41.4595268 14.3607043,41.0475268 14.8337043,40.7955268 C15.2257043,40.5875268 15.2897043,41.0865268 15.5197043,41.1695268 C15.7917043,41.0105268 15.9887043,40.9135268 15.8347043,40.5435268 C15.7277043,40.2845268 15.9727043,40.1965268 16.2217043,40.2995268 C16.2957043,40.4795268 16.3657043,40.6525268 16.4417043,40.8385268 C16.8367043,40.5995268 16.6627043,40.4255268 16.5197043,40.2105268 C16.4667043,40.1325268 16.5577043,39.9585268 16.5827043,39.8285268 C16.7157043,39.8585268 16.8717043,39.8555268 16.9767043,39.9275268 C17.0797043,39.9985268 17.1297043,40.1455268 17.2267043,40.2955268 C17.6277043,39.3815268 17.6277043,39.3815268 18.7287043,39.2345268 C18.6167043,39.8425268 18.1507043,40.0355268 17.6047043,40.2015268 C17.9487043,40.6095268 18.5737043,40.5915268 18.5367043,41.2525268 C19.2987043,40.6505268 19.9847043,40.1445268 20.6247043,39.5885268 C20.9037043,39.3445268 21.3367043,39.2165268 21.3907043,38.7585268 C21.8237043,38.7905268 21.9607043,38.4175268 22.2267043,38.1935268 C22.6867043,37.8055268 22.7227043,37.8485268 22.4267043,37.2475268 C22.3337043,37.3335268 22.2577043,37.4255268 22.1627043,37.4855268 C22.0677043,37.5445268 21.9527043,37.5685268 21.8047043,37.6235268 C21.6587043,37.3705268 21.5317043,37.1505268 21.3847043,36.8955268 C21.6727043,36.7885268 21.8907043,36.7075268 22.1057043,36.6275268 C22.0807043,36.3505268 22.0587043,36.1125268 22.0407043,35.9175268 C21.7867043,35.8455268 21.5657043,35.7835268 21.3447043,35.7215268 M30.6967043,23.6065268 C31.3207043,23.7155268 31.7567043,23.8155268 32.1987043,23.8635268 C32.8577043,23.9345268 33.4437043,24.1755268 33.9477043,24.5875268 C34.5387043,25.0695268 34.5307043,25.5205268 33.9437043,25.9975268 C31.9117043,27.6435268 29.8797043,29.2925268 27.8327043,30.9205268 C27.4067043,31.2585268 26.9247043,31.5335268 26.4507043,31.8055268 C25.4787043,32.3655268 24.5477043,32.9785268 23.6147043,33.7905268 C24.2147043,33.9865268 24.7427043,34.0085268 25.2747043,34.0025268 C25.7317043,33.9975268 26.1887043,33.9755268 26.6447043,33.9925268 C26.8847043,34.0015268 27.1357043,34.0405268 27.3577043,34.1265268 C28.1467043,34.4305268 28.2797043,35.0025268 27.6627043,35.5845268 C26.4017043,36.7755268 25.1467043,37.9765268 23.8217043,39.0945268 C22.6147043,40.1145268 21.3107043,41.0175268 20.0657043,41.9925268 C18.8987043,42.9055268 17.7537043,43.8445268 16.5467043,44.8145268 C17.4687043,44.8885268 18.3407043,44.9575268 19.2127043,45.0295268 C19.5457043,45.0575268 19.8797043,45.0885268 20.2117043,45.1265268 C20.6097043,45.1735268 20.7867043,45.4455268 20.8437043,45.8035268 C20.8937043,46.1155268 20.7227043,46.3095268 20.4567043,46.4595268 C18.9217043,47.3255268 17.3917043,48.2015268 15.8587043,49.0725268 C12.7557043,50.8355268 9.42270425,52.1305268 6.26270425,53.7725268 C5.21170425,54.3195268 4.21270425,54.9685268 3.20070425,55.5885268 C2.47570425,56.0315268 1.76870425,56.5025268 1.05370425,56.9615268 C0.797704251,57.1255268 0.523704251,57.1595268 0.287704251,56.9665268 C0.0357042512,56.7585268 -0.108295749,56.4545268 0.0997042512,56.1595268 C0.412704251,55.7175268 0.728704251,55.2545268 1.13370425,54.9055268 C2.47270425,53.7565268 3.85370425,52.6565268 5.21270425,51.5315268 C5.81370425,51.0345268 6.40070425,50.5205268 7.06170425,49.9575268 C6.87370425,49.8975268 6.77070425,49.8465268 6.66170425,49.8345268 C5.50770425,49.6915268 4.66870425,48.9605268 3.81070425,48.2845268 C3.18370425,47.7905268 3.13770425,47.4015268 3.69870425,46.8345268 C4.35670425,46.1685268 5.06570425,45.5405268 5.81670425,44.9825268 C8.72470425,42.8245268 11.6587043,40.7005268 14.5807043,38.5615268 C14.7407043,38.4445268 14.8837043,38.3035268 15.1337043,38.0885268 C14.4017043,37.8245268 13.7927043,37.5685268 13.1627043,37.3875268 C12.2277043,37.1215268 11.4697043,36.5585268 10.7107043,35.9995268 C10.1557043,35.5915268 10.1077043,35.1735268 10.6317043,34.7305268 C11.5137043,33.9875268 12.4137043,33.2545268 13.3697043,32.6135268 C14.9107043,31.5815268 16.4937043,30.6095268 18.0797043,29.6445268 C19.1197043,29.0125268 20.1937043,28.4365268 21.2557043,27.8415268 C21.7477043,27.5645268 22.2487043,27.3035268 22.7957043,27.0085268 C22.2807043,26.4655268 21.6427043,26.4025268 21.1157043,26.1255268 C20.4717043,25.7875268 19.7997043,25.4895268 19.1947043,25.0915268 C18.2717043,24.4815268 18.3517043,23.8695268 19.3577043,23.3485268 C20.0857043,22.9715268 20.8817043,22.6745268 21.5157043,22.1755268 C23.5857043,20.5445268 25.8697043,19.2765268 28.1727043,18.0305268 C28.4357043,17.8875268 28.6827043,17.7135268 29.0607043,17.4755268 C28.6517043,17.3365268 28.3397043,17.2575268 28.0517043,17.1245268 C27.5317043,16.8835268 26.9737043,16.6775268 26.5297043,16.3325268 C25.9667043,15.8935268 26.0287043,15.6325268 26.4967043,15.0505268 C28.2667043,12.8585268 30.4117043,11.0615268 32.5627043,9.27052679 C33.0757043,8.84252679 33.5467043,8.38852679 33.9487043,7.84052679 C34.8877043,6.55652679 36.0317043,5.45752679 37.2387043,4.42652679 C38.6497043,3.22052679 40.0767043,2.03252679 41.5067043,0.847526793 C41.8327043,0.578526793 42.1857043,0.332526793 42.5527043,0.122526793 C42.8607043,-0.0544732073 43.2147043,-0.0474732073 43.4967043,0.194526793 C43.7997043,0.456526793 43.8977043,0.803526793 43.7457043,1.18752679 C43.6567043,1.41352679 43.5537043,1.63552679 43.4247043,1.84152679 C42.9077043,2.66752679 42.3527043,3.47052679 41.8607043,4.31252679 C41.5417043,4.85952679 41.3387043,5.47352679 41.0257043,6.02652679 C40.5017043,6.95252679 40.0077043,7.91152679 39.3627043,8.74952679 C38.3287043,10.0955268 37.7507043,11.6785268 36.9087043,13.1215268 C36.8507043,13.2205268 36.8377043,13.3465268 36.7727043,13.5675268 C37.3467043,13.7675268 37.9037043,13.9825268 38.4727043,14.1555268 C39.0897043,14.3425268 39.6807043,14.5775268 40.1837043,14.9905268 C40.8817043,15.5635268 40.9117043,16.1925268 40.1987043,16.7345268 C37.3937043,18.8695268 34.7197043,21.1845268 31.6467043,22.9535268 C31.3847043,23.1045268 31.1457043,23.2965268 30.6967043,23.6065268" id="Fill-262"></path>
            <path d="M25.0183043,25.8713268 C25.2163043,25.9133268 25.4393043,25.9123268 25.6073043,26.0083268 C25.9903043,26.2263268 25.9763043,26.3513268 25.5883043,26.8293268 C25.3843043,26.6273268 25.1813043,26.4253268 24.9773043,26.2243268 C24.9913043,26.1053268 25.0043043,25.9883268 25.0183043,25.8713268" id="Fill-264"></path>
            <path d="M31.6331043,19.2629268 C31.5211043,19.5399268 31.4081043,19.8179268 31.2671043,20.1659268 C30.9661043,20.1049268 30.4871043,20.2339268 30.1521043,19.5879268 C30.4451043,19.6429268 30.5981043,19.6709268 30.8271043,19.7139268 C30.9171043,19.6079268 31.0431043,19.4519268 31.1731043,19.3009268 C31.3291043,19.1189268 31.4871043,19.2009268 31.6441043,19.3039268 L31.6331043,19.2629268 Z" id="Fill-266"></path>
            <path d="M22.5305043,29.2404268 C22.5775043,29.2764268 22.6335043,29.3044268 22.6695043,29.3494268 C23.1405043,29.9244268 23.1395043,29.9244268 23.7935043,29.7644268 C23.5515043,30.1874268 23.3505043,30.2974268 23.0405043,30.1754268 C22.4885043,29.9564268 22.3925043,29.7684268 22.5615043,29.2364268 L22.5305043,29.2404268 Z" id="Fill-268"></path>
            <path d="M22.0520043,29.5841268 C22.1150043,29.6491268 22.2290043,29.7111268 22.2350043,29.7811268 C22.2650043,30.1371268 22.0030043,30.4401268 21.3510043,30.7051268 C21.7440043,30.2901268 21.6540043,29.7931268 22.0960043,29.5771268 L22.0520043,29.5841268 Z" id="Fill-270"></path>
            <path d="M17.5681043,37.6984268 C17.1121043,37.5774268 17.1121043,37.5774268 16.9101043,37.1064268 C17.2891043,37.1724268 17.2891043,37.1724268 17.5681043,37.6984268" id="Fill-272"></path>
            <path d="M17.8581043,37.4015268 C17.6791043,37.0665268 17.5951043,36.8395268 17.8731043,36.6885268 C17.9331043,36.6555268 18.1141043,36.7275268 18.1581043,36.8005268 C18.3411043,37.1025268 18.0641043,37.1905268 17.8581043,37.4015268" id="Fill-274"></path>
            <path d="M31.5344043,20.9211268 C31.3594043,20.9581268 31.2224043,21.0201268 31.1004043,20.9981268 C31.0484043,20.9881268 30.9774043,20.7281268 30.9984043,20.7151268 C31.1294043,20.6341268 31.2834043,20.5911268 31.4304043,20.5351268 C31.4594043,20.6431268 31.4884043,20.7511268 31.5344043,20.9211268" id="Fill-276"></path>
            <path d="M26.3855043,29.7082268 C26.3625043,29.6972268 26.3265043,29.6922268 26.3175043,29.6752268 C26.2145043,29.4722268 26.0125043,29.2682268 26.2655043,29.0472268 C26.3105043,29.0092268 26.4495043,29.0282268 26.5115043,29.0702268 C26.6825043,29.1872268 26.6645043,29.2482268 26.3855043,29.7082268" id="Fill-278"></path>
            <path d="M18.7209043,38.7570268 C18.4989043,38.7650268 18.3399043,38.7840268 18.1859043,38.7630268 C18.1619043,38.7600268 18.1349043,38.4910268 18.1579043,38.4830268 C18.3039043,38.4310268 18.4659043,38.4020268 18.6209043,38.4040268 C18.6499043,38.4050268 18.6749043,38.5890268 18.7209043,38.7570268" id="Fill-280"></path>
            <path d="M27.7502043,27.0314268 C27.4292043,27.2414268 27.2602043,27.3514268 26.9742043,27.5394268 C27.0452043,27.1904268 27.0882043,26.9744268 27.1472043,26.6864268 C27.3362043,26.7954268 27.4732043,26.8734268 27.7502043,27.0314268" id="Fill-282"></path>
            <path d="M25.9421043,21.5548268 C26.2401043,21.9658268 26.4301043,22.2268268 26.6821043,22.5738268 C26.1071043,22.3128268 26.1071043,22.3128268 25.9421043,21.5548268" id="Fill-284"></path>
            <path d="M20.4290043,35.4865268 C20.4560043,35.6885268 20.5290043,35.8555268 20.4740043,35.9455268 C20.4290043,36.0205268 20.1930043,36.0685268 20.1170043,36.0165268 C20.0300043,35.9565268 19.9610043,35.7485268 20.0010043,35.6545268 C20.0370043,35.5715268 20.2330043,35.5565268 20.4290043,35.4865268" id="Fill-286"></path>
            <path d="M21.3445043,35.7218268 C21.4265043,35.9218268 21.5075043,36.1228268 21.5965043,36.3428268 C21.3115043,36.4988268 21.2195043,36.3438268 21.1325043,36.1258268 C21.0345043,35.8828268 21.1605043,35.8058268 21.3585043,35.7568268 L21.3445043,35.7218268 Z" id="Fill-288"></path>
        </g>
    </g>
</svg>