<?xml version="1.0" encoding="UTF-8"?>
<svg width="83px" height="61px" viewBox="0 0 83 61" version="1.1" xmlns="http://www.w3.org/2000/svg" xmlns:xlink="http://www.w3.org/1999/xlink">
    <!-- Generator: Sketch 61.2 (89653) - https://sketch.com -->
    <title>white_knife</title>
    <desc>Created with Sketch.</desc>
    <g id="Page-1" stroke="none" stroke-width="1" fill="none" fill-rule="evenodd">
        <g id="white_knife" transform="translate(0.745934, -0.019800)" fill="#FFFFFF">
            <path d="M68.9162663,26.5948 C69.2922663,27.2198 69.2932663,27.2248 69.7672663,27.1018 C69.8102663,27.0898 69.8282663,26.9818 69.9062663,26.8138 C69.5972663,26.7448 69.3182663,26.6838 68.9162663,26.5948 M66.1512663,30.5508 C66.1182663,30.4568 66.0852663,30.3628 66.0522663,30.2688 C65.6822663,30.4278 65.3122663,30.5868 64.9412663,30.7448 C64.9592663,30.7938 64.9772663,30.8418 64.9942663,30.8898 C65.3802663,30.7778 65.7662663,30.6638 66.1512663,30.5508 M66.8732663,29.5998 C67.3592663,29.7448 67.6542663,29.6158 67.7192663,29.1468 C67.7712663,28.7668 67.5582663,28.6438 67.2722663,28.6858 C67.1302663,29.0098 67.0042663,29.2978 66.8732663,29.5998 M50.7002663,46.6498 C51.5162663,45.9118 52.0012663,45.1518 52.4402663,44.3368 C53.2532663,42.8258 54.0222663,41.2798 54.9742663,39.8568 C57.2842663,36.4048 59.7992663,33.1058 62.7572663,30.1658 C63.8582663,29.0738 64.9932663,28.0068 66.0082663,26.8378 C67.5332663,25.0818 69.3262663,23.6278 71.1282663,22.2008 C73.3922663,20.4078 75.7812663,18.7738 78.1142663,17.0668 C78.1492663,17.0398 78.1472663,16.9608 78.1912663,16.8048 C76.7552663,17.3508 75.3682663,17.8158 74.0342663,18.4028 C72.5002663,19.0748 71.0182663,19.8618 69.5072663,20.5878 C68.2152663,21.2088 66.9952663,21.9338 65.9702663,22.9538 C65.4652663,23.4568 64.9502663,23.9488 64.4372663,24.4438 C61.8102663,26.9758 59.1482663,29.4728 56.9392663,32.4008 C54.9902663,34.9838 53.2252663,37.6868 51.6942663,40.5328 C51.0072663,41.8098 50.5092663,43.1888 49.9092663,44.5608 C50.1402663,45.1698 50.3902663,45.8308 50.7002663,46.6498 M43.1242663,58.8928 C44.4362663,59.1318 45.5182663,58.4828 46.4472663,57.5988 C47.1882663,56.8948 47.6112663,56.0138 47.5482663,54.9028 C47.4892663,53.8538 47.1092663,52.9558 46.5982663,52.0898 C44.8352663,49.1068 42.5042663,46.5788 40.1622663,44.0558 C36.5672663,40.1838 32.8942663,36.3818 29.5742663,32.2618 C28.4952663,30.9238 27.3712663,29.6238 26.2712663,28.3028 C25.4852663,27.3578 24.5902663,26.8308 23.2512663,26.8558 C20.4952663,26.9068 18.1032663,25.8188 16.0642663,23.9918 C14.9002663,22.9488 14.1112663,21.6608 14.1512663,20.0438 C14.1752663,19.0448 14.3652663,18.0488 14.4882663,17.0528 C14.6292663,15.9178 14.6712663,14.7898 14.2262663,13.7058 C13.4772663,11.8808 12.1902663,10.4868 10.2192663,10.2808 C7.51026631,9.9978 5.18726631,11.0678 3.51626631,13.2528 C2.65526631,14.3768 1.97726631,15.6448 1.24526631,16.8638 C1.10326631,17.1008 1.02426631,17.4158 1.02718387,17.6948 C1.04426631,19.1308 1.28926631,20.5278 1.90726631,21.8368 C3.38526631,24.9738 5.62926631,27.5108 8.26926631,29.6908 C10.2712663,31.3448 12.3932663,32.8558 14.4602663,34.4328 C15.2262663,35.0168 16.0142663,35.5758 16.7492663,36.1988 C18.7732663,37.9108 20.5312663,39.8838 22.2532663,41.8938 C23.1802663,42.9748 24.1572663,44.0158 25.1382663,45.0488 C26.6962663,46.6918 28.2552663,48.3328 29.8542663,49.9358 C31.7182663,51.8018 33.5952663,53.6568 35.5222663,55.4578 C36.9522663,56.7928 38.7812663,57.4938 40.5082663,58.3488 C41.3122663,58.7468 42.1432663,58.9958 43.1242663,58.8928 M65.1922663,32.6838 C65.1682663,32.5288 65.1452663,32.3728 65.1042663,32.1098 C64.8492663,32.5438 63.9262663,32.1368 64.2572663,33.0888 C64.4172663,32.9878 64.5352663,32.8918 64.6702663,32.8318 C64.8522663,32.7528 65.0452663,32.7028 65.2342663,32.6408 C65.1932663,32.9258 65.1532663,33.2098 65.1142663,33.4788 C64.8152663,33.5378 64.5852663,33.6098 64.3522663,33.6228 C64.0692663,33.6388 63.7812663,33.5748 63.5002663,33.6018 C63.0902663,33.6418 62.7452663,33.7758 62.9722663,34.3118 C63.5562663,33.8988 63.8802663,33.9248 64.9692663,34.4888 C64.4072663,34.5798 64.7872663,35.1288 64.4952663,35.3818 C64.2242663,35.1228 63.9562663,34.8658 63.6872663,34.6088 C63.6432663,34.6418 63.5992663,34.6758 63.5542663,34.7088 C63.6342663,34.9598 63.7142663,35.2098 63.7942663,35.4608 C63.4162663,35.3588 63.2262663,35.1098 62.9752663,34.9668 C62.6762663,34.7948 62.3262663,34.7138 61.9902663,34.5908 C61.1862663,34.9738 62.3382663,35.2508 62.0492663,35.7308 C61.6962663,35.6458 61.3252663,35.5568 60.9122663,35.4578 C60.8672663,35.7338 60.8352663,35.9248 60.8082663,36.0958 C61.1222663,36.2258 61.3562663,36.3228 61.5912663,36.4188 C61.5762663,36.4788 61.5602663,36.5388 61.5442663,36.5998 L60.1642663,36.5998 C60.2422663,36.3008 60.3042663,36.0678 60.3652663,35.8338 C60.3162663,35.8148 60.2672663,35.7948 60.2182663,35.7768 C59.9852663,36.1348 59.7522663,36.4938 59.5062663,36.8728 C59.7392663,36.9418 59.9212663,36.9948 59.9952663,37.0178 C59.8082663,37.4218 59.6512663,37.8318 59.4362663,38.2078 C59.1362663,38.7338 59.2592663,39.5558 58.4012663,39.7098 C58.3302663,39.7228 58.2432663,40.0198 58.2482663,40.0228 C58.9842663,40.4048 57.8492663,40.7368 58.1182663,40.9968 C58.4782663,41.0978 58.7192663,41.1578 58.9522663,41.2398 C58.9792663,41.2488 58.9932663,41.3978 58.9622663,41.4548 C58.7542663,41.8508 58.4862663,41.6098 58.2162663,41.5338 C58.0832663,41.4968 57.9202663,41.5668 57.7492663,41.5898 C57.9242663,41.9318 58.0682663,42.2138 58.2472663,42.5618 C57.8232663,42.6988 57.4872663,42.8098 57.0112663,42.9648 C57.1842663,43.2618 57.2772663,43.6378 57.4502663,43.6798 C57.9992663,43.8118 58.0592663,44.1578 58.0482663,44.7138 C56.6612663,45.5008 55.7122663,46.9248 54.2102663,47.6568 C54.0622663,47.7298 53.9342663,47.8448 53.8032663,47.9488 C53.3262663,48.3288 52.8882663,48.7748 52.3672663,49.0778 C51.8182663,49.3978 51.5112663,50.1508 50.7062663,50.0428 C50.6612663,50.0368 50.5912663,50.2788 50.5212663,50.3978 C50.2172663,50.9108 49.8612663,51.3458 49.2962663,51.2308 C48.9692663,51.6918 48.6902663,52.0838 48.2272663,52.7358 C49.3362663,52.2008 50.2572663,51.9038 51.0112663,51.3688 C53.6092663,49.5308 56.1462663,47.6048 58.7112663,45.7198 C63.1902663,42.4308 66.6322663,38.1208 70.2002663,33.9508 C72.6882663,31.0428 74.5362663,27.6838 76.3002663,24.2988 C77.5202663,21.9588 78.6512663,19.5728 79.8162663,17.2028 C79.9062663,17.0188 79.9432663,16.8078 80.0052663,16.6098 C79.6752663,16.8158 79.4902663,17.0858 79.3072663,17.3598 C79.1442663,17.6048 78.9872663,18.0598 78.8212663,18.0618 C78.1682663,18.0728 78.7682663,18.7828 78.3052663,18.8578 C77.7912663,18.9408 78.0412663,19.2928 78.0882663,19.5668 C77.7802663,19.6838 77.4722663,19.8008 77.1452663,19.9258 C77.3352663,20.0968 77.4602663,20.2088 77.6442663,20.3718 C77.2152663,20.4808 76.9212663,20.5548 76.5752663,20.6418 C76.7912663,20.8328 76.9332663,20.9588 77.0622663,21.0738 C76.6452663,21.8168 75.9292663,20.6738 75.4942663,21.5068 C75.8442663,21.6298 76.1652663,21.7438 76.6132663,21.9028 C76.4272663,22.0098 76.2592663,22.0478 76.2002663,22.1508 C76.0102663,22.4768 75.9302663,22.7768 75.3682663,22.6738 C75.0082663,22.6088 74.5682663,22.9818 74.1662663,23.1628 C74.1502663,23.1698 74.1552663,23.2248 74.1512663,23.2578 C74.2392663,23.3988 74.3272663,23.5398 74.4152663,23.6808 C74.1712663,23.9838 73.9092663,24.0758 73.5352663,23.6888 C73.5882663,24.0848 73.6292663,24.3948 73.6692663,24.6968 C73.6272663,24.7098 72.6282663,25.0198 72.6502663,25.0128 C72.7542663,25.1768 72.8612663,25.3458 72.9692663,25.5148 C72.6922663,25.5808 72.5722663,25.4888 72.4362663,25.4418 C71.8492663,25.2408 70.9542663,25.6698 71.1242663,26.0548 L72.1752663,26.0548 C71.1752663,26.7798 70.3622663,27.3678 69.5702663,27.9428 C69.6102663,28.3118 69.6452663,28.6388 69.6812663,28.9658 C69.5972663,28.9788 69.5132663,28.9908 69.4302663,29.0048 C69.3492663,28.7048 69.2972663,28.3938 69.1752663,28.1118 C69.1242663,27.9938 68.9162663,27.8648 68.7972663,27.8798 C68.6742663,27.8958 68.5002663,28.0658 68.4742663,28.1938 C68.3902663,28.6038 68.3652663,29.0248 68.3162663,29.4418 C68.5612663,29.6478 68.8042663,29.8528 69.0312663,30.0438 C68.9192663,30.3008 68.8382663,30.4878 68.7572663,30.6738 C68.5042663,30.4288 68.2522663,30.1848 67.9032663,29.8468 C67.5262663,30.1158 67.1292663,30.3988 66.7332663,30.6818 C67.1312663,30.7818 67.4192663,30.5708 67.6842663,30.5968 C67.9542663,30.6228 68.2002663,30.8848 68.4902663,31.0628 C68.5722663,30.9158 68.6502663,30.7768 68.7282663,30.6368 C68.9532663,30.9128 69.1782663,31.1898 69.4092663,31.4748 C69.8132663,31.5168 70.1112663,30.5718 70.5782663,31.2708 C69.8662663,32.1648 69.1742663,33.0338 68.4802663,33.9068 C68.3112663,33.8698 68.1382663,33.8338 67.9582663,33.7968 C67.8992663,35.0678 67.4662663,35.4518 66.4542663,35.1728 L66.4792663,35.1978 C66.3832663,34.7468 66.2602663,34.2638 66.7382663,33.9728 C66.8802663,33.8868 67.1652663,34.0368 67.5002663,34.1018 C67.4322663,33.5978 67.3712663,33.1448 67.2972663,32.5988 C67.6132663,32.6768 67.8932663,32.7458 68.1662663,32.8138 C68.2672663,32.4918 68.3492663,32.2308 68.4402663,31.9378 C68.2502663,31.7848 68.0622663,31.6358 67.8542663,31.4698 C67.7702663,31.7538 67.7042663,31.9768 67.6232663,32.2498 C67.0802663,31.9698 66.5972663,31.7098 66.1012663,31.4788 C66.0372663,31.4488 65.9052663,31.5618 65.6852663,31.6638 C66.0532663,31.9108 66.3372663,32.1038 66.5532663,32.2478 C66.6072663,32.7488 66.6572663,33.1968 66.7062663,33.6448 C66.3232663,33.4718 66.1642663,33.1918 65.9292663,33.0028 C65.7282663,32.8418 65.4412663,32.7858 65.1922663,32.6838 M45.7202663,48.3218 C46.4312663,48.3218 47.0612663,48.3698 47.6802663,48.3108 C48.7562663,48.2078 49.3322663,47.4348 49.0732663,46.3778 C48.9272663,45.7798 48.6292663,45.2068 48.3412663,44.6548 C47.9452663,43.8988 47.9342663,43.6428 48.6612663,43.2548 C49.1372663,43.0008 49.3212663,42.6028 49.4552663,42.1848 C50.3612663,39.3418 52.1192663,36.9718 53.6942663,34.5048 C56.5002663,30.1148 60.1352663,26.4598 64.0402663,23.0548 C64.3872663,22.7518 64.7112663,22.4218 65.0402663,22.0988 C66.1262663,21.0328 67.4222663,20.2898 68.7932663,19.6658 C70.2422663,19.0058 71.6692663,18.2848 73.1552663,17.7208 C75.3442663,16.8888 77.5762663,16.1698 79.7912663,15.4078 C79.9482663,15.3548 80.1182663,15.3238 80.2842663,15.3118 C81.4062663,15.2338 81.7732663,15.7028 81.3342663,16.7328 C78.6992663,22.9118 75.8492663,28.9818 71.7312663,34.3458 C70.4052663,36.0738 68.9272663,37.6858 67.4962663,39.3298 C66.6972663,40.2478 65.8722663,41.1438 65.0242663,42.0168 C61.9742663,45.1608 58.5912663,47.9038 54.9462663,50.3318 C54.1802663,50.8428 53.4312663,51.3868 52.7202663,51.9718 C51.8662663,52.6738 50.9262663,53.2028 49.8992663,53.5908 C49.1422663,53.8768 48.7492663,54.3648 48.8782663,55.2178 C49.0412663,56.2938 48.5822663,57.2078 47.9642663,58.0128 C46.2372663,60.2598 43.6712663,61.0048 40.8572663,60.0048 C38.2142663,59.0658 35.7732663,57.7018 33.6592663,55.7438 C31.2522663,53.5148 29.0182663,51.1378 26.8392663,48.6978 C26.4482663,48.2598 26.0432663,47.8288 25.6032663,47.4408 C23.7082663,45.7668 22.0602663,43.8668 20.4472663,41.9298 C18.2902663,39.3388 15.8652663,37.0448 13.1492663,35.0288 C10.0192663,32.7038 6.83326631,30.4128 4.24526631,27.4598 C1.91626631,24.8038 0.0882663054,21.8678 0.00526630544,18.1648 C-0.00273369456,17.7898 -0.0137336946,17.3998 0.0742663054,17.0398 C0.547266305,15.1148 1.16226631,13.2018 2.45826631,11.6908 C4.00226631,9.8908 6.05426631,8.9308 8.43626631,8.5458 C12.7702663,7.8468 16.7592663,12.4288 16.0282663,16.8198 C15.8572663,17.8518 15.7542663,18.8978 15.6792663,19.9418 C15.5912663,21.1778 16.2272663,22.1158 17.0982663,22.8928 C18.8822663,24.4838 20.9572663,25.4448 23.3752663,25.3948 C25.0442663,25.3608 26.2662663,26.0608 27.2742663,27.2978 C28.6782663,29.0218 30.0612663,30.7638 31.5072663,32.4508 C33.0092663,34.2028 34.5622663,35.9108 36.1182663,37.6158 C38.9442663,40.7168 41.7922663,43.7968 44.6202663,46.8968 C45.0132663,47.3278 45.3382663,47.8228 45.7202663,48.3218" id="Fill-152"></path>
            <path d="M52.8278663,19.4913 C52.3178663,19.9503 51.8338663,20.3863 51.2628663,20.9003 C48.5418663,17.5063 46.4848663,13.8043 44.3488663,10.1093 C44.9588663,10.0353 45.2158663,10.4343 45.4908663,10.7803 C47.0328663,12.7113 48.5648663,14.6503 50.1058663,16.5823 C50.5448663,17.1333 51.0048663,17.6693 51.5298663,18.3033 C51.8368663,17.7913 52.0698663,17.3553 52.3468663,16.9503 C52.8698663,16.1883 53.2988663,16.2193 53.6698663,17.0373 C54.9298663,19.8193 56.1798663,22.6053 57.4418663,25.3873 C57.5968663,25.7293 57.8398663,26.0353 57.9648663,26.3853 C58.0268663,26.5573 57.9128663,26.7943 57.8348663,27.2613 C56.6338663,25.9703 56.0928663,24.5613 55.2958663,23.3263 C54.4838663,22.0673 53.6748663,20.8063 52.8278663,19.4913" id="Fill-154"></path>
            <path d="M70.3776663,11.044 C68.9946663,13.974 67.6476663,16.83 66.2896663,19.707 C65.7336663,19.564 65.6856663,19.262 65.8126663,18.84 C66.2476663,17.397 66.6666663,15.948 67.0956663,14.503 C67.2026663,14.147 67.3246663,13.795 67.4576663,13.383 C66.4936663,13.338 65.5936663,13.297 64.7106663,13.256 C64.6566663,12.117 67.5736663,1.238 68.3046663,0 C68.1796663,1.008 68.0756663,1.742 67.9986663,2.479 C67.8196663,4.188 67.6666663,5.898 67.4756663,7.605 C67.4006663,8.27 67.2526663,8.926 67.1406663,9.587 C67.0086663,10.374 67.1726663,10.636 67.9676663,10.813 C68.3336663,10.894 68.7136663,10.913 69.0896663,10.948 C69.5016663,10.987 69.9146663,11.011 70.3776663,11.044" id="Fill-156"></path>
            <path d="M37.1706663,28.8487 C38.8336663,29.0117 40.1926663,29.5607 41.6036663,29.8697 C43.0306663,30.1817 44.4526663,30.5157 45.9356663,30.8537 C46.1496663,30.4497 46.0716663,29.9947 46.0976663,29.5547 C46.1696663,28.3917 46.5876663,28.0997 47.6106663,28.5557 C49.7966663,29.5297 51.7176663,30.9367 53.9576663,32.3587 C52.6406663,32.4837 51.8106663,31.8107 50.8596663,31.6377 C49.8866663,31.4607 48.9446663,31.1127 47.9226663,30.8197 C47.7586663,31.4907 47.6346663,32.0957 47.4586663,32.6867 C47.2536663,33.3717 47.0256663,33.5187 46.3506663,33.3017 C45.4366663,33.0087 44.5156663,32.7047 43.6556663,32.2847 C41.6286663,31.2917 39.6346663,30.2297 37.6296663,29.1917 C37.5276663,29.1397 37.4436663,29.0547 37.1706663,28.8487" id="Fill-158"></path>
            <path d="M8.87816631,25.2852 C8.53416631,25.3942 8.18916631,25.5042 7.68016631,25.6642 C8.31916631,25.9532 8.31916631,25.9532 8.87816631,25.2852 L8.87816631,25.2852 Z M6.30816631,19.6032 C5.89316631,19.3762 5.60416631,19.2172 5.31116631,19.0562 C5.43116631,19.8442 4.48016631,19.8992 4.02716631,20.5112 C4.60616631,20.6912 5.10716631,20.8482 5.60316631,21.0022 C5.73816631,20.8012 5.88216631,20.5872 6.00816631,20.3992 C5.84316631,20.3102 5.64816631,20.2052 5.27616631,20.0062 C5.71816631,19.8332 5.96016631,19.7392 6.30816631,19.6032 L6.30816631,19.6032 Z M8.10016631,17.9692 C8.60416631,17.6772 9.05016631,17.4682 9.44016631,17.1822 C10.2331663,16.6022 10.1591663,15.7052 9.25816631,15.3952 C8.61616631,15.1752 7.92716631,15.2282 7.36116631,15.7112 C7.02116631,16.0002 6.82316631,16.8212 7.10016631,17.2092 C7.31616631,17.5102 7.70916631,17.6832 8.10016631,17.9692 L8.10016631,17.9692 Z M7.29016631,22.0982 C7.36816631,21.8252 7.44616631,21.5512 7.54516631,21.2012 C7.34616631,21.1082 7.13516631,21.0112 6.92016631,20.9112 C6.79016631,21.2152 6.80716631,21.6172 6.20716631,21.3662 C5.97116631,21.2672 5.51516631,21.6932 5.15516631,21.8832 C5.49616631,22.3792 5.68016631,22.9832 6.47716631,23.1092 C6.11816631,23.5112 5.85716631,23.8042 5.54516631,24.1532 C5.11716631,23.5572 4.69116631,23.0232 4.33416631,22.4472 C4.07416631,22.0282 4.19616631,21.8382 4.88416631,21.4002 C4.68916631,21.3502 4.53516631,21.2882 4.37816631,21.2772 C4.21916631,21.2672 4.05716631,21.3092 3.92616631,21.3252 C3.35016631,20.7802 3.73716631,19.9772 3.06016631,19.3072 C3.53216631,19.3812 3.74416631,19.4132 4.09616631,19.4682 C3.75116631,19.0562 3.50216631,18.7602 3.24916631,18.4582 C3.58316631,17.8322 3.87616631,18.5212 4.17816631,18.4572 C4.24316631,18.4062 4.34216631,18.3702 4.36916631,18.3042 C4.51516631,17.9462 4.32616631,17.4732 4.87416631,17.2412 C5.06816631,17.1592 5.09816631,16.6862 4.99916631,16.2782 C4.60316631,16.7012 4.20716631,17.1242 3.79016631,17.5702 C3.73116631,17.4862 3.60816631,17.3152 3.44316631,17.0842 C3.60816631,16.8752 3.82416631,16.6782 3.94616631,16.4332 C4.26116631,15.8062 5.18116631,15.4722 4.88116631,14.5432 C5.50316631,14.4732 5.52316631,13.6762 6.10116631,13.5402 C6.50316631,13.4462 6.89516631,13.3102 7.35716631,13.1742 C7.44516631,12.9342 7.55516631,12.6352 7.70316631,12.2312 C8.02916631,12.4422 8.28716631,12.6082 8.53716631,12.7692 C9.06916631,12.6202 9.01216631,11.5102 10.0441663,11.9782 C9.73816631,12.2732 9.50616631,12.4972 9.27416631,12.7222 C9.77616631,13.2162 9.96616631,12.6082 10.3151663,12.5362 C10.7631663,12.9032 10.1411663,13.8962 11.1461663,13.9112 C11.1251663,13.7412 11.1021663,13.5602 11.0801663,13.3812 C11.1271663,13.3502 11.1741663,13.3212 11.2211663,13.2912 C11.6451663,13.9002 12.0671663,14.5102 12.4911663,15.1192 C12.2041663,15.2562 11.9151663,15.3932 11.3841663,15.6442 C12.4621663,15.6542 12.4571663,15.6532 12.3471663,16.4482 C12.3261663,16.6012 12.4071663,16.7722 12.3771663,16.9232 C12.2581663,17.5152 12.3151663,18.2442 11.3141663,18.3052 C11.7781663,18.5832 12.4231663,18.6562 12.2431663,19.3992 C11.9691663,19.5142 11.6761663,19.6362 11.3921663,19.7552 C11.4201663,19.8812 11.4141663,19.9812 11.4541663,20.0072 C11.8261663,20.2392 12.2071663,20.4592 12.7351663,20.7702 C12.3871663,20.9702 12.1921663,21.0812 11.9771663,21.2042 C12.0361663,21.4882 12.1061663,21.8192 12.1941663,22.2352 C11.7191663,22.3022 11.3241663,22.3562 10.9011663,22.4162 C10.8541663,22.5932 10.8031663,22.7812 10.7521663,22.9732 C10.1251663,22.8062 9.51216631,22.6412 8.87616631,22.4712 C8.79816631,22.2112 8.52116631,21.9722 8.86016631,21.6182 C9.39616631,21.0602 9.41316631,20.4542 8.83316631,19.8652 C8.51216631,20.3042 8.51216631,20.3042 8.99116631,20.9952 C8.78416631,21.1242 8.58016631,21.2522 8.36816631,21.3842 C8.37616631,22.8062 8.37616631,22.8062 9.60516631,23.2012 C9.52816631,24.1052 9.45216631,25.0112 9.37016631,25.9852 C9.70016631,26.0322 9.92916631,26.0652 10.2961663,26.1172 C10.1951663,25.6532 10.1171663,25.2972 10.0081663,24.7942 C10.3861663,24.9152 10.6381663,24.9962 10.8781663,25.0732 C11.0171663,25.7962 10.8861663,26.2932 10.1751663,26.5872 C9.74516631,26.7642 9.38116631,27.0992 8.92416631,27.4062 C8.85016631,27.2232 8.77216631,27.0882 8.74316631,26.9432 C8.71416631,26.8012 8.73616631,26.6482 8.73616631,26.4172 C8.14016631,27.1842 7.85816631,27.2252 7.53316631,26.5692 C7.33416631,26.1682 6.72616631,25.7022 7.44516631,25.2082 C7.35116631,25.0722 7.25716631,24.9362 7.14216631,24.7702 C7.06116631,24.9942 6.98916631,25.1922 6.91616631,25.3912 C6.25816631,25.4272 6.22016631,24.8542 5.77716631,24.5362 C6.30416631,24.1362 6.71616631,23.8212 7.20716631,23.4472 C7.60616631,23.8582 7.95816631,24.2222 8.40916631,24.6862 C8.35416631,24.0332 7.66916631,23.5082 8.38816631,22.9522 C7.95216631,22.6102 7.60016631,22.3342 7.24816631,22.0562 L7.29016631,22.0982 Z" id="Fill-160"></path>
            <path d="M40.6520663,49.9376 C40.6880663,49.8526 40.7240663,49.7676 40.7590663,49.6826 C40.4840663,49.5056 40.2080663,49.3296 39.7850663,49.0586 C39.8120663,49.4746 39.8260663,49.6976 39.8420663,49.9376 L40.6520663,49.9376 Z M37.6430663,53.9236 C38.0050663,53.9236 38.4660663,53.9406 38.4680663,53.9216 C38.5110663,53.3436 39.6160663,53.2176 39.1160663,52.4286 C38.6820663,52.8696 38.2450663,53.3126 37.6430663,53.9236 L37.6430663,53.9236 Z M40.6390663,54.6476 C40.7550663,55.0036 40.7740663,55.2786 40.9140663,55.4586 C41.5810663,56.3156 42.5380663,56.2866 43.1860663,55.4106 C43.3350663,55.2096 43.4770663,54.9996 43.5920663,54.7796 C44.0150663,53.9676 43.9240663,53.4686 43.2920663,53.0386 C42.5600663,52.5386 41.8290663,52.5856 41.3210663,53.2726 C41.0100663,53.6936 40.8440663,54.2216 40.6390663,54.6476 L40.6390663,54.6476 Z M33.9910663,49.3296 C33.9850663,48.7986 34.3170663,48.5076 34.8970663,48.1576 C35.0720663,48.4346 35.2670663,48.7436 35.5290663,49.1586 C35.8930663,48.5616 36.2990663,48.5966 36.7400663,48.7966 C36.9220663,48.8786 37.1180663,48.9426 37.3140663,48.9836 C38.0060663,49.1296 38.4760663,48.8716 38.7920663,48.1986 C38.8800663,48.0106 39.0020663,47.8386 39.0940663,47.6526 C39.1650663,47.5086 39.2140663,47.3556 39.2950663,47.1496 C38.7230663,47.1876 38.2190663,47.2206 37.7150663,47.2536 L37.7510663,47.2816 C37.3020663,46.8766 38.0930663,46.7136 37.9280663,46.3336 C37.8000663,46.0376 37.7360663,45.7026 37.6990663,45.3776 C37.6520663,44.9676 37.7760663,44.6276 38.3080663,44.5306 C38.5540663,44.7526 38.8230663,44.9976 39.1260663,45.2706 C39.0920663,45.7376 38.1180663,45.7856 38.7200663,46.6356 C38.8320663,46.2666 38.9320663,45.9346 39.0330663,45.6036 C39.7680663,46.0666 40.1940663,46.2476 40.2730663,46.8646 C40.3030663,47.0996 40.4700663,47.5146 40.9540663,47.3686 C41.0480663,47.3396 41.2900663,47.5206 41.3320663,47.6486 C41.4720663,48.0756 41.5520663,48.5226 41.6600663,48.9786 C41.9850663,48.9446 42.3260663,48.9096 42.7420663,48.8656 C42.6650663,49.6456 41.8450663,49.4696 41.6150663,50.0176 C41.8060663,50.0176 41.9930663,50.0736 42.1210663,50.0086 C42.7190663,49.7086 43.0890663,49.6496 42.9670663,50.5426 C42.9430663,50.7296 43.2730663,50.9636 43.3920663,51.1166 C43.6060663,51.0456 43.8570663,50.8666 44.0090663,50.9286 C44.5650663,51.1566 44.0840663,51.5356 44.0750663,51.8496 C44.6420663,51.9226 44.8770663,52.1566 45.2400663,53.3186 C45.4520663,53.9996 45.5210663,54.7236 45.6700663,55.5136 C45.3730663,55.5766 45.1460663,55.6246 44.9150663,55.6726 C44.8950663,55.7236 44.8340663,55.7996 44.8500663,55.8526 C45.0480663,56.5076 45.0510663,56.5066 44.5670663,57.1586 C44.5250663,56.6386 44.4940663,56.2676 44.4530663,55.7516 C44.1550663,55.9906 43.9230663,56.1756 43.6510663,56.3946 C43.8050663,56.7316 43.9390663,57.0216 44.0780663,57.3256 C43.1650663,58.2616 42.1530663,57.1506 41.1860663,57.5556 C41.0800663,57.2736 40.9810663,57.0116 40.8450663,56.6526 C40.1200663,56.8436 39.8090663,55.9696 39.3060663,55.8746 C38.3520663,55.6956 38.6290663,54.9826 38.3650663,54.4016 C38.1720663,54.6056 38.0100663,54.7756 37.8580663,54.9346 C37.4070663,54.5786 36.6970663,54.2966 36.5370663,53.8276 C36.2930663,53.1116 35.5020663,53.3816 35.2460663,52.7226 C35.3120663,52.3706 35.3880663,51.9496 36.0250663,51.9516 C36.1840663,51.9526 36.3700663,51.7796 36.4970663,51.6436 C36.8400663,51.2756 37.0720663,51.2056 37.5210663,51.6126 C37.9740663,52.0246 38.5610663,51.6666 39.0950663,51.4736 C38.7470663,51.2346 38.4180663,51.0086 38.0420663,50.7496 C37.6450663,51.2936 37.1210663,50.9016 36.5220663,50.7316 C36.9660663,50.1056 37.5960663,50.0356 38.2430663,49.7716 C37.7770663,49.6576 37.2840663,49.3866 36.8510663,49.4626 C36.1950663,49.5786 35.3830663,49.2646 34.8740663,50.0396 C34.5680663,49.7876 34.2640663,49.5386 33.9610663,49.2896 L33.9910663,49.3296 Z" id="Fill-162"></path>
            <path d="M33.0661663,42.4024 C33.8591663,41.8314 33.1361663,41.0564 33.4261663,40.3854 C33.0841663,40.1234 32.7251663,39.8464 32.2731663,39.5004 C32.6951663,39.1434 32.9571663,38.9234 33.2501663,38.6754 C33.4101663,39.1884 33.7991663,39.9824 33.9331663,40.1284 C33.9871663,40.1874 34.0091663,40.2904 34.0731663,40.3284 C34.8941663,40.8194 35.0241663,40.9864 35.1871663,41.8454 C35.3381663,41.8154 35.4871663,41.7774 35.6391663,41.7594 C35.7581663,41.7454 35.8801663,41.7564 36.0111663,41.7564 C36.1691663,42.0544 36.3831663,42.3284 36.4591663,42.6354 C36.5441663,42.9834 36.5591663,43.1914 37.0401663,43.2384 C37.3551663,43.2694 37.6281663,43.7284 37.9631663,44.0354 C37.5371663,44.4794 37.1751663,44.8554 36.7841663,45.2624 C37.0711663,45.4364 37.2681663,45.5554 37.5241663,45.7124 C37.2031663,46.2134 36.9031663,46.6794 36.5941663,47.1604 C36.1701663,46.8944 36.0931663,46.5324 36.4191663,46.0744 C36.0861663,45.6334 35.2931663,45.4064 35.5581663,44.7034 C35.6711663,44.4034 36.1821663,44.2534 36.5311663,44.0214 C36.3991663,43.8294 36.1981663,43.5364 35.8991663,43.1004 C35.7931663,43.5064 35.7291663,43.7514 35.6691663,43.9834 C35.0261663,43.9194 34.4211663,43.8574 33.6051663,43.7744 C34.1651663,43.4964 34.5711663,43.2954 35.0201663,43.0724 C34.0501663,42.4064 34.0501663,42.4064 33.0661663,42.4024" id="Fill-164"></path>
            <path d="M12.7380663,26.1554 C13.0610663,25.8804 13.3840663,25.6054 13.7620663,25.2824 C13.0720663,25.1264 12.4670663,25.0654 11.7370663,25.3014 C11.9530663,25.5094 12.1250663,25.6774 12.3440663,25.8904 C12.1710663,26.4344 11.8320663,26.5184 11.3190663,26.2864 C11.3950663,25.6604 11.4660663,25.0714 11.5400663,24.4614 C11.3920663,24.4294 11.2520663,24.3514 11.1620663,24.3894 C10.8220663,24.5334 10.4290663,24.8494 10.1760663,24.4164 C10.0360663,24.1764 10.1960663,23.7604 10.2260663,23.3554 C10.5250663,23.4674 10.6690663,23.5224 10.8050663,23.5744 C11.1350663,23.2284 11.4700663,22.8764 11.8690663,22.4574 C12.1940663,22.8604 12.4220663,23.1434 12.6940663,23.4814 C12.8350663,23.3944 12.9980663,23.2944 13.1270663,23.2164 C14.1540663,23.7524 14.3090663,24.6524 14.1170663,25.6954 C14.4460663,25.8014 14.7300663,25.8934 15.1440663,26.0284 C14.9180663,26.2224 14.7940663,26.4134 14.6890663,26.4034 C14.3580663,26.3734 14.0350663,26.2174 13.7060663,26.2064 C13.4150663,26.1954 13.1200663,26.3104 12.8270663,26.3704 C12.7980663,26.2994 12.7680663,26.2264 12.7380663,26.1554" id="Fill-166"></path>
            <path d="M32.3263663,41.1124 C32.3633663,41.3094 32.4053663,41.5354 32.4393663,41.7174 C32.3783663,41.8014 32.3543663,41.8344 32.3313663,41.8664 C32.0163663,41.3174 31.1453663,41.2664 31.0983663,40.4644 C31.0853663,40.2264 30.9583663,39.9964 30.8633663,39.7024 C30.5793663,39.7344 30.3143663,39.7634 30.0253663,39.7974 C30.1633663,39.4784 30.2983663,39.1674 30.5073663,38.6834 C30.1133663,38.8654 29.8953663,38.9664 29.6793663,39.0654 C29.6353663,39.0094 29.5913663,38.9534 29.5473663,38.8964 C29.7313663,38.7214 29.9143663,38.5484 30.0983663,38.3734 C30.0403663,37.6254 29.6933663,37.0734 29.0663663,36.8494 L29.0663663,34.6674 C29.3403663,34.8694 29.5863663,35.0504 29.8113663,35.2174 C29.7373663,35.6654 29.6363663,36.0594 29.6183663,36.4594 C29.6033663,36.7604 29.7383663,36.9894 30.1093663,37.0764 C30.2543663,37.1104 30.3363663,37.4284 30.4413663,37.6214 C30.5703663,37.8594 30.6853663,38.1054 30.8223663,38.3384 C30.8603663,38.4024 31.2253663,38.9294 31.2523663,39.1044 C31.6033663,38.7824 31.9183663,38.4934 32.3493663,38.0974 C32.3683663,38.3844 32.4333663,38.6204 32.3793663,38.6524 C31.6793663,39.0654 31.7453663,39.6894 31.8763663,40.3514 C32.0183663,40.2564 32.1563663,40.1634 32.3633663,40.0224 C32.5583663,40.2464 32.7623663,40.4774 33.0463663,40.8014 C32.7483663,40.9304 32.5433663,41.0184 32.3263663,41.1124" id="Fill-168"></path>
            <path d="M31.4748663,47.4932 C30.9998663,47.8432 30.5898663,47.7812 30.1748663,47.3582 C29.9348663,47.1142 29.6418663,46.9442 30.0478663,46.5562 C29.8798663,46.5652 29.7628663,46.5672 29.6458663,46.5802 C29.5288663,46.5942 29.4128663,46.6172 29.2488663,46.6442 C29.2338663,46.5112 29.2188663,46.4032 29.2108663,46.2952 C29.2008663,46.1402 29.2408663,45.8742 29.1808663,45.8492 C28.5508663,45.5932 28.4328663,44.7752 27.9028663,44.5562 C27.3778663,44.3402 27.5638663,43.8402 27.1858663,43.6252 C27.3898663,43.4622 27.5448663,43.3372 27.7008663,43.2132 L27.6638663,43.2542 C28.1558663,42.8472 28.6478663,42.4402 29.2958663,41.9042 C29.2958663,42.2542 29.3768663,42.5162 29.2808663,42.6292 C29.0178663,42.9372 28.6808663,43.1812 28.3958663,43.4312 C29.0478663,44.4612 29.0988663,44.4802 29.8508663,43.9702 C30.0748663,43.8172 30.2768663,43.6312 30.5238663,43.4312 C30.6798663,44.2932 30.3418663,44.5302 28.7058663,44.8102 C28.9428663,45.5272 29.5068663,44.8512 29.9438663,45.1472 C29.8628663,45.4282 29.7708663,45.7502 29.6788663,46.0712 C30.1058663,46.2142 30.5428663,46.2462 30.8028663,46.4772 C31.0958663,46.7372 31.2288663,47.1772 31.4318663,47.5382 L31.4748663,47.4932 Z" id="Fill-170"></path>
            <path d="M33.9606663,49.2891 C33.8706663,49.8841 33.7796663,50.4791 33.6786663,51.1441 C32.8676663,50.2991 32.0906663,49.4881 31.2226663,48.5831 C31.2766663,48.3001 31.6986663,47.9501 31.4746663,47.4931 L31.4316663,47.5381 C31.7976663,47.6111 32.2536663,47.2091 32.5856663,47.8511 C32.3966663,48.0551 32.1796663,48.2891 31.8806663,48.6101 C32.8216663,48.4751 32.8216663,48.4751 33.9916663,49.3291 L33.9606663,49.2891 Z" id="Fill-172"></path>
            <path d="M12.8288663,30.629 C12.7468663,30.619 12.6418663,30.638 12.5888663,30.593 C12.3118663,30.356 12.0488663,30.104 11.7588663,29.836 C12.0728663,29.457 12.3528663,29.118 12.6708663,28.735 C12.9958663,29.012 13.1918663,29.179 13.4618663,29.408 C13.7358663,29.037 13.9718663,28.717 14.2438663,28.349 C14.9898663,28.932 15.4058663,28.112 16.0078663,27.778 C16.0588663,28.169 16.0988663,28.473 16.1388663,28.785 C15.5068663,28.957 15.5068663,28.957 15.2338663,29.498 C14.9978663,29.34 14.7648663,29.185 14.5178663,29.02 C14.4728663,29.05 14.4178663,29.078 14.3738663,29.119 C14.1158663,29.36 13.8648663,29.803 13.6008663,29.81 C12.9628663,29.825 13.0068663,30.327 12.7978663,30.654 L12.8288663,30.629 Z" id="Fill-174"></path>
            <path d="M14.9469663,31.8722 C14.9889663,31.8222 15.1469663,31.6392 15.3209663,31.4352 C15.5649663,31.5812 15.7649663,31.7012 15.9669663,31.8222 C16.2669663,31.0242 17.3649663,31.5012 17.6529663,30.3822 C17.8829663,31.2492 17.5669663,31.6612 17.2379663,31.8722 C16.6649663,32.2382 16.4019663,32.6772 16.5939663,33.6132 C15.9259663,32.9212 14.8839663,33.2102 14.9469663,31.8722" id="Fill-176"></path>
            <path d="M16.8171663,29.6163 C16.5121663,30.3153 16.2841663,31.0133 15.2481663,30.9843 C14.8951663,30.9743 14.5261663,31.5323 14.1361663,31.8543 C13.7331663,31.5993 13.2661663,31.3033 12.7231663,30.9613 C12.7351663,30.9233 12.7821663,30.7763 12.8291663,30.6293 L12.7971663,30.6543 C13.6261663,31.0663 14.3761663,30.6553 15.1251663,30.3983 C15.7141663,30.1963 16.2721663,29.9003 16.8441663,29.6463 L16.8171663,29.6163 Z" id="Fill-178"></path>
            <path d="M27.7009663,43.213 L26.3889663,43.213 C26.3239663,42.798 26.3409663,42.353 26.1749663,41.99 C25.9689663,41.54 25.4439663,41.818 24.9919663,41.868 C25.0909663,41.174 25.5449663,41.134 25.8959663,40.903 C26.1389663,41.168 26.3579663,41.407 26.5659663,41.636 C26.8579663,41.505 27.1459663,41.377 27.4329663,41.248 L27.3919663,41.206 L27.6639663,43.254 L27.7009663,43.213 Z" id="Fill-180"></path>
            <path d="M18.3639663,27.8477 C18.1199663,28.3687 17.8409663,28.9127 18.4549663,29.4667 C18.8109663,29.7857 18.5689663,30.2007 18.3369663,30.5717 C18.1849663,29.8877 17.7319663,29.3347 17.7909663,28.5517 C17.8259663,28.0987 17.4499663,27.5997 17.2109663,27.1457 C17.0579663,26.8557 16.9509663,26.6347 17.3589663,26.4417 C17.6849663,26.8987 18.0079663,27.3487 18.3639663,27.8477" id="Fill-182"></path>
            <path d="M12.2824663,28.1085 C12.4024663,28.4445 12.3644663,28.7425 11.9334663,28.5845 C11.4344663,28.4005 11.1074663,28.5875 10.7794663,28.8965 L10.8044663,28.8725 C10.4754663,28.7635 10.1644663,28.6515 10.3384663,28.1915 C10.4664663,27.8515 10.5434663,27.4885 10.6984663,27.1625 C10.8484663,26.8465 11.0884663,26.9595 11.3004663,27.1295 L11.2794663,27.1095 C11.6224663,27.4555 11.6704663,28.0945 12.3114663,28.1425 L12.2824663,28.1085 Z" id="Fill-184"></path>
            <path d="M15.9225663,26.88 C15.9375663,26.465 15.7525663,25.991 16.4775663,26.125 C16.5055663,26.391 16.5765663,26.665 16.5565663,26.933 C16.5125663,27.504 16.3925663,27.567 15.7765663,27.419 C15.2235663,27.286 14.6705663,27.123 14.1635663,27.89 C14.2205663,26.87 14.9175663,26.553 15.9225663,26.88" id="Fill-186"></path>
            <path d="M18.3830663,34.1378 C17.9090663,34.2908 17.4650663,34.8288 16.9170663,34.2268 L16.9170663,32.9848 C17.2660663,32.9648 17.5660663,32.3268 18.1360663,32.7818 C17.8960663,33.1428 17.6900663,33.4518 17.4470663,33.8168 C17.8830663,33.7808 18.3770663,33.4038 18.3420663,34.1728 L18.3830663,34.1378 Z" id="Fill-188"></path>
            <path d="M11.3005663,27.13 C11.4735663,26.933 11.6465663,26.734 11.8055663,26.553 C12.1855663,26.776 12.4595663,27.037 12.7715663,27.093 C13.1205663,27.155 13.5115663,27.007 13.7425663,27.508 C13.2855663,27.791 12.9455663,28.3 12.2825663,28.109 L12.3115663,28.143 C12.3575663,27.917 12.4025663,27.692 12.4625663,27.393 C12.0325663,27.29 11.6555663,27.199 11.2795663,27.109 L11.3005663,27.13 Z" id="Fill-190"></path>
            <path d="M35.4499663,51.0069 C35.4599663,51.2129 35.4689663,51.4179 35.4779663,51.6149 C35.0269663,51.9889 34.5859663,52.2219 34.0509663,51.6669 C34.2029663,51.3359 34.3669663,50.9839 34.5509663,50.5829 C34.8619663,50.7399 35.1709663,50.8979 35.4809663,51.0549 L35.4499663,51.0069 Z" id="Fill-192"></path>
            <path d="M26.3180663,40.1602 C25.8440663,40.5002 25.5350663,40.7222 25.1870663,40.9712 C24.8470663,40.6592 24.5300663,40.3222 24.0140663,40.4132 C23.9560663,40.4232 23.8550663,40.1882 23.7740663,40.0682 C23.8990663,39.9922 24.0950663,39.8232 24.1400663,39.8562 C24.7420663,40.3052 25.4380663,40.0062 26.3180663,40.1602" id="Fill-194"></path>
            <path d="M18.3425663,34.1729 C18.4905663,34.1919 18.7535663,34.2609 18.7705663,34.2219 C18.9625663,33.7879 19.3255663,33.9689 19.6305663,33.9499 L19.5855663,33.9079 C19.5895663,34.2709 18.9885663,34.5459 19.4325663,34.9709 C19.2215663,35.1839 19.0135663,35.3999 18.7925663,35.6009 C18.7765663,35.6149 18.6065663,35.5259 18.6045663,35.4819 C18.5965663,35.2749 18.7155663,34.9659 18.6205663,34.8789 C18.3745663,34.6559 18.2595663,34.4519 18.3835663,34.1379 L18.3425663,34.1729 Z" id="Fill-196"></path>
            <path d="M21.4069663,29.1817 C21.3269663,28.6587 21.7829663,28.3677 22.0439663,28.5567 C22.5509663,28.9237 23.0689663,28.7387 23.6569663,28.7887 C23.4429663,29.5587 22.8609663,29.3397 22.4469663,29.3527 C22.0919663,29.3627 21.7309663,29.2127 21.3729663,29.1337 L21.4069663,29.1817 Z" id="Fill-198"></path>
            <path d="M27.0798663,34.9415 C27.5478663,34.4245 27.8168663,34.1275 28.1238663,33.7875 C28.3078663,33.9045 28.5758663,34.0745 28.8808663,34.2675 C28.8438663,34.3625 28.8118663,34.4675 28.7638663,34.5645 C28.3948663,35.2955 27.8178663,34.8615 27.0798663,34.9415" id="Fill-200"></path>
            <path d="M7.24826631,22.0567 C7.40426631,22.4427 7.56026631,22.8287 7.71726631,23.2147 C7.66426631,23.2577 7.61226631,23.3007 7.55926631,23.3437 C7.14426631,23.0447 6.72926631,22.7467 6.31026631,22.4447 C6.47526631,21.8637 6.89026631,22.0017 7.29026631,22.0987 L7.24826631,22.0567 Z" id="Fill-202"></path>
            <path d="M35.4811663,51.0548 C35.8221663,50.7078 35.2001663,50.0148 36.0021663,49.7908 C36.3961663,50.2398 36.2461663,50.7468 36.1421663,51.3598 C35.8651663,51.2188 35.6581663,51.1138 35.4501663,51.0068 L35.4811663,51.0548 Z" id="Fill-204"></path>
            <path d="M21.3732663,29.1339 C21.2272663,29.6049 20.8582663,29.7309 20.4382663,29.6439 C20.3922663,30.0059 20.3592663,30.2579 20.3232663,30.5389 C19.7782663,30.2989 20.0102663,29.7189 20.8902663,28.8819 C21.0562663,28.9789 21.2312663,29.0799 21.4072663,29.1819 L21.3732663,29.1339 Z" id="Fill-206"></path>
            <path d="M21.9064663,37.0118 C22.0794663,37.0388 22.3434663,37.0048 22.4114663,37.1058 C22.7874663,37.6558 22.5764663,38.1268 22.1154663,38.5578 C22.1474663,38.0408 22.3134663,37.5238 21.5984663,37.1508 C21.7014663,37.1048 21.8034663,37.0588 21.9064663,37.0118" id="Fill-208"></path>
            <path d="M16.8439663,29.6466 C16.7739663,29.2096 16.7039663,28.7736 16.6169663,28.2336 C16.7649663,28.1596 16.9879663,28.0486 17.2059663,27.9396 C17.2919663,28.0906 17.3829663,28.1836 17.3629663,28.2256 C17.1619663,28.6626 16.9599663,29.0906 17.4819663,29.6586 C17.1109663,29.6346 16.9639663,29.6256 16.8169663,29.6166 L16.8439663,29.6466 Z" id="Fill-210"></path>
            <path d="M20.8766663,27.9864 C20.7886663,28.8044 20.0656663,28.4504 19.8306663,28.9224 C19.6496663,28.2614 19.6496663,28.2614 20.8766663,27.9864" id="Fill-212"></path>
            <path d="M24.3512663,30.1534 C24.1512663,30.1304 23.9522663,30.1064 23.6262663,30.0674 C23.8162663,29.6254 23.9762663,29.2554 24.1392663,28.8744 C24.9482663,29.2094 24.2132663,29.7204 24.3512663,30.1534" id="Fill-214"></path>
            <path d="M10.7790663,28.8966 C11.1410663,28.9036 11.5800663,28.8346 11.6260663,29.3446 C11.6430663,29.5236 11.4130663,29.7256 11.2950663,29.9166 C11.1460663,29.8116 10.9180663,29.7366 10.8640663,29.5946 C10.7810663,29.3776 10.8180663,29.1156 10.8040663,28.8726 L10.7790663,28.8966 Z" id="Fill-216"></path>
            <path d="M33.8722663,48.1827 C33.4632663,48.0637 32.9362663,48.0707 32.9792663,47.4027 C33.7272663,47.0947 33.7772663,47.6787 33.8722663,48.1827" id="Fill-218"></path>
            <path d="M37.7150663,47.254 C37.9430663,47.597 38.0750663,47.923 37.5240663,48.077 C37.2840663,48.144 37.0350663,48.18 36.6790663,48.013 C37.0360663,47.769 37.3940663,47.525 37.7510663,47.281 L37.7150663,47.254 Z" id="Fill-220"></path>
            <path d="M24.2673663,36.6182 C24.2873663,37.1802 24.4893663,37.5912 23.9963663,37.8362 C23.9293663,37.8692 23.7293663,37.7902 23.6983663,37.7162 C23.4763663,37.2032 23.9023663,37.0322 24.2673663,36.6182" id="Fill-222"></path>
            <path d="M10.1047663,28.0108 C9.90976631,28.2198 9.74376631,28.4978 9.65176631,28.4758 C9.46376631,28.4288 9.24876631,28.2478 9.17676631,28.0698 C9.13576631,27.9688 9.39276631,27.6148 9.45176631,27.6298 C9.65976631,27.6808 9.83876631,27.8428 10.1047663,28.0108" id="Fill-224"></path>
            <path d="M32.2643663,37.6749 C31.6183663,38.2139 31.4183663,37.5989 30.9523663,37.4599 C31.5143663,37.0899 31.8583663,37.2269 32.2643663,37.6749" id="Fill-226"></path>
            <path d="M19.0339663,29.6026 C18.9239663,29.5216 18.8719663,29.5046 18.8619663,29.4736 C18.7609663,29.1906 18.4859663,28.9046 18.8279663,28.6186 C18.8939663,28.5636 19.0679663,28.5626 19.1439663,28.6116 C19.3739663,28.7566 19.3659663,28.7716 19.0339663,29.6026" id="Fill-228"></path>
            <path d="M27.4328663,41.2481 C27.4148663,40.5681 27.8498663,40.3361 28.6758663,40.1321 C28.1118663,40.5971 28.1958663,41.3791 27.3918663,41.2061 L27.4328663,41.2481 Z" id="Fill-230"></path>
            <path d="M19.6305663,33.9503 L19.9175663,32.7343 C20.0025663,32.7643 20.0885663,32.7953 20.1735663,32.8263 C20.0715663,33.2263 20.4025663,33.8123 19.5855663,33.9083 L19.6305663,33.9503 Z" id="Fill-232"></path>
            <path d="M25.7365663,30.5753 C25.3995663,31.4623 24.8825663,30.7873 24.4205663,30.9153 C24.7825663,30.1643 25.2495663,30.5193 25.7365663,30.5753" id="Fill-234"></path>
            <path d="M29.9059663,36.3839 L30.5049663,35.9649 C30.5729663,36.0919 30.7199663,36.3109 30.6969663,36.3299 C30.5219663,36.4789 30.3149663,36.5879 30.1169663,36.7099 C30.0469663,36.6009 29.9759663,36.4919 29.9059663,36.3839" id="Fill-236"></path>
            <path d="M24.2101663,38.8634 C24.0191663,39.0414 23.9001663,39.2304 23.8081663,39.2174 C23.6511663,39.1974 23.4811663,39.0734 23.3811663,38.9424 C23.3501663,38.9014 23.5341663,38.5924 23.6061663,38.5964 C23.7771663,38.6074 23.9411663,38.7344 24.2101663,38.8634" id="Fill-238"></path>
            <path d="M26.8552663,38.4298 C26.9512663,39.6238 26.9452663,39.6318 26.0772663,39.5468 C26.2512663,39.3638 26.3942663,39.2428 26.4972663,39.0958 C26.6092663,38.9358 26.6862663,38.7498 26.8552663,38.4298" id="Fill-240"></path>
            <path d="M31.3249663,44.8116 C31.8869663,44.8246 32.1979663,44.9656 32.4869663,45.4046 C31.9259663,45.5236 31.6269663,45.3566 31.3249663,44.8116" id="Fill-242"></path>
            <path d="M34.0734663,46.505 C33.5854663,46.435 33.6104663,45.985 33.4364663,45.683 L33.6284663,45.522 C33.8594663,45.777 34.0904663,46.034 34.3214663,46.29 C34.2384663,46.361 34.1564663,46.434 34.0734663,46.505" id="Fill-244"></path>
            <path d="M18.3395663,32.588 C18.4535663,32.286 18.5675663,31.984 18.7585663,31.477 C18.9055663,31.796 19.0525663,31.964 19.0155663,32.067 C18.9325663,32.305 18.7595663,32.51 18.6225663,32.728 C18.5285663,32.681 18.4335663,32.635 18.3395663,32.588" id="Fill-246"></path>
            <path d="M20.5895663,31.9063 C20.9965663,32.1903 21.2745663,32.3803 20.9445663,32.8323 C20.5535663,32.6713 20.3465663,32.4673 20.5895663,31.9063" id="Fill-248"></path>
            <path d="M66.4543663,35.1729 C66.5623663,35.4349 66.6713663,35.6969 66.8183663,36.0529 C66.1383663,36.1329 65.7233663,36.4129 65.8293663,37.1339 C65.8403663,37.2109 65.5883663,37.3269 65.4073663,37.4639 C65.1523663,37.2419 64.9143663,37.0349 64.5383663,36.7089 C64.8953663,36.6369 65.1023663,36.5949 65.3723663,36.5399 C65.4363663,36.2299 65.5103663,35.8719 65.6003663,35.4349 C65.8733663,35.3609 66.1763663,35.2789 66.4793663,35.1969 L66.4543663,35.1729 Z" id="Fill-250"></path>
            <path d="M59.7170663,42.8692 C59.4850663,43.1612 59.2520663,43.4532 58.9630663,43.8152 C58.7230663,43.4402 58.5580663,43.1812 58.3330663,42.8292 C58.8000663,42.7642 59.1740663,42.7122 59.5460663,42.6592 C59.6030663,42.7292 59.6600663,42.8002 59.7170663,42.8692" id="Fill-252"></path>
            <path d="M65.4890663,33.8263 C65.6700663,34.1853 65.7840663,34.3603 65.8420663,34.5523 C65.8690663,34.6423 65.7880663,34.7653 65.7240663,34.9813 C65.3360663,34.6923 65.0410663,34.4863 65.4890663,33.8263" id="Fill-254"></path>
        </g>
    </g>
</svg>