<?xml version="1.0" encoding="UTF-8"?>
<svg width="47px" height="72px" viewBox="0 0 47 72" version="1.1" xmlns="http://www.w3.org/2000/svg" xmlns:xlink="http://www.w3.org/1999/xlink">
    <!-- Generator: Sketch 61.2 (89653) - https://sketch.com -->
    <title>white_tooth</title>
    <desc>Created with Sketch.</desc>
    <g id="Page-1" stroke="none" stroke-width="1" fill="none" fill-rule="evenodd">
        <g id="white_tooth" transform="translate(0.384995, 0.277200)" fill="#FFFFFF">
            <path d="M8.59020485,34.9082 C8.53120485,34.5912 8.35620485,34.4382 8.03620485,34.5142 C7.96020485,34.5332 7.85120485,34.6632 7.85720485,34.7332 C7.88920485,35.1332 8.26320485,34.7582 8.40320485,34.9542 C8.41520485,34.9702 8.50520485,34.9302 8.59020485,34.9082 L8.59020485,34.9082 Z M14.1352048,13.9232 C14.2862048,14.5592 14.7532048,14.5142 15.0912048,14.6692 C14.6972048,14.1402 14.6972048,14.1402 14.1352048,13.9232 L14.1352048,13.9232 Z M29.1372048,17.5542 C28.4312048,17.2722 28.4312048,17.2722 28.4512048,18.0202 C28.6912048,17.8562 28.9002048,17.7152 29.1372048,17.5542 L29.1372048,17.5542 Z M11.4132048,16.4582 C11.5162048,15.7022 10.9532048,15.6872 10.7332048,15.2542 C10.5842048,15.9232 10.9752048,16.0872 11.4132048,16.4582 L11.4132048,16.4582 Z M12.5012048,20.8002 C12.6412048,21.7282 13.2192048,21.7562 13.6762048,21.9652 C13.6702048,21.7892 13.5872048,21.5372 13.5482048,21.5442 C13.0752048,21.6252 12.9062048,21.2122 12.5012048,20.8002 L12.5012048,20.8002 Z M10.0272048,41.6742 C10.5762048,41.4292 10.9642048,41.2562 11.5362048,41.0002 C11.0732048,40.9432 10.7892048,40.9082 10.5412048,40.8772 C10.3702048,41.1412 10.2362048,41.3492 10.0272048,41.6742 L10.0272048,41.6742 Z M14.5832048,38.1282 C14.8722048,38.6072 15.0442048,38.8912 15.2152048,39.1762 C15.3152048,38.9602 15.1922048,38.7952 15.2272048,38.6772 C15.2722048,38.5232 15.4442048,38.4082 15.6312048,38.1992 C15.2952048,38.1772 15.0702048,38.1612 14.5832048,38.1282 L14.5832048,38.1282 Z M26.4542048,17.9692 C26.4212048,17.5962 26.3542048,17.3722 26.3972048,17.1722 C26.4422048,16.9702 26.9322048,17.0212 26.7682048,16.5832 C26.2502048,16.7562 26.0262048,17.1292 25.8522048,17.6162 C26.0202048,17.7152 26.1832048,17.8102 26.4542048,17.9692 L26.4542048,17.9692 Z M12.4432048,41.6782 C12.3462048,41.5342 12.2502048,41.3912 12.1372048,41.2242 C11.7332048,41.5942 11.2772048,41.8372 11.4222048,42.4442 C11.7612048,42.1892 12.0842048,41.9472 12.4432048,41.6782 L12.4432048,41.6782 Z M9.52920485,41.8272 C9.46920485,41.8642 9.40820485,41.9012 9.34720485,41.9382 C9.42820485,42.4192 9.71020485,42.7622 10.1452048,43.0012 C10.8332048,42.7052 10.8332048,42.7052 10.5442048,42.2722 C10.4342048,42.3762 10.3202048,42.4842 10.1902048,42.6072 C9.94320485,42.3162 9.73620485,42.0712 9.52920485,41.8272 L9.52920485,41.8272 Z M9.50920485,44.4162 C9.20420485,43.9152 8.90420485,43.4242 8.59020485,42.9072 C8.42420485,43.0052 8.25820485,43.1012 8.11120485,43.1872 C8.49220485,43.6922 8.83820485,44.1492 9.18520485,44.6072 C9.29620485,44.5422 9.41220485,44.4732 9.50920485,44.4162 L9.50920485,44.4162 Z M10.1162048,40.6352 C10.1122048,40.5812 10.1082048,40.5262 10.1042048,40.4722 C9.93920485,40.4032 9.77520485,40.3342 9.46020485,40.2012 C9.81820485,39.9322 10.0612048,39.7722 10.2782048,39.5832 C10.5662048,39.3322 10.5092048,39.1302 10.0882048,38.7772 C9.74620485,39.2702 9.40420485,39.7652 9.01820485,40.3232 C9.39820485,40.4302 9.75720485,40.5322 10.1162048,40.6352 L10.1162048,40.6352 Z M23.7652048,15.2582 C24.5312048,16.1952 25.1342048,16.2262 26.6192048,15.4272 C26.3142048,15.3952 26.0512048,15.3082 25.8152048,15.3562 C25.1822048,15.4822 24.5692048,15.5962 24.0072048,15.1472 C23.9852048,15.1302 23.8952048,15.1962 23.7652048,15.2582 L23.7652048,15.2582 Z M9.80320485,23.9502 C10.5292048,23.3692 10.5482048,23.3042 10.2152048,22.5042 C10.3682048,22.5082 10.5212048,22.5122 10.6732048,22.5162 C10.8062048,23.0422 10.9392048,23.5662 11.0922048,24.1752 C11.4122048,23.8622 11.8732048,23.7712 11.6732048,23.3202 C11.4522048,23.2982 11.2892048,23.2812 11.1252048,23.2642 C11.3732048,22.7542 10.7932048,22.7952 10.6472048,22.5472 C10.5962048,22.1652 10.7982048,22.1202 11.1242048,22.1342 C11.5072048,22.1482 11.5572048,21.9292 11.3802048,21.6172 C11.0342048,21.9812 10.3542048,21.9072 10.2422048,22.5372 C9.95720485,22.6962 10.0472048,22.9052 10.1522048,23.1282 C10.1822048,23.1912 10.1572048,23.2812 10.1572048,23.3732 C9.94620485,23.3232 9.77820485,23.2832 9.51020485,23.2202 C9.64920485,23.5412 9.74320485,23.7592 9.83720485,23.9752 C9.64620485,24.0072 9.45620485,24.0382 9.12320485,24.0932 C9.64620485,24.4552 10.0452048,24.7722 10.5302048,25.0122 C10.2652048,24.6252 10.0342048,24.2872 9.80320485,23.9502 L9.80320485,23.9502 Z M10.0222048,27.4452 C10.6142048,27.1022 10.7752048,26.8122 10.5632048,26.3312 C10.3802048,26.7442 10.2172048,27.1082 10.0552048,27.4732 C9.70520485,27.6872 9.35620485,27.7442 9.00820485,27.4702 C9.47820485,26.8352 9.01720485,26.4102 8.71920485,26.0612 C8.76320485,25.5842 8.97420485,25.0602 8.80120485,24.8502 C8.27220485,24.2052 8.83620485,23.8842 9.02020485,23.4312 C8.83720485,23.3542 8.46420485,23.3822 8.64920485,22.9472 C8.74420485,22.7242 8.65520485,22.6542 8.42520485,22.6442 C8.28920485,22.6392 8.15720485,22.5482 7.79220485,22.4042 C8.53120485,22.2202 8.88820485,21.9682 8.62820485,21.3452 C8.60420485,21.2902 8.92720485,21.0742 9.10620485,20.9582 C9.18020485,20.9092 9.29720485,20.9282 9.60020485,20.8892 C9.06120485,20.5262 8.42520485,20.8192 8.24020485,20.2472 C8.29620485,20.1792 8.33120485,20.0932 8.37920485,20.0852 C9.36320485,19.9232 9.36420485,19.9252 9.16620485,18.9112 C9.14220485,18.7882 9.12020485,18.6642 9.09220485,18.5112 C9.32020485,18.5372 9.48120485,18.5552 9.66720485,18.5772 C9.68620485,18.4142 9.65520485,18.1552 9.72920485,18.1212 C10.3242048,17.8452 10.1732048,17.2062 10.4112048,16.7622 C10.4532048,16.6822 10.2942048,16.4942 10.2272048,16.3562 L10.2572048,16.3902 C10.4022048,16.1042 10.3912048,15.8862 10.0452048,15.7492 C9.53520485,15.5482 9.59320485,15.1962 9.83820485,14.6382 C9.97820485,14.9372 10.0532048,15.0962 10.1542048,15.3132 C10.4902048,14.5892 11.0032048,14.8732 11.4472048,14.9792 C11.5202048,15.2012 11.5692048,15.3502 11.6182048,15.5002 C11.6712048,15.4862 11.7242048,15.4732 11.7772048,15.4612 C11.7502048,15.2562 11.7242048,15.0522 11.6932048,14.8112 C11.9092048,14.7812 12.1022048,14.7552 12.2962048,14.7282 L12.2702048,14.6872 C12.4212048,15.0542 12.0222048,15.5962 12.6312048,15.8212 C12.6402048,15.3342 12.6402048,15.3342 13.4342048,14.5752 C13.5722048,14.6852 13.7102048,14.7952 13.9222048,14.9642 C13.9392048,14.3292 13.5362048,14.1992 13.1702048,14.0442 C12.7752048,13.8762 12.6112048,13.6162 12.7972048,13.0972 C13.4182048,14.3292 14.1632048,13.3162 14.8502048,13.3042 C14.9162048,13.4742 14.9752048,13.6282 15.0352048,13.7812 C15.0782048,13.7842 15.1222048,13.7882 15.1652048,13.7912 C15.1962048,13.4342 15.2282048,13.0782 15.2602048,12.7082 C15.4102048,12.6402 15.5872048,12.5622 15.7972048,12.4692 C15.5932048,12.3702 15.4192048,12.2862 15.2452048,12.2022 C15.2732048,12.1352 15.3022048,12.0682 15.3312048,12.0022 C15.6092048,12.1092 15.8882048,12.2172 16.2152048,12.3432 C16.3542048,12.2542 16.5522048,12.1262 16.7542048,11.9962 C15.6112048,10.5992 14.3882048,10.3252 12.7492048,10.8892 C11.5042048,11.3182 10.4792048,11.9632 9.73820485,13.0582 C9.56820485,13.3102 9.34420485,13.5342 9.11820485,13.7402 C8.23920485,14.5372 7.81220485,15.5832 7.59220485,16.6962 C7.24120485,18.4742 7.09720485,20.2752 7.16920485,22.0962 C7.23220485,23.7322 7.19320485,25.3722 7.21220485,27.0112 C7.21520485,27.2782 7.27220485,27.5482 7.32820485,27.8102 C7.61120485,29.1432 8.36020485,30.2672 9.05920485,31.3872 C9.74220485,32.4792 10.5062048,33.5432 11.5202048,34.3872 C13.0422048,35.6522 14.8002048,36.4202 16.6872048,36.9632 C17.7662048,37.2732 18.8182048,37.6802 19.8752048,38.0612 C19.9722048,38.0962 20.0242048,38.2572 20.0962048,38.3592 L20.1242048,38.3352 C19.8632048,38.3492 19.6012048,38.3652 19.3562048,38.3802 C19.1982048,38.6532 19.0532048,38.9022 18.9122048,39.1462 C18.4172048,38.8852 18.1362048,38.4252 17.4862048,38.3232 C17.7402048,38.6902 17.9152048,38.9432 18.1272048,39.2492 C17.7922048,39.4202 17.4562048,39.4992 17.2872048,39.7122 C17.1812048,39.8452 16.6752048,40.0962 17.1682048,40.4012 C17.3262048,40.2762 17.4802048,40.1542 17.8042048,39.8952 C17.6622048,40.3942 17.5862048,40.6632 17.5082048,40.9342 C17.1522048,40.8272 16.8822048,40.7462 16.5812048,40.6562 C16.5022048,40.3832 16.4192048,40.0952 16.2802048,39.6192 C16.0562048,40.1412 15.9142048,40.4742 15.7842048,40.7782 C15.9282048,40.9462 16.0252048,41.0592 16.1602048,41.2162 C15.5192048,41.1752 14.8712048,41.2482 14.6722048,41.7632 C14.5302048,42.1292 14.3652048,42.1602 14.1312048,42.1442 C13.8042048,42.1232 13.6682048,41.8952 13.7502048,41.5632 C13.9612048,41.4762 14.1722048,41.3882 14.4012048,41.2932 C14.3652048,40.9872 14.3352048,40.7212 14.3062048,40.4752 C13.6982048,40.2092 13.4162048,40.7072 12.9722048,40.9002 C13.3522048,41.4422 13.5542048,41.9532 13.3312048,42.5672 C13.2792048,42.7112 13.4172048,42.9182 13.4462048,43.0982 C13.4662048,43.2262 13.4502048,43.3602 13.4502048,43.7102 C13.1172048,43.2682 12.9192048,43.0052 12.7972048,42.8432 C12.2992048,42.7902 11.9122048,42.7482 11.4532048,42.6992 C11.5862048,43.0482 11.6982048,43.3412 11.8052048,43.6202 C12.1432048,43.5852 12.3142048,42.9592 12.8192048,43.6442 C12.2362048,43.5842 12.5002048,44.3662 11.8832048,44.3182 C11.6512048,43.8292 11.6512048,43.8292 11.0772048,44.1762 C11.3202048,44.5012 11.6402048,44.2282 11.9112048,44.2902 C11.9712048,44.4712 12.0302048,44.6532 12.1032048,44.8712 C11.3282048,45.0912 11.0022048,44.5032 10.6262048,44.1872 C10.3822048,44.4882 10.1542048,45.0152 9.89020485,45.0352 C9.46720485,45.0672 9.23420485,45.3212 8.91720485,45.4712 C8.88020485,45.4882 8.87720485,45.5802 8.85820485,45.6372 C8.98520485,45.7242 9.11120485,45.8112 9.22220485,45.8872 C8.90520485,46.8242 7.92920485,46.5282 7.45920485,46.9562 C7.39720485,47.3212 7.34520485,47.6272 7.28920485,47.9622 C7.49020485,48.0762 7.70120485,48.1952 7.96020485,48.3412 C7.93420485,48.0402 7.91620485,47.8272 7.88420485,47.4672 C8.11920485,47.6282 8.33620485,47.7082 8.33820485,47.7922 C8.34620485,48.1512 8.33520485,48.5222 8.24720485,48.8682 C8.16720485,49.1812 8.38420485,49.1922 8.54120485,49.2902 L8.54820485,49.2972 C8.45720485,49.7302 8.32320485,50.0872 7.75320485,49.8422 C7.64520485,49.7952 7.49120485,49.8562 7.35820485,49.8682 C7.26420485,49.3232 7.76220485,49.6002 8.01720485,49.4512 C7.71520485,49.0592 7.53820485,48.6162 6.99420485,48.4692 C6.94220485,48.7192 6.94420485,48.9362 6.84920485,49.0982 C6.77320485,49.2292 6.58120485,49.2932 6.45720485,49.3762 C6.79920485,49.5492 7.09220485,49.6972 7.38520485,49.8452 C7.26520485,49.9962 7.14520485,50.1472 7.00820485,50.3202 C6.83820485,50.1372 6.71120485,50.0022 6.59120485,49.8732 C5.85020485,50.3002 6.81220485,50.4292 6.69520485,50.7342 C6.64020485,50.7772 6.59020485,50.8492 6.53620485,50.8532 C5.95420485,50.8872 6.32820485,50.0862 5.82820485,50.0272 C5.80320485,50.0242 5.76820485,49.8512 5.78720485,49.7672 C5.86920485,49.3982 5.96820485,49.0322 6.07720485,48.6012 C5.24320485,48.9322 5.18420485,48.8882 5.08820485,47.9562 C4.85520485,48.0162 4.62820485,48.1222 4.40020485,48.1232 C4.05720485,48.1252 4.03720485,47.9102 4.18520485,47.5842 L5.50520485,47.5842 C5.56620485,47.6642 5.64320485,47.7772 5.73220485,47.8782 C5.82920485,47.9882 5.93820485,48.0882 6.05620485,48.2072 C6.17520485,47.8382 6.27320485,47.5382 6.39420485,47.1622 C6.53320485,47.3292 6.59520485,47.4032 6.65620485,47.4772 C6.72220485,47.4042 6.84620485,47.3292 6.84220485,47.2602 C6.82420485,46.8922 6.66820485,46.6592 6.27220485,46.5232 C5.90120485,46.3962 5.58320485,46.1112 5.12520485,45.8212 C5.60720485,45.5262 5.94820485,45.3802 6.45720485,45.3832 C6.37320485,45.6172 6.31920485,45.7662 6.22520485,46.0282 C6.52720485,45.9192 6.74820485,45.8382 7.14320485,45.6942 C6.59320485,45.2842 6.19820485,44.9892 5.79720485,44.6892 C5.91720485,44.4272 6.02420485,44.1952 6.14320485,43.9352 C6.48620485,44.0462 6.76720485,44.1962 7.05620485,44.2132 C7.32520485,44.2272 7.60220485,44.0982 7.94520485,44.0162 C7.34320485,43.7652 7.35120485,43.7642 7.29820485,43.3392 C7.27920485,43.1882 7.22120485,43.0402 7.16420485,42.8982 C7.15020485,42.8622 7.07120485,42.8522 7.02820485,42.8342 C6.95220485,42.9792 6.87920485,43.1182 6.78320485,43.2992 C6.41920485,43.0402 6.11520485,42.8242 5.70520485,42.5332 C6.46020485,42.3102 7.09020485,42.1252 7.73820485,41.9342 C7.53620485,41.2092 6.70120485,41.9192 6.43120485,41.3262 C6.60920485,41.0982 6.75820485,40.7182 6.99520485,40.6522 C7.26120485,40.5792 7.60620485,40.7902 7.91620485,40.8782 C7.86420485,40.6582 7.74720485,40.4292 7.77620485,40.2212 C7.80720485,40.0022 7.97720485,39.8032 8.09920485,39.5702 L7.33220485,39.5702 C7.27820485,39.5122 7.22420485,39.4522 7.17120485,39.3932 C7.08820485,39.1202 7.60120485,38.7882 7.08920485,38.5562 C7.34020485,38.2962 6.80920485,37.7122 7.47820485,37.6132 C7.51920485,37.6072 7.58620485,37.4042 7.55520485,37.3692 C7.48620485,37.2922 7.36620485,37.2422 7.25920485,37.2192 C7.14920485,37.1932 7.02820485,37.2132 6.99120485,37.2132 C6.88220485,36.7292 6.79320485,36.3372 6.68820485,35.8762 C6.95820485,35.9562 7.19020485,36.0262 7.57720485,36.1412 C7.32120485,35.7482 6.89420485,35.5952 7.04020485,35.1792 C6.42720485,34.8352 7.12820485,34.5642 7.09320485,34.2512 C7.06920485,34.0292 7.06820485,33.8042 7.06220485,33.5822 C7.05820485,33.4632 7.03320485,33.3312 7.07420485,33.2282 C7.30220485,32.6652 7.24420485,32.4842 6.61420485,32.0022 C6.67120485,32.6372 6.34120485,33.2602 6.69720485,33.6972 C6.45420485,34.2302 6.26020485,34.6552 6.07620485,35.0592 C6.29120485,35.2492 6.44420485,35.3832 6.59620485,35.5162 C6.57620485,35.5662 6.55520485,35.6172 6.53520485,35.6672 C6.36420485,35.6502 6.19320485,35.6352 6.00220485,35.6162 C5.96620485,35.8122 5.93820485,36.0142 5.89220485,36.2122 C5.27120485,38.8362 4.66520485,41.4642 4.01920485,44.0812 C3.56120485,45.9332 3.33920485,47.8462 2.61320485,49.6332 C2.43520485,50.0722 2.30120485,50.5392 2.21820485,51.0052 C1.97220485,52.3842 1.73820485,53.7652 1.54020485,55.1522 C1.10020485,58.2422 0.942204849,61.3452 1.23720485,64.4582 C1.38420485,66.0062 1.80920485,67.4722 2.65420485,68.8002 C2.81420485,69.0512 2.98420485,69.2362 3.31120485,69.1612 C3.65420485,68.7822 3.96820485,68.3722 4.34620485,68.0332 C5.12320485,67.3392 5.69320485,66.5022 6.21020485,65.6092 C7.23720485,63.8352 8.18320485,61.9982 9.36720485,60.3342 C11.3952048,57.4832 12.9822048,54.3782 14.8212048,51.4222 C15.6292048,50.1232 16.6182048,48.9272 17.6182048,47.7642 C18.1522048,47.1422 18.9102048,46.7752 19.7962048,46.7662 C20.3942048,46.7612 20.7812048,47.0142 20.9742048,47.5562 C21.0642048,47.8082 21.1472048,48.0922 21.1222048,48.3502 C21.0492048,49.1302 20.9942048,49.9232 20.8042048,50.6782 C20.1632048,53.2232 19.5632048,55.7772 18.5502048,58.2212 C17.9242048,59.7292 17.5392048,61.3372 17.0252048,62.8912 C16.6722048,63.9602 16.2542048,65.0072 15.9162048,66.0792 C15.6392048,66.9572 15.4132048,67.8522 15.2142048,68.7522 C15.1092048,69.2242 15.1202048,69.7322 15.5712048,70.0622 C16.0202048,70.3902 16.4792048,70.2432 16.9232048,70.0132 C17.4682048,69.7292 18.0262048,69.4672 18.5582048,69.1602 C19.3262048,68.7172 20.1832048,68.3552 20.8132048,67.7592 C22.6042048,66.0632 24.2262048,64.2072 25.5032048,62.0782 C25.9942048,61.2592 26.4432048,60.4122 26.9332048,59.5912 C27.8092048,58.1252 28.7182048,56.6782 29.5812048,55.2042 C30.3592048,53.8772 31.0972048,52.5262 31.8442048,51.1812 C32.1092048,50.7032 32.4182048,50.2332 32.5842048,49.7202 C32.9342048,48.6372 33.4872048,47.6622 34.0332048,46.6792 C35.0282048,44.8882 35.7752048,42.9712 36.9132048,41.2542 C37.6482048,40.1442 38.2812048,38.9672 38.9442048,37.8102 C39.2642048,37.2522 39.5902048,36.6902 39.8342048,36.0972 C40.0792048,35.5002 40.2162048,34.8592 40.4162048,34.2422 C40.7322048,33.2702 41.0732048,32.3062 41.3792048,31.3322 C41.5722048,30.7172 41.7652048,30.0962 41.8792048,29.4632 C42.0362048,28.5892 42.1492048,27.7052 42.2252048,26.8212 C42.3722048,25.1182 42.5032048,23.4032 42.0752048,21.7232 C41.6342048,19.9912 41.0002048,18.3402 39.8192048,16.9472 C39.1512048,16.1602 38.3702048,15.5802 37.3092048,15.5172 C36.1172048,15.4472 34.9242048,15.4072 33.7302048,15.3752 C33.0812048,15.3572 32.4292048,15.4232 31.7822048,15.3822 C30.9592048,15.3302 30.1102048,15.2212 29.5262048,14.5642 C29.2492048,14.2522 28.8412048,14.6912 28.8382048,14.4792 C28.8342048,14.0762 28.5632048,13.9822 28.3562048,13.7902 C28.1822048,13.6292 28.0282048,13.4312 27.7402048,13.6172 C27.6912048,13.6482 27.5172048,13.5602 27.4512048,13.4832 C27.1222048,13.0952 26.6782048,12.9752 26.2922048,12.8822 C26.1212048,13.0972 26.0022048,13.2472 25.8822048,13.3962 C25.8032048,13.2052 25.7242048,13.0132 25.6182048,12.7592 C24.0152048,12.6792 22.3872048,12.8702 20.9362048,13.8822 C20.6052048,14.1122 20.3732048,14.3562 20.3732048,14.7542 C20.8572048,14.9472 21.2992048,15.2072 21.8432048,15.0712 C21.9092048,15.4152 21.4842048,15.7272 21.9932048,15.9922 C22.0842048,15.7882 22.2952048,15.5162 22.2332048,15.4192 C22.0192048,15.0842 22.3582048,14.9632 22.4232048,14.7562 C22.1892048,14.4232 21.9462048,14.5962 21.6932048,14.6992 C21.6202048,14.7292 21.5122048,14.6712 21.3892048,14.6472 C21.4832048,14.3762 21.5662048,14.1362 21.6312048,13.9482 C22.0192048,13.9852 22.3372048,14.0162 22.6782048,14.0502 C22.7812048,14.2422 22.8682048,14.5152 23.0472048,14.6992 C23.1562048,14.8112 23.4062048,14.8072 23.5932048,14.8042 C23.6262048,14.8042 23.6362048,14.5432 23.6912048,14.4172 C23.7652048,14.2462 23.8322048,14.0282 23.9722048,13.9362 C24.4592048,13.6192 24.9392048,13.7292 25.4012048,13.9872 C25.3252048,14.3472 24.6782048,14.3902 25.0942048,14.9132 C25.2332048,14.8102 25.4362048,14.5842 25.5072048,14.6202 C25.9682048,14.8532 26.3562048,14.5762 26.7752048,14.5142 C26.9852048,14.4842 27.2092048,14.5532 27.6102048,14.5962 C27.2482048,14.9192 27.0782048,15.2232 27.3462048,15.4672 C27.7332048,15.8172 28.1512048,15.4982 28.5222048,15.3532 C29.0022048,15.8452 29.7212048,16.0392 29.7882048,16.8102 C29.2752048,16.7522 28.8142048,16.0082 28.2822048,16.6182 C28.7162048,16.8322 29.1512048,17.0472 29.5862048,17.2622 C29.9402048,17.5162 30.1182048,17.1732 30.3572048,17.0352 C30.5102048,16.9592 30.6642048,16.8842 30.8182048,16.8072 L30.7772048,16.7742 C30.8122048,17.0642 30.8472048,17.3532 30.8862048,17.6672 C30.9532048,17.4932 31.0122048,17.3432 31.0552048,17.2302 C31.6582048,17.2692 32.1992048,17.3042 32.7232048,17.3392 C32.6332048,17.0222 32.5542048,16.7442 32.4912048,16.5202 C32.6902048,16.2432 32.8282048,16.0102 33.0112048,15.8202 C33.0622048,15.7672 33.2622048,15.8152 33.3632048,15.8712 C33.4192048,15.9022 33.4482048,16.0542 33.4272048,16.1362 C33.4042048,16.2202 33.3202048,16.3102 33.2392048,16.3532 C32.8332048,16.5712 33.2702048,16.9122 33.1122048,17.1612 C33.4912048,17.3222 33.2382048,18.0192 33.8252048,18.0022 C33.8552048,18.0012 33.8832048,17.9712 33.9102048,17.9572 C33.8982048,17.7702 33.8862048,17.5842 33.8752048,17.3982 L33.8522048,17.4162 C34.0432048,17.2692 34.2762048,17.0652 34.4612048,17.3432 C34.6532048,17.6302 34.8712048,17.7212 35.1372048,17.5602 C35.3522048,17.4292 35.5032048,17.4442 35.6882048,17.5772 C35.9182048,17.7412 36.1112048,17.7032 36.3072048,17.4862 C36.3672048,17.4202 36.6012048,17.4002 36.6532048,17.4552 C36.8902048,17.7112 37.3802048,17.6202 37.4682048,18.0862 C37.5162048,18.3352 37.7022048,18.4722 37.9902048,18.4702 C38.1002048,18.4692 38.3132048,18.6202 38.3042048,18.6552 C38.1672048,19.1822 38.7252048,19.1392 38.8692048,19.4572 C38.9572048,19.2892 39.0182048,19.1742 39.1092048,19.0002 C39.2552048,19.1282 39.4932048,19.2752 39.4742048,19.3302 C39.2342048,19.9952 39.4922048,20.6242 39.5752048,21.2632 C39.6512048,21.8502 39.5142048,22.1002 39.0582048,22.2092 C38.6942048,22.2962 38.5622048,22.1892 38.3912048,21.5232 C38.2742048,21.0662 38.0922048,20.6772 37.6312048,20.5042 C36.4332048,20.0532 35.3442048,19.2862 33.9632048,19.3562 C33.5362048,19.3782 33.1402048,19.3652 32.8252048,19.6602 C31.9522048,20.4792 30.8322048,20.8442 29.7742048,21.3032 C28.2912048,21.9452 26.7252048,22.2192 25.2012048,21.5112 C23.4492048,20.6962 21.8822048,19.5652 20.7432048,17.9852 C20.1682048,17.1902 19.4092048,16.8112 18.5542048,16.6302 C17.0722048,16.3132 15.5702048,16.1862 14.1822048,17.0452 C14.1242048,17.0812 14.0602048,17.1132 13.9952048,17.1282 C13.3122048,17.2852 12.8462048,17.6992 12.5582048,18.3252 C12.6792048,18.5222 12.7972048,18.7142 12.9092048,18.8972 C12.6652048,19.0282 12.4302048,19.0892 12.2982048,19.2402 C12.1372048,19.4262 12.0622048,19.6862 11.9612048,19.8922 C12.2522048,19.9442 12.5162048,19.9922 12.8052048,20.0452 C12.7192048,19.8262 12.6522048,19.6582 12.5862048,19.4892 C12.9542048,19.6112 13.2362048,19.6102 13.4662048,19.2372 C13.6712048,19.5692 13.8542048,19.8662 14.0392048,20.1662 C14.2712048,19.9982 14.2772048,19.7592 14.0282048,19.4802 C13.6442048,19.0502 13.3602048,18.5722 13.3312048,17.9392 C13.6822048,17.8372 14.0072048,17.7422 14.4422048,17.6152 C14.0482048,18.2592 14.0232048,18.5632 14.2862048,19.2032 C14.3662048,18.9222 14.4232048,18.7192 14.4912048,18.4812 C14.6932048,18.4812 14.8952048,18.4982 15.0922048,18.4772 C15.3172048,18.4542 15.5382048,18.3972 15.7812048,18.3512 C15.8672048,18.5602 15.9402048,18.7342 16.0252048,18.9402 C15.3692048,18.8842 15.3692048,18.8842 14.7942048,19.2252 C14.9532048,19.3462 15.1862048,19.4312 15.2282048,19.5732 C15.4102048,20.1812 15.3902048,20.1842 15.8412048,20.2842 C15.8812048,20.2932 15.9072048,20.3662 15.9542048,20.4282 C15.8162048,20.5572 15.6812048,20.6822 15.5722048,20.7852 C15.6542048,20.9152 15.7222048,21.0222 15.8192048,21.1762 C15.4362048,21.3822 15.0212048,21.5482 15.1542048,22.0722 C14.6432048,22.4832 15.6022048,22.6922 15.2602048,23.1442 C15.0432048,23.1002 14.8102048,23.0542 14.5532048,23.0022 C14.6002048,23.2872 14.6382048,23.5142 14.7112048,23.9582 C14.2502048,23.5392 13.9482048,23.2652 13.6472048,22.9922 C13.6902048,23.5872 13.8742048,24.0622 14.4052048,24.3042 C14.6322048,24.4082 14.8472048,24.5002 14.7862048,24.8112 C14.3722048,24.8602 13.9582048,24.9092 13.5382048,24.9602 C13.3472048,24.5492 13.3472048,24.4702 13.4792048,24.1902 C13.3192048,23.9722 13.1692048,23.8232 13.0882048,23.6422 C12.9932048,23.4292 12.9092048,23.1882 12.9142048,22.9622 C12.9182048,22.7622 13.0502048,22.5642 13.1562048,22.2852 C12.8522048,22.2522 12.6462048,22.2292 12.2852048,22.1892 C12.4982048,22.5012 12.6162048,22.6752 12.6972048,22.7932 C12.5442048,23.1482 12.4142048,23.4512 12.2842048,23.7542 C11.9412048,24.0342 11.5462048,24.2942 11.8642048,24.9962 C12.0502048,24.5122 12.1882048,24.1502 12.3262048,23.7902 C12.5302048,23.8142 12.7352048,23.8392 12.9992048,23.8712 C12.8172048,24.3362 12.6752048,24.6952 12.5322048,25.0592 C12.8172048,25.1512 13.0512048,25.2262 13.3862048,25.3352 C13.1432048,25.5902 12.9712048,25.7702 12.7582048,25.9952 C12.9542048,26.2122 13.1532048,26.4332 13.3522048,26.6542 L12.6852048,27.6662 C12.7892048,28.3702 12.3612048,28.8042 11.8342048,29.2202 C11.9832048,29.3132 12.0902048,29.3822 12.2122048,29.4582 C12.3392048,29.2742 12.4492048,29.1152 12.6122048,28.8802 C12.7482048,29.1782 12.8512048,29.4022 12.9612048,29.6422 C12.7372048,29.8312 12.5592048,29.9802 12.3292048,30.1752 C11.9952048,29.9572 11.6622048,29.7392 11.3292048,29.5212 C11.2462048,29.4672 11.1392048,29.3462 11.0842048,29.3662 C10.6622048,29.5232 10.5692048,29.2522 10.4642048,28.9452 C10.3902048,28.7312 10.2672048,28.5342 10.1712048,28.3382 C9.63420485,28.1222 9.44320485,28.6182 9.10220485,28.9422 C8.99420485,28.5602 9.18820485,28.1902 8.83420485,27.9792 C8.80520485,27.9632 8.96020485,27.6362 9.03020485,27.4522 C9.06620485,27.5892 9.07120485,27.8202 9.14420485,27.8442 C9.40320485,27.9262 9.68620485,27.9382 10.0222048,27.9862 L10.0222048,27.4452 Z M19.7962048,48.0692 C19.1032048,48.1202 18.6152048,48.4882 18.2222048,48.9612 C17.2382048,50.1412 16.3362048,51.3702 15.5312048,52.6952 C14.0242048,55.1762 12.8362048,57.8502 11.0472048,60.1582 C9.50820485,62.1412 8.40320485,64.3872 7.16120485,66.5502 C6.63020485,67.4732 6.06720485,68.3642 5.21320485,69.0372 C5.00320485,69.2032 4.83920485,69.4332 4.67320485,69.6482 C3.76920485,70.8192 2.41720485,70.7952 1.69320485,69.5052 C1.21320485,68.6502 0.837204849,67.7162 0.560204849,66.7742 C0.0462048491,65.0232 -0.00379515095,63.2092 2.13162821e-14,61.3892 C0.00920484905,56.9142 0.642204849,52.5122 1.88220485,48.2362 C2.54020485,45.9712 3.01920485,43.6722 3.61720485,41.3992 C4.20820485,39.1542 4.71520485,36.8852 5.16520485,34.6072 C5.44320485,33.2032 5.46820485,31.7482 5.74420485,30.3442 C6.39120485,27.0512 6.08020485,23.7312 6.15120485,20.4212 C6.19120485,18.5392 6.43220485,16.6742 7.17620485,14.9132 C7.28220485,14.6632 7.37620485,14.3852 7.55420485,14.1912 C8.52120485,13.1352 9.49620485,12.0852 10.5072048,11.0702 C10.7602048,10.8172 11.1542048,10.7042 11.4862048,10.5302 C11.6952048,10.4202 11.9732048,10.3712 12.1102048,10.2042 C12.9602048,9.1602 14.1062048,9.2682 15.2302048,9.4082 C15.9892048,9.5032 16.6492048,9.8912 17.1922048,10.4452 C17.8602048,11.1282 18.5492048,11.7922 19.1802048,12.5082 C19.4832048,12.8512 19.8042048,12.8882 20.1852048,12.7982 C20.3472048,12.7592 20.5122048,12.6782 20.6432048,12.5742 C21.8212048,11.6432 23.2482048,11.6412 24.6352048,11.4942 C26.7502048,11.2702 28.4902048,12.1722 30.0822048,13.4032 C30.7202048,13.8962 31.3982048,14.1092 32.1602048,14.1122 C32.7732048,14.1142 33.3852048,14.0272 33.9982048,14.0022 C35.5072048,13.9412 37.0022048,14.0162 38.4642048,14.4442 C39.3522048,14.7052 40.0682048,15.2332 40.6372048,15.9292 C42.4932048,18.1942 43.4962048,20.7782 43.5672048,23.7342 C43.6192048,25.9442 43.0842048,28.0772 42.8592048,30.2492 C42.8392048,30.4502 42.7642048,30.6482 42.6962048,30.8422 C42.0272048,32.7382 41.2582048,34.6062 40.7082048,36.5362 C40.1142048,38.6152 38.9602048,40.3872 37.8732048,42.1872 C36.8812048,43.8322 36.1862048,45.6182 35.2272048,47.2722 C34.6602048,48.2492 34.1322048,49.2362 33.8182048,50.3372 C33.6702048,50.8532 33.3662048,51.3312 33.1032048,51.8092 C32.3292048,53.2182 31.5602048,54.6292 30.7522048,56.0162 C29.9442048,57.4032 29.0832048,58.7602 28.2572048,60.1372 C27.7292048,61.0142 27.2312048,61.9112 26.7032048,62.7892 C25.3702048,65.0042 23.6442048,66.9022 21.8502048,68.7392 C21.4742048,69.1242 21.0032048,69.4382 20.5282048,69.7012 C19.5112048,70.2632 18.4612048,70.7642 17.4312048,71.3032 C15.4782048,72.3212 13.6482048,70.6272 13.9682048,68.8122 C14.0402048,68.4092 14.0962048,68.0012 14.2022048,67.6062 C14.6802048,65.8262 15.1522048,64.0502 15.8652048,62.3362 C16.3882048,61.0802 16.6282048,59.7062 17.1382048,58.4432 C18.1902048,55.8362 18.9232048,53.1382 19.5812048,50.4162 C19.7622048,49.6632 20.0132048,48.9072 19.7962048,48.0692 L19.7962048,48.0692 Z" id="Fill-478"></path>
            <path d="M26.5003048,10.1738 C25.9503048,9.9888 25.8403048,9.6688 25.9363048,9.2498 C26.2613048,7.8198 26.4623048,6.3418 26.9603048,4.9738 C27.3283048,3.9638 27.4983048,2.9398 27.7313048,1.9138 C27.7513048,1.8238 27.8263048,1.7458 27.8823048,1.6528 C28.3123048,2.4128 28.4093048,2.9618 28.0233048,3.6218 C27.7393048,4.1098 27.6793048,4.5468 27.6613048,5.1078 C27.6253048,6.1888 27.3583048,7.2628 27.1693048,8.3368 C27.0983048,8.7388 26.9993048,9.1418 26.8673048,9.5278 C26.7873048,9.7628 26.6203048,9.9688 26.5003048,10.1738" id="Fill-480"></path>
            <path d="M17.9964048,0 C18.4964048,0.22 18.6324048,0.545 18.6434048,0.885 C18.6764048,1.832 19.0174048,2.668 19.4784048,3.472 C19.5294048,3.561 19.5804048,3.651 19.6134048,3.747 C20.2064048,5.482 20.7964048,7.219 21.3854048,8.956 C21.4394048,9.116 21.5414048,9.292 21.5144048,9.441 C21.4834048,9.616 21.3684048,9.854 21.2284048,9.908 C21.1074048,9.955 20.8214048,9.829 20.7484048,9.701 C20.5834048,9.409 20.4844048,9.075 20.3954048,8.748 C19.9934048,7.272 19.5884048,5.797 19.2144048,4.313 C18.9304048,3.191 18.6534048,2.073 18.1404048,1.023 C18.0084048,0.754 18.0464048,0.399 17.9964048,0" id="Fill-482"></path>
            <path d="M32.0111048,3.2187 C31.8741048,3.7747 31.8421048,4.3867 31.5801048,4.8747 C30.7471048,6.4297 30.2481048,8.1297 29.3971048,9.6717 C29.2821048,9.8787 29.2051048,10.1297 29.0381048,10.2777 C28.9171048,10.3827 28.6571048,10.4057 28.4921048,10.3557 C28.4011048,10.3267 28.2961048,10.0427 28.3391048,9.9267 C28.5381048,9.3867 28.7711048,8.8577 29.0221048,8.3377 C29.2571048,7.8507 29.5151048,7.3717 29.7891048,6.9047 C30.5111048,5.6667 31.0301048,4.3037 32.0301048,3.2367 L32.0111048,3.2187 Z" id="Fill-484"></path>
            <path d="M35.4842048,4.6357 C35.3452048,5.3387 35.0222048,5.9447 34.6142048,6.5387 C34.0832048,7.3127 33.6452048,8.1537 33.1962048,8.9807 C32.7582048,9.7857 32.3722048,10.6187 31.9322048,11.4237 C31.7902048,11.6847 31.5732048,11.9167 31.3512048,12.1197 C31.1552048,12.3007 30.8782048,12.3087 30.7272048,12.0727 C30.6392048,11.9337 30.6722048,11.7037 30.6902048,11.5197 C30.6982048,11.4327 30.8052048,11.3577 30.8612048,11.2727 C31.4392048,10.3987 32.0882048,9.5807 32.5712048,8.6307 C32.9572048,7.8737 33.6302048,7.2657 34.1522048,6.5727 C34.3302048,6.3357 34.4352048,6.0437 34.5752048,5.7787 C34.8072048,5.3417 34.9142048,4.7987 35.5082048,4.6657 L35.4842048,4.6357 Z" id="Fill-486"></path>
            <path d="M23.7152048,3.3994 C24.0832048,3.5014 24.2672048,3.7074 24.1352048,3.9274 C23.8412048,4.4184 24.0262048,4.8284 24.1922048,5.2834 C24.3192048,5.6284 24.3642048,6.0054 24.4302048,6.3724 C24.5072048,6.8014 24.5822048,7.2334 24.6282048,7.6684 C24.6942048,8.3064 24.7572048,8.9474 24.7742048,9.5874 C24.7802048,9.8364 24.6022048,10.0424 24.3062048,10.0134 C24.0212048,9.9874 23.8892048,9.7844 23.8862048,9.5214 C23.8732048,7.8944 23.8782048,6.2664 23.8572048,4.6384 C23.8522048,4.2524 23.7712048,3.8664 23.7152048,3.3994" id="Fill-488"></path>
            <path d="M14.9427048,2.7568 C15.5247048,3.8608 16.1077048,4.9658 16.6857048,6.0718 C17.0647048,6.7948 17.4557048,7.5118 17.8027048,8.2488 C17.9847048,8.6328 17.9467048,8.6508 17.6037048,9.2478 C17.4207048,9.0168 17.2097048,8.8448 17.1227048,8.6228 C16.5997048,7.2958 16.1097048,5.9548 15.5977048,4.6238 C15.5147048,4.4078 15.3597048,4.2218 15.2597048,4.0118 C15.0747048,3.6238 14.9067048,3.2288 14.7317048,2.8358 C14.8017048,2.8098 14.8727048,2.7828 14.9427048,2.7568" id="Fill-490"></path>
            <path d="M39.6293048,8.9404 C39.6013048,9.2514 39.6503048,9.5094 39.5503048,9.6824 C39.0313048,10.5854 38.4843048,11.4704 37.9273048,12.3504 C37.7593048,12.6174 37.6213048,13.0244 37.1663048,12.8174 C36.8763048,12.6844 36.8963048,12.3604 37.2513048,11.8524 C37.9093048,10.9114 38.5873048,9.9854 39.2633048,9.0574 C39.2953048,9.0144 39.3843048,9.0154 39.6293048,8.9404" id="Fill-492"></path>
            <path d="M45.3807048,15.0117 C45.4577048,15.1037 45.5817048,15.2497 45.8207048,15.5327 C45.6637048,15.6137 45.5387048,15.6697 45.4197048,15.7387 C44.6027048,16.2137 43.7877048,16.6927 42.9707048,17.1667 C42.8537048,17.2347 42.7217048,17.3487 42.6097048,17.3347 C42.4337048,17.3147 42.2237048,17.2417 42.1167048,17.1157 C42.0567048,17.0447 42.1217048,16.7517 42.2187048,16.6817 C42.5727048,16.4237 42.9537048,16.1977 43.3437048,15.9967 C43.9687048,15.6747 44.6097048,15.3827 45.3807048,15.0117" id="Fill-494"></path>
            <path d="M36.3221048,8.5634 C36.3271048,8.5974 36.3361048,8.6304 36.3361048,8.6654 C36.3201048,9.7434 35.7281048,10.6504 35.4411048,11.6474 C35.3961048,11.8014 35.2521048,11.9284 35.1501048,12.0654 C34.9921048,12.2764 34.7941048,12.3984 34.5381048,12.2504 C34.2561048,12.0854 34.3511048,11.8594 34.4641048,11.6324 C34.8431048,10.8734 35.1911048,10.0954 35.6081048,9.3584 C35.7781048,9.0574 36.0971048,8.8414 36.3491048,8.5874 L36.3221048,8.5634 Z" id="Fill-496"></path>
            <path d="M43.7787048,13.416 C43.1807048,14.29 42.4477048,14.864 41.6177048,15.336 C41.3777048,15.473 41.1607048,15.486 40.9777048,15.271 C40.7727048,15.032 40.9117048,14.821 41.0877048,14.644 C41.2057048,14.524 41.3497048,14.429 41.4877048,14.331 C41.8457048,14.079 42.2067048,13.831 42.5667048,13.581 C42.9057048,13.346 43.2457048,13.112 43.7787048,13.416" id="Fill-498"></path>
            <path d="M10.4637048,5.122 C10.7067048,5.163 10.9347048,5.132 11.0427048,5.23 C11.7407048,5.87 12.4157048,6.534 13.0887048,7.2 C13.2077048,7.316 13.3247048,7.466 13.3647048,7.62 C13.3997048,7.76 13.3787048,7.983 13.2887048,8.065 C13.1907048,8.153 12.9637048,8.174 12.8287048,8.126 C12.6837048,8.075 12.5667048,7.92 12.4607048,7.791 C11.8327048,7.032 11.2097048,6.269 10.5927048,5.502 C10.5357048,5.432 10.5287048,5.32 10.4637048,5.122" id="Fill-500"></path>
            <path d="M39.6068048,13.289 C40.3978048,12.411 41.1348048,11.592 41.8778048,10.767 C41.9928048,10.893 42.0788048,10.954 42.0688048,10.982 C41.7278048,11.94 41.2618048,12.824 40.4548048,13.478 C40.1288048,13.743 40.0878048,13.722 39.6068048,13.289" id="Fill-502"></path>
            <path d="M46.2367048,17.2871 C45.5767048,18.0591 44.8977048,18.5951 44.1257048,19.0041 C43.9977048,19.0721 43.6927048,19.0041 43.6057048,18.8921 C43.5317048,18.7961 43.5917048,18.4511 43.6977048,18.3841 C44.3787048,17.9561 45.0857048,17.5711 45.7927048,17.1861 C45.8547048,17.1521 45.9747048,17.2241 46.2367048,17.2871" id="Fill-504"></path>
            <path d="M7.28990485,7.4707 C7.53990485,7.5977 7.83990485,7.6737 8.02890485,7.8627 C8.49790485,8.3277 9.05290485,8.6237 9.64390485,8.8937 C9.92890485,9.0247 10.3159048,9.1387 10.2729048,9.5867 C10.2649048,9.6727 10.1879048,9.7897 10.1129048,9.8237 C9.71490485,9.9977 9.49890485,9.6927 9.24890485,9.4727 C8.66690485,8.9617 8.07890485,8.4597 7.49690485,7.9507 C7.38590485,7.8537 7.29090485,7.7387 7.18790485,7.6307 C7.22190485,7.5767 7.25590485,7.5237 7.28990485,7.4707" id="Fill-506"></path>
            <path d="M5.23130485,10.6298 C5.60430485,10.6298 5.74830485,10.5918 5.85730485,10.6368 C6.32030485,10.8238 6.73630485,11.1438 7.28330485,11.0688 C7.37030485,11.0578 7.51530485,11.1078 7.55330485,11.1738 C7.64630485,11.3348 7.78030485,11.5578 7.72930485,11.6898 C7.68030485,11.8168 7.35730485,11.9748 7.25930485,11.9218 C6.62030485,11.5838 5.92530485,11.3198 5.23130485,10.6298" id="Fill-508"></path>
            <path d="M45.8929048,19.8984 C46.1109048,20.5254 45.7609048,20.7524 45.4199048,20.9614 C45.0639048,21.1804 44.6769048,21.3004 44.2729048,21.0844 C44.0599048,20.9694 44.0839048,20.6104 44.3219048,20.5084 C44.8109048,20.3004 45.3119048,20.1224 45.8929048,19.8984" id="Fill-510"></path>
            <path d="M36.3490048,8.5879 C36.3660048,7.9479 36.5910048,7.4009 37.0180048,6.9159 C37.2140048,6.6919 37.3200048,6.3919 37.4740048,6.1299 C37.6020048,5.9099 37.7410048,5.6949 38.0370048,5.5399 C38.0080048,5.7099 38.0150048,5.8979 37.9440048,6.0469 C37.5100048,6.9519 37.1760048,7.9269 36.3220048,8.5639 L36.3490048,8.5879 Z" id="Fill-512"></path>
            <path d="M3.48960485,16.6816 C3.71460485,16.4716 3.84360485,16.2976 3.88760485,16.3176 C4.43960485,16.5606 4.99760485,16.2906 5.54660485,16.3646 C5.61360485,16.3726 5.71060485,16.3736 5.73860485,16.4156 C5.82260485,16.5446 5.92760485,16.6916 5.93062213,16.8326 C5.93260485,16.9126 5.76060485,17.0226 5.64660485,17.0696 C5.56560485,17.1036 5.44860485,17.0606 5.34960485,17.0416 C4.79160485,16.9356 4.23460485,16.8266 3.48960485,16.6816" id="Fill-514"></path>
            <path d="M35.5082048,4.666 C35.7342048,4.173 35.9432048,3.671 36.1982048,3.194 C36.2572048,3.084 36.4752048,3.061 36.6202048,2.997 C36.6862048,3.168 36.8552048,3.394 36.7982048,3.499 C36.5922048,3.883 36.3382048,4.251 36.0442048,4.571 C35.9482048,4.676 35.6752048,4.619 35.4842048,4.636 L35.5082048,4.666 Z" id="Fill-516"></path>
            <path d="M4.19860485,13.3418 C5.06260485,13.3038 5.73760485,13.4408 6.44260485,14.0248 C6.14960485,14.1278 5.97960485,14.2558 5.86460485,14.2178 C5.30460485,14.0318 4.69860485,13.9128 4.19860485,13.3418" id="Fill-518"></path>
            <path d="M23.7572048,2.1045 C23.0492048,0.9515 23.0402048,0.6695 23.6002048,0.1365 C24.2102048,0.6935 23.7572048,1.3075 23.7572048,2.1045" id="Fill-520"></path>
            <path d="M32.0301048,3.2363 C32.2111048,2.5423 32.4611048,1.8843 33.0261048,1.2663 C32.9981048,1.9433 32.6091048,2.6473 32.0111048,3.2183 L32.0301048,3.2363 Z" id="Fill-522"></path>
            <path d="M40.5682048,7.4707 C40.4562048,7.7557 40.3442048,8.0407 40.1762048,8.4687 C39.9412048,7.8907 40.2262048,7.6567 40.3622048,7.3707 C40.4312048,7.4047 40.5002048,7.4377 40.5682048,7.4707" id="Fill-524"></path>
            <path d="M29.5863048,17.2617 C29.6413048,17.0987 29.6953048,16.9367 29.7493048,16.7737 C30.0553048,16.6207 30.3173048,16.5687 30.3573048,17.0347 C30.1183048,17.1727 29.9403048,17.5167 29.5863048,17.2617" id="Fill-526"></path>
            <path d="M7.33240485,39.5703 C7.42040485,39.7313 7.50940485,39.8933 7.59840485,40.0543 C7.19640485,39.9403 6.65340485,40.0073 6.77040485,39.3713 L6.73840485,39.4003 C6.88240485,39.3983 7.02640485,39.3953 7.17040485,39.3933 C7.22440485,39.4523 7.27840485,39.5113 7.33240485,39.5703" id="Fill-528"></path>
            <path d="M8.54130485,49.29 C8.54030485,49.195 8.50830485,49.086 8.54530485,49.012 C8.58430485,48.936 8.69130485,48.894 8.87230485,48.762 C8.94330485,49.048 8.99930485,49.266 9.10330485,49.677 C8.80230485,49.471 8.67530485,49.384 8.54830485,49.297 L8.54130485,49.29 Z" id="Fill-530"></path>
            <path d="M24.0467048,48.2334 C23.8867048,48.4584 23.7267048,48.6824 23.4967048,49.0064 C24.1857048,49.0644 24.8297048,49.0034 24.8927048,49.8244 C25.0177048,49.7454 25.1107048,49.7014 25.1867048,49.6354 C25.3677048,49.4804 25.5707048,49.4164 25.6847048,49.6644 C25.7357048,49.7774 25.6787048,50.0334 25.5817048,50.1044 C25.3707048,50.2604 25.1117048,50.3714 24.8577048,50.4434 C24.1507048,50.6454 24.0007048,51.0044 24.4127048,51.6054 C24.5247048,51.7674 24.6737048,51.9044 24.8367048,52.0874 C24.5577048,52.3324 24.3127048,52.5474 24.0817048,52.7524 C23.5037048,52.5664 23.7157048,52.1704 23.8247048,51.8054 C23.5897048,51.8234 23.3367048,51.9124 23.2647048,51.8344 C22.9777048,51.5214 22.7117048,51.2644 22.2317048,51.3984 C22.1927048,51.4094 21.9507048,51.0224 21.9757048,50.8444 C22.0047048,50.6364 22.2227048,50.4554 22.3597048,50.2624 C22.5267048,50.2364 22.6987048,50.2254 22.8607048,50.1804 C23.4857048,50.0084 23.4847048,50.0044 23.5957048,50.6524 C24.3117048,49.6384 24.3087048,49.4944 23.5617048,49.2504 C23.5427048,49.4494 23.5227048,49.6474 23.4917048,49.9674 C23.1647048,49.7334 22.9397048,49.5724 22.6577048,49.3714 C22.5547048,49.7324 22.4747048,50.0134 22.3947048,50.2954 C22.2637048,50.1064 22.1317048,49.9184 22.0137048,49.7484 C22.2177048,49.2874 22.4037048,48.8684 22.6187048,48.3834 C22.7807048,48.6074 22.9037048,48.7754 23.1347048,49.0944 L23.1347048,47.7434 C22.9407048,47.8954 22.8167048,47.9924 22.6517048,48.1224 C22.4147048,47.5424 22.3967048,47.0254 22.8907048,46.5864 C23.3177048,46.2064 23.4787048,46.2544 23.7447048,46.8244 C23.7727048,46.8854 23.8117048,46.9414 23.8527048,47.0124 C24.3457048,46.7914 24.8347048,46.4484 25.3837048,46.8774 C25.2927048,47.0744 25.2007048,47.2744 25.0437048,47.6144 C25.6817048,47.3574 26.1017048,47.5644 26.6167048,47.8954 C26.3847048,48.0764 26.2247048,48.2014 26.0307048,48.3534 C26.0537048,48.4294 26.0987048,48.5784 26.1597048,48.7794 C25.7367048,48.8654 25.3117048,49.0444 24.9067048,49.0074 C24.4897048,48.9714 24.0347048,48.7864 24.0127048,48.2134 C24.4717048,48.1204 24.4267048,47.7184 24.4627048,47.3204 C24.1957048,47.4924 23.9287048,47.6644 23.6267048,47.8584 C23.7967048,48.0104 23.9217048,48.1224 24.0467048,48.2334" id="Fill-532"></path>
            <path d="M12.9344048,30.7392 C12.5774048,30.8032 12.2214048,30.8682 11.8634048,30.9322 C11.6934048,30.3742 11.7154048,30.3602 13.0964048,30.2152 C13.0174048,29.5502 13.6604048,29.0912 13.6124048,28.3892 C13.8894048,28.4922 14.1574048,28.5932 14.5164048,28.7262 L14.5164048,30.2222 C14.0424048,30.3402 14.0694048,29.2392 13.4454048,29.9372 C13.7224048,30.2422 14.0004048,30.5492 14.2684048,30.8442 C14.1084048,31.1562 13.9364048,31.3002 13.7564048,30.9462 C13.5344048,30.5122 13.2654048,30.4622 12.9044048,30.7662 L12.9344048,30.7392 Z" id="Fill-534"></path>
            <path d="M28.3465048,46.3447 C28.2255048,46.3967 28.0315048,46.4197 27.9975048,46.5057 C27.7975048,47.0157 27.5075048,46.6187 27.2205048,46.5867 C27.1355048,46.8487 27.0505048,47.1097 26.9515048,47.4097 C26.8115048,47.3527 26.6685048,47.3337 26.6525048,47.2787 C26.5935048,47.0737 26.5755048,46.8577 26.5215048,46.5137 C26.3665048,46.7807 26.2635048,46.9587 26.1455048,47.1617 C26.0665048,47.1147 25.9315048,47.0777 25.9195048,47.0177 C25.8665048,46.7407 25.6555048,46.5207 25.8235048,46.1607 C25.9625048,45.8627 25.8515048,45.4477 25.8515048,45.0357 L27.0735048,45.0357 C26.7965048,45.4167 26.5565048,45.7477 26.3115048,46.0847 C27.1035048,46.2917 27.8025048,46.1757 28.5805048,45.4457 C28.4485048,45.9117 28.3835048,46.1407 28.3185048,46.3687 L28.3465048,46.3447 Z" id="Fill-536"></path>
            <path d="M22.5775048,52.7451 C22.6325048,53.1071 22.6865048,53.4701 22.7445048,53.8521 C22.5395048,54.0461 22.1435048,54.0021 22.1075048,54.4941 C22.0735048,54.9521 21.6305048,54.8411 21.1525048,54.7481 C21.3935048,54.5041 21.5555048,54.3411 21.7275048,54.1661 C21.6935048,54.0791 21.6635048,53.9821 21.6195048,53.8911 C21.5175048,53.6821 21.2935048,53.4531 21.3285048,53.2721 C21.3905048,52.9551 21.6035048,52.6651 21.7675048,52.3721 C21.7875048,52.3361 21.8965048,52.3491 21.9645048,52.3401 C22.1685048,52.4751 22.3725048,52.6101 22.5775048,52.7451" id="Fill-538"></path>
            <path d="M14.5457048,26.458 C14.5287048,26.323 14.5117048,26.188 14.4937048,26.043 C14.1707048,26.2 13.8587048,26.395 13.4247048,26.332 C13.4107048,25.812 14.3677048,25.875 14.0227048,25.227 C14.1487048,25.26 14.2737048,25.294 14.4357048,25.338 C14.5347048,25.165 14.6457048,24.973 14.7557048,24.779 C14.9417048,24.726 15.1287048,24.672 15.3497048,24.608 C16.1457048,25.119 16.4027048,25.509 16.1867048,26.053 C15.9067048,25.729 15.6497048,25.432 15.2637048,24.985 C15.1117048,25.422 14.9967048,25.685 14.9317048,25.958 C14.8757048,26.195 14.8617048,26.435 14.5457048,26.458" id="Fill-540"></path>
            <path d="M5.12000485,52.7421 C5.24600485,52.5491 5.37200485,52.3551 5.49600485,52.1671 C5.42200485,51.6241 5.09700485,51.0911 5.54800485,50.3391 C5.62800485,50.9691 6.47300485,51.0341 6.05900485,51.7801 C5.97500485,51.9301 6.30200485,52.3081 6.47400485,52.6501 C6.26200485,52.9061 6.03800485,53.0471 5.84900485,52.4431 C5.66300485,52.7541 5.46100485,53.0151 5.10000485,52.7221 L5.12000485,52.7421 Z" id="Fill-542"></path>
            <path d="M21.2386048,60.3095 C20.8676048,60.0735 20.5976048,59.9015 20.2366048,59.6705 C20.4846048,59.5705 20.6446048,59.5045 20.8716048,59.4135 C20.7526048,59.1405 20.5876048,58.8915 20.5386048,58.6215 C20.4676048,58.2255 20.7626048,58.0435 21.1286048,58.2925 C21.4356048,58.5015 21.2806048,58.0605 21.5136048,58.1725 C21.5026048,58.5065 21.8506048,58.9005 21.3306048,59.2345 C21.1216048,59.3695 21.1836048,59.5635 21.2986048,59.7705 C21.3546048,59.8725 21.2736048,60.0515 21.2386048,60.3095" id="Fill-544"></path>
            <path d="M19.1151048,33.9267 C18.9211048,34.2427 18.7501048,34.5237 18.6991048,34.6067 C18.5181048,34.3997 18.3111048,34.1617 18.1051048,33.9257 C18.0351048,33.9957 17.9651048,34.0657 17.8951048,34.1347 C17.9571048,34.0157 18.0181048,33.8957 18.0981048,33.7407 C18.2541048,33.7607 18.4231048,33.7817 18.6331048,33.8087 C18.5711048,33.6947 18.5571048,33.6167 18.5141048,33.5947 C18.3041048,33.4877 18.0631048,33.4237 17.8831048,33.2817 C17.7861048,33.2057 17.7901048,33.0017 17.7491048,32.8567 C17.8961048,32.8277 18.0571048,32.7447 18.1881048,32.7807 C18.7361048,32.9247 18.9691048,33.3577 19.1151048,33.9267" id="Fill-546"></path>
            <path d="M22.3797048,45.3652 C22.3487048,45.0842 22.4507048,44.8842 22.7547048,44.9072 C22.9817048,44.9242 23.2017048,45.0152 23.5047048,45.0942 C23.4937048,44.8892 23.4457048,44.7272 23.4907048,44.5972 C23.5217048,44.5082 23.6727048,44.4282 23.7827048,44.4052 C23.9347048,44.3732 24.0987048,44.3972 24.2777048,44.3972 C24.2457048,44.6022 24.1927048,44.7902 24.1947048,44.9762 C24.1967048,45.1632 24.2547048,45.3492 24.2907048,45.5562 C23.5527048,45.9152 23.0117048,45.1422 22.3607048,45.3372 L22.3797048,45.3652 Z" id="Fill-548"></path>
            <path d="M17.2171048,22.1064 C17.3581048,21.2224 16.9261048,20.7094 16.4951048,20.3384 C16.5941048,20.0194 16.6641048,19.7944 16.7421048,19.5434 C16.8171048,19.5744 16.8951048,19.6064 16.9731048,19.6384 L17.4041048,20.6294 C17.5701048,21.0234 17.7361048,21.4184 17.9291048,21.8774 C17.7881048,21.9224 17.5841048,21.9884 17.2171048,22.1064" id="Fill-550"></path>
            <path d="M13.3187048,26.6318 C13.7367048,26.5618 14.1547048,26.4918 14.5727048,26.4218 C14.6157048,26.9758 14.6157048,26.9758 13.8547048,26.9738 C13.9297048,27.2978 13.9997048,27.5958 14.0827048,27.9558 C13.8067048,28.0128 13.5337048,28.0688 13.2457048,28.1298 C13.2717048,27.5868 13.2957048,27.1098 13.3187048,26.6318" id="Fill-552"></path>
            <path d="M13.3875048,31.7187 C13.7915048,31.5847 14.1805048,31.4557 14.6055048,31.3157 C14.6815048,31.8407 14.4025048,31.9727 14.0425048,32.0397 C13.9745048,32.3397 14.5505048,32.6977 13.9255048,32.9827 C13.6005048,32.6267 13.3165048,32.2747 13.3875048,31.7187" id="Fill-554"></path>
            <path d="M16.3846048,31.999 C17.1316048,32.174 17.5296048,32.637 17.3876048,33.203 C17.3646048,33.295 17.2086048,33.397 17.1016048,33.414 C16.9146048,33.444 16.9536048,33.318 16.9446048,33.169 C16.9356048,33.01 16.7746048,32.859 16.6776048,32.701 C16.4136048,32.893 16.1976048,33.048 15.9816048,33.204 L16.0096048,33.228 C15.9486048,32.953 15.9686048,32.722 16.2096048,32.505 C16.3336048,32.394 16.3476048,32.158 16.4106048,31.979 L16.3846048,31.999 Z" id="Fill-556"></path>
            <path d="M15.1805048,29.9755 C15.8435048,29.6805 15.8435048,29.6805 16.0375048,28.8175 C16.0595048,28.7995 16.0985048,28.7655 16.1005048,28.7675 C16.2815048,28.9535 16.4585048,29.1415 16.6615048,29.3565 C16.5165048,29.6025 16.4315048,29.8855 16.2425048,30.0385 C15.9605048,30.2645 15.6055048,30.3975 15.2545048,30.5845 C15.2115048,30.4025 15.1875048,30.3375 15.1825048,30.2725 C15.1755048,30.1725 15.1805048,30.0725 15.1805048,29.9755" id="Fill-558"></path>
            <path d="M17.7205048,31.9404 C17.3815048,31.8454 17.1615048,31.7844 16.9405048,31.7214 C17.3955048,31.2714 18.0605048,30.9684 18.0175048,30.1644 C18.4775048,30.1654 18.5565048,30.4084 18.3785048,30.7664 C18.1875048,31.1504 17.9605048,31.5164 17.7205048,31.9404" id="Fill-560"></path>
            <path d="M24.0228048,54.8437 C23.7978048,54.9987 23.6128048,55.1257 23.3148048,55.3297 C23.3338048,54.9647 23.3998048,54.7227 23.3398048,54.5167 C23.2778048,54.2997 23.0948048,54.1167 22.9298048,53.8667 C23.0438048,53.6517 23.1528048,53.4147 23.2948048,53.1997 C23.3248048,53.1557 23.4928048,53.1567 23.5658048,53.1967 C23.6428048,53.2377 23.7448048,53.4037 23.7288048,53.4207 C23.2318048,53.9787 23.8178048,54.3227 24.0228048,54.8437" id="Fill-562"></path>
            <path d="M18.2118048,29.0546 C18.3478048,28.9536 18.4238048,28.8976 18.5238048,28.8236 C18.4368048,28.7296 18.3368048,28.6216 18.1518048,28.4216 L19.1288048,28.4216 C19.2398048,28.6076 19.3428048,28.7786 19.4678048,28.9856 C19.2768048,29.2006 19.0858048,29.4186 18.8318048,29.7056 C18.6138048,29.4776 18.4228048,29.2776 18.2118048,29.0546" id="Fill-564"></path>
            <path d="M18.1742048,18.5879 C17.8762048,18.7449 17.7072048,18.8339 17.5392048,18.9229 C17.6832048,19.0039 17.8252048,19.0839 18.0762048,19.2249 C17.8752048,19.3399 17.7392048,19.4839 17.6402048,19.4619 C17.3202048,19.3929 17.0142048,19.2619 16.6542048,19.1379 C16.8232048,19.0239 17.0202048,18.9439 17.1332048,18.7999 C17.2482048,18.6539 17.2802048,18.4429 17.3772048,18.1839 C17.6272048,18.3109 17.8412048,18.4189 18.1742048,18.5879" id="Fill-566"></path>
            <path d="M10.2274048,16.3564 C10.2264048,16.7934 9.93940485,17.0514 9.68640485,17.4024 C9.40540485,17.0144 9.19140485,16.7214 8.87640485,16.2904 C9.44140485,16.3444 9.84940485,16.0204 10.2574048,16.3904 L10.2274048,16.3564 Z" id="Fill-568"></path>
            <path d="M5.09990485,52.7226 C5.10790485,52.7556 5.12990485,52.7936 5.12090485,52.8206 C4.95490485,53.2506 4.59790485,53.6306 4.85390485,54.1196 C4.39490485,54.3096 4.29390485,54.0156 4.22090485,53.7706 C4.19290485,53.6776 4.33690485,53.5346 4.39790485,53.4226 C4.25590485,53.2226 4.09990485,53.0026 3.86690485,52.6746 C4.40390485,52.7036 4.76190485,52.7226 5.11990485,52.7426 L5.09990485,52.7226 Z" id="Fill-570"></path>
            <path d="M21.8021048,55.5615 C21.6591048,55.8095 21.5481048,56.0015 21.4051048,56.2485 C21.2741048,55.9515 21.1581048,55.6865 21.0291048,55.3915 C21.5041048,55.0115 22.0471048,55.4385 22.5371048,55.2785 C22.5681048,55.2685 22.7341048,55.4825 22.7181048,55.5705 C22.6991048,55.6675 22.5351048,55.8215 22.4531048,55.8105 C22.2631048,55.7865 22.0851048,55.6775 21.8021048,55.5615" id="Fill-572"></path>
            <path d="M14.7557048,23.9716 C15.0667048,23.8796 15.3367048,23.7996 15.6017048,23.7216 C15.9157048,24.0096 16.0687048,24.5486 16.6387048,24.2616 C16.6497048,24.2556 16.7787048,24.4876 16.9477048,24.7626 C16.6347048,24.6996 16.4957048,24.6726 16.3587048,24.6416 C15.8917048,24.5356 15.4797048,24.1936 14.9547048,24.3106 C14.9257048,24.3176 14.8607048,24.1546 14.7557048,23.9716" id="Fill-574"></path>
            <path d="M22.3607048,45.3369 C22.3817048,45.6319 22.4017048,45.9259 22.4307048,46.3489 C22.1037048,46.2239 21.8467048,46.1259 21.5767048,46.0239 C21.6707048,45.5669 21.7527048,45.1639 21.8697048,44.5879 C22.1047048,44.9449 22.2417048,45.1549 22.3797048,45.3649 L22.3607048,45.3369 Z" id="Fill-576"></path>
            <path d="M15.0003048,45.4062 C14.4133048,45.1792 14.0523048,44.9702 13.6683048,44.9112 C13.1223048,44.8262 13.2053048,44.4912 13.1663048,44.0202 C13.7963048,44.3542 14.2113048,44.8752 14.8733048,44.8492 C14.8983048,44.8482 14.9343048,45.1072 15.0003048,45.4062" id="Fill-578"></path>
            <path d="M32.5116048,24.54 C32.0706048,24.462 31.6666048,24.391 31.1836048,24.306 C31.2326048,24.097 31.2806048,23.894 31.3436048,23.626 C31.7016048,23.722 32.0086048,23.804 32.3576048,23.897 C32.4066048,24.101 32.4566048,24.311 32.5116048,24.54" id="Fill-580"></path>
            <path d="M26.5365048,39.8066 L26.5365048,41.4976 C26.4355048,41.5246 26.2305048,41.5776 25.9115048,41.6606 C26.1445048,40.9866 25.9645048,40.3116 26.5365048,39.8066" id="Fill-582"></path>
            <path d="M12.2957048,14.7285 C12.3407048,14.6415 12.3857048,14.5545 12.4417048,14.4445 C12.1267048,14.1175 11.4387048,14.5355 11.2897048,13.8175 C11.8787048,13.9385 12.5477048,13.6725 12.9377048,14.4355 C12.8517048,14.5715 12.7507048,14.7325 12.6317048,14.9185 C12.4907048,14.8295 12.3807048,14.7585 12.2707048,14.6875 L12.2957048,14.7285 Z" id="Fill-584"></path>
            <path d="M10.8890048,48.4023 C10.4760048,48.3093 10.0140048,48.3413 9.72000485,47.9733 C9.75000485,47.6383 10.2560048,48.0183 10.2390048,47.5793 C10.2370048,47.5123 10.6090048,47.3933 10.8160048,47.3673 C11.0610048,47.3363 11.3680048,47.2623 11.4770048,47.7243 C11.2000048,47.7543 10.9410048,47.7813 10.6380048,47.8123 C10.7290048,48.0623 10.7950048,48.2423 10.8610048,48.4213 L10.8890048,48.4023 Z" id="Fill-586"></path>
            <path d="M4.10820485,56.8164 C3.99620485,56.7534 3.88420485,56.6884 3.74820485,56.6114 C3.92320485,56.3034 4.08220485,56.0244 4.27320485,55.6894 C4.50020485,55.7894 4.83820485,55.7914 4.84020776,56.1924 C4.84120485,56.5374 4.58420485,56.6174 4.29620485,56.6644 C4.21420485,56.6764 4.14720485,56.7814 4.07320485,56.8434 L4.10820485,56.8164 Z" id="Fill-588"></path>
            <path d="M4.07360485,56.8437 C4.28760485,56.9317 4.50260485,57.0207 4.66960485,57.0887 C4.59160485,57.4227 4.51560485,57.7487 4.43660485,58.0877 C4.19860485,57.9387 3.95360485,57.7847 3.64160485,57.5907 C3.78460485,57.3527 3.94660485,57.0847 4.10860485,56.8167 L4.07360485,56.8437 Z" id="Fill-590"></path>
            <path d="M35.1087048,24.1308 C35.1527048,25.0078 34.2667048,24.7378 34.1507048,25.3618 C33.8407048,24.7538 34.0287048,24.5478 35.1087048,24.1308" id="Fill-592"></path>
            <path d="M12.0018048,52.0361 C11.8538048,51.9921 11.6348048,51.9951 11.5698048,51.8961 C11.3298048,51.5331 11.1398048,51.1351 10.9318048,50.7501 C11.1978048,50.7451 11.1978048,50.7451 12.0018048,52.0361" id="Fill-594"></path>
            <path d="M21.0804048,33.8964 C20.1394048,34.1534 20.0994048,34.1444 19.4034048,33.4424 C20.0244048,33.5174 20.5034048,33.5684 20.9794048,33.6434 C21.0254048,33.6514 21.0464048,33.8064 21.0804048,33.8964" id="Fill-596"></path>
            <path d="M23.1156048,44.0449 C23.1516048,43.7799 23.1886048,43.5169 23.2286048,43.2229 C23.4796048,43.2069 23.6726048,43.1649 23.8546048,43.1919 C23.9906048,43.2119 24.1156048,43.3199 24.2446048,43.3889 C24.1476048,43.4829 24.0576048,43.5899 23.9506048,43.6719 C23.7496048,43.8259 23.5376048,43.9669 23.3296048,44.1129 C23.2586048,44.0909 23.1876048,44.0669 23.1156048,44.0449" id="Fill-598"></path>
            <path d="M20.9085048,57.0322 C21.2075048,57.1782 21.5055048,57.3232 21.8455048,57.4882 C21.4395048,58.1172 21.0465048,57.8072 20.5415048,57.6622 C20.7065048,57.4192 20.8265048,57.2432 20.9465048,57.0662 L20.9085048,57.0322 Z" id="Fill-600"></path>
            <path d="M8.46760485,51.6337 C7.40460485,51.6567 7.39260485,51.6467 7.07460485,50.4607 C7.22160485,50.4877 7.43460485,50.4997 7.43660485,50.5277 C7.47660485,51.1117 7.93160485,51.3497 8.46760485,51.6337" id="Fill-602"></path>
            <path d="M22.6615048,35.583 C22.0935048,36.012 22.1405048,35.118 21.5905048,35.295 C21.8635048,34.959 21.9985048,34.794 22.1385048,34.621 C22.5255048,35.023 22.5275048,35.022 22.6615048,35.583" id="Fill-604"></path>
            <path d="M28.3241048,25.8105 C27.9241048,25.5995 27.5241048,25.3885 27.0391048,25.1325 C27.3161048,24.8945 27.4891048,24.7455 27.7891048,24.4855 C27.7991048,25.0815 28.3621048,25.3035 28.2981048,25.8405 L28.3241048,25.8105 Z" id="Fill-606"></path>
            <path d="M16.2459048,20.625 C16.4009048,20.865 16.5259048,21.061 16.6539048,21.26 C16.5179048,21.295 16.3919048,21.327 16.2269048,21.37 C16.2009048,21.69 16.1739048,22.021 16.1369048,22.463 C15.7919048,22.047 15.7919048,22.047 16.2459048,20.625" id="Fill-608"></path>
            <path d="M33.6791048,24.1923 C33.4221048,23.6813 33.0031048,24.2783 32.7011048,24.0553 C32.8881048,23.6993 32.8881048,23.6993 34.0121048,23.6173 C34.2291048,24.0223 34.0791048,24.1793 33.6471048,24.1623 L33.6791048,24.1923 Z" id="Fill-610"></path>
            <path d="M16.4110048,31.9795 C15.8110048,31.9815 15.6530048,31.5065 15.3120048,31.0355 C15.9320048,31.0135 16.2390048,31.2925 16.4820048,31.6495 C16.5260048,31.7135 16.4210048,31.8795 16.3850048,31.9995 L16.4110048,31.9795 Z" id="Fill-612"></path>
            <path d="M14.3704048,48.2119 C13.8554048,47.9019 13.9054048,47.5299 14.0144048,47.1799 C14.0424048,47.0859 14.2894048,46.9829 14.4014048,47.0149 C14.5084048,47.0439 14.6494048,47.2509 14.6354048,47.3609 C14.5994048,47.6259 14.4804048,47.8789 14.3704048,48.2119" id="Fill-614"></path>
            <path d="M24.2943048,45.8925 C24.7133048,45.7675 25.1313048,45.6425 25.5503048,45.5165 C25.2733048,46.1125 24.8623048,46.2615 24.2943048,45.8925" id="Fill-616"></path>
            <path d="M35.0677048,28.3203 C34.8597048,28.1883 34.6517048,28.0553 34.3997048,27.8943 C34.5307048,27.5763 34.6407048,27.3113 34.7467048,27.0553 C35.2307048,27.1773 34.9537048,27.3743 34.9267048,27.5873 C34.9037048,27.7583 35.1207048,27.9603 35.2307048,28.1493 C35.1767048,28.2063 35.1217048,28.2633 35.0677048,28.3203" id="Fill-618"></path>
            <path d="M10.0330048,53.7646 C9.90500485,54.0596 9.77700485,54.3546 9.62800485,54.6956 C9.34500485,54.6546 9.09400485,54.6176 8.73700485,54.5646 C9.17800485,54.1956 9.52600485,53.9046 9.87400485,53.6126 C9.92700485,53.6626 9.98000485,53.7136 10.0330048,53.7646" id="Fill-620"></path>
            <path d="M14.5789048,42.8476 C14.1669048,43.0096 14.4759048,43.4126 14.3099048,43.6506 C14.2179048,43.7826 14.0849048,43.8856 13.8929048,44.0796 C13.7309048,43.3956 14.1679048,43.0186 14.2119048,42.3626 C14.3879048,42.6276 14.4679048,42.7506 14.5489048,42.8726 L14.5789048,42.8476 Z" id="Fill-622"></path>
            <path d="M16.6522048,24.0605 C16.5452048,23.9105 16.4382048,23.7585 16.2502048,23.4955 C16.5752048,23.4105 16.8112048,23.4035 16.9692048,23.2895 C17.0902048,23.2025 17.1152048,22.9805 17.2432048,22.6715 C17.5762048,23.3765 16.7982048,23.4995 17.0402048,23.9965 L16.6522048,24.0605 Z" id="Fill-624"></path>
            <path d="M24.6737048,40.7177 C24.7547048,40.3107 24.8347048,39.9027 24.9327048,39.4057 C25.0957048,39.5507 25.2507048,39.6877 25.4027048,39.8217 C25.0057048,40.7567 25.0057048,40.7567 24.6737048,40.7177" id="Fill-626"></path>
            <path d="M30.3963048,25.6865 C30.9053048,25.4125 30.9733048,24.8485 31.7313048,24.8985 C31.4823048,25.1325 31.3533048,25.2545 31.1803048,25.4175 C31.2863048,25.5745 31.4023048,25.7435 31.5903048,26.0185 C31.1713048,25.9015 30.8783048,25.8205 30.3963048,25.6865" id="Fill-628"></path>
            <path d="M14.5487048,42.873 C14.7127048,42.992 14.8757048,43.111 15.0387048,43.23 C15.1887048,43.126 15.3397048,43.019 15.5607048,42.864 L15.5607048,43.617 L14.5787048,43.617 L14.5787048,42.848 L14.5487048,42.873 Z" id="Fill-630"></path>
            <path d="M15.9818048,33.2041 C16.0208048,33.4311 16.0608048,33.6581 16.1138048,33.9661 L14.8078048,33.9661 C15.3298048,33.6461 15.6698048,33.4371 16.0098048,33.2281 L15.9818048,33.2041 Z" id="Fill-632"></path>
            <path d="M23.8929048,32.831 C23.7239048,33.094 23.6399048,33.224 23.5569048,33.352 C23.3069048,32.998 22.7439048,33.994 22.5809048,33.083 C22.9689048,33.009 23.3369048,32.937 23.8929048,32.831" id="Fill-634"></path>
            <path d="M14.4832048,45.7656 C14.9202048,45.8006 15.3562048,45.8366 15.7922048,45.8716 C15.3412048,46.1766 14.8982048,46.4326 14.4572048,46.0196 C14.4652048,45.9356 14.4742048,45.8506 14.4832048,45.7656" id="Fill-636"></path>
            <path d="M4.73570485,59.9082 C4.31970485,59.5682 4.09570485,59.3862 3.80970485,59.1512 C4.03070485,58.9712 4.19370485,58.8382 4.45570485,58.6242 C4.55070485,59.0592 4.61870485,59.3722 4.73570485,59.9082" id="Fill-638"></path>
            <path d="M9.61020485,46.8281 C9.56020485,47.1491 9.52620485,47.3651 9.49420485,47.5671 C9.00720485,47.7341 8.77920485,47.5181 8.66220485,47.0261 C8.95420485,46.9661 9.24620485,46.9041 9.61020485,46.8281" id="Fill-640"></path>
            <path d="M20.0960048,38.3593 C20.2150048,38.4183 20.4430048,38.5063 20.4360048,38.5313 C20.3460048,38.8553 20.4560048,39.1323 20.5740048,39.4213 C20.5940048,39.4713 20.4720048,39.5783 20.3640048,39.7353 C20.1410048,39.4223 19.9760048,39.1923 19.8180048,38.9693 C19.9270048,38.7433 20.0260048,38.5393 20.1240048,38.3353 L20.0960048,38.3593 Z" id="Fill-642"></path>
            <path d="M22.5775048,52.7451 C22.3725048,52.6101 22.1685048,52.4751 21.9645048,52.3401 C21.9795048,52.2421 21.9945048,52.1431 22.0235048,51.9561 C22.2865048,52.0161 22.5485048,52.0401 22.7725048,52.1441 C22.8795048,52.1951 22.9905048,52.4271 22.9575048,52.5301 C22.9245048,52.6321 22.7115048,52.6761 22.5775048,52.7451" id="Fill-644"></path>
            <path d="M25.0643048,44.2607 C25.3803048,44.2227 25.6963048,44.1637 26.0123048,44.1617 C26.0973048,44.1607 26.2523048,44.3327 26.2503048,44.4227 C26.2483048,44.5147 26.0783048,44.6897 26.0063048,44.6777 C25.6863048,44.6267 25.3753048,44.5217 25.0603048,44.4357 C25.0623048,44.3767 25.0633048,44.3187 25.0643048,44.2607" id="Fill-646"></path>
            <path d="M27.7103048,35.2031 C27.1533048,35.3251 26.9633048,34.9871 26.6813048,34.7951 C27.0653048,34.4001 27.0653048,34.4001 27.7103048,35.2031" id="Fill-648"></path>
            <path d="M28.3187048,46.3691 C28.4327048,46.4591 28.6487048,46.5561 28.6437048,46.6391 C28.6277048,46.9251 28.5337048,47.2061 28.4577048,47.5421 C28.2567048,47.4281 28.1177048,47.3491 27.9997048,47.2821 C28.1267048,46.9391 28.2367048,46.6421 28.3467048,46.3451 L28.3187048,46.3691 Z" id="Fill-650"></path>
            <path d="M6.77030485,39.3711 C6.52230485,39.4201 6.27430485,39.4701 6.02830485,39.5181 C5.97230485,38.9771 6.06730485,38.7411 6.38730485,38.7491 C6.85330485,38.7611 6.76730485,39.1031 6.73830485,39.4001 L6.77030485,39.3711 Z" id="Fill-652"></path>
            <path d="M12.3187048,50.2978 C12.0407048,50.0148 11.7627048,49.7308 11.4407048,49.4008 C12.1557048,49.3918 12.1557048,49.3918 12.4697048,50.1448 C12.4197048,50.1958 12.3687048,50.2468 12.3187048,50.2978" id="Fill-654"></path>
            <path d="M18.9715048,43.2744 C19.3525048,43.1164 19.5025048,42.4944 20.2235048,42.6354 C19.7855048,43.0284 19.5105048,43.3754 18.9715048,43.2744" id="Fill-656"></path>
            <path d="M28.2977048,25.8408 C29.1887048,25.8888 29.2267048,25.9398 29.0937048,27.1028 C28.7927048,26.5968 28.5587048,26.2038 28.3237048,25.8108 L28.2977048,25.8408 Z" id="Fill-658"></path>
            <path d="M27.3055048,26.8935 C26.9945048,27.0155 26.7045048,27.1285 26.4305048,27.2365 C26.1705048,26.9565 26.2285048,26.7395 26.5085048,26.6605 C26.7625048,26.5875 27.1315048,26.2865 27.3055048,26.8935" id="Fill-660"></path>
            <path d="M19.9535048,25.9687 C19.7365048,25.8677 19.5575048,25.7847 19.3805048,25.7037 C19.4325048,25.5137 19.4545048,25.3077 19.5475048,25.1417 C19.5895048,25.0647 19.7695048,25.0647 19.8875048,25.0297 C19.9165048,25.1407 19.9915048,25.3387 19.9685048,25.3507 C19.5595048,25.5647 20.1505048,25.7117 19.9535048,25.9687" id="Fill-662"></path>
            <path d="M15.7640048,28.3964 C15.8980048,27.9184 15.9840048,27.6154 16.0850048,27.2574 C16.2690048,27.3564 16.4310048,27.4434 16.6150048,27.5414 C16.5250048,27.9844 16.2660048,28.1964 15.7640048,28.3964" id="Fill-664"></path>
            <path d="M28.3773048,27.7548 C28.1053048,28.1508 27.9483048,28.3808 27.7753048,28.6338 C27.3983048,28.3978 27.3853048,28.0928 27.5893048,27.8488 C27.6833048,27.7348 27.9813048,27.7928 28.3773048,27.7548" id="Fill-666"></path>
            <path d="M19.1590048,22.2138 C19.1430048,21.8558 19.0790048,21.5948 19.1430048,21.3708 C19.1780048,21.2488 19.4300048,21.1908 19.6550048,21.1588 C19.3310048,21.4128 19.8230048,21.9728 19.1590048,22.2138" id="Fill-668"></path>
            <path d="M20.9461048,57.0664 C20.9371048,56.9334 20.9251048,56.8004 20.9221048,56.6684 C20.9221048,56.6394 20.9531048,56.6104 20.9881048,56.5534 L21.9621048,56.5534 C21.8091048,57.3104 21.1821048,56.7554 20.9081048,57.0324 L20.9461048,57.0664 Z" id="Fill-670"></path>
            <path d="M21.1463048,26.6845 C20.4403048,26.3025 20.4013048,26.2225 20.6003048,25.6705 C20.9443048,25.8765 21.1173048,26.1475 21.1463048,26.6845" id="Fill-672"></path>
            <path d="M27.9818048,48.1855 C27.6418048,48.1815 27.2218048,48.3445 27.0578048,47.8045 C27.5778048,47.8115 27.5778048,47.8115 27.9818048,48.1855" id="Fill-674"></path>
            <path d="M30.8177048,16.8076 C30.7337048,16.6426 30.6487048,16.4766 30.4807048,16.1466 C30.9237048,16.2106 31.2167048,16.2536 31.5587048,16.3036 C31.4167048,16.8086 31.1037048,16.8036 30.7767048,16.7746 L30.8177048,16.8076 Z" id="Fill-676"></path>
            <path d="M16.1605048,42.4882 C15.7375048,42.5062 15.7375048,42.5062 15.2205048,41.8362 C15.6875048,41.7032 15.6875048,41.7032 16.1605048,42.4882" id="Fill-678"></path>
            <path d="M36.4393048,23.9951 C36.2083048,24.0871 36.0903048,24.1801 35.9843048,24.1671 C35.7023048,24.1331 35.4693048,23.7841 35.5963048,23.5941 C35.6503048,23.5131 35.8603048,23.4381 35.9203048,23.4781 C36.0913048,23.5951 36.2223048,23.7701 36.4393048,23.9951" id="Fill-680"></path>
            <path d="M33.8876048,21.8232 C34.0136048,22.1862 34.1066048,22.4542 34.2466048,22.8572 C33.9786048,22.8022 33.7266048,22.7832 33.7236048,22.7422 C33.6976048,22.4612 33.2626048,22.1332 33.8876048,21.8232" id="Fill-682"></path>
            <path d="M16.3084048,43.4716 C17.1364048,43.2376 17.1364048,43.2376 17.4844048,43.8466 C17.4224048,43.8676 17.3484048,43.9216 17.3014048,43.9046 C17.0264048,43.7956 16.7594048,43.6706 16.3084048,43.4716" id="Fill-684"></path>
            <path d="M27.8060048,44.582 C28.3340048,45.023 28.3340048,45.023 28.0680048,45.446 C27.4580048,44.976 27.4580048,44.976 27.8060048,44.582" id="Fill-686"></path>
            <path d="M21.3094048,30.5937 C21.4624048,30.9957 21.6154048,31.3987 21.8384048,31.9857 C21.5264048,31.8807 21.2714048,31.8547 21.2564048,31.7807 C21.1824048,31.4057 21.1714048,31.0207 21.1384048,30.6387 C21.1954048,30.6237 21.2524048,30.6097 21.3094048,30.5937" id="Fill-688"></path>
            <path d="M6.31670485,58.4736 C6.50470485,58.2196 6.69270485,57.9656 6.89970485,57.6876 C7.20470485,58.2476 7.20470485,58.2476 6.31670485,58.4736" id="Fill-690"></path>
            <path d="M9.69950485,50.2617 C9.85650485,51.1587 9.85650485,51.1587 9.26950485,51.3817 C9.47450485,50.9887 9.26250485,50.5557 9.69950485,50.2617" id="Fill-692"></path>
            <path d="M10.8148048,29.6709 C11.0018048,29.7939 11.2188048,29.8899 11.3608048,30.0509 C11.4338048,30.1339 11.3728048,30.3339 11.3728048,30.4819 C11.2508048,30.4749 11.0758048,30.5179 11.0168048,30.4529 C10.8548048,30.2789 10.7418048,30.0599 10.6088048,29.8579 C10.6778048,29.7959 10.7458048,29.7329 10.8148048,29.6709" id="Fill-694"></path>
            <path d="M33.6468048,24.1621 C33.5638048,24.8391 33.4698048,24.9151 32.8098048,24.7561 C33.0748048,24.4741 33.2678048,24.1841 33.6788048,24.1921 L33.6468048,24.1621 Z" id="Fill-696"></path>
            <path d="M20.8138048,40.79 C20.5008048,41.057 20.2668048,41.256 19.9268048,41.546 C19.9128048,41.043 20.0388048,40.746 20.3518048,40.564 C20.4178048,40.526 20.5948048,40.678 20.8138048,40.79" id="Fill-698"></path>
            <path d="M17.6952048,24.8349 C17.9162048,24.6419 18.1372048,24.4469 18.3982048,24.2199 C18.5072048,24.3499 18.6742048,24.4699 18.6562048,24.5399 C18.5702048,24.8669 18.5372048,24.8689 17.6952048,24.8349" id="Fill-700"></path>
            <path d="M19.8929048,32.415 C20.0599048,32.276 20.2259048,32.138 20.4239048,31.972 C20.5749048,32.364 20.5759048,32.666 20.1599048,33.015 C20.0649048,32.757 19.9959048,32.566 19.9259048,32.377 L19.8929048,32.415 Z" id="Fill-702"></path>
            <path d="M33.8749048,17.3984 C33.4739048,16.8864 33.5349048,16.6814 34.1809048,16.3764 C34.5729048,16.8814 33.8329048,17.0304 33.8529048,17.4164 L33.8749048,17.3984 Z" id="Fill-704"></path>
            <path d="M12.5208048,31.5283 C12.6538048,31.5733 12.7428048,31.5753 12.7708048,31.6173 C12.9188048,31.8433 13.0718048,32.0863 12.8388048,32.3403 C12.7948048,32.3873 12.6258048,32.3933 12.5738048,32.3483 C12.2628048,32.0863 12.2958048,31.8123 12.5208048,31.5283" id="Fill-706"></path>
            <path d="M19.1107048,31.5537 L18.4997048,31.5537 C18.8627048,30.8917 18.8627048,30.8917 19.3937048,31.2497 C19.2897048,31.3577 19.1847048,31.4677 19.0787048,31.5767 L19.1107048,31.5537 Z" id="Fill-708"></path>
            <path d="M5.48130485,55.3173 C5.36330485,55.0703 5.33130485,55.0243 5.33830485,55.0163 C5.56430485,54.7933 5.20530485,54.3043 5.70130485,54.2123 C5.74930485,54.2023 5.84630485,54.2523 5.86130485,54.2953 C6.00430485,54.7103 5.66130485,54.9053 5.48130485,55.3173" id="Fill-710"></path>
            <path d="M23.4491048,38.625 C23.8761048,38.53 24.2581048,38.446 24.7801048,38.331 C23.9371048,38.952 23.8051048,38.981 23.4491048,38.625" id="Fill-712"></path>
            <path d="M27.1844048,49.3974 C27.0014048,49.2854 26.7864048,49.2024 26.6464048,49.0494 C26.5534048,48.9494 26.5564048,48.7514 26.5394048,48.5944 C26.5364048,48.5624 26.6694048,48.4754 26.6854048,48.4874 C26.8014048,48.5754 26.9204048,48.6684 27.0064048,48.7844 C27.1124048,48.9274 27.1864048,49.0934 27.2744048,49.2514 C27.2444048,49.2994 27.2144048,49.3484 27.1844048,49.3974" id="Fill-714"></path>
            <path d="M17.9017048,25.9863 C17.3957048,26.2033 17.3957048,26.2033 16.8627048,25.3143 C17.1757048,25.5163 17.4887048,25.7183 17.9017048,25.9863" id="Fill-716"></path>
            <path d="M28.5663048,35.5595 C28.4213048,35.3825 28.2363048,35.2505 28.2533048,35.1525 C28.2723048,35.0375 28.4673048,34.8725 28.5853048,34.8735 C28.7003048,34.8745 28.8153048,35.0565 28.9293048,35.1585 C28.8273048,35.2725 28.7243048,35.3855 28.5663048,35.5595" id="Fill-718"></path>
            <path d="M17.3314048,30.7363 C16.9294048,31.1203 16.5984048,30.9853 16.2374048,30.9433 C16.5614048,30.4553 16.5614048,30.4553 17.3314048,30.7363" id="Fill-720"></path>
            <path d="M23.3734048,24.9433 C23.5094048,24.7763 23.6274048,24.5883 23.7904048,24.4543 C23.8454048,24.4093 24.0624048,24.4653 24.1144048,24.5393 C24.1594048,24.6053 24.1144048,24.8223 24.0454048,24.8613 C23.8654048,24.9643 23.6514048,25.0063 23.4504048,25.0733 C23.4244048,25.0293 23.3994048,24.9863 23.3734048,24.9433" id="Fill-722"></path>
            <path d="M14.5360048,13.0507 C14.2960048,12.4747 14.4320048,12.1827 14.8320048,11.8937 C15.1090048,12.3867 14.7930048,12.6247 14.5360048,13.0507" id="Fill-724"></path>
            <path d="M13.5682048,33.2373 C13.7682048,33.2723 13.9872048,33.2683 14.1592048,33.3573 C14.2522048,33.4063 14.2632048,33.6133 14.3122048,33.7483 C14.1672048,33.7583 13.9942048,33.8233 13.8832048,33.7663 C13.7322048,33.6883 13.6262048,33.5183 13.5012048,33.3873 C13.5232048,33.3383 13.5462048,33.2883 13.5682048,33.2373" id="Fill-726"></path>
            <path d="M17.5511048,29.5332 C17.5221048,29.2372 17.4921048,28.9412 17.4511048,28.5302 C17.6591048,28.6062 17.8391048,28.6222 17.8591048,28.6872 C17.9571048,29.0032 17.7851048,29.2652 17.5511048,29.5332" id="Fill-728"></path>
            <path d="M29.0409048,23.7988 C29.3329048,23.5438 29.5549048,23.3508 29.8589048,23.0848 C29.8069048,23.8428 29.7249048,23.9148 29.0409048,23.7988" id="Fill-730"></path>
            <path d="M27.2044048,50.4531 C26.6204048,50.7161 26.3504048,50.5831 26.1764048,50.1151 C26.5664048,49.9491 26.8144048,50.1671 27.2044048,50.4531" id="Fill-732"></path>
            <path d="M5.15370485,61.7382 C4.71170485,61.8792 4.52370485,61.6282 4.29570485,61.1712 C4.81670485,61.1872 5.09070485,61.3022 5.12170485,61.7592 L5.15370485,61.7382 Z" id="Fill-734"></path>
            <path d="M5.12140485,61.7597 C5.16540485,61.9847 5.23040485,62.2097 5.23340485,62.4357 C5.23340485,62.4707 4.95240485,62.5097 4.66040485,62.5817 C4.88640485,62.1947 5.02040485,61.9657 5.15340485,61.7387 L5.12140485,61.7597 Z" id="Fill-736"></path>
            <path d="M7.94610485,55.1191 C7.51210485,55.1981 7.26910485,55.2421 6.96910485,55.2971 C6.94010485,54.9001 7.25910485,54.8161 7.44610485,54.5551 C7.60810485,54.7371 7.72410485,54.8691 7.94610485,55.1191" id="Fill-738"></path>
            <path d="M10.8607048,48.4209 C11.2947048,48.8399 11.2947048,48.8399 10.7907048,49.1649 C10.4597048,48.8639 10.7247048,48.6399 10.8887048,48.4019 L10.8607048,48.4209 Z" id="Fill-740"></path>
            <path d="M19.0785048,31.5771 C19.5625048,31.6501 19.6095048,32.1471 19.8925048,32.4151 L19.9255048,32.3771 C19.4645048,32.4971 19.2615048,32.0831 18.9035048,31.9311 C18.9875048,31.7781 19.0495048,31.6661 19.1105048,31.5541 L19.0785048,31.5771 Z" id="Fill-742"></path>
            <path d="M9.88950485,28.5664 C10.1105048,29.1624 9.77050485,29.3754 9.54150485,29.7274 C9.48450485,29.2384 9.48450485,29.2384 9.88950485,28.5664" id="Fill-744"></path>
            <path d="M17.3221048,28.0488 C17.0831048,28.4638 16.9911048,28.7518 16.6381048,28.7668 C16.5651048,28.7698 16.4871048,28.6608 16.3141048,28.5308 C16.6401048,28.3748 16.8951048,28.2528 17.3221048,28.0488" id="Fill-746"></path>
            <path d="M14.6029048,27.7734 C14.7539048,27.5634 14.8459048,27.2414 15.1939048,27.4494 C15.2659048,27.4934 15.3209048,27.7114 15.2759048,27.7784 C15.0679048,28.0904 14.8319048,27.9624 14.6029048,27.7734" id="Fill-748"></path>
            <path d="M31.0521048,22.6474 C31.4681048,22.2894 31.6881048,22.2534 31.8511048,22.5124 C31.8961048,22.5854 31.8061048,22.7414 31.7781048,22.8584 C31.5851048,22.8024 31.3921048,22.7464 31.0521048,22.6474" id="Fill-750"></path>
            <path d="M19.6952048,27.123 C19.4162048,27.367 19.3172048,27.501 19.1852048,27.553 C19.0932048,27.589 18.9572048,27.51 18.8412048,27.482 C18.9062048,27.363 18.9442048,27.19 19.0442048,27.137 C19.1592048,27.077 19.3302048,27.123 19.6952048,27.123" id="Fill-752"></path>
            <path d="M21.8114048,39.3818 C21.6674048,39.9658 21.4024048,40.0678 20.9314048,40.0278 C21.0834048,39.6398 21.3194048,39.4968 21.8114048,39.3818" id="Fill-754"></path>
            <path d="M22.5428048,24.9345 C22.1308048,25.0655 21.9048048,24.9515 21.8378048,24.5805 C21.8308048,24.5365 21.9028048,24.4405 21.9518048,24.4295 C22.3948048,24.3275 22.3848048,24.6975 22.5428048,24.9345" id="Fill-756"></path>
            <path d="M24.5575048,44.6679 C24.7695048,44.7709 24.9825048,44.8739 25.2695048,45.0139 C25.0545048,45.1619 24.9235048,45.2529 24.7525048,45.3709 C24.6235048,45.1589 24.5235048,44.9949 24.4225048,44.8299 C24.4675048,44.7759 24.5125048,44.7219 24.5575048,44.6679" id="Fill-758"></path>
            <path d="M37.0379048,24.6103 C37.1629048,24.8523 37.2879048,25.0943 37.4729048,25.4523 C36.9249048,25.1233 36.9249048,25.1233 37.0379048,24.6103" id="Fill-760"></path>
            <path d="M18.2357048,25.6093 C18.6387048,25.7703 18.8217048,26.0113 18.8247048,26.3183 C18.7287048,26.3533 18.6337048,26.3883 18.5377048,26.4233 C18.4377048,26.1523 18.3367048,25.8803 18.2357048,25.6093" id="Fill-762"></path>
            <path d="M21.1737048,22.0673 C21.3517048,22.3033 21.6847048,22.5003 21.4047048,22.9033 C20.8957048,22.7043 21.2657048,22.3263 21.1737048,22.0673" id="Fill-764"></path>
            <path d="M20.3485048,45.8437 C20.2085048,45.9717 20.1235048,46.1107 20.0275048,46.1197 C19.9325048,46.1287 19.8255048,46.0047 19.7235048,45.9397 C19.8095048,45.8217 19.8765048,45.6747 19.9905048,45.5997 C20.0295048,45.5737 20.1865048,45.7297 20.3485048,45.8437" id="Fill-766"></path>
            <path d="M16.4076048,45.0498 C16.5886048,45.3268 16.6886048,45.4808 16.8066048,45.6618 C16.1496048,45.7128 16.1496048,45.7128 16.4076048,45.0498" id="Fill-768"></path>
            <path d="M19.7796048,44.1347 C19.6616048,43.9977 19.5256048,43.9117 19.5206048,43.8177 C19.5146048,43.7197 19.6346048,43.6147 19.6996048,43.5127 C19.8206048,43.5997 19.9416048,43.6857 20.0616048,43.7727 C19.9836048,43.8727 19.9046048,43.9747 19.7796048,44.1347" id="Fill-770"></path>
            <path d="M21.8045048,43.29 C22.1995048,43.335 22.3895048,43.476 22.3295048,43.807 C22.3185048,43.865 22.1635048,43.948 22.0905048,43.935 C21.7575048,43.873 21.6895048,43.658 21.8045048,43.29" id="Fill-772"></path>
            <path d="M18.7967048,41.8252 C19.1147048,41.5592 19.3007048,41.4032 19.4867048,41.2482 C19.4127048,41.6942 19.4127048,41.6942 18.7967048,41.8252" id="Fill-774"></path>
            <path d="M13.1986048,48.9179 L13.9776048,48.9179 C13.6496048,49.3449 13.4296048,49.3039 13.1986048,48.9179" id="Fill-776"></path>
            <path d="M4.75370485,50.5673 C4.68570485,49.9443 5.09370485,49.9283 5.27570485,49.7273 C5.39470485,50.1763 5.05370485,50.2473 4.75370485,50.5673" id="Fill-778"></path>
            <path d="M20.2904048,34.2412 C20.3674048,34.6222 20.3984048,34.9092 19.9834048,34.9842 C19.9184048,34.9962 19.7814048,34.8902 19.7604048,34.8162 C19.6354048,34.3662 20.0114048,34.3962 20.2904048,34.2412" id="Fill-780"></path>
            <path d="M14.7122048,32.4961 C14.9192048,32.9141 15.0302048,33.0461 15.0302048,33.1771 C15.0302048,33.2521 14.8482048,33.3271 14.7492048,33.4011 C14.6632048,33.2811 14.5302048,33.1701 14.5062048,33.0381 C14.4862048,32.9261 14.5932048,32.7911 14.7122048,32.4961" id="Fill-782"></path>
            <path d="M30.9198048,31.4013 C31.1808048,31.7733 31.0388048,31.9863 30.6428048,32.0993 C30.7348048,31.8673 30.8278048,31.6333 30.9198048,31.4013" id="Fill-784"></path>
            <path d="M11.7347048,32.1953 C11.6177048,31.9823 11.5027048,31.8573 11.4957048,31.7263 C11.4917048,31.6473 11.6927048,31.4723 11.7377048,31.4923 C11.8637048,31.5453 12.0287048,31.6693 12.0417048,31.7803 C12.0527048,31.8823 11.8847048,32.0043 11.7347048,32.1953" id="Fill-786"></path>
            <path d="M12.9041048,30.7666 C13.0381048,30.8286 13.2681048,30.8686 13.2881048,30.9546 C13.3501048,31.2416 13.2021048,31.4076 12.7751048,31.3556 C12.8311048,31.1386 12.8831048,30.9396 12.9341048,30.7396 L12.9041048,30.7666 Z" id="Fill-788"></path>
            <path d="M6.62340485,53.125 C7.05240485,52.867 7.31240485,52.804 7.60940485,53.137 C7.30440485,53.44 7.04740485,53.377 6.62340485,53.125" id="Fill-790"></path>
            <path d="M32.5140048,26.3437 C32.7150048,26.1207 32.8930048,25.9697 33.1040048,26.2387 C33.1450048,26.2907 33.1440048,26.4367 33.1010048,26.4857 C32.8780048,26.7397 32.7050048,26.5917 32.5140048,26.3437" id="Fill-792"></path>
            <path d="M4.52770485,54.997 C4.54170485,54.618 4.57370485,54.2 5.15470485,54.506 C4.90270485,54.703 4.71570485,54.851 4.52770485,54.997" id="Fill-794"></path>
        </g>
    </g>
</svg>