<?xml version="1.0" encoding="UTF-8"?>
<svg width="94px" height="125px" viewBox="0 0 94 125" version="1.1" xmlns="http://www.w3.org/2000/svg" xmlns:xlink="http://www.w3.org/1999/xlink">
    <!-- Generator: Sketch 61.2 (89653) - https://sketch.com -->
    <title>white_umbrella</title>
    <desc>Created with Sketch.</desc>
    <g id="Page-1" stroke="none" stroke-width="1" fill="none" fill-rule="evenodd">
        <g id="white_umbrella" fill="#FFFFFF">
            <path d="M20.6558901,42.3636591 C20.7588901,42.4446591 20.8618901,42.5256591 20.9648901,42.6076591 C21.2168901,42.2256591 21.7408901,41.9796591 21.4748901,41.1486591 C21.1408901,41.6446591 20.8988901,42.0046591 20.6558901,42.3636591 L20.6558901,42.3636591 Z M69.3918901,45.9436591 C68.4388901,45.9606591 68.4388901,45.9606591 68.6348901,47.0576591 C68.8978901,46.6716591 69.1058901,46.3646591 69.3918901,45.9436591 L69.3918901,45.9436591 Z M10.6018901,35.0536591 C11.0908901,35.3796591 11.4118901,35.5926591 11.7328901,35.8056591 C11.7848901,35.7536591 11.8368901,35.7006591 11.8878901,35.6466591 C11.7648901,35.3666591 11.6418901,35.0856591 11.5048901,34.7736591 C11.2258901,34.8596591 11.0088901,34.9266591 10.6018901,35.0536591 L10.6018901,35.0536591 Z M19.0448901,43.9516591 C18.4488901,43.9466591 17.9588901,43.5306591 17.4978901,44.2016591 C18.0688901,44.4396591 18.5318901,44.6306591 19.0448901,43.9516591 L19.0448901,43.9516591 Z M17.6468901,33.4016591 C17.8518901,34.9006591 17.8518901,34.9006591 18.5058901,34.9686591 C18.3608901,34.7426591 18.2198901,34.5456591 18.1028901,34.3356591 C17.9758901,34.1056591 17.8708901,33.8636591 17.6468901,33.4016591 L17.6468901,33.4016591 Z M15.5378901,31.4726591 C15.5048901,31.7836591 15.4818901,31.9956591 15.4518901,32.2716591 C15.8768901,32.2996591 16.2098901,32.3206591 16.5438901,32.3416591 C16.5748901,32.2516591 16.6068901,32.1616591 16.6378901,32.0706591 C16.3028901,31.8886591 15.9678901,31.7066591 15.5378901,31.4726591 L15.5378901,31.4726591 Z M72.6758901,31.7806591 C72.4068901,31.0096591 71.9488901,31.0506591 71.4268901,30.9736591 C71.4858901,31.8466591 72.0428901,31.6556591 72.6758901,31.7806591 L72.6758901,31.7806591 Z M66.7318901,26.8066591 C67.3178901,27.1526591 67.2938901,27.8616591 68.2108901,27.8746591 C67.7588901,27.3946591 67.7538901,26.8026591 66.7318901,26.8066591 L66.7318901,26.8066591 Z M17.5118901,28.4596591 C18.1578901,28.3576591 18.5628901,28.2966591 18.9668901,28.2296591 C19.0528901,28.2156591 19.1358901,28.1846591 19.3798901,28.1196591 C18.9318901,27.9056591 18.6518901,27.7716591 18.3938901,27.6486591 C18.1048901,27.9146591 17.8678901,28.1326591 17.5118901,28.4596591 L17.5118901,28.4596591 Z M20.0848901,86.0356591 C19.8058901,86.6116591 19.6778901,86.8766591 19.5118901,87.2216591 C19.9318901,87.2676591 20.2268901,87.3006591 20.6288901,87.3446591 C20.4678901,86.9566591 20.3518901,86.6766591 20.0848901,86.0356591 L20.0848901,86.0356591 Z M15.5458901,35.8906591 C15.2708901,36.0336591 14.9588901,36.1546591 15.3238901,36.5076591 C15.5098901,36.6856591 15.8848901,36.7356591 15.6878901,37.1536591 C15.6358901,37.2626591 15.7408901,37.4466591 15.7738901,37.5946591 C16.1018901,36.9366591 15.9658901,36.3846591 15.5458901,35.8906591 L15.5458901,35.8906591 Z M18.4858901,37.6076591 C19.0638901,36.4436591 19.0638901,36.4436591 18.2648901,35.8076591 C18.3338901,36.3736591 18.4008901,36.9146591 18.4858901,37.6076591 L18.4858901,37.6076591 Z M25.4048901,33.7786591 C23.9528901,34.1986591 23.9528901,34.1986591 24.3438901,34.9396591 C24.6488901,34.6046591 24.9558901,34.2696591 25.4048901,33.7786591 L25.4048901,33.7786591 Z M67.6998901,29.1456591 C67.1108901,28.8646591 66.9208901,29.9286591 66.5618901,29.6686591 C67.3548901,30.0466591 67.3548901,30.0466591 67.6998901,29.1456591 L67.6998901,29.1456591 Z M44.2698901,88.3686591 C44.3298901,88.4736591 44.3898901,88.5796591 44.4498901,88.6846591 C44.7808901,88.5536591 45.1668901,88.4856591 45.4198901,88.2636591 C45.5418901,88.1566591 45.5148901,87.6366591 45.3778901,87.5286591 C45.1458901,87.3436591 44.7258901,87.1946591 44.7998901,87.8576591 C44.8158901,88.0066591 44.4568901,88.1966591 44.2698901,88.3686591 L44.2698901,88.3686591 Z M9.4068901,35.1636591 C9.6958901,35.0686591 9.9698901,34.9916591 10.2318901,34.8836591 C10.2938901,34.8576591 10.3128901,34.7276591 10.3988901,34.5456591 C9.9408901,34.4206591 9.5028901,34.3006591 8.8618901,34.1266591 C9.1128901,34.6026591 9.2578901,34.8786591 9.4068901,35.1636591 L9.4068901,35.1636591 Z M71.8728901,37.0576591 C71.0458901,37.0336591 71.0008901,37.0316591 70.9668901,37.2606591 C70.8928901,37.7436591 70.8568901,38.2316591 70.8048901,38.7176591 C71.0898901,38.4666591 71.1398901,38.1576591 71.2758901,37.8916591 C71.4178901,37.6126591 71.6408901,37.3736591 71.8728901,37.0576591 L71.8728901,37.0576591 Z M21.9838901,32.0506591 C22.2808901,32.3696591 22.5818901,32.6326591 22.9268901,32.1936591 C23.4658901,31.5106591 22.7098901,31.2806591 22.3698901,30.8106591 C22.9828901,31.5226591 22.1978901,31.6856591 21.9838901,32.0506591 L21.9838901,32.0506591 Z M72.6748901,37.1556591 C72.2708901,38.0386591 72.1868901,38.5186591 72.5778901,38.9876591 C73.0148901,38.8656591 73.4278901,38.7506591 73.8418901,38.6346591 C73.7018901,38.7566591 73.5628901,38.8776591 73.4238901,38.9976591 C73.1978901,38.4416591 72.9718901,37.8856591 72.6748901,37.1556591 L72.6748901,37.1556591 Z M17.3158901,40.1056591 C17.5938901,40.3156591 17.7998901,40.4696591 17.9958901,40.6176591 C18.0208901,40.3536591 18.0498901,40.0686591 18.0768901,39.7826591 C18.3778901,39.8106591 18.6088901,39.8336591 18.8388901,39.8556591 C18.8618901,39.7916591 18.8838901,39.7266591 18.9058901,39.6636591 C18.5408901,39.4136591 18.1758901,39.1636591 17.7558901,38.8756591 C17.5888901,39.3416591 17.4608901,39.7006591 17.3158901,40.1056591 L17.3158901,40.1056591 Z M67.9178901,33.1146591 C68.4448901,32.8646591 68.9698901,32.6136591 69.5858901,32.3206591 C68.7848901,31.6066591 68.6218901,32.7636591 68.0758901,32.5306591 C67.9908901,32.1746591 67.9008901,31.7916591 67.7428901,31.1276591 C67.4538901,31.7486591 67.2958901,32.0906591 67.1288901,32.4496591 C67.4048901,32.6816591 67.6238901,32.8666591 67.9178901,33.1146591 L67.9178901,33.1146591 Z M72.3108901,28.5146591 C71.7778901,28.8416591 71.3568901,29.0976591 70.9348901,29.3556591 C70.9678901,29.4266591 70.9998901,29.4986591 71.0318901,29.5696591 C71.3408901,29.5096591 71.6498901,29.4506591 71.9378901,29.3946591 C72.6198901,30.3696591 72.6198901,30.3696591 73.2608901,30.4666591 C73.6058901,29.4696591 72.2458901,29.4346591 72.3108901,28.5146591 L72.3108901,28.5146591 Z M12.1378901,32.2626591 C11.4838901,32.6456591 11.7408901,33.1396591 11.8748901,33.6036591 C12.1048901,34.3976591 12.7998901,33.9856591 13.2388901,34.2726591 C13.4138901,33.8846591 13.5298901,33.6286591 13.6298901,33.4056591 C13.1298901,33.0216591 12.6868901,32.6836591 12.1378901,32.2626591 L12.1378901,32.2626591 Z M74.9678901,36.2556591 C75.3988901,36.0816591 75.8798901,35.8866591 76.3438901,35.6986591 C76.1978901,34.6486591 75.4738901,34.6026591 74.7078901,34.5376591 C74.5058901,34.7756591 74.2938901,35.0246591 74.1298901,35.2186591 C74.4408901,35.6036591 74.6848901,35.9056591 74.9678901,36.2556591 L74.9678901,36.2556591 Z M46.0828901,47.8376591 C45.9988901,47.8286591 45.9148901,47.8206591 45.8298901,47.8126591 C45.6998901,48.1006591 45.5688901,48.3886591 45.4348901,48.6836591 C45.1878901,48.5456591 45.0068901,48.4436591 44.8258901,48.3436591 L44.8258901,50.9126591 C45.2048901,50.8866591 45.5588901,50.8626591 45.9688901,50.8346591 C46.0098901,50.0056591 46.0498901,49.2766591 46.0818901,48.5476591 C46.0918901,48.3106591 46.0828901,48.0736591 46.0828901,47.8376591 L46.0828901,47.8376591 Z M13.8978901,40.4276591 C13.8018901,39.5046591 13.7088901,38.5936591 13.6158901,37.6816591 C11.9848901,37.8966591 11.9678901,37.9126591 11.7918901,39.2646591 C11.0108901,39.5676591 10.6648901,38.7076591 10.0848901,38.5296591 C9.1818901,39.2426591 9.1948901,40.2166591 9.11786841,41.1466591 C9.1148901,41.1906591 9.4238901,41.2606591 9.6028901,41.3246591 C9.8018901,40.6986591 9.9598901,40.1566591 10.1568901,39.6296591 C10.1888901,39.5446591 10.3988901,39.5266591 10.5598901,39.4656591 C10.6538901,39.8636591 10.7378901,40.2226591 10.8228901,40.5826591 C11.2858901,40.4816591 11.6778901,40.3966591 12.0748901,40.3106591 C11.9658901,39.4086591 12.2938901,38.6526591 12.8968901,37.9556591 C13.6658901,38.3616591 13.3988901,38.8036591 13.0538901,39.2676591 C12.9518901,39.4056591 12.8968901,39.5786591 12.8438901,39.6866591 C13.2258901,39.9566591 13.5308901,40.1706591 13.8978901,40.4276591 L13.8978901,40.4276591 Z M18.5918901,78.9046591 C18.2488901,79.0886591 18.0608901,79.1886591 17.5968901,79.4376591 C18.0408901,79.5396591 18.2728901,79.5926591 18.5048901,79.6456591 C18.4458901,79.7526591 18.3848901,79.8586591 18.3258901,79.9656591 C17.1918901,79.6486591 17.7108901,80.9836591 17.0198901,81.1016591 C17.3688901,81.6306591 17.7598901,82.1146591 18.0198901,82.6616591 C18.1498901,82.9326591 18.1258901,83.5786591 18.0218901,83.6136591 C17.2638901,83.8716591 17.5498901,84.1726591 17.8538901,84.5936591 C17.9408901,84.7136591 17.7488901,85.0336591 17.6588901,85.3536591 C17.3748901,85.0836591 17.2018901,84.9196591 17.0298901,84.7556591 C17.4068901,85.7166591 17.3158901,86.6976591 17.3298901,87.6676591 C17.3308901,87.7106591 17.3618901,87.7696591 17.3978901,87.7926591 C17.5118901,87.8666591 17.6358901,87.9266591 17.8338901,88.0346591 C17.9068901,87.7096591 17.9668901,87.4446591 18.0358901,87.1326591 C18.3688901,87.3576591 18.5988901,87.5126591 18.9688901,87.7636591 C18.8648901,87.1316591 18.7978901,86.7246591 18.7248901,86.2826591 C19.8658901,86.7306591 19.0858901,85.3966591 19.6348901,85.3676591 C20.0748901,85.6036591 20.4548901,85.9246591 20.8798901,86.0026591 C21.3328901,86.0866591 21.8518901,85.7266591 22.2748901,86.1826591 C22.9128901,85.3356591 23.0348901,86.7746591 23.5688901,86.5296591 C23.4078901,86.0056591 23.2638901,85.5366591 23.0768901,84.9266591 C23.8148901,84.7916591 24.4398901,84.6766591 25.0458901,84.5656591 C25.2838901,85.4216591 25.4808901,86.1316591 25.7018901,86.9266591 L24.6028901,86.9266591 C24.7638901,87.2216591 24.8758901,87.4276591 24.9818901,87.6226591 C25.2658901,87.5436591 25.4908901,87.4816591 25.8198901,87.3906591 C25.9498901,88.5506591 26.6438901,89.5616591 26.3598901,90.7636591 C26.6078901,90.8846591 26.8198901,90.9876591 27.0318901,91.0906591 C26.6478901,91.8406591 26.6558901,91.8326591 27.2468901,92.3966591 C27.3448901,92.4916591 27.3488901,92.6856591 27.3928901,92.8356591 C27.4658901,93.0806591 27.4638901,93.4646591 27.6188901,93.5446591 C27.9618901,93.7186591 27.8458901,93.9556591 27.9268901,94.2056591 C28.2078901,95.0706591 28.6398901,95.8876591 29.0148901,96.7226591 C28.1098901,91.8026591 27.1168901,86.9356591 25.5228901,82.0576591 C25.0238901,82.2736591 24.6768901,82.5146591 24.3018901,82.5686591 C23.1968901,82.7286591 22.0808901,82.8056591 20.9708901,82.9306591 C19.9658901,83.0446591 19.7848901,82.9566591 19.4828901,81.9916591 C19.1778901,81.0156591 18.9138901,80.0276591 18.5918901,78.9046591 L18.5918901,78.9046591 Z M72.9458901,70.9766591 C72.9468901,71.1256591 72.9478901,71.2736591 72.9488901,71.4226591 C72.7708901,71.4326591 72.5918901,71.4436591 72.3468901,71.4586591 C72.5988901,71.9496591 73.0938901,72.3776591 72.5128901,72.8806591 C72.3898901,72.7426591 72.2668901,72.6046591 72.1248901,72.4466591 C71.2678901,72.9876591 70.1868901,73.0506591 69.2368901,73.9476591 C69.7248901,73.9856591 70.0438901,74.1106591 70.2198901,74.0026591 C70.4928901,73.8366591 70.6068901,73.4016591 70.9338901,73.9956591 C71.0348901,74.1766591 71.5668901,74.2006591 71.8868901,74.1666591 C72.6168901,74.0896591 73.3698901,74.0226591 74.0578901,73.7886591 C75.4178901,73.3266591 76.7178901,72.6476591 77.5248901,71.4276591 C78.9608901,69.2576591 78.6918901,66.9236591 77.6848901,64.7066591 C76.4038901,61.8876591 73.8348901,60.6456591 71.0518901,59.7786591 C70.8198901,59.7066591 70.5308901,59.8186591 70.2618901,59.8456591 C70.4168901,60.5156591 70.5898901,61.0816591 70.6698901,61.6596591 C70.7718901,62.3966591 70.6298901,62.5526591 69.8388901,62.7376591 C69.6228901,62.7886591 69.3948901,62.7876591 69.2658901,62.8006591 C69.0508901,61.9586591 68.8618901,61.2206591 68.7258901,60.6906591 C67.8948901,60.3536591 67.2148901,60.0786591 66.3758901,59.7376591 C66.8308901,59.2706591 67.2118901,58.8806591 67.6248901,58.4556591 C67.0618901,58.0186591 66.6028901,57.3946591 66.0558901,57.3036591 C65.3288901,57.1836591 65.2908901,56.4796591 64.6828901,56.2426591 C62.5468901,55.4066591 60.3808901,54.8696591 58.0858901,55.0306591 C55.1438901,55.2366591 52.5698901,56.1766591 50.6808901,58.6406591 C49.9588901,59.5846591 49.4718901,60.7796591 48.2958901,61.3276591 C48.0458901,61.0436591 47.7968901,60.7596591 47.5148901,60.4396591 C47.9418901,60.1446591 48.3268901,59.8776591 48.7148901,59.6096591 C48.6068901,59.3826591 48.5088901,59.2126591 48.4438901,59.0296591 C48.3638901,58.8096591 48.3128901,58.5806591 48.2538901,58.3706591 C46.9108901,58.4186591 46.7208901,58.2126591 46.6998901,56.7696591 L47.0078901,56.2896591 C47.3558901,56.0166591 47.7038901,55.7436591 48.0478901,55.4746591 C48.6848901,56.3446591 48.6848901,56.3446591 49.3088901,55.9436591 C48.6958901,55.0376591 48.6868901,54.9336591 49.1358901,54.3376591 C49.3238901,54.6056591 49.5078901,55.1066591 49.7128901,55.1156591 C50.2738901,55.1396591 50.8858901,55.0516591 51.3938901,54.8216591 C51.7228901,54.6736591 51.9038901,54.1956591 52.2388901,53.7486591 C49.2468901,52.4816591 46.3868901,52.2156591 43.4408901,52.9676591 C43.0688901,53.0626591 42.7288901,53.2926591 42.3778901,53.4686591 C40.5618901,54.3806591 39.0238901,55.6826591 37.4978901,56.9926591 C35.0948901,59.0536591 34.0068901,61.7856591 33.6688901,64.8606591 C33.5518901,65.9306591 33.4998901,67.0096591 33.4248901,68.0856591 C33.3858901,68.6336591 33.3688901,69.1856591 32.6198901,69.3546591 C32.1218901,68.9176591 31.6168901,68.4996591 31.6708901,67.6826591 C31.6868901,67.4446591 31.4728901,67.0506591 31.2648901,66.9636591 C30.4488901,66.6186591 30.5018901,65.9156591 30.4388901,65.2466591 C30.4078901,64.9186591 30.3938901,64.5886591 30.3738901,64.2876591 C29.7458901,64.1176591 29.2038901,63.9726591 28.6628901,63.8236591 C28.2008901,63.6966591 28.0878901,63.3406591 28.0798901,62.9186591 C28.9668901,63.4816591 29.9068901,63.2806591 31.0568901,63.1566591 C30.2608901,62.8816591 29.6748901,62.5946591 29.0588901,62.5046591 C28.7748901,62.4626591 28.4348901,62.8016591 28.1198901,62.9676591 C27.7598901,62.8326591 27.4148901,63.5806591 26.9778901,62.9986591 C27.6728901,62.5636591 28.2688901,61.9966591 28.9678901,61.8056591 C29.8688901,61.5596591 29.6928901,60.5186591 30.4748901,60.3316591 C30.1438901,59.4976591 29.4468901,59.6166591 28.8488901,59.5766591 C28.9878901,59.1576591 29.1558901,58.8646591 29.1608901,58.5676591 C29.1678901,58.2906591 29.0018901,58.0096591 28.8958901,57.6826591 C30.0228901,57.6246591 29.1438901,59.1366591 30.2258901,58.9946591 L30.2258901,58.3606591 C31.0188901,58.3726591 31.1568901,57.3986591 31.9848901,57.1756591 C31.7718901,57.6746591 31.6128901,58.0466591 31.4528901,58.4226591 C32.5178901,58.7396591 33.3938901,58.5466591 34.0078901,57.8746591 C34.1608901,57.7076591 34.3048901,57.4116591 34.4708901,57.3976591 C35.2838901,57.3336591 35.5528901,56.5276591 36.3948901,56.2746591 C36.0488901,56.0756591 35.8958901,55.9606591 35.7248901,55.8926591 C33.4248901,54.9806591 30.9888901,54.6276591 28.5608901,54.4696591 C25.5188901,54.2736591 22.7968901,55.4716591 20.3118901,57.1106591 C18.8898901,58.0486591 17.9328901,59.4036591 17.7388901,61.1926591 C17.6878901,61.6726591 17.5418901,62.1726591 16.8818901,62.2746591 C16.1108901,62.0016591 15.7328901,60.9076591 14.6858901,61.0926591 C14.8418901,60.9256591 14.9988901,60.7566591 15.1548901,60.5886591 C15.9698901,60.1386591 16.5168901,59.4166591 17.3818901,58.5736591 C16.8848901,58.6156591 16.6978901,58.6116591 16.5208901,58.6486591 C16.1528901,58.7276591 15.7958901,58.8336591 15.9208901,59.3446591 C15.5038901,59.3636591 15.0388901,59.2666591 14.6788901,59.4196591 C12.7138901,60.2506591 11.3338901,61.6276591 10.9468901,63.8036591 C10.8018901,64.6216591 10.6998901,65.4566591 10.6858901,66.2856591 C10.6538901,68.1496591 11.5948901,69.5706591 12.9738901,70.6946591 C13.7248901,71.3056591 14.6138901,71.7276591 15.4868901,71.1506591 C15.3218901,70.5796591 15.1828901,70.0966591 15.0488901,69.6336591 C14.7698901,69.8486591 14.4728901,70.0786591 14.0358901,70.4176591 C13.9188901,69.3656591 13.8188901,68.4626591 13.7048901,67.4396591 C14.1178901,67.2106591 14.6738901,66.9016591 15.2548901,66.5776591 C15.0158901,66.2416591 14.8558901,66.0166591 14.6758901,65.7616591 C15.1088901,65.5046591 15.4938901,65.2756591 15.9628901,64.9976591 C16.0928901,65.8606591 16.2248901,66.5826591 16.3058901,67.3096591 C16.4828901,68.8956591 16.9588901,70.3776591 17.7938901,71.7356591 C18.0728901,72.1876591 18.4798901,72.5696591 18.7068901,73.0416591 C19.7358901,75.1806591 21.6078901,76.1546591 23.7568901,76.7176591 C24.1598901,76.8226591 24.6478901,76.6096591 25.0968901,76.5446591 C25.0818901,76.4486591 25.0668901,76.3536591 25.0518901,76.2596591 C24.6648901,76.3226591 24.2788901,76.3856591 23.8688901,76.4536591 C24.1238901,75.6496591 24.1238901,75.6496591 23.5768901,75.1566591 C23.3888901,75.3866591 23.2008901,75.6166591 23.0128901,75.8456591 C22.9148901,75.4966591 22.9478901,75.2126591 23.0458901,74.9526591 C23.1248901,74.7396591 23.2798901,74.5536591 23.4008901,74.3556591 L23.2178901,74.2066591 C23.0178901,74.3576591 22.8178901,74.5096591 22.6028901,74.6716591 C22.1618901,74.2396591 21.7798901,73.7846591 21.7198901,72.9776591 C22.0608901,73.2366591 22.2558901,73.3846591 22.5348901,73.5956591 C22.5928901,73.1306591 22.6348901,72.7986591 22.6758901,72.4666591 C22.7438901,72.4616591 22.8118901,72.4556591 22.8798901,72.4506591 C22.9948901,72.6966591 23.1088901,72.9436591 23.2808901,73.3136591 C23.4168901,73.0586591 23.5278901,72.8506591 23.6798901,72.5656591 C24.0448901,73.0336591 24.1628901,73.4976591 24.7278901,73.5556591 C25.0028901,73.5846591 25.2858901,73.9306591 25.4858901,74.1936591 C25.9598901,74.8166591 26.3688901,75.4886591 26.8368901,76.1176591 C28.1788901,77.9216591 29.7958901,79.3786591 32.0138901,80.0146591 C34.8928901,80.8416591 37.8508901,80.7016591 40.7898901,80.6186591 C41.4978901,80.5976591 42.3908901,80.7276591 42.9118901,79.9236591 C42.9588901,79.8506591 43.1828901,79.8166591 43.2748901,79.8636591 C44.1478901,80.3106591 44.1138901,79.4966591 44.3058901,79.1856591 C44.6598901,79.1856591 45.1128901,79.2956591 45.1998901,79.1636591 C45.3778901,78.8956591 45.3568901,78.4966591 45.4148901,78.1696591 C45.7778901,78.0716591 46.1578901,77.9696591 46.5318901,77.8696591 C45.7928901,76.6366591 45.2118901,78.0546591 44.2908901,77.9476591 C44.6338901,77.6876591 44.7958901,77.5696591 44.9538901,77.4446591 C45.1218901,77.3126591 45.2858901,77.1756591 45.4678901,77.0256591 C45.1698901,76.7626591 44.9478901,76.5676591 44.7268901,76.3726591 C44.7708901,76.3026591 44.8148901,76.2326591 44.8588901,76.1626591 C45.2928901,76.3426591 45.7268901,76.5206591 46.2128901,76.7216591 C46.4298901,76.2416591 46.6418901,75.7746591 46.8398901,75.3386591 C47.6228901,75.3206591 48.3428901,75.5046591 48.8738901,74.7416591 C49.1188901,74.3896591 49.7078901,74.3306591 50.0298901,74.7286591 C50.1908901,74.9276591 50.1608901,75.3596591 50.0858901,75.6516591 C50.0018901,75.9716591 49.7898901,76.2706591 49.5928901,76.5486591 C48.0458901,78.7206591 46.3648901,80.7346591 43.6178901,81.4496591 C43.5448901,81.4676591 43.4988901,81.5956591 43.3978901,81.7296591 C44.1228901,82.6996591 45.1438901,83.2266591 46.2708901,83.5886591 C46.8768901,83.7826591 47.4888901,83.9706591 48.1088901,84.1116591 C48.7278901,84.2536591 49.4258901,84.5446591 49.9708901,84.3816591 C50.5538901,84.2056591 51.0938901,84.6956591 51.6028901,84.3026591 C54.1558901,85.0186591 56.3998901,83.9416591 58.6768901,83.0726591 C58.8968901,82.9886591 59.2478901,82.8396591 59.2628901,82.6926591 C59.3458901,81.8606591 59.9098901,82.5336591 60.3038901,82.2936591 C60.3948901,82.0506591 60.5238901,81.7076591 60.6848901,81.2806591 C60.8478901,81.4806591 60.9648901,81.6236591 61.1148901,81.8076591 C61.5248901,81.4316591 61.9548901,80.7336591 62.3148901,80.7676591 C63.1818901,80.8506591 63.3428901,80.5296591 63.3198901,79.8216591 C63.3188901,79.8006591 63.5858901,79.7316591 63.7188901,79.7516591 C64.7148901,79.8946591 64.2768901,79.0346591 64.4268901,78.7616591 C64.7768901,78.6956591 65.1278901,78.7376591 65.2678901,78.5856591 C66.1308901,77.6416591 66.6448901,76.5026591 67.1098901,75.2426591 C66.4088901,75.2346591 65.8578901,75.1766591 65.8588901,74.3116591 C66.4098901,74.4466591 66.9598901,74.8476591 67.3538901,74.1556591 C67.2408901,73.8086591 67.1298901,73.4676591 67.0098901,73.1006591 C67.4038901,73.0716591 67.6838901,73.0506591 67.9648901,73.0306591 C67.8738901,72.8496591 67.7838901,72.6696591 67.7008901,72.5016591 C67.8718901,72.1776591 68.0488901,71.8426591 68.2258901,71.5056591 L68.1718901,71.5516591 C68.4058901,71.4446591 68.6398901,71.3376591 69.0198901,71.1636591 C68.5238901,70.8726591 68.1928901,70.6776591 67.8128901,70.4556591 C68.3848901,70.2256591 68.8568901,70.0366591 69.5508901,69.7586591 C69.0978901,69.6706591 68.8958901,69.6316591 68.3478901,69.5236591 C69.1128901,69.2816591 69.5688901,69.1366591 70.0088901,68.9976591 C70.2978901,69.6196591 70.5278901,70.1126591 70.7578901,70.6056591 C70.8408901,70.5776591 70.9238901,70.5486591 71.0068901,70.5196591 C70.9268901,70.1966591 70.8448901,69.8746591 70.6978901,69.2856591 C71.1928901,69.5026591 71.5118901,69.5666591 71.7268901,69.7516591 C72.1628901,70.1256591 72.5428901,70.5646591 72.9458901,70.9766591 L72.9458901,70.9766591 Z M68.2388901,87.4556591 L68.2028901,87.4216591 C68.1908901,88.5356591 67.0588901,88.2856591 66.5418901,88.7846591 C66.5928901,89.3256591 66.2488901,90.1906591 65.7968901,90.3726591 C64.9778901,90.7016591 64.6298901,91.3296591 64.4478901,91.9896591 C64.0318901,93.0756591 62.7588901,91.6756591 62.4278901,92.7316591 C62.7068901,92.9226591 62.9268901,93.0716591 63.1478901,93.2216591 C63.0638901,93.3426591 62.9798901,93.4626591 62.8968901,93.5836591 C62.6708901,93.5836591 62.4428901,93.5636591 62.2188901,93.5866591 C61.5708901,93.6516591 61.4988901,93.9566591 61.8728901,94.4486591 C61.9018901,94.4866591 61.8178901,94.6106591 61.7988901,94.6636591 C61.4108901,94.8036591 61.0438901,94.9386591 60.5078901,95.1346591 C60.8968901,95.4316591 61.0878901,95.5786591 61.2798901,95.7236591 C61.4248901,95.8346591 61.5718901,95.9416591 61.7188901,96.0506591 C61.2718901,96.1486591 60.9098901,96.0446591 60.5438901,96.0286591 C60.1698901,96.0116591 60.0218901,96.3506591 60.2238901,96.7326591 C60.2998901,96.8756591 60.4478901,96.9786591 60.7498901,97.2966591 L59.3808901,97.2966591 L59.3808901,98.3756591 C58.2678901,98.7086591 58.2768901,99.7996591 57.8118901,100.570659 C62.5398901,95.5716591 67.5548901,90.8546591 72.2018901,85.3296591 C70.2488901,85.3296591 68.6328901,85.3216591 67.0158901,85.3326591 C66.2228901,85.3376591 65.4478901,85.3286591 64.8868901,84.4736591 C65.1918901,83.9696591 65.4998901,83.4606591 65.8078901,82.9516591 C65.3858901,83.3036591 64.7298901,83.3266591 64.5978901,84.0136591 C64.5398901,84.3146591 64.0598901,84.5286591 63.7848901,84.7956591 C63.6308901,84.9466591 63.3778901,85.1326591 63.3858901,85.2906591 C63.4148901,85.8086591 62.5218901,85.7766591 62.7818901,86.3826591 C62.4538901,86.4396591 62.1188901,86.4756591 61.8008901,86.5676591 C61.6978901,86.5976591 61.6378901,86.7726591 61.5038901,86.9556591 C62.0128901,87.1546591 62.4598901,87.3286591 63.2188901,87.6256591 C62.2978901,87.8646591 61.7098901,88.0156591 61.0168901,88.1956591 C61.4978901,88.7596591 62.0288901,88.7766591 62.4918901,88.4886591 C63.2528901,88.0166591 63.9118901,88.1586591 64.5248901,88.6796591 C65.2178901,88.1386591 65.9918901,87.7986591 66.0938901,86.7746591 C66.4838901,86.8996591 66.7658901,86.9906591 67.1308901,87.1076591 C66.8708901,87.4616591 66.7058901,87.6846591 66.3888901,88.1156591 C67.1888901,87.8306591 67.7138901,87.6426591 68.2388901,87.4556591 L68.2388901,87.4556591 Z M37.5008901,104.507659 C37.8498901,104.394659 38.1988901,104.283659 38.6708901,104.133659 C38.2028901,103.835659 37.8488901,103.609659 37.4948901,103.384659 C37.4708901,103.188659 37.4478901,102.993659 37.4158901,102.729659 C36.8958901,103.138659 36.5908901,103.210659 36.1468901,103.063659 C36.2728901,102.885659 36.3918901,102.717659 36.5138901,102.545659 C36.2638901,102.459659 36.0248901,102.377659 35.6738901,102.257659 C36.5338901,101.890659 36.5338901,101.890659 36.7898901,100.731659 C38.0088901,100.035659 38.0088901,100.035659 37.8768901,99.3186591 C36.3048901,99.1906591 35.1958901,99.7396591 34.6088901,100.934659 C34.2388901,101.689659 34.2958901,101.949659 34.9518901,102.605659 C34.7988901,102.750659 34.4898901,102.937659 34.5158901,103.034659 C34.6658901,103.589659 34.7578901,104.259659 35.1278901,104.634659 C35.8378901,105.354659 36.6548901,106.034659 37.5478901,106.497659 C39.4098901,107.462659 41.4678901,107.328659 43.4598901,107.086659 C44.6878901,106.936659 45.6208901,106.107659 45.9818901,104.874659 C46.2268901,104.035659 46.3858901,103.147659 46.4178901,102.276659 C46.5478901,98.6496591 46.6168901,95.0196591 46.7048901,91.3906591 C46.7168901,90.9126591 46.7068901,90.4326591 46.7068901,89.9716591 C45.7068901,89.6366591 45.5788901,90.3876591 45.2808901,90.8756591 C45.2708901,90.8906591 45.4798901,91.0416591 45.5928901,91.1336591 C45.7108901,90.9076591 45.8128901,90.7126591 45.9808901,90.3896591 C45.9848901,91.4266591 45.9848901,91.4266591 44.9348901,91.7876591 C44.9528901,91.9676591 44.9718901,92.1526591 44.9958901,92.3796591 C45.4228901,91.9006591 45.4228901,91.9006591 45.9408901,92.2426591 C45.1058901,93.4406591 45.1058901,93.4406591 45.9018901,94.2316591 C45.6748901,94.6796591 45.2068901,95.2746591 45.3238901,95.4316591 C45.7778901,96.0366591 45.1588901,96.6206591 45.3918901,97.0886591 C45.6888901,97.6816591 45.7148901,98.1666591 45.3598901,98.6966591 C45.8928901,99.1436591 45.4878901,99.4226591 45.1778901,99.6476591 C45.3788901,99.8586591 45.5438901,100.032659 45.8938901,100.400659 C45.3168901,100.363659 45.0248901,100.344659 44.4898901,100.310659 C45.0258901,100.662659 45.3558901,100.880659 45.5698901,101.020659 C45.4128901,102.450659 45.3058901,103.773659 44.3988901,104.816659 C44.6728901,105.053659 44.8518901,105.209659 45.2268901,105.534659 C44.7068901,105.571659 44.4458901,105.602659 44.1838901,105.604659 C43.7688901,105.607659 43.3188901,105.484659 42.9438901,105.603659 C41.7718901,105.974659 40.6428901,106.111659 39.8578901,105.826659 C39.1398901,105.566659 38.5318901,105.024659 37.7118901,105.007659 C37.6378901,105.006659 37.5708901,104.680659 37.5008901,104.507659 L37.5008901,104.507659 Z M76.7618901,32.3086591 C76.2188901,32.1896591 75.7978901,31.7296591 75.2178901,31.7376591 C74.9448901,31.7406591 74.6408901,31.9296591 74.4098901,31.8556591 C74.1698901,31.7776591 73.9988901,31.4816591 73.7978901,31.2816591 C73.7288901,31.3176591 73.6598901,31.3526591 73.5908901,31.3876591 C73.6848901,31.7436591 73.7788901,32.0996591 73.9108901,32.5996591 C73.4298901,32.5686591 73.0818901,32.5466591 72.6398901,32.5176591 C72.7488901,33.0146591 72.8518901,33.4856591 72.9978901,34.1506591 C73.2208901,33.7016591 73.2928901,33.3396591 73.4398901,33.3046591 C73.8178901,33.2176591 74.2298901,33.2756591 74.4548901,33.2756591 C74.6038901,32.9176591 74.6478901,32.5656591 74.8458901,32.3886591 C75.1718901,32.0976591 75.2858901,32.5496591 75.5088901,32.6756591 C76.0178901,32.9656591 76.5098901,32.9596591 76.7208901,32.2606591 C77.2468901,32.4186591 77.7718901,32.5756591 78.3098901,32.7356591 C78.2238901,32.2756591 78.3518901,31.6966591 77.5388901,31.4306591 C77.3098901,31.6896591 77.0358901,31.9996591 76.7618901,32.3086591 L76.7618901,32.3086591 Z M70.5938901,43.8226591 C70.1198901,44.2066591 69.6538901,44.2466591 69.1598901,43.8396591 C68.8218901,43.5596591 68.4268901,43.3906591 67.9168901,43.4976591 C68.5958901,44.0536591 69.2758901,44.6106591 70.0698901,45.2616591 C70.2618901,44.6706591 70.4068901,44.2236591 70.5518901,43.7776591 C70.8298901,43.9176591 71.1078901,44.0566591 71.4208901,44.2156591 C71.9508901,43.5736591 71.2978901,43.3266591 71.0478901,42.8766591 C70.8928901,43.1016591 70.7678901,43.2476591 70.6858901,43.4146591 C70.6258901,43.5366591 70.6218901,43.6856591 70.5938901,43.8226591 L70.5938901,43.8226591 Z M76.7918901,38.5116591 C75.6358901,38.5466591 74.8728901,39.0906591 74.7168901,39.9906591 C74.1268901,39.9796591 73.4948901,39.8256591 72.9958901,40.6326591 C73.4618901,40.5106591 73.7898901,40.4256591 74.1178901,40.3406591 C74.8368901,41.4376591 74.8318901,41.4326591 73.9558901,42.2406591 C73.8678901,42.3216591 73.8748901,42.5036591 73.8378901,42.6376591 C73.1068901,42.7686591 73.4258901,41.9786591 73.0608901,41.7636591 C72.8028901,41.8426591 72.5318901,41.9246591 72.2808901,42.0006591 C71.8828901,41.4076591 71.5078901,40.8486591 71.1328901,40.2916591 C70.8958901,40.2916591 70.7018901,40.2776591 70.5098901,40.2946591 C70.2838901,40.3146591 70.0608901,40.3616591 69.8348901,40.3976591 C69.8048901,40.7296591 69.7838901,40.9676591 69.7618901,41.2176591 C69.9808901,41.0766591 70.2148901,40.8256591 70.3258901,40.8716591 C70.8078901,41.0706591 71.2548901,41.3556591 71.7148901,41.6096591 C71.5728901,42.7056591 72.8638901,42.4526591 73.0718901,43.3506591 C73.4088901,43.0036591 73.6058901,42.8006591 73.8028901,42.5966591 C73.9918901,42.5736591 74.1978901,42.5916591 74.3688901,42.5216591 C76.0438901,41.8466591 77.7948901,41.6596591 79.5688901,41.7916591 C82.0308901,41.9746591 84.4188901,42.5246591 86.6638901,43.5796591 C88.0518901,44.2316591 89.4138901,44.9376591 90.9788901,45.7156591 C89.8118901,43.1176591 89.1838901,40.5206591 87.6798901,38.3026591 C87.1848901,37.5726591 86.6048901,36.8846591 86.2218901,36.0986591 C85.2928901,34.1936591 84.1178901,32.4536591 82.9368901,30.7036591 C80.8868901,27.6656591 78.2818901,25.1346591 75.6768901,22.6126591 C73.4838901,20.4896591 70.9028901,18.8946591 68.2638901,17.3416591 C63.5528901,14.5666591 58.4248901,13.5106591 53.0998901,13.1606591 C50.9438901,13.0176591 48.8108901,12.8976591 46.7358901,12.2576591 C46.0308901,12.0396591 45.5678901,11.7136591 45.4848901,10.8636591 C45.3958901,9.9556591 45.0928901,9.0686591 44.8748901,8.1316591 C44.7868901,8.2536591 44.6968901,8.3206591 44.6948901,8.3906591 C44.6778901,9.0756591 44.6828901,9.7606591 44.6688901,10.4466591 C44.6418901,11.7496591 44.5108901,11.8776591 43.2448901,11.9236591 C42.5578901,11.9486591 41.8488901,11.8916591 41.1898901,12.0426591 C37.9888901,12.7706591 34.7398901,13.3666591 31.6258901,14.3716591 C27.4808901,15.7096591 23.3408901,17.1596591 19.7748901,19.8066591 C19.6978901,19.8646591 19.5928901,19.8846591 19.5148901,19.9426591 C17.2648901,21.6026591 14.8098901,23.0516591 12.8208901,24.9816591 C10.3308901,27.3966591 8.2038901,30.1896591 5.9708901,32.8606591 C5.4778901,33.4496591 5.1518901,34.1936591 4.8228901,34.9006591 C3.3448901,38.0806591 2.4068901,41.4246591 1.9068901,44.8886591 C1.7798901,45.7686591 1.4958901,46.6566591 1.7378901,47.5176591 C2.6958901,46.8846591 3.5638901,46.2746591 4.4668901,45.7206591 C6.3458901,44.5686591 8.4578901,44.1336591 10.5948901,43.7686591 C11.3958901,43.6336591 12.1968901,43.1776591 12.9638901,43.2476591 C13.8778901,43.3306591 14.3798901,42.5696591 15.2728901,42.5256591 C15.6518901,42.8416591 16.0898901,43.2056591 16.5538901,43.5916591 C16.7868901,43.4456591 16.9878901,43.3216591 17.1878901,43.1966591 C17.5558901,42.9256591 17.9248901,42.6526591 18.2968901,42.3786591 C17.9658901,42.0166591 17.6128901,41.9406591 17.3618901,42.3916591 C17.2318901,42.6256591 17.2698901,42.9526591 17.2328901,43.2366591 C16.4528901,43.3286591 16.6308901,42.7646591 16.6138901,42.3346591 C17.2338901,41.8966591 17.4688901,41.3796591 16.9988901,40.7196591 C16.0308901,41.1156591 16.7518901,41.8156591 16.6548901,42.3716591 C16.3758901,42.3056591 16.0968901,42.2416591 15.6958901,42.1486591 C16.4138901,41.1336591 15.2428901,40.7436591 15.2148901,39.9546591 C15.1178901,39.9796591 15.0218901,40.0066591 14.9258901,40.0316591 C15.0208901,40.4776591 15.1158901,40.9236591 15.2188901,41.4006591 C14.8048901,41.6816591 14.3268901,42.0076591 13.8488901,42.3326591 L13.6768901,42.1416591 C13.8748901,41.8016591 14.0728901,41.4606591 14.3128901,41.0476591 C12.8218901,41.0486591 12.8448901,41.9816591 12.9758901,42.9146591 C11.8078901,42.8116591 11.8078901,42.8116591 11.4248901,41.8226591 C11.6668901,41.5546591 11.9038901,41.2936591 12.1398901,41.0326591 C11.7668901,40.9446591 11.3888901,40.9926591 11.3148901,41.1686591 C11.0838901,41.7136591 10.9678901,42.3066591 10.7888901,42.9506591 C10.3918901,42.7416591 9.6658901,42.5696591 9.6278901,42.3016591 C9.4918901,41.3406591 8.7988901,41.9506591 8.3918901,41.7256591 C8.3058901,41.2716591 8.4558901,40.6166591 7.5138901,40.6046591 C7.3048901,40.9406591 7.0558901,41.3386591 6.8078901,41.7356591 C6.6808901,41.7156591 6.5548901,41.6946591 6.4288901,41.6736591 C6.4608901,41.2496591 6.4928901,40.8256591 6.5238901,40.4056591 C5.7688901,39.8186591 5.5568901,39.1836591 5.8408901,38.1476591 C5.8778901,38.0146591 6.2028901,37.9606591 6.4798901,37.8296591 C6.6908901,38.5806591 6.8688901,39.2176591 7.0598901,39.8986591 C7.2018901,39.5676591 7.3198901,39.2956591 7.5048901,38.8626591 C7.7178901,39.4586591 7.8538901,39.8396591 8.0418901,40.3626591 C8.3938901,39.9996591 8.6348901,39.7516591 9.0548901,39.3166591 C7.8018901,39.0776591 7.8008901,38.1336591 7.5848901,37.3206591 C7.4318901,37.9136591 7.3918901,37.9666591 6.9578901,38.0896591 C6.8328901,37.1136591 6.7098901,36.1496591 6.5768901,35.1096591 L8.6988901,35.1096591 C8.3558901,34.4546591 8.0658901,33.9026591 7.7908901,33.3786591 C8.4388901,32.7886591 8.6898901,33.5166591 9.1608901,33.6636591 C9.3208901,32.9846591 9.6508901,32.4116591 10.3748901,31.8126591 L10.3748901,33.3316591 C10.5688901,32.2006591 11.6478901,31.9096591 12.2678901,31.2546591 C12.5578901,30.9486591 13.1248901,31.1156591 13.2108901,31.5436591 C13.3478901,32.2296591 13.8958901,32.2756591 14.3638901,32.6236591 C14.5518901,32.3196591 14.6948901,32.0906591 14.8458901,31.8466591 C13.9688901,31.5586591 13.7538901,30.4486591 12.8138901,30.5226591 C12.6378901,29.8966591 13.1558901,29.2646591 12.4868901,28.8596591 C12.7038901,28.5536591 12.9198901,28.2476591 13.1418901,27.9456591 C13.1518901,27.9326591 13.2208901,27.9646591 13.3008901,27.9856591 C13.4298901,28.2696591 13.5698901,28.5766591 13.7068901,28.8796591 C13.5078901,29.2626591 13.3168901,29.6276591 13.0678901,30.1046591 C13.5368901,30.0796591 13.9658901,30.1846591 14.1338901,30.0226591 C14.7068901,29.4666591 14.9578901,29.4966591 15.2248901,30.2876591 C15.3548901,30.6706591 15.8548901,30.5196591 16.0238901,30.0486591 C16.0828901,29.8826591 16.0938901,29.7006591 16.1098901,29.6136591 C16.4458901,29.5056591 16.6768901,29.4416591 16.8978901,29.3546591 C17.1038901,29.2746591 17.3008901,29.1696591 17.5008901,29.0756591 C17.0668901,27.9466591 16.6168901,29.1536591 16.1768901,28.9256591 C16.0788901,28.7546591 15.9688901,28.5586591 15.8708901,28.3846591 C15.2118901,28.0696591 15.5328901,29.5486591 14.7478901,28.9726591 C14.7108901,28.4376591 15.2758901,27.8966591 14.6978901,27.3926591 C13.9378901,27.7736591 13.9378901,27.7736591 13.2908901,26.8316591 C13.8178901,26.7266591 14.3188901,26.5966591 14.8278901,26.5476591 C14.9788901,26.5316591 15.2308901,26.7056591 15.2988901,26.8556591 C15.4308901,27.1466591 15.4658901,27.4826591 15.5638901,27.8956591 C15.9648901,27.8116591 16.4268901,28.3706591 16.8368901,27.6496591 C16.5188901,27.4716591 16.2008901,27.2946591 15.7448901,27.0396591 C16.1148901,26.7706591 16.3978901,26.5656591 16.7808901,26.2886591 C17.0018901,26.8006591 17.1558901,27.1566591 17.2548901,27.3876591 C17.7668901,27.0626591 18.2028901,26.7866591 18.6458901,26.5056591 C18.1048901,26.2616591 17.5518901,25.7826591 17.1258901,25.8766591 C16.4798901,26.0186591 15.9448901,26.1666591 15.3188901,25.6606591 C15.4298901,25.3496591 15.5498901,25.0186591 15.6848901,24.6436591 C16.0328901,24.8256591 16.2708901,24.9496591 16.5168901,25.0776591 C16.5768901,24.8216591 16.6288901,24.6016591 16.7128901,24.2456591 C17.3418901,24.4206591 17.8778901,24.5696591 18.4788901,24.7366591 C18.4358901,24.4876591 18.4698901,24.2136591 18.3488901,24.0666591 C17.9148901,23.5396591 17.9048901,23.4026591 18.4148901,23.1366591 C18.6738901,23.0026591 18.9308901,22.8616591 19.2348901,22.7006591 C19.1968901,23.1846591 19.3508901,23.6006591 20.0538901,23.3556591 C19.4058901,22.5116591 19.3958901,22.2176591 20.0818901,21.8426591 C22.4168901,20.5696591 24.7598901,19.3116591 27.1108901,18.0686591 C27.8318901,17.6876591 28.5708901,17.3266591 29.3328901,17.0386591 C30.0128901,16.7816591 30.7398901,16.6496591 31.4398901,16.4416591 C33.3498901,15.8756591 35.2508901,15.2726591 37.1698901,14.7386591 C37.6888901,14.5936591 38.2758901,14.3416591 38.8718901,14.8376591 C38.6258901,15.1046591 38.4158901,15.3716591 38.1688901,15.5976591 C34.9868901,18.5096591 32.5508901,22.0066591 30.3138901,25.6516591 C28.5748901,28.4856591 27.6968901,31.6816591 26.8008901,34.8306591 C25.9298901,37.8866591 25.3738901,41.0366591 24.7408901,44.1576591 C24.4958901,45.3696591 24.5228901,46.6146591 24.6478901,47.9676591 C25.2918901,47.5906591 25.7938901,47.2946591 26.2418901,47.0316591 C26.2578901,46.7196591 26.2708901,46.4796591 26.2848901,46.2056591 C26.6358901,46.3746591 27.0158901,46.6396591 27.0838901,46.5756591 C27.3628901,46.3116591 27.5468901,45.9476591 27.7758901,45.6036591 C28.2188901,45.5826591 28.6918901,45.5586591 29.1488901,45.5356591 C29.1228901,45.2406591 29.1028901,45.0216591 29.0908901,44.8796591 C29.4748901,44.5646591 29.6818901,45.6336591 30.0108901,44.8376591 C30.0518901,44.7406591 30.2768901,44.6396591 30.3878901,44.6656591 C31.5538901,44.9316591 32.1978901,44.3096591 32.6778901,43.3736591 C32.7138901,43.3046591 32.8408901,43.2836591 33.0208901,43.1906591 C33.0368901,43.5176591 33.0508901,43.8006591 33.0698901,44.2066591 C33.6798901,44.0056591 34.1758901,43.8426591 34.6068901,43.6996591 C34.6408901,43.2116591 34.6638901,42.8686591 34.6978901,42.3876591 C35.1278901,42.7606591 35.4178901,43.0116591 35.6818901,43.2416591 C36.5108901,43.1236591 37.2358901,42.9366591 37.3978901,42.0066591 C38.4018901,42.4206591 38.4018901,42.4206591 39.5568901,42.1686591 C39.6568901,41.6626591 39.8848901,41.1926591 40.5228901,41.1246591 L40.5228901,42.0486591 C41.2908901,41.9326591 42.0968901,42.1636591 42.1728901,41.0726591 C42.1738901,41.0576591 42.5978901,41.0066591 42.7628901,41.0926591 C42.8958901,41.1616591 42.9338901,41.4126591 42.9978901,41.5476591 C43.9188901,41.4956591 44.7848901,41.4456591 45.8038901,41.3876591 C45.3628901,41.1326591 45.0588901,40.9556591 44.7808901,40.7946591 C44.9798901,39.6046591 45.7328901,40.7876591 46.0868901,40.4456591 L46.0868901,39.9526591 C46.3938901,40.0256591 46.8538901,40.0016591 46.9778901,40.1936591 C47.2238901,40.5746591 46.7728901,40.7396591 46.5228901,40.9526591 C46.4458901,41.0176591 46.4598901,41.1876591 46.4268901,41.3376591 C47.0478901,41.5236591 47.5638901,41.4876591 48.1708901,41.3376591 C48.6608901,41.2166591 49.2898901,41.7606591 49.8328901,41.7166591 C50.7508901,41.6396591 51.6258901,41.6736591 52.5198901,41.8736591 C52.9198901,41.9636591 53.4878901,41.7196591 53.7478901,41.9246591 C54.4998901,42.5126591 55.0618901,42.1866591 55.6218901,41.6716591 C56.0438901,42.1576591 56.7098901,42.2236591 56.8108901,42.9646591 C56.8558901,43.2916591 57.3068901,43.3116591 57.6548901,43.0576591 C58.0308901,42.7816591 58.4498901,42.5646591 58.9068901,42.2886591 C59.2228901,42.6236591 59.5108901,42.9276591 59.8138901,43.2476591 C59.2028901,43.6416591 59.2028901,43.6416591 58.5598901,43.1116591 C58.2268901,43.6206591 58.6148901,43.8506591 58.9678901,43.9986591 C60.2538901,44.5336591 61.4328901,45.6006591 62.9988901,44.8876591 C63.3898901,45.6656591 63.3848901,45.6766591 64.6608901,46.3196591 C65.3788901,46.6806591 66.1188901,46.9966591 66.8928901,47.3526591 C66.8978901,45.3416591 66.4278901,43.5586591 65.8708901,41.7816591 C65.0358901,39.1176591 64.4098901,36.3806591 63.4428901,33.7666591 C61.9988901,29.8666591 60.2828901,26.0916591 58.1218901,22.4956591 C56.6928901,20.1176591 54.8668901,18.2276591 52.8308901,16.4516591 C52.5088901,16.1706591 52.2008901,15.8556591 51.9558901,15.5096591 C51.8788901,15.3996591 52.0268901,15.1316591 52.1278901,14.6866591 C52.4448901,15.1546591 52.6098901,15.3996591 52.7748901,15.6436591 C52.9308901,15.4746591 53.0898901,15.3026591 53.3878901,14.9806591 C53.5908901,15.2776591 53.7488901,15.5096591 53.9058901,15.7406591 C54.0908901,15.5636591 54.2598901,15.4016591 54.5218901,15.1506591 C54.6688901,15.4806591 54.7858901,15.7416591 54.9168901,16.0346591 C55.1728901,15.8486591 55.4248901,15.6676591 55.7568901,15.4266591 C55.8848901,15.7746591 55.9748901,16.0166591 56.0728901,16.2816591 C56.4568901,16.1106591 56.7868901,15.4666591 57.2458901,16.1366591 C58.2568901,16.1236591 59.1658901,16.5556591 60.0818901,16.8676591 C62.8708901,17.8176591 65.6908901,18.7206591 68.1618901,20.4076591 C68.6138901,20.7166591 69.3068901,20.9276591 69.4708901,21.3466591 C69.7378901,22.0286591 70.3548901,21.8196591 70.7538901,22.0926591 C71.2918901,22.4606591 71.3368901,23.2386591 72.0258901,23.4236591 C72.0808901,23.4386591 72.0368901,23.7896591 72.0608901,23.9816591 C72.0688901,24.0406591 72.1488901,24.0896591 72.1898901,24.1346591 C72.3618901,23.9816591 72.5288901,23.8336591 72.8018901,23.5886591 C73.0738901,24.4626591 73.6768901,24.7966591 74.6128901,24.8956591 C74.1608901,25.2056591 73.8838901,25.3276591 73.7058901,25.5356591 C73.4668901,25.8156591 73.3038901,26.1606591 73.1158901,26.4656591 C72.7538901,26.3816591 72.4738901,26.3156591 72.2408901,26.2606591 C72.0088901,26.4946591 71.7898901,26.7126591 71.4808901,27.0196591 C71.3478901,26.6396591 71.2698901,26.4196591 71.1818901,26.1686591 C70.4178901,26.5866591 70.6648901,27.0266591 71.1098901,27.5416591 C71.4208901,27.4596591 71.7808901,27.3976591 72.1138901,27.2656591 C72.4838901,27.1206591 72.8288901,26.9106591 73.2918901,26.6746591 C73.4398901,27.2366591 73.5368901,27.6076591 73.6348901,27.9776591 C73.5808901,26.4086591 75.4068901,27.2396591 75.7208901,26.0386591 C76.0588901,26.5856591 76.2928901,26.9616591 76.5758901,27.4196591 C76.0758901,27.5466591 75.7568901,27.6276591 75.3788901,27.7226591 C75.3078901,28.2006591 75.2388901,28.6646591 75.1678901,29.1366591 C75.5148901,29.2966591 75.7878901,29.4206591 76.1068901,29.5656591 C76.0478901,29.0046591 76.0008901,28.5516591 75.9548901,28.1086591 C76.3578901,28.1606591 76.6388901,28.1966591 76.9188901,28.2326591 C76.8678901,29.2156591 76.9048901,29.2486591 78.5048901,29.5826591 C78.1578901,29.8096591 77.9078901,29.9736591 77.6188901,30.1646591 C77.7808901,30.4466591 77.9368901,30.7166591 78.1808901,31.1386591 C78.5618901,30.6726591 78.8358901,30.3376591 79.0998901,30.0146591 C79.8278901,30.5946591 79.9418901,31.3476591 79.9438901,32.2156591 C80.0468901,31.9986591 80.1508901,31.7816591 80.2548901,31.5636591 C80.3528901,31.6286591 80.4518901,31.6916591 80.5508901,31.7556591 C80.5128901,31.9996591 80.4748901,32.2426591 80.4398901,32.4726591 C80.7608901,32.6056591 81.0918901,32.7416591 81.3598901,32.8516591 C81.1048901,33.8696591 80.3838901,32.6416591 79.9218901,33.3336591 C79.6258901,33.7756591 78.8188901,32.6646591 78.2808901,33.4956591 C78.3058901,33.8246591 78.3328901,34.1906591 78.3618901,34.5816591 C77.7978901,34.6466591 77.3328901,34.6996591 76.8628901,34.7536591 C76.9898901,35.6026591 77.1038901,36.3626591 77.2168901,37.1136591 C77.6188901,37.0916591 77.9518901,37.0726591 78.2848901,37.0536591 L78.2278901,37.0096591 C78.2798901,37.2226591 78.3348901,37.6226591 78.3818901,37.6216591 C79.0328901,37.6086591 79.0578901,38.2746591 79.3468901,38.5916591 C80.0908901,38.3236591 79.7898901,37.8366591 79.6688901,37.4796591 C79.2878901,36.3556591 79.2248901,35.2436591 79.4738901,34.3356591 C80.3418901,34.0596591 81.0198901,33.8436591 81.7928901,33.5986591 C81.8138901,33.7766591 81.9498901,34.1766591 81.8528901,34.2456591 C81.3328901,34.6146591 81.6048901,35.1346591 81.5108901,35.5766591 C81.1228901,35.3896591 80.7378901,35.1976591 80.3438901,35.0236591 C80.2838901,34.9976591 80.1838901,35.0606591 80.1068901,35.0816591 C80.1448901,35.4426591 80.1818901,35.7956591 80.2408901,36.3456591 C80.7258901,36.0286591 81.1028901,35.7826591 81.4798901,35.5376591 C81.9208901,35.6796591 82.3628901,35.8226591 82.8358901,35.9746591 C82.6808901,36.2446591 82.3448901,36.6746591 82.4088901,36.7446591 C82.9158901,37.3066591 82.5208901,37.9446591 82.6348901,38.5246591 L82.6718901,38.4846591 C81.9108901,38.3146591 82.1688901,37.5286591 81.9798901,37.2696591 C81.2228901,37.0846591 80.6558901,36.9456591 79.9808901,36.7806591 C80.8668901,38.3986591 80.7648901,38.8096591 79.3698901,39.8896591 C79.0688901,40.1236591 78.8068901,40.4086591 78.5078901,40.6866591 C78.0948901,40.6406591 77.7958901,39.8916591 77.2678901,40.4426591 C77.1938901,40.2806591 77.1188901,40.1186591 77.0448901,39.9576591 C77.2378901,39.4566591 77.4648901,38.9656591 77.5968901,38.4496591 C77.6298901,38.3226591 77.3748901,37.9966591 77.2168901,37.9696591 C76.8598901,37.9096591 76.7178901,38.1586591 76.7918901,38.5116591 L76.7918901,38.5116591 Z M78.4898901,55.2516591 C78.7048901,55.2716591 79.0848901,55.3596591 79.1088901,55.3016591 C79.3698901,54.6666591 79.8668901,54.1106591 79.7758901,53.3396591 C79.3608901,53.9886591 78.9468901,54.6376591 78.5308901,55.2876591 C78.2298901,55.6346591 77.9278901,55.9816591 77.5148901,56.4576591 C77.8988901,56.5676591 78.1078901,56.6276591 78.4898901,56.7376591 L78.4898901,55.2516591 Z M9.2398901,37.0306591 C9.1268901,36.7286591 9.0128901,36.4266591 8.8818901,36.0796591 C8.6148901,36.2106591 8.4358901,36.2806591 8.2778901,36.3846591 C8.2238901,36.4196591 8.2248901,36.5366591 8.1728901,36.7106591 C8.5438901,36.8086591 8.9058901,36.9046591 9.2668901,37.0016591 C9.1128901,37.2306591 8.9648901,37.4656591 8.8018901,37.6886591 C8.5458901,38.0406591 8.6188901,38.2996591 8.9688901,38.4826591 C9.3738901,38.0746591 9.7608901,37.6826591 10.1488901,37.2916591 C10.5728901,38.0316591 11.2408901,37.5256591 11.7938901,37.6046591 C11.8618901,37.6146591 11.9468901,37.5066591 12.0718901,37.4196591 C11.9338901,37.1196591 11.7938901,36.8096591 11.6528901,36.4996591 C11.5698901,36.5176591 11.4868901,36.5356591 11.4028901,36.5526591 C11.3878901,36.7586591 11.3728901,36.9636591 11.3528901,37.2356591 C10.9878901,37.2616591 10.5568901,37.2936591 10.1268901,37.3246591 C9.9778901,36.7826591 9.5548901,37.0696591 9.2398901,37.0306591 L9.2398901,37.0306591 Z M62.4208901,90.3346591 C61.3088901,90.0816591 60.4508901,89.8916591 59.5968901,89.6866591 C59.2638901,89.6066591 58.9308901,89.5116591 58.6108901,89.3896591 C57.7018901,89.0466591 57.5888901,88.6056591 58.2098901,87.8606591 C59.2458901,86.6156591 60.2908901,85.3786591 61.3218901,84.1296591 C61.4898901,83.9246591 61.6068901,83.6756591 61.6788901,83.3256591 C56.9448901,85.7776591 52.0868901,86.8286591 46.8978901,85.0376591 C46.4188901,86.4216591 47.0048901,87.5326591 47.6018901,88.4526591 C48.0518901,89.1456591 48.1728901,89.7696591 48.1598901,90.4956591 C48.0938901,94.0796591 48.0348901,97.6646591 47.9228901,101.247659 C47.8878901,102.367659 47.7528901,103.492659 47.5628901,104.597659 C47.2118901,106.645659 45.7538901,108.535659 43.0288901,108.640659 C41.2178901,108.711659 39.4098901,108.790659 37.6448901,108.124659 C36.2708901,107.604659 35.1278901,106.812659 34.1418901,105.759659 C32.0168901,103.491659 32.6248901,99.6736591 35.3448901,98.1786591 C36.3628901,97.6206591 37.4368901,97.6926591 38.4928901,98.0126591 C39.1588901,98.2156591 39.5288901,98.7416591 39.5688901,99.4476591 C39.5928901,99.8876591 39.5558901,100.331659 39.5618901,100.773659 C39.5668901,101.116659 39.5708901,101.463659 39.6178901,101.801659 C39.7108901,102.466659 40.1618901,102.848659 40.7598901,103.009659 C41.3778901,103.176659 41.8588901,102.825659 42.0688901,102.299659 C42.3888901,101.492659 42.7628901,100.643659 42.7988901,99.8006591 C42.9008901,97.3966591 42.7878901,94.9856591 42.8638901,92.5816591 C42.9388901,90.1936591 43.1388901,87.8096591 43.2888901,85.4246591 C43.3098901,85.0816591 43.3728901,84.7416591 43.3818901,84.3986591 C43.4118901,83.1406591 42.3818901,82.1026591 41.1118901,82.0686591 C38.8078901,82.0066591 36.4968901,82.0266591 34.2038901,81.8336591 C31.7598901,81.6266591 29.5208901,80.7926591 27.7458901,78.9856591 C27.3678901,78.5996591 27.0068901,78.2246591 26.3768901,78.2556591 C24.0178901,78.3696591 21.8678901,77.6196591 19.5908901,76.4416591 C20.0178901,78.2286591 20.3978901,79.8196591 20.8008901,81.5046591 C22.3268901,81.2586591 23.7198901,81.0386591 25.1108901,80.8066591 C26.1338901,80.6366591 26.4708901,80.7616591 26.7508901,81.7506591 C27.5398901,84.5316591 28.3128901,87.3186591 29.0008901,90.1256591 C29.7828901,93.3156591 30.4728901,96.5296591 31.1878901,99.7366591 C31.2828901,100.163659 31.3508901,100.612659 31.3208901,101.044659 C31.2808901,101.618659 30.6548901,101.855659 30.2478901,101.455659 C29.9748901,101.186659 29.7678901,100.833659 29.5928901,100.487659 C27.8118901,96.9926591 26.0358901,93.4956591 24.2808901,89.9876591 C23.9788901,89.3836591 23.7848901,88.7246591 23.5058901,88.0006591 C21.5028901,88.4496591 19.5488901,88.8786591 17.5978901,89.3276591 C16.3528901,89.6136591 16.1878901,89.4656591 16.0618901,88.1846591 C15.7078901,84.5736591 15.2898901,80.9686591 14.9488901,77.3566591 C14.8158901,75.9446591 14.8198901,74.5206591 14.7598901,73.0656591 C14.5798901,72.9796591 14.4148901,72.8826591 14.2368901,72.8176591 C11.1068901,71.6966591 9.3968901,69.1126591 9.4898901,65.8376591 C9.5578901,63.4236591 10.2148901,61.2796591 12.0028901,59.5976591 C12.5598901,59.0746591 12.5198901,58.4536591 12.5208901,57.8366591 C12.5268901,54.9866591 12.4928901,52.1376591 12.4838901,49.2886591 C12.4818901,48.7656591 12.5268901,48.2436591 12.5488901,47.7636591 C13.1978901,47.6036591 13.3388901,47.9306591 13.3468901,48.2916591 C13.4148901,51.0706591 14.5418901,53.6376591 14.9398901,56.3516591 C14.9948901,56.7256591 15.1698901,57.0826591 15.3078901,57.5066591 C16.6788901,57.2206591 17.9518901,57.0376591 19.1168901,56.1346591 C21.4078901,54.3586591 24.1338901,53.4286591 26.9728901,53.0196591 C28.2018901,52.8426591 29.5098901,53.1376591 30.7718901,53.2946591 C31.7418901,53.4156591 32.7168901,53.5886591 33.6548901,53.8596591 C34.8658901,54.2096591 36.0418901,54.6796591 37.3418901,55.1356591 C39.1888901,53.6816591 41.0748901,52.0926591 43.5638901,51.2816591 C43.7808901,48.5226591 43.6988901,45.7526591 43.7558901,42.7826591 C36.9188901,43.8996591 30.4968901,45.6206591 24.6748901,49.1756591 C24.4158901,49.8226591 24.8988901,50.6616591 24.1258901,51.0836591 C23.8798901,51.2176591 23.5678901,51.3406591 23.3018901,51.3116591 C22.4358901,51.2176591 22.1678901,50.4086591 22.5248901,49.0896591 C18.2468901,43.0236591 5.7988901,43.6546591 1.8658901,49.2286591 C1.9808901,49.5486591 2.2258901,49.9106591 2.2068901,50.2596591 C2.1858901,50.6546591 2.0228901,51.1296591 1.7518901,51.4026591 C1.3708901,51.7876591 0.776890096,51.7356591 0.421890096,51.3526591 C0.161890096,51.0736591 -0.0141099045,50.5896591 3.55271368e-14,50.2056591 C0.0408900955,49.1876591 0.262890096,48.1776591 0.309890096,47.1606591 C0.529890096,42.4376591 1.8168901,37.9916591 3.7838901,33.7306591 C4.2308901,32.7606591 4.8818901,31.8686591 5.5358901,31.0146591 C8.4778901,27.1756591 11.7618901,23.6776591 15.7968901,20.9466591 C17.5828901,19.7366591 19.2788901,18.3686591 21.1548901,17.3216591 C23.1158901,16.2256591 25.2178901,15.3676591 27.3048901,14.5166591 C31.2248901,12.9196591 35.2678901,11.7456591 39.5098901,11.3986591 C40.4868901,11.3186591 41.4738901,11.3626591 42.4558901,11.3536591 C43.3698901,11.3456591 43.5868901,11.1736591 43.6358901,10.2716591 C43.6788901,9.4906591 43.6638901,8.7066591 43.6708901,7.9246591 C43.6878901,6.0076591 43.6978901,4.0916591 43.7198901,2.1756591 C43.7298901,1.3846591 43.7798901,0.599659104 44.4858901,4.26325641e-14 C45.3408901,-0.0213408957 45.6938901,0.509659104 45.7918901,1.2556591 C45.9908901,2.7616591 46.1538901,4.2736591 46.3308901,5.7846591 C46.4398901,6.7096591 46.5158901,7.6396591 46.6618901,8.5586591 C47.0078901,10.7386591 47.3728901,11.4896591 50.0148901,11.6286591 C52.6138901,11.7636591 55.2018901,11.9236591 57.7878901,12.2166591 C61.3488901,12.6206591 64.6738901,13.7256591 67.8088901,15.4276591 C69.2308901,16.2006591 70.6478901,16.9876591 72.0218901,17.8426591 C74.2838901,19.2496591 76.2498901,21.0236591 78.0988901,22.9336591 C78.8838901,23.7446591 79.6998901,24.5276591 80.4648901,25.3576591 C83.1718901,28.2946591 85.4858901,31.5066591 87.2908901,35.0806591 C87.6428901,35.7766591 88.1188901,36.4106591 88.5518901,37.0636591 C90.4998901,40.0036591 91.5118901,43.3386591 92.6238901,46.6336591 C92.7918901,47.1316591 92.9918901,47.6346591 93.2728901,48.0736591 C93.6038901,48.5926591 93.6858901,49.0666591 93.3148901,49.5646591 C92.9808901,50.0136591 92.5038901,50.1266591 91.9978901,49.9486591 C91.4198901,49.7446591 91.1598901,49.2946591 91.2278901,48.6776591 C91.2538901,48.4436591 91.3098901,48.2126591 91.3658901,47.9106591 C90.9258901,47.5166591 90.5328901,47.0616591 90.0478901,46.7516591 C86.9098901,44.7476591 83.5678901,43.2596591 79.8018901,42.9616591 C76.0238901,42.6616591 72.8708901,43.9246591 70.4108901,46.8376591 C69.9998901,47.3246591 69.5938901,47.8156591 69.1578901,48.3396591 C69.2158901,48.6076591 69.3268901,48.8856591 69.3228901,49.1636591 C69.3178901,49.7036591 69.0298901,50.1036591 68.5148901,50.2726591 C68.0058901,50.4396591 67.4418901,50.3606591 67.2138901,49.8736591 C66.6998901,48.7726591 65.6998901,48.4046591 64.7058901,48.0006591 C63.0728901,47.3366591 61.4248901,46.7066591 59.7978901,46.0256591 C58.2188901,45.3656591 56.6848901,44.5896591 55.0818901,43.9966591 C54.0378901,43.6096591 52.9188901,43.3606591 51.8118901,43.2286591 C50.2688901,43.0456591 48.7048901,43.0286591 47.1468901,42.9396591 L47.1468901,50.9266591 C50.0398901,51.1856591 52.8428901,51.8046591 54.6988901,54.2166591 C60.5368901,52.8596591 65.6218901,53.6446591 69.5838901,58.4216591 C70.9898901,58.6536591 72.4258901,58.8906591 73.9968901,59.1496591 C75.3158901,57.5096591 76.7448901,55.8296591 78.0628901,54.0656591 C79.3728901,52.3126591 80.5428901,50.4546591 82.2358901,48.9856591 C82.1028901,51.3376591 80.9738901,53.3656591 80.2168901,55.4996591 C79.4658901,57.6146591 78.5518901,59.6726591 77.6778901,61.8346591 C77.8738901,62.1166591 78.1128901,62.4836591 78.3718901,62.8356591 C79.9288901,64.9486591 80.2098901,67.3606591 79.8758901,69.8516591 C79.6678901,71.4086591 78.7988901,72.6536591 77.5348901,73.6276591 C75.6808901,75.0566591 73.5908901,75.7706591 71.1878901,75.7446591 C69.6368901,78.5076591 68.1058901,81.2346591 66.5518901,84.0036591 C68.6518901,84.0686591 70.6468901,84.1306591 72.6428901,84.1916591 C72.7408901,84.1946591 72.8468901,84.1826591 72.9348901,84.2166591 C73.3298901,84.3646591 73.8778901,84.4186591 74.0768901,84.7076591 C74.4078901,85.1906591 73.9488901,85.5946591 73.6068901,85.9596591 C69.9058901,89.8866591 66.1698901,93.7826591 62.5268901,97.7626591 C60.2338901,100.266659 57.7768901,102.590659 55.2768901,104.875659 C54.8928901,105.225659 54.5048901,105.818659 53.9198901,105.396659 C53.2578901,104.918659 53.7298901,104.336659 54.0098901,103.837659 C54.4898901,102.983659 54.9858901,102.137659 55.4998901,101.304659 C57.3778901,98.2606591 59.2628901,95.2196591 61.1558901,92.1846591 C61.5108901,91.6146591 61.9128901,91.0736591 62.4208901,90.3346591 L62.4208901,90.3346591 Z" id="Fill-356"></path>
            <path d="M42.3394901,121.451559 C42.5554901,120.847559 42.7574901,120.514559 42.7734901,120.172559 C42.7894901,119.829559 42.5594901,119.480559 42.5424901,119.129559 C42.5034901,118.336559 42.5294901,117.540559 42.5294901,116.745559 C42.1254901,118.202559 42.1824901,119.673559 42.3394901,121.451559 M40.7384901,119.017559 C40.9284901,117.864559 41.0964901,116.706559 41.3164901,115.558559 C41.5184901,114.506559 41.7564901,113.459559 42.0274901,112.423559 C42.0914901,112.178559 42.3654901,111.800559 42.5254901,111.808434 C42.8044901,111.825559 43.1414901,112.037559 43.3194901,112.269559 C43.5174901,112.527559 43.5964901,112.893559 43.6724901,113.224559 C44.2164901,115.605559 44.8134901,117.978559 45.2484901,120.380559 C45.4174901,121.311559 45.2864901,122.322559 45.1504901,123.276559 C45.0604901,123.913559 44.6574901,124.441559 43.9124901,124.556559 C42.9564901,124.705559 42.3284901,124.497559 41.9144901,123.701559 C41.1584901,122.247559 40.7554901,120.694559 40.7384901,119.017559" id="Fill-358"></path>
            <path d="M48.2803901,115.897859 C48.3543901,115.753859 48.4203901,115.674859 48.4373901,115.585859 C48.4953901,115.295859 48.9223901,115.024859 48.4973901,114.709859 C48.4353901,114.663859 48.2563901,114.654859 48.2523901,114.666859 C48.1603901,114.958859 48.0733901,115.252859 48.0183901,115.552859 C48.0063901,115.614859 48.1243901,115.699859 48.2803901,115.897859 M51.5093901,112.943859 C51.4793901,113.431859 51.5413901,113.949859 51.3973901,114.401859 C51.1653901,115.133859 50.8963901,115.892859 50.4633901,116.515859 C49.7903901,117.484859 48.5893901,117.761859 47.7463901,117.307859 C46.8363901,116.817859 46.3763901,115.407859 46.8443901,114.332859 C47.1153901,113.708859 47.5243901,113.143859 47.8453901,112.539859 C48.3703901,111.550859 48.8563901,110.541859 49.4023901,109.564859 C49.5493901,109.300859 49.8513901,108.955859 50.0863901,108.953838 C50.3343901,108.950859 50.7363901,109.265859 50.8123901,109.520859 C51.1483901,110.630859 51.3903901,111.769859 51.6663901,112.897859 C51.6143901,112.913859 51.5623901,112.927859 51.5093901,112.943859" id="Fill-360"></path>
            <path d="M37.7608901,116.024759 C37.7358901,116.223759 37.7188901,116.670759 37.6188901,117.098759 C37.3458901,118.255759 36.3298901,118.599759 35.3618901,117.898759 C34.5518901,117.311759 34.1768901,116.455759 33.9788901,115.536759 C33.5398901,113.497759 34.1018901,111.656759 35.2488901,109.968759 C35.5688901,109.499759 36.0488901,109.515759 36.3068901,109.967759 C36.8028901,110.835759 37.7698901,114.697759 37.7608901,116.024759" id="Fill-362"></path>
            <path d="M72.9454901,70.9769591 C72.9604901,70.8309591 73.0334901,70.6589591 72.9824901,70.5419591 C72.6494901,69.7959591 73.0694901,69.1369591 73.1434901,68.3219591 C73.6534901,68.6259591 73.4974901,69.0229591 73.5524901,69.3729591 C73.6414901,69.9309591 73.9284901,70.2669591 74.6244901,69.8649591 C74.1714901,69.5169591 73.6984901,69.1749591 74.4074901,68.4999591 C74.7284901,68.9289591 75.0534901,69.3639591 75.3944901,69.8189591 C75.1364901,70.0459591 74.9584901,70.2039591 74.7604901,70.3769591 C74.9154901,70.7009591 75.0734901,71.0309591 75.2324901,71.3619591 C75.1554901,71.4119591 75.0794901,71.4609591 75.0034901,71.5109591 C74.6874901,71.1399591 74.3724901,70.7679591 74.0554901,70.3959591 C73.3814901,70.9149591 74.3434901,71.8459591 73.3514901,72.2719591 C73.2174901,71.9899591 73.0834901,71.7059591 72.9494901,71.4219591 C72.9474901,71.2739591 72.9464901,71.1249591 72.9454901,70.9769591" id="Fill-364"></path>
            <path d="M6.8077901,41.7356591 C6.9237901,42.1156591 6.7747901,42.3456591 6.4077901,42.1686591 C6.0317901,41.9866591 5.7867901,41.9336591 5.5667901,42.4416591 C5.8627901,42.5476591 6.1477901,42.6506591 6.4417901,42.7566591 C5.7317901,43.1126591 5.0307901,43.3746591 4.2977901,42.7586591 C4.1027901,42.2406591 4.3017901,41.8576591 4.7867901,41.6086591 C4.5737901,41.2386591 4.3867901,40.9126591 4.1647901,40.5276591 C4.5317901,40.3336591 4.8577901,40.1596591 5.2177901,39.9686591 C5.3087901,40.0836591 5.4117901,40.1746591 5.4687901,40.2906591 C5.7217901,40.7986591 5.8257901,41.4076591 6.4287901,41.6736591 C6.5547901,41.6946591 6.6817901,41.7146591 6.8077901,41.7356591" id="Fill-366"></path>
            <path d="M46.6998901,56.7698591 C46.4128901,56.4048591 46.1258901,56.0408591 45.7678901,55.5848591 C45.5088901,55.7468591 45.2798901,55.8878591 45.0078901,56.0558591 C44.8708901,55.8968591 44.7268901,55.7288591 44.5118901,55.4768591 C45.1168901,55.3328591 45.5808901,55.2208591 46.1508901,55.0838591 C46.3988901,55.4338591 46.7028901,55.8618591 47.0078901,56.2898591 L46.6998901,56.7698591 Z" id="Fill-368"></path>
            <path d="M14.6856901,61.0931591 C14.7486901,61.2711591 14.8466901,61.4461591 14.8646901,61.6281591 C14.8756901,61.7481591 14.7716901,61.8791591 14.7476901,61.9371591 C14.3876901,61.5091591 14.0266901,61.0791591 13.7416901,60.7401591 C13.9756901,60.6591591 14.4356901,60.4891591 14.9056901,60.3521591 C14.9606901,60.3351591 15.0706901,60.5041591 15.1546901,60.5881591 C14.9986901,60.7561591 14.8416901,60.9251591 14.6856901,61.0931591" id="Fill-370"></path>
            <path d="M66.0025901,58.7151591 L63.9505901,58.7951591 C64.9075901,57.8441591 65.0125901,57.8401591 66.0025901,58.7151591" id="Fill-372"></path>
            <path d="M45.8199901,57.9417591 L45.1139901,57.9417591 C45.0859901,57.4947591 45.0589901,57.0787591 45.0279901,56.5757591 C45.3619901,56.6697591 45.6969901,56.7637591 46.1669901,56.8957591 C46.0339901,57.2797591 45.9159901,57.6207591 45.7979901,57.9617591 L45.8199901,57.9417591 Z" id="Fill-374"></path>
            <path d="M30.3106901,65.3675591 L28.2626901,65.3675591 C28.5936901,65.0485591 28.7736901,64.7715591 29.0286901,64.6535591 C29.3586901,64.5005591 29.3836901,64.5555591 30.3106901,65.3675591" id="Fill-376"></path>
            <path d="M45.7979901,57.9612591 C46.1429901,58.3652591 46.4879901,58.7712591 46.9129901,59.2702591 C46.2559901,59.4372591 45.8039901,59.3602591 45.3559901,58.9192591 C45.5179901,58.5782591 45.6689901,58.2602591 45.8199901,57.9412591 L45.7979901,57.9612591 Z" id="Fill-378"></path>
            <path d="M74.9937901,67.6800591 C74.6197901,67.7710591 74.2457901,67.8620591 73.8877901,67.9500591 C73.9507901,67.3200591 73.9507901,67.3200591 75.2647901,66.9130591 C75.1417901,67.2410591 75.0517901,67.4810591 74.9617901,67.7210591 L74.9937901,67.6800591 Z" id="Fill-380"></path>
            <path d="M32.7100901,56.8304591 C32.9610901,57.1574591 33.1560901,57.4114591 33.4200901,57.7544591 C33.1420901,57.8304591 32.9460901,57.9564591 32.8150901,57.9074591 C32.2990901,57.7174591 32.1890901,57.3894591 32.7100901,56.8304591" id="Fill-382"></path>
            <path d="M68.2256901,71.5052591 C68.0546901,71.5402591 67.8106901,71.5172591 67.7276901,71.6212591 C67.5076901,71.8962591 67.3576901,72.2262591 67.1126901,72.6512591 C67.1256901,71.4412591 67.1256901,71.4412591 68.2476901,70.9892591 C68.2186901,71.2072591 68.1946901,71.3802591 68.1716901,71.5522591 L68.2256901,71.5052591 Z" id="Fill-384"></path>
            <path d="M43.0543901,57.0794591 C43.3483901,56.5974591 43.4213901,55.7914591 44.5913901,56.0334591 C43.9073901,56.4994591 43.4803901,56.7894591 43.0543901,57.0794591" id="Fill-386"></path>
            <path d="M64.6378901,74.8685591 C64.3448901,75.3195591 64.0508901,75.7695591 63.7568901,76.2205591 C63.6508901,75.5245591 63.7758901,74.9725591 64.3618901,74.6825591 C64.4538901,74.7445591 64.5458901,74.8065591 64.6378901,74.8685591" id="Fill-388"></path>
            <path d="M63.0738901,56.5130591 C63.4868901,56.9750591 63.7138901,57.2310591 63.9518901,57.4970591 C63.7628901,57.7310591 63.6168901,57.9110591 63.3468901,58.2440591 C63.2558901,57.6660591 63.1888901,57.2410591 63.0738901,56.5130591" id="Fill-390"></path>
            <path d="M27.6763901,58.5462591 C27.2893901,58.4272591 26.9023901,58.3072591 26.4843901,58.1782591 C27.2543901,57.6602591 27.2543901,57.6602591 27.6763901,58.5462591" id="Fill-392"></path>
            <path d="M74.9620901,67.7210591 C75.3390901,67.5080591 75.7170901,67.2950591 76.3050901,66.9640591 C76.0220901,67.5080591 75.8180901,67.8970591 75.5360901,68.4360591 C75.2890901,68.0910591 75.1410901,67.8850591 74.9940901,67.6800591 L74.9620901,67.7210591 Z" id="Fill-394"></path>
            <path d="M63.2559901,58.4222591 C63.7699901,59.1272591 63.3719901,59.4202591 62.9819901,60.0292591 C62.9819901,59.5302591 62.9559901,59.2902591 62.9899901,59.0592591 C63.0149901,58.8932591 63.1189901,58.7382591 63.2559901,58.4222591" id="Fill-396"></path>
            <path d="M57.9234901,58.1585591 C58.2404901,58.4535591 58.9824901,58.5935591 58.3804901,59.3795591 C58.1944901,58.8825591 58.0584901,58.5205591 57.9234901,58.1585591" id="Fill-398"></path>
            <path d="M43.9678901,36.1224591 L43.9678901,34.7174591 C43.6468901,35.0024591 43.4588901,35.1684591 43.3138901,35.2974591 C43.5508901,35.5964591 43.7248901,35.8154591 43.9678901,36.1224591 L43.9678901,36.1224591 Z M59.0728901,31.4424591 C58.3278901,30.7334591 58.3278901,30.7334591 57.8278901,31.2924591 C58.2488901,31.3434591 58.6268901,31.3894591 59.0728901,31.4424591 L59.0728901,31.4424591 Z M55.8248901,33.4974591 C55.7328901,32.7454591 55.3848901,32.4894591 54.6828901,32.4494591 C54.7968901,33.0734591 55.2598901,33.2164591 55.8248901,33.4974591 L55.8248901,33.4974591 Z M39.4948901,36.7294591 C39.6728901,36.6044591 39.8818901,36.5084591 40.0218901,36.3494591 C40.1918901,36.1544591 40.3048901,35.9084591 40.5388901,35.5274591 C39.5408901,35.5104591 39.6998901,36.2684591 39.4948901,36.7294591 L39.4948901,36.7294591 Z M34.5588901,34.5154591 C34.8848901,34.0444591 35.0398901,33.8094591 35.2058901,33.5834591 C35.3488901,33.3874591 35.5028901,33.1984591 35.7898901,32.8294591 C34.7368901,32.9484591 34.6068901,33.4814591 34.5588901,34.5154591 L34.5588901,34.5154591 Z M54.3128901,25.4644591 C54.2298901,25.3884591 54.1468901,25.3114591 54.0638901,25.2344591 C53.7998901,25.5794591 53.5358901,25.9244591 53.1808901,26.3894591 C54.1918901,26.5134591 54.0988901,25.8474591 54.3128901,25.4644591 L54.3128901,25.4644591 Z M43.4928901,32.5354591 C42.8338901,32.5004591 42.4418901,32.4784591 42.0508901,32.4574591 C42.4338901,32.8164591 42.7578901,33.5524591 43.4928901,32.5354591 L43.4928901,32.5354591 Z M58.3038901,35.1094591 C58.4098901,34.6674591 58.5048901,34.2754591 58.5988901,33.8844591 C58.5168901,33.8494591 58.4358901,33.8134591 58.3538901,33.7794591 C58.0978901,34.0594591 57.8428901,34.3394591 57.5288901,34.6824591 C57.8438901,34.8554591 58.0448901,34.9674591 58.3038901,35.1094591 L58.3038901,35.1094591 Z M38.6328901,34.0484591 C38.2798901,34.3174591 37.4388901,34.1134591 37.6258901,34.8374591 C37.6688901,35.0064591 38.0298901,35.0924591 38.2928901,35.2444591 C38.4278901,34.7684591 38.5298901,34.4084591 38.6328901,34.0484591 L38.6328901,34.0484591 Z M55.8858901,26.4764591 C56.2808901,26.6224591 56.6008901,26.7414591 56.9208901,26.8594591 C56.9818901,26.7884591 57.0438901,26.7164591 57.1058901,26.6434591 C56.8608901,26.2924591 56.6148901,25.9404591 56.2728901,25.4504591 C56.1028901,25.8994591 56.0088901,26.1504591 55.8858901,26.4764591 L55.8858901,26.4764591 Z M39.4138901,33.2874591 C39.6348901,33.6434591 39.7938901,33.8954591 40.0088901,34.2404591 C40.3828901,33.8864591 40.6688901,33.6154591 41.0158901,33.2874591 L39.4138901,33.2874591 Z M53.2178901,28.2764591 C53.3768901,28.6664591 53.5168901,29.0104591 53.6578901,29.3524591 C53.8758901,29.2064591 54.2708901,29.0694591 54.2798901,28.9114591 C54.3118901,28.3484591 53.9048901,28.2084591 53.2178901,28.2764591 L53.2178901,28.2764591 Z M46.6858901,32.5134591 C46.2108901,32.1584591 46.1118901,31.3924591 45.3398901,31.4184591 C45.5618901,32.1354591 45.7558901,32.7624591 45.9678901,33.4474591 C46.2138901,33.1284591 46.4368901,32.8374591 46.6858901,32.5134591 L46.6858901,32.5134591 Z M36.4268901,25.3584591 L36.4268901,27.3964591 C37.3188901,26.9754591 36.7638901,26.1304591 37.2198901,25.5684591 C36.8908901,25.4814591 36.7088901,25.4334591 36.4268901,25.3584591 L36.4268901,25.3584591 Z M33.8008901,32.4874591 C33.9008901,32.5964591 33.9998901,32.7054591 34.0988901,32.8134591 C34.3388901,32.5974591 34.5458901,32.3074591 34.8268901,32.1854591 C35.0928901,32.0714591 35.4348901,32.1364591 35.8298901,32.1174591 C35.6958901,31.8104591 35.5698901,31.5224591 35.4028901,31.1404591 C34.8158901,31.6344591 34.3078901,32.0604591 33.8008901,32.4874591 L33.8008901,32.4874591 Z M33.5578901,26.4214591 C35.0148901,26.1244591 33.7468901,25.0994591 34.1948901,24.6274591 C35.1688901,24.4324591 35.1688901,24.4324591 34.9118901,23.7784591 C33.2468901,24.0074591 34.0038901,25.4294591 33.5578901,26.4214591 L33.5578901,26.4214591 Z M38.5788901,31.8804591 C38.2258901,31.5924591 37.8598901,31.2934591 37.7068901,31.1684591 C37.2708901,30.6614591 38.1778901,30.3344591 37.4888901,30.0184591 C37.1948901,30.4974591 36.9128901,30.9544591 36.6268901,31.4174591 C37.0258901,31.7374591 37.3608901,32.0074591 37.6568901,32.2454591 C38.0108901,32.1054591 38.3098901,31.9874591 38.5788901,31.8804591 L38.5788901,31.8804591 Z M49.2508901,28.8504591 C49.6658901,29.0994591 50.0708901,29.5404591 50.4338901,29.5104591 C50.8688901,29.4734591 51.2698901,29.0314591 51.7268901,28.7374591 C51.5168901,28.5064591 51.3878901,28.3654591 51.2608901,28.2254591 C50.5118901,28.8494591 50.5138901,28.8474591 49.8158901,28.2264591 C49.7728901,28.1874591 49.6458901,28.2424591 49.5198901,28.2584591 C49.4488901,28.4134591 49.3688901,28.5884591 49.2508901,28.8504591 L49.2508901,28.8504591 Z M46.4388901,29.0644591 C47.0008901,28.8554591 47.3808901,28.7144591 47.7608901,28.5724591 C47.7378901,28.5134591 47.7148901,28.4544591 47.6918901,28.3944591 L45.8978901,28.3944591 C46.0778901,29.0184591 46.0328901,29.1944591 45.5798901,29.7274591 C45.9108901,29.7274591 46.2298901,29.6824591 46.5278901,29.7404591 C46.8418901,29.8024591 47.1368901,29.9634591 47.4408901,30.0804591 C47.4788901,29.9944591 47.5178901,29.9074591 47.5558901,29.8214591 C47.2308901,29.6014591 46.9058901,29.3814591 46.4388901,29.0644591 L46.4388901,29.0644591 Z M48.1168901,34.1694591 C48.5248901,33.9054591 48.8178901,33.8224591 48.9008901,33.6434591 C49.1298901,33.1444591 49.3068901,32.6144591 49.4268901,32.0794591 C49.4658901,31.9084591 49.2608901,31.6824591 49.1678901,31.4804591 C49.5428901,32.7674591 48.4328901,31.8194591 48.1168901,32.3184591 L48.1168901,34.1694591 Z M51.8018901,35.1894591 C51.1518901,34.8264591 50.6058901,34.5214591 49.9728901,34.1684591 C49.7478901,34.8914591 49.5528901,35.5184591 49.3718901,36.1004591 C49.8938901,36.4544591 50.2858901,36.7214591 50.6788901,36.9874591 C51.0228901,36.8264591 51.3658901,36.6664591 51.7098901,36.5054591 C50.8348901,36.5564591 50.2278901,36.3674591 49.9808901,35.5154591 C50.4438901,34.5154591 51.1008901,35.7864591 51.8018901,35.1894591 L51.8018901,35.1894591 Z M37.7958901,28.5264591 C37.0538901,28.8234591 36.4558901,29.2514591 35.6478901,29.0404591 C36.1298901,29.2224591 36.3478901,30.2334591 37.0808901,29.3854591 C37.1488901,29.3084591 37.3718901,29.2924591 37.4858901,29.3384591 C38.1668901,29.6164591 38.5528901,29.1814591 38.9628901,28.7794591 C38.6038901,28.4074591 38.2588901,28.0424591 37.8988901,27.6914591 C37.8628901,27.6574591 37.7338901,27.7194591 37.6228901,27.7404591 C37.6698901,27.9564591 37.7178901,28.1714591 37.7958901,28.5264591 L37.7958901,28.5264591 Z M31.9778901,35.1504591 C32.5868901,35.3884591 33.2448901,35.6434591 33.9018901,35.8984591 C33.6578901,36.5264591 33.5398901,37.0724591 34.2088901,37.4254591 C34.3058901,37.4764591 34.4538901,37.4324591 34.7888901,37.4324591 C34.5348901,37.1844591 34.4088901,37.0784591 34.3018901,36.9544591 C34.1918901,36.8264591 34.0998901,36.6834591 34.0228901,36.5774591 C34.1128901,36.4434591 34.1408901,36.3694591 34.1648901,36.3704591 C34.4958901,36.3934591 34.8258901,36.4254591 35.4728901,36.4844591 C35.0358901,36.1494591 34.8428901,35.9084591 34.5988901,35.8324591 C33.7578901,35.5694591 33.3418901,35.0634591 33.6358901,33.9234591 C33.1998901,34.2684591 32.9688901,34.4514591 32.7068901,34.6594591 C32.5808901,34.3704591 32.4878901,34.1554591 32.4038901,33.9624591 C32.2688901,34.3404591 32.1278901,34.7314591 31.9778901,35.1504591 L31.9778901,35.1504591 Z M54.7778901,34.2384591 C54.4398901,34.6394591 54.1078901,35.0344591 53.8258901,35.3684591 C53.3508901,35.1924591 53.0488901,35.0804591 52.6668901,34.9384591 L52.6668901,35.9504591 C52.9888901,35.9144591 53.3578901,35.7644591 53.5008901,35.8844591 C53.6978901,36.0494591 53.7248901,36.4174591 53.8088901,36.6564591 C55.2008901,36.5194591 56.5448901,36.6274591 57.7588901,37.2134591 C58.2178901,36.8944591 58.5938901,36.6344591 59.1558901,36.2444591 C58.3508901,36.1664591 57.6428901,36.9224591 57.1868901,36.0284591 C57.1788901,36.0144591 57.0208901,36.0504591 56.9558901,36.0964591 C55.9628901,36.7964591 55.0428901,36.1094591 54.0988901,36.0334591 C53.9698901,35.2244591 55.5238901,35.3304591 54.7778901,34.2384591 L54.7778901,34.2384591 Z M51.7148901,32.2834591 C51.8298901,32.6404591 51.8508901,33.0804591 52.0798901,33.3334591 C52.4358901,33.7274591 52.6478901,33.4594591 52.6908901,33.0354591 C52.3428901,32.7914591 52.0088901,32.5554591 51.6738901,32.3194591 C51.6678901,31.8374591 51.6908901,31.3524591 51.6498901,30.8734591 C51.6088901,30.3804591 52.4208901,30.0604591 51.9328901,29.4574591 C51.8428901,29.5324591 51.7858901,29.5854591 51.7238901,29.6314591 C51.1758901,30.0334591 51.5408901,30.8644591 51.0718901,31.2124591 C50.4398901,31.6784591 50.6428901,32.2434591 50.5438901,32.8654591 C51.0058901,32.6364591 51.3608901,32.4594591 51.7148901,32.2834591 L51.7148901,32.2834591 Z M41.9508901,36.3994591 C42.4858901,36.4524591 42.7438901,36.1964591 42.3838901,35.7704591 C42.0928901,35.4294591 41.5958901,35.2644591 41.1898901,35.0204591 C41.1568901,35.3954591 41.2808901,35.6494591 41.4158901,35.6554591 C41.9688901,35.6824591 42.0148901,36.0184591 41.9868901,36.4364591 C41.5138901,36.4884591 40.9738901,36.4874591 40.8998901,37.1084591 C40.8738901,37.3214591 41.0898901,37.5624591 41.1988901,37.8024591 C41.4768901,37.2834591 41.7138901,36.8414591 41.9508901,36.3994591 L41.9508901,36.3994591 Z M46.1158901,39.9814591 C45.0858901,39.6804591 44.9988901,39.4714591 45.5238901,38.6884591 C45.7618901,38.3354591 45.9438901,37.9434591 46.1998901,37.4804591 C45.6348901,36.9944591 45.2128901,36.3954591 45.5788901,35.6314591 C45.7828901,35.2034591 45.9348901,34.8494591 45.5858901,34.4294591 C45.2078901,33.9754591 44.8608901,33.4954591 44.1798901,33.5324591 C44.0068901,33.5424591 43.8338901,33.5764591 43.5238901,33.6174591 C44.1718901,34.0684591 44.6978901,34.4354591 45.2588901,34.8264591 C45.0898901,36.0244591 44.6388901,37.1964591 45.0298901,38.4304591 C45.1198901,38.7164591 45.0158901,39.1274591 44.4978901,39.0334591 C44.5308901,37.8634591 44.5308901,37.8634591 42.6938901,37.4194591 C42.5288901,37.7444591 42.3608901,38.0774591 42.1978901,38.3984591 C42.3208901,38.4864591 42.4098901,38.5844591 42.4438901,38.5684591 C43.2878901,38.1564591 43.2578901,38.1614591 43.4828901,39.0484591 C43.5548901,39.3344591 43.8248901,39.5694591 44.0048901,39.8274591 C43.8078901,39.9834591 43.6258901,40.1274591 43.4448901,40.2714591 L43.4808901,40.2454591 C43.1088901,40.1634591 42.7278901,40.1104591 42.3688901,39.9894591 C42.1628901,39.9204591 41.9408901,39.7764591 41.8188901,39.6014591 C41.3398901,38.9224591 40.8968901,38.2154591 40.4498901,37.5324591 C39.9418901,37.8774591 39.4798901,38.1894591 39.0188901,38.5024591 L39.0358901,38.4814591 C38.5588901,38.6024591 38.0818901,38.7244591 37.4378901,38.8884591 C37.7248901,39.3324591 37.9398901,39.6654591 38.1558901,39.9974591 L38.1158901,39.9544591 C38.1828901,40.3764591 38.2498901,40.7994591 38.3418901,41.3814591 C38.0668901,41.3014591 37.7588901,41.3054591 37.6448901,41.1584591 C37.4428901,40.8974591 37.4038901,40.5174591 37.2168901,40.2404591 C36.9618901,39.8654591 36.6308901,39.5424591 36.2068901,39.0504591 C36.1718901,38.5034591 36.7058901,37.5834591 35.6258901,37.0594591 C35.4448901,37.1914591 35.2518901,37.3334591 35.0998901,37.4434591 C35.2008901,37.9254591 35.2938901,38.3664591 35.3858901,38.8074591 L35.0658901,39.0124591 C34.8328901,39.3934591 34.5998901,39.7744591 34.3348901,40.2094591 C33.9728901,39.7564591 33.6228901,39.3164591 33.2708901,38.8754591 C33.4148901,38.6354591 33.5598901,38.3934591 33.7468901,38.0804591 C33.4908901,38.0084591 33.3128901,37.9574591 33.1348901,37.9074591 L33.1268901,37.8974591 C32.8938901,37.4444591 32.6618901,36.9914591 32.3538901,36.3914591 C32.0928901,36.8174591 31.9258901,37.0904591 31.7438901,37.3874591 C31.4798901,37.3184591 31.2058901,37.2484591 30.9428901,37.1814591 C30.7168901,37.6114591 30.4968901,38.0294591 30.2768901,38.4484591 C29.5418901,38.2684591 29.4748901,37.7534591 29.5368901,37.2104591 C28.9238901,37.0614591 28.3838901,36.9314591 27.7958901,36.7884591 C27.9218901,36.0874591 28.1948901,35.6044591 28.8178901,35.6214591 C29.6588901,35.6434591 30.1468901,35.1594591 30.8198901,34.5424591 C30.3208901,34.4304591 30.1458901,33.9194591 29.5898901,34.2524591 C29.0548901,34.5714591 28.8208901,34.1674591 28.5778901,33.6674591 C29.1138901,33.3514591 29.6138901,33.0584591 30.1358901,32.7514591 C31.2818901,33.7814591 31.2818901,33.7814591 32.2218901,33.1004591 C31.9708901,33.0424591 31.7558901,32.9834591 31.5368901,32.9464591 C31.3438901,32.9134591 31.1488901,32.9044591 30.9218901,32.8824591 C30.7788901,32.3914591 30.6338901,31.8934591 30.4888901,31.3934591 L30.4628901,31.4334591 C30.8638901,31.4244591 31.2658901,31.4154591 31.6678901,31.4054591 C31.8748901,31.6114591 32.0808901,31.8174591 32.3498901,32.0864591 C32.5628901,31.6954591 32.6938901,31.4544591 32.8188901,31.2254591 C32.2178901,30.6474591 31.9968901,31.3064591 31.6448901,31.4374591 C31.6258901,31.1734591 31.6068901,30.9084591 31.5928901,30.7154591 C31.1618901,30.7494591 30.8078901,30.7774591 30.4538901,30.8064591 L30.5088901,30.8544591 C30.5298901,30.4734591 30.5498901,30.0924591 30.5788901,29.5484591 C30.9058901,29.7974591 31.1378901,29.9734591 31.3048901,30.1004591 C31.8088901,29.7124591 32.2898901,29.3414591 32.8398901,28.9174591 C32.2728901,28.5704591 31.7248901,28.2354591 31.0928901,27.8494591 C32.1208901,27.5224591 32.1208901,27.5224591 32.7718901,28.0844591 C33.0778901,27.7254591 33.3858901,27.3644591 33.7308901,26.9594591 C33.3418901,26.6054591 32.9478901,26.2474591 32.5368901,25.8734591 C33.0488901,24.9864591 33.5508901,24.1244591 34.0448901,23.2564591 C35.2218901,21.1844591 36.6288901,19.2644591 38.3198901,17.6084591 C39.2198901,16.7264591 40.0898901,15.7944591 41.0698901,14.9914591 C41.3648901,14.7494591 41.7178901,14.5114591 42.0788901,14.4344591 C42.5958901,14.3224591 43.0978901,14.2394591 43.5368901,13.9164591 C43.6448901,13.8374591 43.8898901,13.7674591 43.9468901,13.8214591 C44.5828901,14.4434591 45.1478901,13.4654591 45.7888901,13.7684591 C46.3478901,14.0334591 47.0418901,14.0704591 47.5308901,14.4154591 C48.1698901,14.8664591 49.0628901,15.0564591 49.3418901,15.9774591 C49.4038901,16.1824591 49.8198901,16.2604591 50.0398901,16.4364591 C50.4078901,16.7304591 50.7558901,17.0494591 51.0968901,17.3744591 C51.1968901,17.4704591 51.2218901,17.7114591 51.3168901,17.7334591 C52.4048901,17.9854591 52.6568901,19.0924591 53.3378901,19.7524591 C54.1968901,20.5854591 54.7878901,21.6904591 55.5288901,22.6514591 C55.8638901,23.0874591 55.8818901,23.7234591 56.5608901,23.9754591 C56.8678901,24.0884591 57.1538901,24.6774591 57.1758901,25.0654591 C57.2378901,26.1274591 57.9078901,26.5414591 58.8708901,26.8164591 C58.2488901,27.2994591 59.3098901,28.0124591 58.2608901,28.4544591 C58.9108901,28.8014591 59.3958901,29.0604591 59.9888901,29.3764591 C59.8298901,29.6054591 59.6788901,29.8244591 59.4918901,30.0964591 C59.5028901,30.5964591 59.7098901,31.0554591 60.2438901,31.3134591 C60.6758901,31.5214591 61.1518901,31.6754591 61.2238901,32.3904591 C60.7928901,32.3374591 60.3988901,32.2894591 60.0198901,32.2424591 C59.5308901,33.0764591 61.0248901,32.6004591 60.6908901,33.3174591 C61.0768901,33.6154591 61.4628901,33.9144591 61.8778901,34.2344591 C61.9838901,35.0204591 61.1488901,34.6774591 60.8498901,35.0044591 C60.5428901,35.3414591 60.2198901,35.6644591 59.8848901,36.0154591 C60.2388901,36.3664591 60.6418901,36.3154591 61.1488901,36.0024591 C61.4318901,35.8274591 61.8538901,35.8754591 62.5408901,35.7744591 C62.1358901,36.2914591 61.9508901,36.5264591 61.7658901,36.7624591 C61.6728901,36.7564591 61.5128901,36.7174591 61.4958901,36.7514591 C61.3698901,36.9984591 61.2678901,37.2584591 61.1678901,37.5184591 C61.0638901,37.7904591 60.9698901,38.0664591 60.8408901,38.4304591 C61.2708901,38.4624591 61.5408901,38.4824591 61.8038901,38.5024591 C61.8508901,38.2064591 61.2868901,38.0024591 61.8368901,37.7334591 C61.9398901,37.6834591 61.7668901,37.0674591 61.7208901,36.7124591 C62.0838901,36.7874591 62.4458901,36.8624591 62.7428901,36.9254591 C62.9728901,37.8354591 62.5998901,38.4564591 62.2908901,39.0944591 C61.9678901,39.0834591 61.8808901,39.7404591 61.4398901,39.3934591 C61.2588901,38.9254591 60.7858901,38.8394591 60.5118901,39.0474591 C59.9488901,39.4764591 59.5468901,39.2324591 59.0998901,38.7804591 C58.8958901,39.2524591 58.7488901,39.5924591 58.6068901,39.9194591 C57.2448901,39.9924591 58.4288901,38.2784591 57.3098901,38.2064591 C57.1898901,38.5654591 57.1708901,39.0344591 56.9288901,39.2334591 C56.7048901,39.4184591 56.2438901,39.3154591 55.8868901,39.3404591 C55.8468901,39.2464591 55.8068901,39.1524591 55.7658901,39.0594591 C56.0878901,38.7314591 56.4078901,38.4044591 56.7298901,38.0774591 C56.6798901,38.0264591 56.6298901,37.9764591 56.5798901,37.9264591 C56.1708901,38.2154591 55.7608901,38.5044591 55.2608901,38.8554591 C55.7518901,39.6264591 55.2598901,40.1834591 54.8158901,40.8094591 C54.3928901,40.5104591 54.0038901,40.5754591 53.5598901,40.8754591 C53.2388901,41.0924591 52.8428901,40.7744591 52.8808901,40.4254591 C52.9268901,40.0094591 53.5478901,39.8364591 53.3408901,39.2574591 C53.3038901,39.1564591 53.9428901,38.8144591 54.3378901,38.5364591 C54.1198901,37.9714591 53.7428901,37.7284591 52.9678901,37.8414591 C52.2728901,37.9414591 51.5358901,37.7484591 50.7478901,37.6784591 C50.7698901,37.8694591 50.7898901,38.0394591 50.8098901,38.2104591 L50.8448901,38.1794591 C50.3398901,38.5814591 49.8348901,38.9834591 49.3298901,39.3874591 L49.3708901,39.3504591 C48.7978901,39.5184591 48.3328901,39.3964591 47.9368901,38.7144591 C48.4098901,38.5854591 48.8328901,38.4704591 49.2568901,38.3544591 C49.3248901,37.0664591 48.2868901,36.0844591 48.3488901,34.7464591 C48.0978901,34.8234591 47.9228901,34.8774591 47.6178901,34.9704591 C47.7988901,35.3244591 47.9548901,35.6324591 48.1338901,35.9834591 C47.7708901,36.2694591 47.4378901,36.5324591 46.9398901,36.9264591 C47.6178901,36.8564591 48.1868901,36.7364591 48.3638901,37.4464591 C47.6198901,38.2854591 46.8678901,39.1344591 46.1158901,39.9814591 L46.1158901,39.9814591 Z" id="Fill-400"></path>
            <path d="M29.4278901,39.7591591 C29.8748901,40.2111591 30.1768901,40.5161591 30.5768901,40.9201591 C30.3978901,41.0551591 30.2478901,41.1681591 30.1088901,41.2741591 C30.3828901,41.4331591 30.6978901,41.6141591 30.9738901,41.7751591 C31.1978901,41.1201591 31.4128901,40.4881591 31.6998901,39.6511591 C30.8578901,39.6911591 30.2568901,39.7201591 29.4278901,39.7591591 L29.4278901,39.7591591 Z M35.1588901,40.8121591 C35.3218901,41.0451591 35.4848901,41.2801591 35.7308901,41.6321591 C35.1208901,41.7421591 34.5698901,42.0181591 34.1528901,41.8821591 C33.2558901,41.5881591 33.1438901,42.0871591 33.0928901,42.7341591 C32.3258901,42.9181591 31.7028901,42.9801591 31.0308901,42.4461591 C30.6658901,42.1561591 30.0068901,42.2381591 29.4768901,42.1511591 C29.2588901,42.3931591 29.0368901,42.6411591 28.7328901,42.9791591 C28.5528901,42.7371591 28.4188901,42.5581591 28.2518901,42.3331591 C28.1528901,42.4021591 28.0378901,42.4571591 27.9538901,42.5431591 C27.7698901,42.7311591 27.5978901,43.1031591 27.4268901,43.1001771 C26.8518901,43.0911591 27.2048901,42.6251591 27.1478901,42.3521591 C27.1188901,42.2151591 27.0548901,42.0851591 27.0088901,41.9571591 C27.7708901,41.4781591 28.7488901,41.9471591 29.6138901,41.3311591 C29.2118901,41.0281591 28.9218901,40.8081591 28.6278901,40.5861591 C28.8238901,39.8451591 29.0208901,39.1011591 29.2068901,38.3971591 C29.6448901,38.5501591 30.1248901,38.7191591 30.6178901,38.8931591 C30.7978901,38.4691591 30.9648901,38.0751591 31.1268901,37.6961591 C31.9038901,38.3761591 32.6368901,39.0191591 33.4478901,39.7311591 C33.3818901,40.0711591 33.2938901,40.5221591 33.1928901,41.0461591 C33.9378901,40.9731591 34.5658901,40.9111591 35.1928901,40.8501591 L35.1588901,40.8121591 Z" id="Fill-402"></path>
            <path d="M61.4400901,39.3929591 C61.8800901,39.7409591 61.9680901,39.0829591 62.2910901,39.0939591 C62.7640901,39.4839591 63.2380901,39.8739591 63.8440901,40.3729591 C63.3830901,40.6639591 63.0820901,40.8549591 62.6960901,41.0979591 C62.8850901,41.3899591 63.1070901,41.7329591 63.3860901,42.1619591 C63.1290901,42.3049591 62.8650901,42.4539591 62.5060901,42.6539591 C62.3680901,42.2749591 62.2640901,41.9899591 62.1870901,41.7749591 C61.7190901,42.5009591 60.6860901,42.0739591 60.1470901,42.7549591 C59.3850901,42.0229591 58.7240901,41.3669591 58.5080901,40.1939591 C59.5700901,40.6359591 60.4420901,41.4509591 61.6550901,41.1209591 C61.2900901,40.6569591 60.9720901,40.2529591 60.5840901,39.7589591 C60.9340901,39.6099591 61.1870901,39.5009591 61.4400901,39.3929591" id="Fill-404"></path>
            <path d="M81.0836901,39.1292591 C81.4416901,39.7352591 82.1046901,39.4382591 82.4426901,40.0342591 C82.6206901,40.3472591 83.2226901,40.4472591 83.6526901,40.5772591 C83.9926901,40.6802591 84.5786901,40.8352591 84.6766901,40.6962591 C84.8986901,40.3872591 84.9716901,39.9012591 84.9366901,39.5022591 C84.9126901,39.2312591 84.6036901,38.9832591 84.3006901,38.5532591 C85.5176901,38.5862591 85.8106901,39.5212591 86.4216901,39.9832591 C86.1506901,40.8982591 85.7596901,40.0042591 85.3156901,40.1242591 C85.4846901,40.4472591 85.6406901,40.7442591 85.7446901,40.9422591 C85.3226901,41.1622591 84.8986901,41.3832591 84.4006901,41.6422591 C83.9666901,41.5372591 83.3196901,41.5942591 83.1076901,40.8772591 C82.2146901,40.7062591 81.4096901,40.0262591 80.1446901,40.7232591 C80.5466901,40.0392591 80.7456901,39.7032591 81.0836901,39.1292591" id="Fill-406"></path>
            <path d="M39.0186901,38.5022591 C39.6436901,38.7072591 40.2696901,38.9132591 40.9376901,39.1322591 C40.9026901,39.5232591 40.7926901,39.8882591 40.8616901,40.2152591 C40.9246901,40.5142591 41.1806901,40.7732591 41.3336901,41.0202591 C41.0876901,41.5982591 40.7746901,41.2552591 40.4876901,41.1562591 C40.3236901,40.7222591 40.1586901,40.2872591 39.9446901,39.7232591 C39.3676901,40.1352591 38.7446901,40.1042591 38.1156901,39.9542591 L38.1556901,39.9972591 C38.4486901,39.4922591 38.7426901,38.9862591 39.0366901,38.4812591 L39.0186901,38.5022591 Z" id="Fill-408"></path>
            <path d="M76.7574901,38.4710591 C77.3404901,38.8730591 76.7874901,39.5150591 77.0744901,39.9800591 C76.8414901,40.0070591 76.6094901,40.0330591 76.2784901,40.0730591 C76.3284901,40.3230591 76.3774901,40.5660591 76.4544901,40.9500591 C76.1624901,41.0080591 75.8374901,41.1770591 75.5884901,41.1010591 C75.0614901,40.9390591 74.7224901,40.5350591 74.6744901,39.9470591 C75.2564901,39.9940591 75.4884901,39.1530591 76.1844901,39.3600591 C76.2784901,39.3870591 76.5624901,38.7830591 76.7574901,38.4710591" id="Fill-410"></path>
            <path d="M57.5006901,41.5667591 C57.3166901,41.6557591 57.1146901,41.7887591 56.8936901,41.8527591 C56.4696901,41.9747591 56.2476901,41.7627591 56.2306901,41.3467591 C56.2136901,40.8897591 56.2276901,40.4317591 56.2276901,39.9787591 C57.2416901,39.7967591 57.4576901,40.0587591 57.5006901,41.5667591" id="Fill-412"></path>
            <path d="M78.2852901,37.0540591 C77.8722901,36.5360591 77.3182901,36.0620591 77.7952901,35.1840591 C78.1222901,35.1420591 78.5192901,35.0900591 79.0712901,35.0190591 C79.0712901,35.6120591 79.1542901,36.1240591 79.0332901,36.5840591 C78.9812901,36.7830591 78.5092901,36.8710591 78.2282901,37.0090591 L78.2852901,37.0540591 Z" id="Fill-414"></path>
            <path d="M28.2891901,39.9427591 C27.9741901,39.7097591 27.5981901,39.5667591 27.4851901,39.3087591 C27.3711901,39.0477591 27.4361901,38.6307591 27.5751901,38.3627591 C27.6801901,38.1617591 28.0431901,37.9637591 28.2611901,37.9937591 C28.4201901,38.0157591 28.6501901,38.4147591 28.6361901,38.6307591 C28.6091901,39.0447591 28.4301901,39.4477591 28.2891901,39.9427591" id="Fill-416"></path>
            <path d="M11.7144901,28.6448591 C12.1854901,29.4698591 12.1134901,30.2388591 11.7724901,30.9498591 C11.6354901,31.2328591 11.2254901,31.5778591 10.7774901,30.9628591 C11.0014901,30.6658591 11.2454901,30.3418591 11.4784901,30.0328591 C11.6454901,29.6048591 10.9154901,29.1388591 11.7144901,28.6448591" id="Fill-418"></path>
            <path d="M35.0655901,39.0120591 L35.3865901,38.8070591 C35.6015901,39.4240591 35.8165901,40.0410591 36.0855901,40.8120591 L35.1585901,40.8120591 L35.1925901,40.8500591 C35.1285901,40.5390591 35.0325901,40.2310591 35.0095901,39.9170591 C34.9885901,39.6180591 35.0445901,39.3140591 35.0655901,39.0120591" id="Fill-420"></path>
            <path d="M28.8550901,43.6614591 C29.4280901,43.0604591 30.0710901,43.0834591 30.8040901,43.3414591 C30.1500901,44.0224591 29.4200901,44.1414591 28.8550901,43.6614591" id="Fill-422"></path>
            <path d="M50.8096901,38.2103591 C51.3686901,38.3233591 51.9276901,38.4383591 52.5286901,38.5613591 C52.3126901,39.2673591 51.9546901,39.0483591 51.6116901,38.8863591 L51.4996901,38.8903591 C50.7756901,38.9683591 50.7516901,38.9423591 50.8446901,38.1793591 L50.8096901,38.2103591 Z" id="Fill-424"></path>
            <path d="M61.4298901,43.9593591 C60.4468901,44.5663591 60.2368901,44.4623591 59.9788901,43.3733591 C60.6098901,43.0953591 60.9308901,43.5513591 61.4298901,43.9593591" id="Fill-426"></path>
            <path d="M27.8638901,41.5110591 C27.5468901,41.3650591 27.2298901,41.2180591 26.5348901,40.8970591 C27.0588901,40.6120591 27.3508901,40.4520591 27.7658901,40.2260591 C27.8938901,40.5540591 28.0278901,40.9010591 28.1618901,41.2460591 C28.0628901,41.3350591 27.9638901,41.4230591 27.8638901,41.5110591" id="Fill-428"></path>
            <path d="M49.3301901,39.3870591 C49.7151901,39.5570591 50.1001901,39.7280591 50.6451901,39.9690591 C50.3481901,40.2510591 50.1571901,40.5680591 49.9921901,40.5540591 C49.7941901,40.5380591 49.5591901,40.2730591 49.4491901,40.0600591 C49.3481901,39.8620591 49.3911901,39.5890591 49.3711901,39.3500591 L49.3301901,39.3870591 Z" id="Fill-430"></path>
            <path d="M47.5352901,39.5696591 C47.9032901,39.6076591 48.2812901,39.6116591 48.6352901,39.7046591 C48.7382901,39.7316591 48.8772901,40.0896591 48.8242901,40.1576591 C48.7012901,40.3146591 48.4002901,40.5226591 48.2952901,40.4686591 C47.9732901,40.3056591 47.7102901,40.0276591 47.4252901,39.7946591 C47.4612901,39.7186591 47.4982901,39.6436591 47.5352901,39.5696591" id="Fill-432"></path>
            <path d="M51.5001901,38.8899591 L51.6111901,38.8859591 C51.7981901,39.1009591 52.0401901,39.2889591 52.1521901,39.5369591 C52.2271901,39.7039591 52.1961901,40.0409591 52.0761901,40.1479591 C51.8161901,40.3789591 51.5681901,40.2359591 51.3681901,39.9559591 C51.0711901,39.5439591 51.3711901,39.2339591 51.5001901,38.8899591" id="Fill-434"></path>
            <path d="M30.4883901,31.3938591 C30.3413901,31.6758591 30.1933901,31.9578591 29.8953901,32.5268591 C29.7733901,31.8308591 29.6983901,31.4098591 29.6013901,30.8548591 L30.5093901,30.8548591 L30.4543901,30.8058591 C30.4573901,31.0148591 30.4603901,31.2238591 30.4623901,31.4328591 L30.4883901,31.3938591 Z" id="Fill-436"></path>
            <path d="M63.8809901,43.2796591 C63.5619901,43.8966591 63.3099901,44.1986591 62.8009901,43.9166591 C62.7089901,43.8646591 62.6189901,43.6486591 62.6539901,43.5556591 C62.8749901,42.9686591 63.2989901,43.2076591 63.8809901,43.2796591" id="Fill-438"></path>
            <path d="M82.6353901,38.5247591 C83.3963901,38.1337591 83.5613901,38.9767591 84.0283901,39.1957591 C83.4633901,39.5457591 82.9243901,39.2627591 82.6723901,38.4847591 L82.6353901,38.5247591 Z" id="Fill-440"></path>
            <path d="M27.0762901,44.7337591 C27.2082901,45.4737591 27.2082901,45.4737591 26.2082901,45.6207591 C26.1972901,44.9887591 26.6312901,44.8817591 27.0762901,44.7337591" id="Fill-442"></path>
            <path d="M31.0494901,29.3724591 C30.8874901,29.1944591 30.6744901,29.0634591 30.6724901,28.9304591 C30.6704901,28.7994591 30.9264901,28.5354591 30.9954901,28.5584591 C31.1884901,28.6204591 31.3434901,28.8014591 31.5134901,28.9354591 C31.3784901,29.0624591 31.2424901,29.1894591 31.0494901,29.3724591" id="Fill-444"></path>
            <path d="M87.5010901,41.0677591 C87.6720901,41.3387591 87.8380901,41.5067591 87.8710901,41.6987591 C87.8850901,41.7847591 87.5610901,42.0337591 87.5120901,42.0047591 C87.3460901,41.9057591 87.1740901,41.7317591 87.1270901,41.5537591 C87.1010901,41.4557591 87.3190901,41.2927591 87.5010901,41.0677591" id="Fill-446"></path>
            <path d="M33.1348901,37.9075591 C33.0468901,38.0845591 32.9018901,38.4215591 32.8778901,38.4135591 C32.5488901,38.2975591 32.2348901,38.1345591 31.8468901,37.9495591 C32.3568901,37.2345591 32.7378901,38.0555591 33.1268901,37.8975591 L33.1348901,37.9075591 Z" id="Fill-448"></path>
            <path d="M83.0938901,37.9436591 C83.6818901,37.3176591 83.9288901,37.5606591 84.2318901,38.2326591 C83.7238901,38.1036591 83.4088901,38.0236591 83.0938901,37.9436591" id="Fill-450"></path>
            <path d="M5.8858901,37.5188591 C5.8418901,37.1808591 5.7968901,36.8428591 5.7328901,36.3558591 C6.3878901,36.7268591 6.4148901,37.0888591 5.8858901,37.5188591" id="Fill-452"></path>
            <path d="M43.4444901,40.2718591 C43.8554901,40.2438591 44.1004901,40.4238591 43.9754901,40.8368591 C43.9384901,40.9588591 43.5494901,41.1118591 43.4444901,41.0478591 C43.0324901,40.7998591 43.2564901,40.5068591 43.4814901,40.2458591 L43.4444901,40.2718591 Z" id="Fill-454"></path>
        </g>
    </g>
</svg>