<?xml version="1.0" encoding="UTF-8"?>
<svg width="89px" height="80px" viewBox="0 0 89 80" version="1.1" xmlns="http://www.w3.org/2000/svg" xmlns:xlink="http://www.w3.org/1999/xlink">
    <!-- Generator: Sketch 61.2 (89653) - https://sketch.com -->
    <title>white_flower</title>
    <desc>Created with Sketch.</desc>
    <g id="Page-1" stroke="none" stroke-width="1" fill="none" fill-rule="evenodd">
        <g id="white_flower" fill="#FFFFFF">
            <path d="M4.43279905,14.0371281 C4.37679905,14.0781281 4.32079905,14.1201281 4.26579905,14.1621281 C4.43379905,14.5091281 4.60379905,14.8551281 4.80679905,15.2721281 C5.03779905,15.0621281 5.15579905,14.9551281 5.31379905,14.8111281 C4.99479905,14.5311281 4.71379905,14.2841281 4.43279905,14.0371281 L4.43279905,14.0371281 Z M79.331799,69.8251281 C80.000799,69.9781281 80.413799,70.4841281 81.135799,70.5691281 C80.289799,69.2181281 80.007799,69.0791281 79.331799,69.8251281 L79.331799,69.8251281 Z M80.049799,7.74012806 C79.332799,8.05712806 78.729799,8.36312806 78.206799,9.00512806 C79.787799,8.89412806 79.787799,8.89412806 80.049799,7.74012806 L80.049799,7.74012806 Z M6.86979905,15.9841281 C6.44379905,15.7551281 6.44379905,15.7551281 6.24979905,16.0011281 C5.60579905,16.8191281 5.58479905,17.2561281 6.25379905,17.9971281 C6.28079905,17.5421281 6.23879905,17.1671281 6.34179905,16.8361281 C6.43779905,16.5271281 6.68779905,16.2661281 6.86979905,15.9841281 L6.86979905,15.9841281 Z M79.617799,15.5591281 C80.000799,13.9211281 79.882799,13.6551281 78.631799,13.2821281 C78.896799,13.8041281 79.248799,14.2321281 79.143799,14.8331281 C79.110799,15.0161281 79.409799,15.2571281 79.617799,15.5591281 L79.617799,15.5591281 Z M8.43379905,66.2031281 C9.44779905,66.0611281 10.149799,65.9631281 10.860799,65.8631281 C10.578799,64.6751281 9.67679905,65.6061281 9.18379905,65.1921281 C8.98979905,65.4541281 8.79679905,65.7141281 8.43379905,66.2031281 L8.43379905,66.2031281 Z M78.739799,67.4851281 C78.065799,67.7511281 77.468799,67.9851281 76.815799,68.2411281 C77.914799,68.5981281 78.720799,68.1331281 79.545799,67.5691281 C79.358799,67.1411281 79.198799,66.7741281 78.933799,66.1681281 C78.846799,66.7601281 78.799799,67.0761281 78.739799,67.4851281 L78.739799,67.4851281 Z M79.509799,71.2961281 C78.724799,70.5021281 77.753799,70.5621281 76.820799,70.5851281 C76.476799,70.5931281 76.107799,70.7971281 76.127799,71.2961281 L79.509799,71.2961281 Z M3.78379905,11.2331281 C4.59879905,12.0161281 5.54779905,12.5261281 6.07079905,12.3711281 C6.32879905,12.2951281 6.52479905,12.0141281 6.87479905,11.7201281 C5.71279905,11.5371281 4.77279905,11.3891281 3.78379905,11.2331281 L3.78379905,11.2331281 Z M11.081799,61.1911281 C11.188799,61.1221281 11.295799,61.0541281 11.402799,60.9841281 C10.588799,60.6801281 10.624799,60.2701281 10.865799,59.7511281 C11.011799,59.4341281 10.794799,59.1361281 10.365799,58.9351281 C10.089799,59.6241281 9.83179905,60.2651281 9.49779905,61.0961281 C10.163799,61.1361281 10.622799,61.1641281 11.081799,61.1911281 L11.081799,61.1911281 Z M39.935799,59.6051281 C39.894799,59.2941281 39.918799,59.1021281 39.841799,58.9691281 C39.727799,58.7701281 39.558799,58.4881281 39.385799,58.4671281 C39.025799,58.4251281 38.960799,58.7271281 38.922799,59.0561281 C38.866799,59.5451281 38.690799,60.0211281 38.643799,60.5121281 C38.621799,60.7551281 38.697799,61.1541281 38.858799,61.2401281 C39.226799,61.4351281 39.485799,61.1461281 39.601799,60.8001281 C39.745799,60.3661281 39.848799,59.9201281 39.935799,59.6051281 L39.935799,59.6051281 Z M74.945799,69.1831281 C74.894799,69.4931281 74.935799,69.7861281 74.808799,69.9101281 C74.406799,70.3031281 73.942799,70.6331281 73.502799,70.9871281 C73.224799,71.2111281 72.790799,71.3011281 72.804799,71.8071281 C73.976799,72.0991281 74.655799,71.4441281 75.143799,70.5451281 C75.346799,70.1711281 75.657799,69.7541281 75.433799,69.2161281 C75.263799,69.2041281 75.104799,69.1931281 74.945799,69.1831281 L74.945799,69.1831281 Z M29.173799,29.8651281 C29.054799,29.5871281 29.038799,29.4341281 28.953799,29.3691281 C28.110799,28.7101281 27.132799,28.8281281 26.169799,28.9381281 C26.059799,28.9511281 25.879799,29.1911281 25.897799,29.3001281 C25.926799,29.4791281 26.068799,29.7631281 26.199799,29.7841281 C27.141799,29.9361281 28.092799,30.1161281 29.173799,29.8651281 L29.173799,29.8651281 Z M76.578799,9.36912806 C76.072799,9.54012806 75.604799,9.69912806 75.000799,9.90312806 C75.455799,10.2811281 75.784799,10.7821281 76.141799,10.8041281 C76.914799,10.8491281 77.434799,11.1341281 77.779799,12.0041281 C78.067799,10.6901281 77.366799,10.0821281 76.578799,9.36912806 L76.578799,9.36912806 Z M12.062799,66.0531281 C12.726799,66.0911281 13.300799,66.1231281 13.899799,66.1571281 C13.846799,65.5151281 13.511799,65.3001281 13.125799,65.0781281 C12.600799,64.7771281 12.047799,64.4511281 12.215799,63.6801281 C11.637799,63.6131281 12.474799,62.8021281 11.698799,62.8080949 C11.220799,63.9051281 11.654799,64.9091281 12.062799,66.0531281 L12.062799,66.0531281 Z M57.415799,56.0281281 C56.927799,56.8221281 57.246799,57.3071281 57.578799,57.8121281 C57.920799,58.3321281 58.332799,58.7451281 58.980799,58.7651281 C59.195799,58.7711281 59.503799,58.6481281 59.615799,58.4811281 C59.818799,58.1781281 59.602799,57.8691281 59.315799,57.7691281 C58.703799,57.5571281 58.396799,57.0581281 58.033799,56.5951281 C57.891799,56.4131281 57.690799,56.2761281 57.415799,56.0281281 L57.415799,56.0281281 Z M69.242799,60.2981281 C70.601799,59.2011281 71.436799,57.8881281 71.809799,56.3301281 C71.232799,56.0181281 70.633799,55.6961281 69.914799,55.3081281 L69.914799,56.2451281 C70.083799,56.3011281 70.245799,56.3351281 70.388799,56.4081281 C70.566799,56.4991281 70.728799,56.6221281 70.863799,56.7091281 C70.868799,58.2111281 69.870799,59.1481281 69.242799,60.2981281 L69.242799,60.2981281 Z M8.19779905,11.6291281 C7.21579905,13.0411281 7.21579905,13.0411281 7.44679905,13.9951281 C7.67679905,13.9241281 8.10579905,13.8461281 8.10379905,13.7831281 C8.08079905,13.1591281 8.59979905,13.1311281 8.95379905,13.0241281 C9.66079905,12.8121281 10.012799,12.3241281 10.345799,11.6291281 L8.19779905,11.6291281 Z M78.723799,19.7291281 C79.745799,17.7061281 79.646799,16.7571281 77.383799,15.2741281 C77.280799,15.5351281 77.181799,15.7861281 77.076799,16.0531281 C77.403799,16.1151281 77.717799,16.3401281 77.902799,16.5521281 C78.129799,16.8141281 78.651799,16.9441281 78.437799,17.4021281 C78.317799,17.6611281 78.899799,17.8761281 78.333799,18.1901281 C77.906799,18.4271281 78.141799,19.0911281 78.723799,19.7291281 L78.723799,19.7291281 Z M11.811799,34.2221281 C12.269799,34.3361281 12.505799,34.4611281 12.726799,34.4381281 C13.945799,34.3181281 15.163799,34.1831281 16.374799,34.0051281 C16.740799,33.9511281 17.097799,33.7681281 17.433799,33.5981281 C17.757799,33.4341281 17.811799,33.1711281 17.549799,32.8601281 C15.721799,33.2941281 13.890799,33.7281281 11.811799,34.2221281 L11.811799,34.2221281 Z M51.957799,59.8641281 C51.750799,59.3521281 51.606799,58.8701281 51.357799,58.4501281 C51.273799,58.3081281 50.907799,58.2511281 50.700799,58.2961281 C50.558799,58.3261281 50.338799,58.6431281 50.376799,58.7591281 C50.645799,59.5611281 50.612799,60.3241281 50.310799,61.1131281 C50.256799,61.2551281 50.473799,61.6191281 50.644799,61.6921281 C50.810799,61.7621281 51.202799,61.6541281 51.280799,61.5101281 C51.550799,61.0031281 51.726799,60.4461281 51.957799,59.8641281 L51.957799,59.8641281 Z M69.340799,71.5171281 C70.567799,72.0001281 70.967799,72.0101281 71.924799,70.8891281 C72.619799,70.0751281 72.928799,69.0411281 73.081799,67.9821281 C73.099799,67.8621281 72.967799,67.6281281 72.866799,67.6021281 C72.609799,67.5401281 72.474799,67.6731281 72.589799,67.9561281 C72.024799,68.1311281 72.497799,68.6401281 72.266799,68.9591281 C72.045799,69.2661281 71.969799,69.6761281 71.822799,70.0581281 C71.169799,69.2531281 71.080799,70.5841281 70.592799,70.3171281 C70.769799,70.5141281 70.946799,70.7111281 71.325799,71.1311281 C70.802799,70.8741281 70.561799,70.7551281 70.307799,70.6301281 C69.973799,70.9361281 69.670799,71.2151281 69.340799,71.5171281 L69.340799,71.5171281 Z M74.942799,27.2971281 C73.892799,25.7871281 72.659799,24.7731281 71.095799,23.7261281 C71.504799,25.1671281 72.877799,25.5081281 73.316799,26.5831281 C72.822799,26.6911281 72.791799,26.7121281 72.560799,27.0701281 C72.734799,27.0161281 72.908799,26.9611281 73.080799,26.9071281 C73.214799,27.2931281 73.327799,27.6191281 73.480799,28.0601281 C73.982799,27.7991281 74.379799,27.5911281 74.942799,27.2971281 L74.942799,27.2971281 Z M67.148799,36.2431281 C67.114799,36.1211281 67.080799,35.9981281 67.046799,35.8751281 C66.695799,35.9081281 66.344799,35.9601281 65.992799,35.9721281 C64.936799,36.0091281 63.879799,36.0191281 62.823799,36.0631281 C62.514799,36.0761281 62.231799,36.2041281 62.2287742,36.5881281 C62.225799,36.9741281 62.494799,37.0861281 62.816799,37.1021281 C64.006799,37.1651281 65.195799,37.1751281 66.328799,36.7281281 C66.620799,36.6141281 66.875799,36.4081281 67.148799,36.2431281 L67.148799,36.2431281 Z M33.426799,58.5021281 C33.658799,58.3521281 33.864799,58.2951281 33.918799,58.1721281 C34.203799,57.5211281 34.820799,57.3171281 35.370799,57.0151281 C35.553799,56.9141281 35.785799,56.8221281 35.880799,56.6601281 C35.993799,56.4671281 36.082799,56.1531281 35.998799,55.9821281 C35.920799,55.8251281 35.560799,55.6691281 35.391799,55.7231281 C34.749799,55.9261281 34.102799,56.1551281 33.522799,56.4891281 C33.065799,56.7521281 32.854799,57.2731281 32.945799,57.8071281 C32.986799,58.0451281 33.242799,58.2471281 33.426799,58.5021281 L33.426799,58.5021281 Z M64.568799,27.4701281 C64.366799,27.3021281 64.261799,27.1561281 64.124799,27.1101281 C62.929799,26.7151281 60.962799,27.8261281 60.700799,29.0331281 C60.683799,29.1141281 60.674799,29.2001281 60.675799,29.2831281 C60.680799,29.6571281 61.034799,29.8911281 61.379799,29.7291281 C61.524799,29.6611281 61.683799,29.5571281 61.764799,29.4241281 C62.232799,28.6561281 62.986799,28.2961281 63.765799,27.9531281 C64.018799,27.8421281 64.244799,27.6671281 64.568799,27.4701281 L64.568799,27.4701281 Z M41.473799,48.1881281 C41.664799,48.4161281 41.797799,48.7281281 42.010799,48.7991281 C42.385799,48.9221281 42.646799,48.6921281 42.685799,48.2761281 C42.767799,47.4011281 43.199799,46.6921281 43.740799,46.0321281 C43.872799,45.8701281 44.028799,45.6991281 44.080799,45.5081281 C44.138799,45.2921281 44.091799,45.0471281 44.090799,44.8151281 C43.826799,44.8281281 43.443799,44.7351281 43.320799,44.8741281 C42.848799,45.4021281 42.408799,45.9761281 42.056799,46.5911281 C41.792799,47.0501281 41.682799,47.5961281 41.473799,48.1881281 L41.473799,48.1881281 Z M8.55479905,21.9681281 C8.59379905,21.9551281 8.65779905,21.9511281 8.66579905,21.9281281 C8.88779905,21.2911281 8.65979905,20.2131281 8.29779905,19.7131281 C8.15679905,19.5171281 8.10879905,19.1581281 8.18379905,18.9271281 C8.27679905,18.6411281 8.54179905,18.4091281 8.73479905,18.1501281 C8.81479905,18.3381281 8.89079905,18.5151281 9.05279905,18.8911281 C9.22679905,18.4171281 9.33279905,18.1291281 9.38679905,17.9801281 C9.18679905,17.6631281 9.03379905,17.4191281 8.90079905,17.2081281 C6.82979905,18.3991281 6.75379905,20.0431281 8.55479905,21.9681281 L8.55479905,21.9681281 Z M50.257799,43.5841281 C50.913799,44.7711281 51.546799,45.9461281 52.210799,47.1031281 C52.361799,47.3661281 52.630799,47.5401281 52.965799,47.3501281 C53.258799,47.1841281 53.362799,46.9531281 53.256799,46.6071281 C52.941799,45.5751281 52.387799,44.6811281 51.645799,43.9201281 C51.314799,43.5791281 50.879799,43.2221281 50.257799,43.5841281 L50.257799,43.5841281 Z M29.486799,40.0381281 C29.259799,39.7201281 29.148799,39.4141281 28.934799,39.2921281 C27.925799,38.7221281 26.849799,38.6931281 25.763799,39.0531281 C25.371799,39.1831281 25.067799,39.4561281 25.203799,39.9011281 C25.333799,40.3311281 25.712799,40.3791281 26.131799,40.3441281 C26.965799,40.2731281 27.802799,40.2561281 28.637799,40.2001281 C28.874799,40.1841281 29.108799,40.1121281 29.486799,40.0381281 L29.486799,40.0381281 Z M79.828799,53.3101281 C78.455799,53.5961281 77.193799,53.9081281 75.915799,54.1101281 C74.610799,54.3171281 73.288799,54.4181281 71.903799,54.5721281 C72.257799,55.0721281 72.780799,55.0871281 73.264799,55.1141281 C75.521799,55.2421281 77.583799,54.4821281 79.624799,53.6521281 C79.682799,53.6291281 79.705799,53.5211281 79.828799,53.3101281 L79.828799,53.3101281 Z M31.756799,27.2081281 C31.204799,26.1121281 30.682799,25.0771281 30.159799,24.0421281 C30.122799,23.9681281 30.089799,23.8561281 30.027799,23.8321281 C29.772799,23.7331281 29.455799,23.5351281 29.261799,23.6151281 C29.075799,23.6911281 28.908799,24.0721281 28.915799,24.3121281 C28.954799,25.5581281 30.172799,27.0151281 31.407799,27.3511281 C31.468799,27.3681281 31.554799,27.2941281 31.756799,27.2081281 L31.756799,27.2081281 Z M63.451799,45.1201281 C62.941799,45.0751281 62.622799,45.5501281 62.819799,46.0341281 C63.290799,47.1901281 64.132799,47.9771281 65.328799,48.3761281 C65.711799,48.5041281 66.016799,48.4011281 66.163799,48.0381281 C66.314799,47.6621281 66.122799,47.3711281 65.769799,47.2341281 C64.895799,46.8941281 64.298799,46.2781281 63.854799,45.4731281 C63.763799,45.3071281 63.553799,45.2061281 63.451799,45.1201281 L63.451799,45.1201281 Z M61.873799,68.1681281 C63.885799,67.2521281 64.544799,66.6431281 65.008799,65.2561281 C64.093799,65.8451281 63.254799,66.3851281 62.438799,66.9101281 C62.172799,66.6751281 61.992799,66.5161281 61.703799,66.2601281 C61.564799,66.4491281 61.448799,66.6091281 61.332799,66.7691281 C61.278799,66.5921281 61.220799,66.3961281 61.140799,66.1311281 C60.768799,66.2241281 60.415799,66.3101281 59.911799,66.4341281 C60.647799,67.0861281 61.244799,67.6121281 61.873799,68.1681281 L61.873799,68.1681281 Z M17.547799,45.8391281 C17.438799,45.5871281 17.417799,45.3901281 17.314799,45.3251281 C16.959799,45.1031281 16.584799,44.9091281 16.201799,44.7401281 C14.445799,43.9671281 12.634799,44.3701281 10.845799,44.5471281 C10.129799,44.6181281 9.43179905,44.8641281 8.72479905,45.0311281 C10.218799,45.1161281 11.692799,44.8981281 13.143799,45.0011281 C14.578799,45.1021281 15.992799,45.5281281 17.547799,45.8391281 L17.547799,45.8391281 Z M39.518799,20.1671281 C39.272799,20.5021281 38.939799,20.7581281 38.884799,21.0641281 C38.682799,22.1901281 39.665799,23.9381281 40.732799,24.4211281 C40.917799,24.5051281 41.181799,24.4161281 41.409799,24.4071281 C41.393799,24.1741281 41.464799,23.8761281 41.347799,23.7191281 C40.780799,22.9571281 40.389799,22.1411281 40.304799,21.1851281 C40.286799,20.9851281 40.228799,20.7631281 40.114799,20.6031281 C40.005799,20.4501281 39.800799,20.3651281 39.518799,20.1671281 L39.518799,20.1671281 Z M30.194799,16.4761281 C30.492799,16.0841281 30.738799,15.9091281 30.726799,15.7561281 C30.508799,13.0931281 29.658799,10.6871281 27.728799,8.73312806 C29.054799,11.0351281 29.449799,13.6331281 30.194799,16.4761281 L30.194799,16.4761281 Z M25.271799,58.7711281 C25.209799,58.2901281 25.135799,57.7961281 25.084799,57.3001281 C25.037799,56.8471281 25.263799,56.3141281 24.701799,55.9641281 C24.265799,58.9891281 24.862799,61.3811281 26.295799,62.2711281 C27.213799,61.3611281 26.143799,60.5021281 26.310799,59.5691281 C26.058799,59.6761281 25.906799,59.7401281 25.708799,59.8241281 C25.673799,59.6391281 25.640799,59.4641281 25.609799,59.2911281 C25.883799,59.2341281 26.051799,59.1991281 26.219799,59.1651281 L26.216799,58.9951281 C25.955799,58.9331281 25.695799,58.8721281 25.271799,58.7711281 L25.271799,58.7711281 Z M77.658799,23.4331281 C77.871799,22.9001281 78.037799,22.4731281 78.212799,22.0481281 C78.371799,21.6621281 78.330799,21.3131281 78.060799,20.9881281 C77.244799,20.0121281 76.331799,19.1461281 75.177799,18.5821281 C75.044799,18.5161281 74.830799,18.6171281 74.513799,18.6591281 C74.715799,18.9311281 74.853799,19.0651281 74.929799,19.2291281 C75.009799,19.4011281 75.029799,19.5991281 75.080799,19.8031281 C75.234799,19.6711281 75.322799,19.5951281 75.433799,19.4991281 C75.607799,19.6431281 75.772799,19.7721281 75.929799,19.9101281 C76.674799,20.5651281 76.685799,20.6481281 76.218799,21.5971281 C76.200799,21.6341281 76.271799,21.7151281 76.312799,21.8011281 C76.423799,21.7551281 76.531799,21.6841281 76.647799,21.6671281 C76.806799,21.6431281 76.972799,21.6611281 77.160799,21.6611281 C76.696799,22.3721281 76.696799,22.3721281 77.658799,23.4331281 L77.658799,23.4331281 Z M13.037799,20.1331281 C12.342799,19.7311281 11.794799,20.0151281 11.323799,20.4621281 C10.929799,20.8371281 10.587799,21.2711281 10.253799,21.7041281 C9.17079905,23.1091281 9.54079905,24.3081281 11.379799,25.0161281 C11.315799,24.5621281 11.328799,24.1441281 11.191799,23.7841281 C10.779799,22.7081281 10.888799,21.9361281 11.720799,21.1491281 C12.107799,20.7821281 12.566799,20.4921281 13.037799,20.1331281 L13.037799,20.1331281 Z M31.713799,43.7191281 C31.278799,44.3531281 30.879799,44.9401281 30.475799,45.5221281 C30.022799,46.1741281 29.347799,46.5001281 28.655799,46.8261281 C28.511799,46.8931281 28.402799,47.2881281 28.464799,47.4681281 C28.527799,47.6531281 28.801799,47.8221281 29.016799,47.8831281 C29.193799,47.9331281 29.437799,47.8531281 29.619799,47.7661281 C30.939799,47.1211281 31.792799,46.0691281 32.199799,44.6691281 C32.302799,44.3101281 32.322799,43.8981281 31.713799,43.7191281 L31.713799,43.7191281 Z M49.529799,27.1391281 C48.762799,25.6001281 47.176799,24.7521281 45.553799,24.9231281 C44.256799,25.0581281 43.306799,25.8071281 43.046799,26.9691281 C43.574799,26.6961281 44.065799,26.4761281 44.520799,26.1981281 C45.056799,25.8721281 45.618799,25.7291281 46.214799,25.9031281 C46.936799,26.1131281 47.645799,26.3711281 48.352799,26.6291281 C48.723799,26.7641281 49.078799,26.9411281 49.529799,27.1391281 L49.529799,27.1391281 Z M73.184799,66.3031281 C73.627799,66.4031281 74.083799,66.6241281 74.511799,66.5771281 C75.345799,66.4861281 76.184799,66.3111281 76.983799,66.0541281 C78.275799,65.6371281 78.637799,64.9061281 78.336799,63.5581281 C78.229799,63.0781281 78.099799,62.6031281 77.979799,62.1261281 C77.610799,62.7941281 76.747799,63.2241281 77.117799,64.0971281 C77.381799,64.7181281 77.098799,65.0131281 76.606799,65.3131281 C75.563799,65.9501281 74.407799,66.0891281 73.184799,66.3031281 L73.184799,66.3031281 Z M59.276799,76.8481281 C58.920799,76.0621281 58.681799,75.4911281 58.405799,74.9381281 C57.553799,73.2291281 56.895799,71.4661281 56.651799,69.5531281 C56.570799,68.9241281 56.295799,68.3201281 56.026799,67.4321281 C55.336799,70.8701281 56.707799,74.3611281 59.276799,76.8481281 L59.276799,76.8481281 Z M67.839799,71.2091281 C69.889799,69.5921281 71.022799,67.1331281 70.274799,65.8681281 C69.890799,66.8881281 69.392799,67.7841281 69.152799,68.7931281 C68.057799,68.5931281 67.779799,68.6201281 67.563799,69.3441281 C67.441799,69.7551281 67.216799,69.9011281 66.941799,70.0991281 C66.755799,70.2311281 66.584799,70.3861281 66.326799,70.5961281 C66.894799,70.8261281 67.355799,71.0131281 67.839799,71.2091281 L67.839799,71.2091281 Z M62.871799,68.9431281 C63.772799,69.3911281 64.479799,69.7431281 65.183799,70.0941281 C66.090799,69.5271281 66.685799,68.7601281 67.095799,67.8691281 C67.527799,66.9321281 68.127799,66.0391281 68.133799,64.9061281 C67.767799,64.9571281 67.472799,64.9991281 67.037799,65.0591281 C67.335799,65.2581281 67.519799,65.3801281 68.071799,65.7461281 C66.842799,65.4401281 67.190799,66.3731281 66.725799,66.7041281 C66.366799,66.9601281 66.243799,67.5461281 65.952799,68.1051281 C65.464799,68.0011281 64.894799,68.1281281 64.694799,68.8311281 C63.755799,68.5341281 63.755799,68.5341281 62.871799,68.9431281 L62.871799,68.9431281 Z M22.969799,73.5951281 C23.860799,70.3281281 25.170799,67.2151281 26.661799,64.1431281 C26.494799,64.1141281 26.440799,64.0901281 26.424799,64.1041281 C25.288799,65.1921281 24.218799,66.3111281 24.059799,68.0031281 C24.020799,68.4161281 23.832799,68.8151281 23.714799,69.2221281 C23.298799,70.6391281 22.816799,72.0441281 22.969799,73.5951281 L22.969799,73.5951281 Z M75.990799,14.9331281 C76.094799,13.0301281 75.118799,11.7901281 73.962799,10.6491281 C73.804799,10.4931281 73.503799,10.3791281 73.286799,10.4031281 C72.634799,10.4791281 71.990799,10.6331281 71.403799,10.7441281 C71.788799,11.1361281 72.188799,11.5431281 72.640799,12.0011281 C73.570799,11.8331281 73.687799,11.9231281 74.018799,13.0751281 C74.090799,13.3281281 74.243799,13.5581281 74.309799,13.6941281 C74.612799,13.5331281 74.919799,13.3701281 75.223799,13.2091281 C75.566799,13.7691281 75.327799,14.4681281 75.990799,14.9331281 L75.990799,14.9331281 Z M72.400799,20.8161281 C72.328799,20.8781281 72.255799,20.9391281 72.183799,21.0001281 C72.456799,21.2731281 72.693799,21.7211281 73.011799,21.7881281 C73.904799,21.9741281 73.053799,22.2431281 73.107799,22.5491281 C73.495799,22.6871281 73.930799,22.8431281 74.343799,22.9891281 C74.311799,23.1411281 74.269799,23.3441281 74.204799,23.6541281 C74.502799,23.4461281 74.677799,23.3251281 74.852799,23.2031281 C74.901799,23.2601281 74.951799,23.3161281 74.999799,23.3731281 C74.704799,23.6871281 74.408799,24.0021281 74.085799,24.3441281 C74.420799,24.3821281 74.742799,24.4191281 75.074799,24.4571281 C74.802799,25.3701281 75.336799,25.8191281 75.881799,26.2891281 C76.960799,25.1001281 77.248799,24.8661281 75.866799,23.2711281 C74.896799,22.1511281 73.647799,21.4991281 72.400799,20.8161281 L72.400799,20.8161281 Z M74.108799,62.7021281 C73.839799,62.8711281 74.354799,63.2341281 73.846799,63.3781281 C73.216799,63.5561281 72.632799,63.8911281 72.024799,64.1491281 C71.619799,64.3211281 71.206799,64.4751281 70.797799,64.6381281 C71.479799,64.7761281 72.090799,64.6491281 72.708799,64.5901281 C73.592799,64.5051281 74.322799,64.1661281 74.914799,63.4951281 C75.277799,63.0851281 75.695799,62.7241281 76.074799,62.3271281 C77.414799,60.9241281 77.413799,60.7221281 76.081799,59.3471281 C76.026799,59.2891281 75.938799,59.2621281 75.957799,59.2721281 C74.900799,59.2661281 75.706799,60.2021281 75.060799,60.4831281 C75.443799,60.5281281 75.660799,60.5531281 75.845799,60.5741281 C75.807799,60.9241281 75.777799,61.1981281 75.747799,61.4721281 C75.375799,61.5171281 75.368799,60.6641281 74.813799,61.1771281 C75.164799,61.4481281 75.477799,61.7581281 75.226799,62.3241281 C74.936799,62.1251281 74.682799,61.9521281 74.303799,61.6931281 C74.496799,62.1891281 74.627799,62.5271281 74.801799,62.9751281 C74.456799,62.8391281 74.273799,62.7671281 74.108799,62.7021281 L74.108799,62.7021281 Z M13.262799,58.4421281 C13.337799,58.1221281 13.450799,57.9141281 13.417799,57.7331281 C13.290799,57.0391281 13.140799,56.3471281 12.951799,55.6661281 C12.857799,55.3261281 12.660799,55.0151281 12.422799,54.5011281 C12.005799,55.2261281 11.692799,55.7631281 11.390799,56.3051281 C11.289799,56.4841281 11.154799,56.6761281 11.140799,56.8701281 C11.068799,57.8671281 12.037799,59.2891281 13.000799,59.6851281 C13.470799,59.8791281 13.820799,59.7631281 14.090799,59.3581281 C14.123799,59.3081281 14.080799,59.2061281 14.077799,59.1771281 C13.885799,59.1121281 13.701799,59.0501281 13.472799,58.9731281 C13.745799,58.7291281 13.928799,58.5661281 14.246799,58.2841281 C13.799799,58.3561281 13.566799,58.3931281 13.262799,58.4421281 L13.262799,58.4421281 Z M50.955799,54.3791281 C50.080799,54.7301281 50.690799,55.7141281 49.928799,56.0671281 C49.781799,55.4091281 50.446799,54.7811281 49.811799,54.0661281 C49.521799,55.1871281 49.173799,56.1151281 48.458799,56.9431281 C47.717799,57.8021281 46.673799,57.9171281 45.528799,58.5481281 L47.210799,58.5481281 C47.004799,58.7041281 46.861799,58.8111281 46.639799,58.9791281 C47.429799,59.1361281 47.413799,59.0911281 47.930799,58.9091281 C49.158799,58.4761281 49.978799,57.5911281 50.620799,56.5281281 C50.991799,55.9141281 51.157799,55.2161281 50.955799,54.3791281 L50.955799,54.3791281 Z M52.185799,22.0711281 C52.179799,23.1901281 51.986799,24.2601281 51.396799,25.2341281 C51.288799,25.4141281 51.127799,25.6171281 51.137799,25.8021281 C51.152799,26.0591281 51.247799,26.3681281 51.422799,26.5391281 C51.507799,26.6221281 51.867799,26.4751281 52.069799,26.3701281 C52.206799,26.2991281 52.291799,26.1221281 52.391799,25.9861281 C53.455799,24.5341281 53.542799,22.8471281 53.548799,21.1411281 C53.548799,21.0581281 53.553799,20.9471281 53.505799,20.8961281 C53.311799,20.6951281 53.124799,20.4021281 52.887799,20.3471281 C52.496799,20.2551281 52.254799,20.5831281 52.198799,20.9341281 C52.140799,21.3051281 52.185799,21.6911281 52.185799,22.0711281 L52.185799,22.0711281 Z M85.575799,28.8321281 C85.271799,28.7371281 85.226799,28.7061281 85.199799,28.7181281 C84.892799,28.8541281 84.587799,28.9991281 84.281799,29.1391281 C82.163799,30.1041281 80.002799,30.9531281 77.687799,31.3111281 C77.199799,31.3881281 76.684799,31.2791281 76.186799,31.3201281 C76.023799,31.3341281 75.782799,31.5301281 75.748799,31.6811281 C75.716799,31.8301281 75.858799,32.0871281 76.000799,32.1861281 C76.158799,32.2971281 76.409799,32.3341281 76.610799,32.3141281 C77.656799,32.2111281 78.719799,32.1671281 79.738799,31.9371281 C81.580799,31.5221281 83.124799,30.4251281 84.760799,29.5461281 C85.033799,29.3991281 85.240799,29.1321281 85.575799,28.8321281 L85.575799,28.8321281 Z M15.162799,60.5881281 C14.257799,60.7431281 13.962799,61.1451281 13.958799,61.8311281 C13.951799,63.2221281 14.471799,64.4561281 15.069799,65.6641281 C15.169799,65.8661281 15.428799,66.1121281 15.625799,66.1231281 C16.443799,66.1651281 17.285799,66.4761281 18.174799,65.9961281 C17.664799,65.5831281 17.529799,64.8151281 16.711799,64.8531281 C16.356799,64.3171281 15.824799,64.0341281 15.264799,63.7541281 C14.840799,63.5421281 14.932799,63.2731281 15.509799,62.9301281 C15.265799,62.5111281 15.022799,62.0911281 14.785799,61.6831281 C14.889799,61.3821281 14.994799,61.0771281 15.162799,60.5881281 L15.162799,60.5881281 Z M18.521799,52.4851281 C19.472799,52.3711281 19.459799,51.4191281 19.961799,50.9351281 C19.962799,50.9341281 19.908799,50.8771281 19.858799,50.8211281 C19.698799,50.8481281 19.520799,50.8771281 19.049799,50.9541281 C19.497799,50.6731281 19.702799,50.5441281 20.019799,50.3461281 C18.824799,49.3041281 18.028799,50.3811281 17.120799,50.5571281 C17.705799,53.3881281 19.320799,55.4681281 21.180799,55.5611281 C21.089799,55.3091281 21.062799,54.9391281 20.920799,54.8891281 C19.736799,54.4591281 19.248799,53.3761281 18.521799,52.4851281 L18.521799,52.4851281 Z M68.573799,62.7341281 C68.838799,63.3931281 69.057799,63.6001281 69.593799,63.4531281 C71.188799,63.0161281 72.302799,61.9421281 73.248799,60.6841281 C73.871799,59.8571281 74.562799,59.0181281 74.489799,57.8151281 C73.990799,57.4751281 73.498799,57.1131281 72.779799,56.9811281 C72.715799,57.6891281 72.650799,58.3191281 72.603799,58.9511281 C72.565799,59.4681281 72.691799,60.0531281 72.487799,60.4861281 C72.218799,61.0601281 71.777799,61.6391281 71.256799,61.9751281 C70.958799,62.1681281 70.571799,62.6481281 69.997799,62.3581281 C69.840799,62.2801281 69.508799,62.5501281 69.294799,62.6421281 L69.294799,63.1381281 C69.083799,63.0191281 68.926799,62.9321281 68.573799,62.7341281 L68.573799,62.7341281 Z M18.810799,29.0891281 C19.014799,28.6171281 18.521799,27.9551281 19.373799,28.0061281 C19.387799,28.0071281 19.447799,27.8401281 19.419799,27.7881281 C19.362799,27.6831281 19.200799,27.5161281 19.185799,27.5271281 C18.604799,27.9281281 18.200799,27.5371281 17.774799,27.2641281 C17.789799,27.0281281 17.721799,26.7501281 17.827799,26.6391281 C18.728799,25.6921281 19.809799,24.9661281 21.139799,24.2251281 C18.625799,24.3381281 16.100799,26.3231281 15.724799,28.3441281 C16.687799,28.8121281 17.637799,29.3451281 18.810799,29.0891281 L18.810799,29.0891281 Z M14.432799,27.7031281 C14.690799,27.1321281 15.178799,26.5691281 15.065799,26.1831281 C14.895799,25.6011281 15.127799,25.1691281 15.245799,24.8121281 C14.995799,24.3271281 14.811799,25.4641281 14.601799,24.6781281 C14.597799,24.6631281 14.126799,24.7721281 13.764799,24.8471281 C14.353799,23.5671281 15.473799,23.0161281 16.435799,22.3131281 C16.072799,21.8721281 15.698799,21.9001281 15.349799,22.1031281 C13.776799,23.0251281 12.608799,24.2661281 12.193799,26.1341281 C12.944799,26.6601281 13.627799,27.1391281 14.432799,27.7031281 L14.432799,27.7031281 Z M70.113799,12.6171281 C69.987799,12.9391281 69.923799,13.1041281 69.841799,13.3151281 C70.149799,13.2841281 70.353799,13.2631281 70.542799,13.2441281 C70.560799,13.4911281 70.169799,13.8501281 70.631799,13.7911281 C71.186799,13.7191281 70.782799,14.4011281 71.075799,14.2731281 C71.501799,14.0871281 71.430799,14.3861281 71.620799,14.5701281 C72.188799,15.1221281 72.178799,15.9261281 72.615799,16.4871281 C72.951799,16.9181281 72.852799,17.6261281 73.605799,17.9991281 C73.354799,15.8461281 72.637799,14.0921281 71.240799,12.6631281 C69.317799,10.6971281 69.843799,10.8171281 67.317799,11.9281281 C67.262799,11.9521281 67.236799,12.0441281 67.198799,12.1031281 C68.446799,13.3881281 68.480799,13.3951281 70.113799,12.6171281 L70.113799,12.6171281 Z M15.914799,51.1631281 C15.450799,51.4691281 15.121799,51.6481281 14.835799,51.8801281 C13.079799,53.2991281 13.038799,53.4571281 14.078799,55.4311281 C14.641799,56.4991281 15.611799,57.0921281 16.710799,57.4841281 C16.878799,57.5441281 17.104799,57.4411281 17.398799,57.4001281 C16.658799,56.7511281 15.781799,56.3671281 15.510799,55.4151281 C15.654799,55.2171281 15.802799,55.0121281 16.045799,54.6761281 C15.663799,54.7101281 15.466799,54.7271281 15.213799,54.7501281 C15.441799,54.2811281 15.629799,53.8981281 15.820799,53.5071281 C16.235799,53.9311281 16.308799,53.6371281 16.376799,53.3031281 C16.210799,53.2011281 16.042799,53.0991281 15.861799,52.9871281 C16.048799,52.8201281 16.225799,52.6621281 16.322799,52.5751281 C16.191799,52.1221281 16.085799,51.7561281 15.914799,51.1631281 L15.914799,51.1631281 Z M63.794799,14.1001281 C64.337799,14.5181281 64.797799,14.8721281 65.268799,15.2341281 C65.393799,15.0311281 65.578799,14.7351281 65.830799,14.3301281 C66.049799,14.6961281 66.183799,14.9201281 66.340799,15.1831281 C66.628799,15.1301281 66.918799,15.0771281 67.382799,14.9911281 C67.089799,15.2991281 66.930799,15.4661281 66.777799,15.6271281 C67.152799,16.1961281 67.423799,15.6801281 67.688799,15.5711281 C67.996799,15.9171281 68.289799,16.2461281 68.613799,16.6091281 C68.483799,16.8381281 68.345799,17.0781281 68.123799,17.4651281 C68.564799,17.2801281 68.810799,17.1771281 69.271799,16.9831281 C69.048799,17.3481281 68.944799,17.5161281 68.823799,17.7151281 C69.143799,17.7641281 69.439799,17.8091281 69.898799,17.8791281 C69.626799,18.1381281 69.484799,18.2721281 69.354799,18.3951281 C69.625799,18.5011281 69.903799,18.6091281 70.253799,18.7461281 C70.021799,18.9551281 69.894799,19.0691281 69.769799,19.1821281 C69.988799,19.2901281 70.186799,19.3881281 70.583799,19.5831281 C70.113799,19.7441281 69.867799,19.8291281 69.405799,19.9861281 C70.047799,20.0551281 70.484799,20.1011281 70.936799,20.1491281 C70.831799,17.9011281 68.192799,14.2251281 65.718799,12.8501281 C65.130799,13.2321281 64.506799,13.6381281 63.794799,14.1001281 L63.794799,14.1001281 Z M10.911799,16.3561281 C10.286799,15.4121281 10.972799,14.7531281 11.229799,14.0001281 C11.757799,14.0701281 11.753799,14.0651281 12.069799,13.8141281 C12.287799,13.6411281 12.518799,13.4841281 12.744799,13.3201281 C12.963799,13.6601281 13.224799,13.6801281 13.522799,13.4231281 C13.675799,13.6101281 13.827799,13.7991281 14.005799,14.0191281 C14.686799,13.1411281 15.299799,12.3521281 16.006799,11.4421281 C14.796799,11.4421281 13.750799,11.4201281 12.706799,11.4571281 C12.441799,11.4671281 12.088799,11.5971281 11.936799,11.7951281 C11.296799,12.6241281 10.670799,13.4731281 10.139799,14.3731281 C9.91979905,14.7451281 9.89079905,15.2641281 9.88579905,15.7171281 C9.87879905,16.2301281 10.220799,16.4251281 10.911799,16.3561281 L10.911799,16.3561281 Z M20.099799,12.4021281 C19.411799,12.1311281 18.846799,11.8591281 18.251799,11.6961281 C18.015799,11.6311281 17.630799,11.7161281 17.454799,11.8831281 C15.940799,13.3221281 14.689799,14.9751281 13.753799,16.8431281 C13.434799,17.4791281 13.468799,18.1721281 14.055799,18.8221281 C14.223799,18.2331281 14.360799,17.7521281 14.494799,17.2831281 C14.883799,17.3581281 15.181799,17.4151281 15.478799,17.4721281 C15.487799,17.4351281 15.495799,17.4001281 15.504799,17.3641281 C15.192799,17.1981281 14.881799,17.0321281 14.487799,16.8221281 C14.897799,16.2491281 15.273799,15.7221281 15.662799,15.1781281 C16.064799,15.2971281 16.429799,15.4051281 16.808799,15.5171281 C16.726799,14.9851281 16.661799,14.5561281 16.556799,13.8721281 C16.957799,14.3621281 17.190799,14.6461281 17.521799,15.0511281 L17.521799,13.5441281 C17.727799,13.7771281 17.883799,13.9541281 18.127799,14.2311281 C18.205799,13.9531281 18.205799,13.7561281 18.302799,13.6771281 C18.378799,13.6131281 18.633799,13.7661281 18.707799,13.7021281 C19.148799,13.3251281 19.559799,12.9131281 20.099799,12.4021281 L20.099799,12.4021281 Z M21.648799,56.8341281 C20.485799,60.1141281 21.257799,63.0461281 23.492799,64.5781281 C23.932799,64.2911281 24.402799,64.0101281 24.842799,63.6891281 C25.150799,63.4651281 25.259799,63.1351281 25.003799,62.8101281 C24.516799,62.1911281 23.990799,61.6041281 23.508799,60.9821281 C23.452799,60.9101281 23.570799,60.7031281 23.619799,60.5081281 L22.885799,60.5081281 C22.948799,60.7431281 22.996799,60.9211281 23.042799,61.0931281 C22.735799,61.0711281 22.515799,61.0561281 22.351799,61.0441281 C21.799799,60.4121281 22.023799,59.6261281 21.804799,58.9341281 C21.598799,58.2831281 21.688799,57.5381281 21.648799,56.8341281 L21.648799,56.8341281 Z M18.386799,58.3931281 C17.779799,59.4511281 17.735799,59.4531281 17.766799,60.1161281 C17.813799,61.1251281 17.941799,62.1301281 18.010799,63.1381281 C18.094799,64.3611281 18.718799,65.2601281 19.589799,65.9941281 C21.431799,65.6781281 21.431799,65.6781281 22.190799,65.1411281 C21.796799,64.5621281 21.060799,64.3141281 20.824799,63.5411281 C20.688799,63.0971281 20.370799,63.5491281 20.244799,63.6271281 C19.879799,63.2621281 19.530799,62.9141281 19.245799,62.6291281 C19.370799,62.5671281 19.637799,62.4371281 19.999799,62.2611281 C19.436799,62.0061281 18.844799,62.2241281 18.519799,61.5181281 C18.967799,61.5901281 19.292799,61.6411281 19.618799,61.6931281 L19.673799,61.5671281 C19.284799,61.3611281 18.894799,61.1551281 18.451799,60.9201281 C18.739799,60.7681281 18.957799,60.6531281 19.255799,60.4961281 C18.869799,60.4611281 18.613799,60.4371281 18.262799,60.4051281 C18.440799,60.1771281 18.603799,60.0551281 18.625799,59.9121281 C18.640799,59.8121281 18.400799,59.6921281 18.382799,59.5661281 C18.361799,59.4141281 18.479799,59.2461281 18.488799,59.0821281 C18.497799,58.9211281 18.444799,58.7571281 18.386799,58.3931281 L18.386799,58.3931281 Z M61.359799,14.5161281 C61.563799,14.3441281 61.776799,14.2451281 61.855799,14.0811281 C62.185799,13.4001281 62.566799,12.7241281 62.763799,12.0011281 C63.499799,9.30112806 62.911799,6.73012806 61.852799,4.23112806 C61.724799,3.92712806 61.486799,3.66512806 61.280799,3.39812806 C61.077799,3.13812806 60.850799,2.89612806 60.633799,2.64712806 C61.253799,4.58912806 61.648799,6.54112806 61.678799,8.51812806 C61.707799,10.4831281 61.480799,12.4521281 61.359799,14.5161281 L61.359799,14.5161281 Z M24.925799,15.2791281 C22.985799,16.9371281 21.468799,18.6111281 20.512799,20.7261281 C20.313799,21.1681281 20.300799,21.7031281 20.259799,22.1991281 C20.246799,22.3591281 20.422799,22.5351281 20.554799,22.7831281 C20.786799,22.3881281 20.984799,22.1021281 21.119799,21.7911281 C21.176799,21.6591281 21.031799,21.4341281 21.094799,21.3131281 C21.358799,20.8061281 21.558799,20.1481281 21.990799,19.8791281 C22.387799,19.6321281 22.526799,19.3141281 22.587799,19.1131281 C22.894799,19.0921281 23.135799,19.1311281 23.169799,19.0641281 C23.643799,18.1281281 24.161799,18.0321281 24.772799,18.7951281 C24.876799,18.9241281 24.944799,19.0821281 25.052799,19.2061281 C25.081799,19.2391281 25.194799,19.2001281 25.327799,19.1901281 C25.286799,19.0771281 25.238799,18.9811281 25.220799,18.8801281 C25.192799,18.7291281 25.184799,18.5741281 25.165799,18.3871281 C25.912799,18.7861281 25.912799,18.7861281 26.819799,17.8001281 C26.227799,17.0131281 25.626799,16.2141281 24.925799,15.2791281 L24.925799,15.2791281 Z M38.068799,44.3101281 C37.491799,44.1101281 37.074799,43.9651281 36.636799,43.8121281 C36.039799,47.2811281 34.875799,50.5351281 32.819799,53.4691281 C33.797799,53.0481281 34.698799,52.5731281 35.341799,51.7111281 C36.257799,50.4801281 36.980799,49.1521281 37.470799,47.6951281 C37.848799,46.5701281 38.142799,45.4341281 38.068799,44.3101281 L38.068799,44.3101281 Z M57.092799,43.8671281 C57.038799,43.9111281 56.983799,43.9561281 56.929799,44.0011281 C56.725799,43.8821281 56.433799,43.8141281 56.330799,43.6371281 C55.776799,42.6801281 55.268799,41.6961281 54.710799,40.6561281 C54.453799,40.8391281 54.160799,41.0461281 53.882799,41.2431281 C56.044799,46.4051281 57.604799,48.9291281 59.280799,49.8871281 C58.284799,47.9101281 58.078799,45.8551281 57.953799,43.7871281 C57.916799,43.1751281 57.597799,42.9901281 57.039799,43.0651281 C56.941799,43.0781281 56.837799,43.0521281 56.702799,43.0411281 C56.853799,43.3601281 56.972799,43.6141281 57.092799,43.8671281 L57.092799,43.8671281 Z M20.646799,16.4411281 C20.944799,16.6741281 21.154799,16.8381281 21.526799,17.1301281 C21.363799,16.6231281 21.273799,16.3461281 21.201799,16.1191281 C21.535799,16.1371281 22.021799,16.2251281 22.046799,16.1521281 C22.334799,15.3201281 23.383799,15.2771281 23.746799,14.4171281 C23.076799,13.9541281 22.394799,13.4831281 21.762799,13.0471281 C19.128799,14.4801281 16.847799,18.1691281 16.955799,20.8811281 C17.238799,20.6841281 17.643799,20.4851281 17.621799,20.4051281 C17.316799,19.3201281 18.122799,18.6231281 18.491799,17.7791281 C18.512799,17.7311281 18.608799,17.7171281 18.670799,17.6861281 C18.823799,17.9381281 18.973799,18.1841281 19.065799,18.3371281 C19.587799,17.7111281 20.105799,17.0901281 20.646799,16.4411281 L20.646799,16.4411281 Z M61.685799,51.1831281 C61.641799,51.2421281 61.596799,51.3001281 61.551799,51.3571281 C61.666799,51.4641281 61.765799,51.6191281 61.901799,51.6691281 C63.244799,52.1631281 64.563799,52.7861281 65.950799,53.0831281 C67.581799,53.4331281 69.199799,53.0731281 70.440799,51.8801281 C71.544799,50.8191281 72.399799,49.5361281 72.829799,48.0391281 C73.427799,45.9541281 73.368799,44.0051281 71.446799,42.5531281 C71.286799,42.4321281 71.009799,42.4651281 70.787799,42.4271281 C70.784799,42.6491281 70.696799,43.0131281 70.791799,43.0691281 C71.274799,43.3551281 71.109799,43.7451281 71.003799,44.1131281 C71.332799,44.2421281 71.615799,44.3531281 72.039799,44.5191281 C71.674799,44.7131281 71.463799,44.8241281 71.227799,44.9491281 C70.615799,44.3351281 70.039799,43.7581281 69.423799,43.1401281 C69.129799,43.2911281 68.742799,43.4891281 68.326799,43.7031281 C68.465799,43.8911281 68.531799,43.9961281 68.614799,44.0871281 C68.699799,44.1811281 68.809799,44.2511281 68.894799,44.3451281 C69.964799,45.5041281 70.591799,46.8681281 70.690799,48.4441281 C70.799799,50.1811281 69.830799,51.3201281 68.129799,51.6631281 C66.819799,51.9281281 65.620799,51.6231281 64.414799,51.1821281 C63.855799,50.9771281 63.315799,50.6671281 62.625799,50.8481281 C63.183799,51.1441281 63.740799,51.4401281 64.298799,51.7371281 C64.271799,51.8081281 64.244799,51.8771281 64.217799,51.9471281 C63.373799,51.6921281 62.529799,51.4381281 61.685799,51.1831281 L61.685799,51.1831281 Z M55.175799,33.4921281 C55.569799,33.1391281 55.742799,32.9821281 55.951799,32.7951281 C55.643799,32.3731281 55.408799,31.9691281 55.095799,31.6361281 C54.016799,30.4831281 52.869799,29.5161281 51.155799,29.3491281 C49.454799,29.1831281 47.795799,29.0311281 46.162799,29.6871281 C45.773799,29.8441281 45.342799,29.9751281 44.956799,29.6651281 C43.642799,28.6111281 42.039799,28.6301281 40.493799,28.4951281 C37.906799,28.2681281 35.957799,29.5471281 34.245799,31.2981281 C33.949799,31.5991281 33.587799,32.0591281 33.910799,32.4121281 C34.290799,32.8261281 34.019799,33.2861281 34.172799,33.8621281 C37.379799,30.1231281 40.976799,29.6831281 44.995799,32.1911281 C46.703799,31.1361281 48.581799,30.7631281 50.558799,30.7041281 C51.638799,30.6731281 52.455799,31.0741281 53.061799,31.9211281 C53.584799,32.6501281 54.060799,33.4131281 54.595799,34.2191281 C54.682799,33.9821281 54.857799,33.6671281 54.805799,33.6231281 C54.297799,33.2001281 54.553799,32.2781281 53.754799,32.0351281 C53.666799,32.0081281 53.691799,31.6101281 53.643799,31.2211281 C54.264799,31.8091281 54.755799,32.2751281 55.297799,32.7891281 C55.289799,32.8391281 55.261799,32.9981281 55.175799,33.4921281 L55.175799,33.4921281 Z M42.320799,58.5611281 C42.476799,58.9441281 42.625799,59.2481281 42.724799,59.5671281 C43.129799,60.8721281 43.519799,62.2241281 42.883799,63.5231281 C41.916799,65.5001281 41.692799,65.8201281 39.832799,65.8041281 C39.436799,65.8001281 38.966799,65.6821281 38.662799,65.4451281 C37.798799,64.7751281 36.970799,64.0511281 36.191799,63.2831281 C35.554799,62.6551281 34.885799,62.3811281 34.019799,62.6881281 C33.820799,62.7601281 33.612799,62.8081281 33.406799,62.8501281 C31.497799,63.2341281 29.768799,62.0531281 29.535799,60.1411281 C29.459799,59.5211281 29.581799,58.8781281 29.609799,58.2441281 C29.633799,57.7131281 29.771799,57.1571281 29.200799,56.5791281 C29.143799,57.1501281 29.128799,57.5931281 29.049799,58.0231281 C28.964799,58.4911281 28.821799,58.9481281 28.650799,59.6141281 C28.133799,58.4951281 28.778799,57.4181281 27.955799,56.3671281 C27.842799,57.0091281 27.722799,57.4471281 27.692799,57.8911281 C27.561799,59.8621281 28.281799,61.6271281 29.077799,63.3651281 C29.320799,63.8971281 29.738799,64.2631281 30.331799,64.3251281 C31.129799,64.4081281 31.934799,64.5071281 32.730799,64.4781281 C33.772799,64.4401281 34.609799,64.7331281 35.351799,65.4891281 C36.934799,67.1031281 38.975799,67.5811281 41.146799,67.6371281 C41.509799,67.6461281 41.965799,67.6011281 42.225799,67.3911281 C43.217799,66.5931281 44.116799,65.6951281 44.434799,64.3871281 C44.812799,62.8301281 44.747799,61.2701281 44.359799,59.7361281 C44.103799,58.7231281 43.684799,57.7611281 42.935799,56.9921281 C42.330799,57.3891281 42.964799,57.7391281 42.889799,58.0941281 C42.726799,58.2261281 42.569799,58.3561281 42.320799,58.5611281 L42.320799,58.5611281 Z M36.026799,27.0481281 C35.978799,26.9311281 35.941799,26.8141281 35.884799,26.7091281 C34.925799,24.9271281 34.796799,23.0981281 35.539799,21.2051281 C36.351799,19.1381281 37.774799,17.5201281 39.413799,16.1001281 C39.849799,15.7231281 40.561799,15.5511281 41.165799,15.5021281 C42.925799,15.3591281 44.486799,15.9141281 45.875799,17.0271281 C47.254799,18.1331281 49.036799,18.1411281 50.465799,17.1261281 C50.776799,16.9041281 51.082799,16.6771281 51.378799,16.4361281 C52.766799,15.3081281 55.148799,15.3921281 56.360799,17.0421281 C57.926799,19.1731281 58.275799,21.5321281 57.589799,24.0251281 C57.130799,25.6961281 56.494799,27.3171281 55.445799,28.7371281 C55.208799,29.0581281 54.923799,29.4071281 55.291799,29.8411281 C55.937799,29.2791281 56.613799,28.7981281 57.047799,28.0651281 C57.080799,28.0111281 57.451799,28.1561281 57.727799,28.2241281 C57.483799,28.5961281 57.163799,28.8651281 57.142799,29.1561281 C57.083799,29.9521281 56.634799,30.0501281 55.963799,29.8931281 C56.167799,30.2521281 56.330799,30.5371281 56.564799,30.9481281 C57.364799,29.9511281 58.243799,29.0701281 58.865799,28.0341281 C60.232799,25.7561281 61.027799,23.2651281 61.193799,20.5921281 C61.250799,19.6781281 61.088799,18.8251281 60.571799,18.0531281 C60.358799,17.7361281 60.136799,17.4211281 59.974799,17.0781281 C58.519799,13.9871281 53.566799,12.8181281 51.015799,14.1911281 C50.212799,14.6231281 49.380799,14.6041281 48.552799,14.3161281 C47.954799,14.1071281 47.345799,13.8911281 46.796799,13.5811281 C43.818799,11.8921281 41.018799,12.7481281 38.397799,14.3261281 C35.981799,15.7811281 34.358799,18.0141281 33.244799,20.6051281 C32.744799,21.7691281 32.583799,22.9811281 32.861799,24.2081281 C33.104799,25.2761281 33.440799,26.3291281 33.803799,27.3641281 C33.959799,27.8081281 34.290799,28.1911281 34.541799,28.6011281 L34.816799,28.4871281 C34.730799,28.2661281 34.656799,28.0381281 34.552799,27.8251281 C34.494799,27.7051281 34.314799,27.6101281 34.311799,27.5011281 C34.283799,26.5251281 33.972799,25.6041281 33.797799,24.6571281 C33.759799,24.4511281 33.818799,24.2271281 33.832799,24.0131281 C33.965799,24.6661281 34.247799,25.2411281 34.469799,25.8211281 C34.837799,26.7841281 35.327799,27.1271281 36.026799,27.0481281 L36.026799,27.0481281 Z M23.607799,32.4091281 C24.685799,32.8431281 25.739799,32.9201281 26.681799,33.4961281 C28.991799,34.9091281 30.911799,36.7641281 32.668799,38.7591281 C34.181799,40.4751281 36.020799,41.5511281 38.081799,42.3731281 C39.156799,42.8031281 40.256799,42.9561281 41.418799,43.0051281 C43.576799,43.0961281 45.629799,42.6661281 47.661799,42.0541281 C50.093799,41.3201281 52.498799,40.5331281 54.600799,39.0201281 C55.591799,38.3071281 56.664799,37.7031281 57.718799,37.0781281 C59.984799,35.7331281 62.304799,34.5091281 64.995799,34.1391281 C64.219799,33.4661281 63.755799,33.1861281 62.787799,32.9001281 C59.876799,32.0421281 57.664799,32.4721281 55.676799,35.0071281 C55.389799,35.3721281 55.128799,35.7581281 54.860799,36.1381281 C54.390799,36.8051281 54.144799,36.9041281 53.365799,36.6921281 C53.080799,36.6141281 52.807799,36.4951281 52.527799,36.3981281 C50.691799,35.7601281 48.871799,35.7221281 47.098799,36.5981281 C46.418799,36.9331281 45.762799,37.3171281 45.116799,37.7151281 C44.247799,38.2511281 43.491799,38.9141281 42.828799,39.7051281 C42.316799,40.3151281 41.849799,40.2401281 41.390799,39.5851281 C41.269799,39.4141281 41.193799,39.2121281 41.095799,39.0241281 C40.301799,37.5071281 38.998799,36.5941281 37.415799,36.1041281 C36.289799,35.7571281 35.117799,35.5431281 33.954799,35.3301281 C33.325799,35.2151281 32.885799,34.9611281 32.542799,34.3971281 C30.866799,31.6351281 26.765799,30.5991281 23.607799,32.4091281 L23.607799,32.4091281 Z M60.748799,41.1511281 C60.283799,41.1421281 59.679799,41.7831281 59.403799,40.8651281 C59.395799,40.8401281 59.255799,40.8191281 59.247799,40.8361281 C58.953799,41.3631281 58.503799,40.8951281 58.433799,40.8001281 C58.055799,40.2841281 57.218799,40.5101281 56.948799,39.7901281 C56.874799,39.5961281 56.294799,39.5151281 55.968799,39.8411281 C56.902799,41.0671281 57.098799,41.1601281 58.210799,41.7171281 C59.776799,42.4991281 61.423799,42.6991281 63.140799,42.6551281 C66.964799,42.5561281 69.863799,40.8261281 71.868799,37.6301281 C73.017799,35.8001281 73.484799,33.7521281 73.465799,31.5711281 C73.453799,30.1851281 72.870799,29.2301281 71.712799,28.5681281 C71.346799,28.3591281 70.966799,28.1681281 70.576799,28.0061281 C69.912799,27.7311281 69.560799,27.2881281 69.623799,26.5381281 C69.659799,26.1171281 69.665799,25.6861281 69.621799,25.2671281 C69.585799,24.9421281 69.543799,24.5451281 69.344799,24.3221281 C68.558799,23.4411281 67.732799,22.5931281 66.871799,21.7861281 C66.611799,21.5431281 66.195799,21.3691281 65.838799,21.3451281 C64.783799,21.2711281 63.721799,21.2621281 62.662799,21.2831281 C62.245799,21.2921281 62.231799,21.6021281 62.405799,21.9041281 C62.986799,21.9041281 63.568799,21.8351281 64.125799,21.9231281 C64.736799,22.0201281 65.325799,22.2641281 65.939799,22.4481281 C65.704799,22.7571281 65.482799,22.9201281 65.071799,22.7471281 C64.181799,22.3731281 63.263799,22.1681281 62.315799,22.5531281 L62.315799,23.1371281 C62.961799,23.1911281 63.543799,23.2651281 64.128799,23.2831281 C64.996799,23.3101281 65.659799,23.7211281 66.234799,24.3211281 C66.972799,25.0921281 67.393799,25.9941281 67.316799,27.0761281 C67.206799,28.6131281 67.873799,29.7451281 69.032799,30.6961281 C70.830799,32.1721281 71.112799,33.4231281 70.373799,35.6251281 C69.438799,38.4151281 66.253799,40.5121281 63.304799,40.1151281 C62.093799,39.9521281 60.902799,39.6221281 59.712799,39.3281281 C59.079799,39.1721281 58.463799,38.9521281 57.765799,38.9551281 C57.824799,39.1161281 57.831799,39.2171281 57.886799,39.2711281 C58.128799,39.5121281 60.043799,40.5701281 60.371799,40.7321281 C60.524799,40.8081281 60.601799,41.0341281 60.713799,41.1921281 L60.748799,41.1511281 Z M47.002799,65.0751281 C46.511799,65.3921281 46.158799,65.1291281 45.803799,64.6331281 C45.765799,64.9971281 45.744799,65.2011281 45.728799,65.3511281 C46.428799,65.6731281 47.072799,65.9751281 47.723799,66.2631281 C48.418799,66.5691281 49.099799,66.9391281 49.826799,67.1401281 C51.076799,67.4831281 52.290799,67.5791281 53.324799,66.4591281 C54.234799,65.4721281 55.386799,64.8801281 56.782799,64.8091281 C58.511799,64.7221281 60.219799,64.5131281 61.923799,64.1351281 C64.094799,63.6531281 65.838799,62.6771281 67.065799,60.7841281 C68.287799,58.9021281 68.269799,56.8311281 68.271799,54.6251281 C67.268799,54.7731281 67.613799,55.4811281 67.496799,55.9151281 C67.362799,56.4091281 67.312799,56.9281281 67.228799,57.4181281 C66.715799,57.4131281 66.715799,57.4131281 66.400799,57.9251281 C66.420799,57.1901281 65.995799,56.5241281 66.753799,56.0021281 C66.424799,55.8911281 66.103799,56.0201281 66.065799,55.5321281 C66.033799,55.1181281 65.869799,54.6061281 65.238799,54.6771281 C65.203799,54.7331281 65.167799,54.7661281 65.160799,54.8061281 C65.131799,54.9691281 65.086799,55.1351281 65.091799,55.2991281 C65.161799,57.6171281 64.144799,59.4691281 62.567799,61.0511281 C61.168799,62.4541281 59.436799,62.9631281 57.565799,62.3261281 C55.805799,61.7271281 54.539799,62.3111281 53.361799,63.5261281 C52.985799,63.9151281 52.567799,64.3001281 52.097799,64.5541281 C50.536799,65.3951281 48.953799,65.4041281 47.389799,64.5161281 C47.121799,64.3641281 46.841799,64.2311281 46.355799,63.9791281 C46.658799,64.5081281 46.824799,64.7971281 46.990799,65.0871281 L47.002799,65.0751281 Z M21.791799,34.5321281 L21.821799,34.5621281 C21.661799,34.3841281 21.501799,34.2051281 21.307799,33.9891281 C20.979799,34.2271281 20.629799,34.3671281 20.457799,34.6261281 C19.663799,35.8271281 18.860799,37.0581281 18.798799,38.5481281 C18.736799,40.0701281 18.723799,41.6021281 18.832799,43.1201281 C18.913799,44.2421281 19.022799,45.4741281 20.071799,46.1911281 C21.038799,46.8521281 21.241799,47.7661281 21.309799,48.8171281 C21.521799,52.0581281 24.523799,54.8061281 27.780799,54.7561281 C28.037799,54.7521281 28.292799,54.6421281 28.549799,54.5821281 C27.154799,54.4771281 26.094799,53.7481281 25.050799,53.0001281 C24.974799,52.9451281 25.040799,52.6901281 25.040799,52.4621281 C26.183799,53.1381281 27.109799,54.0301281 28.726799,53.7731281 C27.424799,53.3451281 26.497799,52.7901281 25.899799,51.8001281 C25.281799,50.7741281 24.597799,49.6621281 24.735799,48.4971281 C24.959799,46.6111281 23.880799,45.4741281 22.929799,44.1291281 C21.224799,41.7171281 20.766799,39.0401281 21.828799,36.2011281 C22.001799,35.7361281 22.210799,35.2851281 22.432799,34.7591281 C22.165799,34.6641281 21.978799,34.5991281 21.791799,34.5321281 L21.791799,34.5321281 Z M56.901799,52.8501281 L56.943799,52.8971281 C57.214799,52.2991281 57.460799,51.6871281 57.766799,51.1071281 C57.987799,50.6871281 57.827799,50.4951281 57.469799,50.3451281 C55.663799,51.9321281 54.344799,52.1121281 52.146799,51.0761281 C51.611799,50.8241281 51.070799,50.5761281 50.561799,50.2761281 C49.696799,49.7661281 48.855799,49.8901281 48.043799,50.3471281 C47.644799,50.5721281 47.310799,50.9101281 46.939799,51.1891281 C46.164799,51.7731281 45.440799,52.4501281 44.598799,52.9131281 C42.433799,54.1011281 41.005799,54.2361281 38.833799,52.6881281 C38.463799,52.4251281 38.123799,52.1191281 37.686799,51.7661281 C37.644799,52.0171281 37.619799,52.1731281 37.593799,52.3271281 L37.399799,52.5791281 C37.205799,52.3981281 37.010799,52.2181281 36.761799,51.9861281 C36.798799,52.4411281 36.853799,52.8061281 36.852799,53.1701281 C36.850799,53.9191281 37.246799,54.4651281 37.789799,54.8811281 C38.502799,55.4271281 39.308799,55.7581281 40.248799,55.7291281 C41.856799,55.6821281 43.297799,55.1311281 44.676799,54.3631281 C45.302799,54.0151281 45.933799,53.6731281 46.543799,53.2971281 C47.692799,52.5901281 48.917799,52.5631281 50.210799,52.7441281 C51.473799,52.9211281 52.489799,53.5991281 53.552799,54.1921281 C55.268799,55.1491281 57.315799,54.8221281 58.619799,53.3641281 C59.197799,52.7181281 59.221799,52.4331281 58.837799,51.7031281 C58.518799,52.1331281 58.161799,52.6131281 57.831799,53.0581281 C57.462799,52.9751281 57.182799,52.9131281 56.901799,52.8501281 L56.901799,52.8501281 Z M31.263799,18.8831281 C31.341799,18.3061281 31.797799,18.4481281 32.135799,18.4681281 C32.540799,18.4901281 32.539799,18.5291281 32.767799,17.9521281 C32.152799,17.8911281 31.569799,17.7281281 31.015799,17.8001281 C30.007799,17.9301281 29.061799,18.2951281 28.201799,18.8741281 C25.941799,20.3961281 24.352799,22.4051281 23.613799,25.0521281 C23.238799,26.3981281 22.502799,27.5011281 21.395799,28.3661281 C19.887799,29.5431281 19.359799,31.2211281 19.117799,33.0181281 C19.076799,33.3241281 19.208799,33.6531281 19.310799,34.2731281 C19.797799,33.3511281 20.144799,32.6961281 20.526799,31.9741281 C21.116799,32.0141281 21.802799,32.1481281 22.271799,31.4421281 C22.010799,30.6321281 22.263799,29.8801281 22.817799,29.2561281 C23.200799,28.8251281 23.646799,28.3991281 24.150799,28.1371281 C25.309799,27.5331281 25.745799,26.7081281 25.622799,25.3651281 C25.404799,22.9701281 26.519799,21.3171281 28.783799,20.4601281 C29.605799,20.1481281 30.494799,20.0161281 31.342799,19.7681281 C31.507799,19.7201281 31.623799,19.5101281 31.762799,19.3741281 C31.621799,19.2371281 31.479799,19.1011281 31.337799,18.9651281 L31.263799,18.8831281 Z M66.272799,18.8171281 C66.628799,19.4951281 66.803799,19.7021281 67.447799,19.9871281 C67.092799,19.5651281 66.736799,19.1441281 66.380799,18.7231281 C65.809799,17.4501281 64.641799,16.6841281 63.769799,15.6671281 C63.563799,15.4261281 63.247799,15.2791281 62.896799,15.0301281 C62.525799,15.5661281 62.203799,16.0301281 61.860799,16.5241281 C62.221799,16.8151281 62.462799,17.0101281 62.765799,17.2541281 C63.031799,16.8961281 63.222799,16.6391281 63.502799,16.2611281 C64.091799,16.8141281 64.686799,17.3781281 65.287799,17.9341281 C65.610799,18.2341281 65.944799,18.5231281 66.272799,18.8171281 L66.272799,18.8171281 Z M78.842799,24.4631281 C79.411799,24.4631281 79.991799,24.4351281 80.567799,24.4691281 C81.997799,24.5511281 83.205799,25.3191281 84.507799,25.7931281 C85.260799,26.0671281 86.001799,26.3911281 86.707799,26.7691281 C87.404799,27.1411281 88.049799,27.6081281 88.867799,28.1291281 C88.422799,28.5701281 88.131799,28.9181281 87.783799,29.1931281 C85.566799,30.9541281 83.081799,32.2011281 80.371799,33.0051281 C80.168799,33.0641281 79.961799,33.1151281 79.763799,33.1881281 C78.195799,33.7701281 76.634799,33.8581281 75.002799,33.0441281 C74.781799,33.9921281 74.647799,34.9031281 74.349799,35.7581281 C74.029799,36.6721281 73.615799,37.5651281 73.132799,38.4041281 C72.672799,39.2041281 72.070799,39.9221281 71.512799,40.6991281 C72.877799,41.4291281 73.678799,42.6171281 74.448799,43.8251281 C74.599799,44.0611281 74.669799,44.3841281 74.679799,44.6701281 C74.730799,46.2401281 74.736799,47.8081281 74.038799,49.2781281 C73.947799,49.4671281 73.906799,49.6801281 73.808799,49.9881281 C74.202799,50.0141281 74.558799,50.0671281 74.911799,50.0571281 C76.732799,49.9981281 78.442799,50.3611281 80.022799,51.3021281 C80.531799,51.6041281 81.100799,51.8041281 81.612799,52.1001281 C82.377799,52.5441281 82.346799,52.9981281 81.607799,53.4941281 C79.638799,54.8171281 77.420799,55.4751281 75.142799,55.9871281 C75.029799,56.0131281 74.925799,56.0801281 74.784799,56.1431281 C75.539799,56.8541281 76.274799,57.5291281 76.990799,58.2231281 C78.530799,59.7161281 79.440799,61.5311281 79.838799,63.6401281 C80.418799,66.7081281 81.737799,69.4091281 83.977799,71.6321281 C84.365799,72.0161281 84.703799,72.4621281 84.997799,72.9221281 C85.110799,73.0981281 85.139799,73.4771281 85.026799,73.6111281 C84.866799,73.8001281 84.523799,73.9631281 84.286799,73.9311281 C83.833799,73.8691281 83.403799,73.6541281 82.958799,73.5171281 C80.706799,72.8231281 78.421799,72.4411281 76.084799,73.0071281 C71.961799,74.0051281 68.019799,73.5581281 64.244799,71.6231281 C63.492799,71.2371281 62.731799,70.8661281 61.851799,70.4281281 C62.318799,73.5741281 62.580799,76.6061281 61.060799,79.6101281 C57.109799,76.4281281 54.745799,72.6371281 54.835799,67.4061281 C54.470799,67.7141281 54.168799,67.9521281 53.883799,68.2101281 C53.356799,68.6851281 52.758799,68.8621281 52.038799,68.9131281 C50.322799,69.0331281 48.770799,68.5991281 47.290799,67.7921281 C46.992799,67.6301281 46.692799,67.4711281 46.387799,67.3231281 C45.422799,66.8561281 45.100799,66.8791281 44.428799,67.7021281 C43.152799,69.2661281 41.560799,69.6111281 39.643799,69.2401281 C37.560799,68.8361281 35.625799,68.2031281 34.119799,66.6231281 C33.628799,66.1091281 33.050799,66.0031281 32.476799,66.1741281 C31.066799,70.6471281 28.180799,73.5471281 23.847799,75.0421281 C23.607799,75.1251281 23.362799,75.2041281 23.113799,75.2431281 C22.403799,75.3531281 22.188799,75.1431281 22.253799,74.4321281 C22.276799,74.1791281 22.361799,73.9191281 22.325799,73.6771281 C21.959799,71.1941281 22.665799,68.8921281 23.480799,66.6061281 C23.521799,66.4911281 23.535799,66.3651281 23.592799,66.1011281 C23.267799,66.2071281 23.006799,66.2581281 22.777799,66.3721281 C21.200799,67.1661281 19.520799,67.5941281 17.766799,67.5961281 C15.821799,67.5991281 13.871799,67.5431281 11.932799,67.4041281 C9.83879905,67.2541281 7.90379905,67.8281281 5.98579905,68.5101281 C5.19379905,68.7911281 4.45579905,69.2261281 3.68779905,69.5781281 C3.30779905,69.7531281 2.94779905,69.7591281 2.69279905,69.3461281 C2.47479905,68.9901281 2.58079905,68.6421281 2.85979905,68.4351281 C6.22679905,65.9371281 7.54379905,62.2101281 8.85679905,58.4811281 C9.39179905,56.9631281 9.97179905,55.4701281 10.802799,54.0771281 C11.526799,52.8621281 12.388799,51.7781281 13.463799,50.8611281 C13.686799,50.6711281 13.909799,50.4811281 14.233799,50.2041281 C10.875799,49.3761281 7.79779905,48.3931281 5.80479905,45.5301281 C5.90379905,45.0081281 6.26479905,44.8311281 6.66679905,44.6501281 C9.33579905,43.4471281 12.148799,43.2681281 15.007799,43.4861281 C15.755799,43.5431281 16.490799,43.7831281 17.323799,43.9591281 C17.356799,42.7201281 17.393799,41.5141281 17.418799,40.3081281 C17.447799,38.8691281 17.423799,37.4341281 18.099799,36.0841281 C18.251799,35.7791281 18.055799,35.3001281 18.007799,34.7611281 C16.528799,35.3391281 15.095799,35.6371281 13.626799,35.6391281 C12.492799,35.6391281 11.350799,35.5741281 10.224799,35.4391281 C9.40779905,35.3411281 8.74079905,34.8471281 8.14879905,34.2801281 C7.59779905,33.7521281 7.59979905,33.4341281 8.19479905,32.9371281 C10.068799,31.3721281 12.216799,30.4581281 14.654799,30.2401281 C14.855799,30.2231281 15.056799,30.1971281 15.348799,30.1661281 C14.364799,29.5581281 13.461799,29.0161281 12.576799,28.4491281 C9.82979905,26.6901281 7.95379905,24.1321281 6.19679905,21.4671281 C4.74479905,19.2641281 3.70379905,16.8551281 2.77679905,14.3991281 C2.22079905,12.9261281 1.67279905,11.4621281 0.512799049,10.3311281 C0.482799049,10.3021281 0.457799049,10.2661281 0.433799049,10.2311281 C0.174799049,9.85412806 -0.231200951,9.48012806 0.166799049,8.99412806 C0.535799049,8.54412806 1.02079905,8.75212806 1.45879905,8.90012806 C2.05879905,9.10412806 2.64479905,9.35412806 3.24779905,9.55012806 C4.87879905,10.0791281 6.55779905,10.2101281 8.26479905,10.1831281 C11.019799,10.1401281 13.774799,10.1491281 16.529799,10.1211281 C17.647799,10.1091281 18.696799,10.3401281 19.744799,10.7381281 C21.374799,11.3591281 22.982799,11.9941281 24.324799,13.1521281 C24.449799,13.2601281 24.612799,13.3251281 24.763799,13.4001281 C24.790799,13.4141281 24.841799,13.3801281 24.981799,13.3381281 C25.007799,12.8001281 25.089799,12.2201281 25.053799,11.6471281 C24.951799,10.0551281 25.463799,8.55212806 25.674799,7.00612806 C25.691799,6.88412806 25.764799,6.76812806 25.809799,6.65012806 C26.104799,5.89712806 26.554799,5.72012806 27.150799,6.23612806 C28.337799,7.26412806 29.476799,8.35612806 30.269799,9.72912806 C31.231799,11.3951281 31.861799,13.1831281 32.023799,15.1191281 C32.044799,15.3641281 32.143799,15.6021281 32.218799,15.8901281 C32.860799,15.9821281 33.480799,16.0721281 34.085799,16.1591281 C35.010799,15.3501281 35.897799,14.4981281 36.863799,13.7461281 C39.119799,11.9871281 41.682799,11.1121281 44.554799,11.4221281 C45.376799,11.5101281 46.172799,11.8831281 46.970799,12.1571281 C47.328799,12.2801281 47.664799,12.4711281 48.003799,12.6451281 C48.988799,13.1551281 49.897799,13.2861281 51.003799,12.7491281 C52.497799,12.0231281 54.150799,12.2651281 55.752799,12.5341281 C55.988799,12.5731281 56.225799,12.6121281 56.419799,12.6441281 C56.412799,11.0201281 56.456799,9.46712806 56.382799,7.91812806 C56.295799,6.10012806 56.986799,4.51612806 57.751799,2.95712806 C58.159799,2.12412806 58.696799,1.35112806 59.213799,0.577128057 C59.730799,-0.197871943 60.130799,-0.177871943 60.651799,0.550128057 C61.041799,1.09512806 61.482799,1.60312806 61.903799,2.12612806 C63.572799,4.19312806 64.675799,6.47512806 64.605799,9.20812806 C64.586799,9.92212806 64.602799,10.6371281 64.602799,11.4341281 C65.540799,11.0101281 66.431799,10.6481281 67.282799,10.2121281 C68.716799,9.47512806 70.292799,9.40812806 71.829799,9.12312806 C74.323799,8.66112806 76.803799,8.14212806 78.995799,6.72512806 C80.129799,5.99212806 81.380799,5.44212806 82.236799,4.32312806 C82.374799,4.14212806 82.763799,4.03012806 82.997799,4.07712806 C83.386799,4.15512806 83.483799,4.52812806 83.391799,4.89112806 C83.225799,5.54812806 83.030799,6.19712806 82.839799,6.84712806 C82.445799,8.18612806 81.971799,9.50712806 81.671799,10.8671281 C81.398799,12.1011281 81.291799,13.3761281 81.149799,14.6371281 C80.781799,17.8891281 80.167799,21.0781281 78.846799,24.0971281 C78.816799,24.1661281 78.842799,24.2601281 78.842799,24.4631281 L78.842799,24.4631281 Z" id="Fill-801"></path>
            <path d="M31.338099,18.9648281 C31.153099,19.0798281 30.982099,19.2528281 30.780099,19.2998281 C29.956099,19.4908281 29.122099,19.6438281 28.207099,19.8278281 C28.440099,19.1448281 29.176099,19.0488281 29.638099,18.8538281 C30.060099,18.6748281 30.738099,18.3878281 31.263099,18.8828281 L31.338099,18.9648281 Z" id="Fill-803"></path>
            <path d="M37.593499,52.3271281 C38.037499,52.9311281 38.481499,53.5371281 38.981499,54.2191281 C38.009499,54.3561281 38.192499,53.6251281 37.965499,53.2591281 C37.863499,53.3491281 37.777499,53.4261281 37.623499,53.5601281 C37.542499,53.2051281 37.471499,52.8921281 37.400499,52.5791281 L37.593499,52.3271281 Z" id="Fill-805"></path>
            <path d="M46.003699,39.4121281 C46.119699,38.9061281 46.235699,38.4001281 46.359699,37.8651281 C46.640699,37.9751281 46.819699,38.0451281 47.026699,38.1271281 C47.254699,37.8501281 47.479699,37.5781281 47.779699,37.2141281 C47.878699,37.5521281 47.936699,37.7501281 48.018699,38.0331281 C48.265699,37.7231281 48.432699,37.4601281 48.651699,37.2511281 C48.876699,37.0371281 49.105699,37.1111281 49.273699,37.3651281 L49.303699,37.3291281 C48.804699,38.3611281 47.835699,38.7221281 46.832699,38.7771281 C46.339699,38.8061281 46.420699,38.9361281 46.387699,39.2291281 C46.380699,39.2911281 46.115699,39.3221281 45.970699,39.3681281 L46.003699,39.4121281 Z" id="Fill-807"></path>
            <path d="M36.095499,37.1494281 C36.443499,37.0564281 36.792499,36.9624281 37.222499,36.8464281 C37.991499,37.4164281 38.784499,38.0034281 39.582499,38.5934281 C39.128499,39.1764281 38.703499,38.7694281 38.535499,38.5854281 C37.867499,37.8494281 37.101499,37.3654281 36.095499,37.1494281" id="Fill-809"></path>
            <path d="M59.482699,33.8008281 C59.890699,32.9478281 60.704699,33.8168281 61.231699,33.3968281 C61.315699,33.3298281 61.799699,33.7858281 62.080699,34.2268281 C61.826699,34.0418281 61.728699,33.9708281 61.615699,33.8898281 C61.544699,34.0398281 61.476699,34.1858281 61.407699,34.3308281 C60.463699,33.9378281 60.376699,33.9578281 59.752699,34.6968281 C59.655699,34.4018281 59.551699,34.0808281 59.447699,33.7618281 L59.482699,33.8008281 Z" id="Fill-811"></path>
            <path d="M49.273699,37.3652281 C49.833699,36.8632281 50.431699,37.1932281 51.164699,37.2252281 C50.981699,37.5492281 50.860699,37.7642281 50.713699,38.0232281 C50.544699,37.7852281 50.428699,37.6212281 50.313699,37.4602281 C50.237699,37.4802281 50.129699,37.4822281 50.115699,37.5182281 C50.017699,37.7772281 49.995699,38.1832281 49.602699,38.0242281 C49.436699,37.9572281 49.399699,37.5702281 49.303699,37.3292281 L49.273699,37.3652281 Z" id="Fill-813"></path>
            <path d="M59.447499,33.7617281 C59.297499,34.0347281 59.157499,34.3157281 58.992499,34.5807281 C58.857499,34.7977281 58.693499,34.9977281 58.544499,35.2007281 C58.348499,33.6797281 58.408499,33.5897281 59.482499,33.8007281 L59.447499,33.7617281 Z" id="Fill-815"></path>
            <path d="M45.970499,39.3682281 C45.859499,39.5622281 45.748499,39.7562281 45.617499,39.9852281 C45.181499,39.3662281 45.181499,39.3662281 45.569499,38.7622281 C45.714499,38.9792281 45.859499,39.1952281 46.003499,39.4122281 L45.970499,39.3682281 Z" id="Fill-817"></path>
            <path d="M28.937699,33.0059281 C28.759699,33.0379281 28.532699,33.1549281 28.413699,33.0869281 C28.134699,32.9269281 27.908699,32.6769281 27.740699,32.2899281 C27.954699,32.3829281 28.162699,32.5169281 28.386699,32.5599281 C28.633699,32.6069281 28.896699,32.5699281 29.235699,32.5699281 C29.097699,32.7689281 29.005699,32.8999281 28.913699,33.0299281 L28.937699,33.0059281 Z" id="Fill-819"></path>
            <path d="M28.913299,33.0303281 C29.203299,33.0003281 29.492299,32.9683281 29.872299,32.9273281 C29.837299,33.1053281 29.803299,33.2823281 29.768299,33.4603281 C29.479299,33.3303281 28.947299,33.6453281 28.937299,33.0063281 L28.913299,33.0303281 Z" id="Fill-821"></path>
            <path d="M46.249799,15.6387281 C45.781799,15.3097281 45.380799,15.1107281 45.097799,14.8027281 C44.845799,14.5287281 44.165799,14.8187281 44.230799,14.0167281 C44.860799,14.6427281 45.894799,14.5527281 46.249799,15.6387281" id="Fill-823"></path>
            <path d="M57.138899,15.2705281 C57.407899,15.6495281 57.537899,15.8325281 57.721899,16.0895281 C57.113899,16.2245281 56.896899,16.1015281 57.138899,15.2705281" id="Fill-825"></path>
            <path d="M48.707799,16.0732281 C47.995799,16.3022281 47.729799,16.0742281 47.568799,15.5702281 C48.019799,15.4662281 48.304799,15.6662281 48.707799,16.0732281" id="Fill-827"></path>
            <path d="M60.714099,41.1924281 C60.817099,41.1234281 60.924099,40.9874281 61.021099,40.9944281 C61.816099,41.0544281 62.609099,41.1414281 63.467099,41.2274281 C62.537099,41.8804281 61.550099,41.3744281 60.600099,41.7014281 C60.670099,41.4464281 60.710099,41.2984281 60.749099,41.1514281 L60.714099,41.1924281 Z" id="Fill-829"></path>
            <path d="M57.236099,63.0127281 C57.800099,63.0757281 58.363099,63.1397281 59.133099,63.2257281 C58.410099,63.7857281 57.813099,63.4217281 57.236099,63.5417281 L57.236099,63.0127281 Z" id="Fill-831"></path>
            <path d="M46.990999,65.0869281 C47.467999,65.2729281 47.944999,65.4579281 48.421999,65.6449281 C47.805999,65.7559281 47.218999,65.8059281 47.002999,65.0749281 L46.990999,65.0869281 Z" id="Fill-833"></path>
            <path d="M21.792199,34.5322281 C21.779199,35.3722281 21.209199,35.9832281 20.789199,36.6012281 C20.571199,36.9202281 20.639199,37.5782281 20.006199,37.5862281 L20.033199,37.6102281 C19.834199,36.4932281 20.544199,35.7202281 21.098199,34.9062281 C21.227199,34.7162281 21.575199,34.6732281 21.822199,34.5622281 L21.792199,34.5322281 Z" id="Fill-835"></path>
            <path d="M20.006499,37.5859281 C20.241499,38.2529281 20.241499,38.2529281 19.848499,38.8279281 C19.796499,38.4009281 19.747499,38.0539281 19.725499,37.7039281 C19.723499,37.6789281 19.925499,37.6419281 20.032499,37.6099281 L20.006499,37.5859281 Z" id="Fill-837"></path>
            <path d="M34.442599,63.6641281 C33.692599,63.7611281 32.938599,64.1551281 32.042599,63.6071281 C32.945599,63.6281281 33.698599,63.3341281 34.442599,63.6641281" id="Fill-839"></path>
            <path d="M56.902099,52.8496281 C56.918099,53.0556281 56.933099,53.2626281 56.955099,53.5516281 C56.304099,53.1436281 56.304099,53.1436281 56.548099,52.6236281 C56.680099,52.7146281 56.812099,52.8066281 56.944099,52.8976281 L56.902099,52.8496281 Z" id="Fill-841"></path>
            <path d="M21.400099,31.6719281 L20.545099,31.6719281 C20.486099,31.5679281 20.440099,31.5129281 20.449099,31.4999281 C20.587099,31.3239281 20.889099,31.0719281 20.849099,30.9969281 C20.492099,30.3119281 21.196099,30.0709281 21.400099,29.6159281 L21.400099,31.6719281 Z" id="Fill-843"></path>
            <path d="M72.003199,47.4756281 C71.941199,47.2096281 71.866199,46.9466281 71.818199,46.6786281 C71.763199,46.3676281 71.839199,45.9516281 71.664199,45.7606281 C71.386199,45.4586281 71.323199,45.3196281 71.705199,45.1226281 C72.178199,45.7686281 72.301199,46.3466281 72.003199,47.4756281" id="Fill-845"></path>
            <path d="M36.922599,46.0176281 C37.037599,46.1106281 37.260599,46.2186281 37.249599,46.2916281 C37.192599,46.6586281 37.074599,47.0146281 36.963599,47.4316281 C36.772599,47.3346281 36.598599,47.2466281 36.458599,47.1756281 C36.296599,46.8106281 37.066599,46.9686281 36.739599,46.5536281 C36.494599,46.2426281 36.692599,46.1166281 36.962599,46.0206281 L36.922599,46.0176281 Z" id="Fill-847"></path>
            <path d="M36.922599,46.0176281 L36.962599,46.0206281 L36.962599,44.5036281 C37.300599,44.3916281 37.576599,44.4816281 37.500599,44.8666281 C37.418599,45.2836281 37.364599,45.7616281 36.922599,46.0176281" id="Fill-849"></path>
        </g>
    </g>
</svg>