<?xml version="1.0" encoding="UTF-8"?>
<svg width="49px" height="91px" viewBox="0 0 49 91" version="1.1" xmlns="http://www.w3.org/2000/svg" xmlns:xlink="http://www.w3.org/1999/xlink">
    <!-- Generator: Sketch 61.2 (89653) - https://sketch.com -->
    <title>white_eye</title>
    <desc>Created with Sketch.</desc>
    <g id="Page-1" stroke="none" stroke-width="1" fill="none" fill-rule="evenodd">
        <g id="white_eye" transform="translate(0.586872, 0.203800)" fill="#FFFFFF">
            <path d="M2.96592839,4.962 C4.44592839,4.192 4.51892839,4.016 4.16392839,2.419 C3.72092839,3.36 3.34292839,4.161 2.96592839,4.962 L2.96592839,4.962 Z M2.90892839,6.353 C3.08292839,6.654 3.34792839,6.929 3.29092839,7.055 C3.18092839,7.294 2.90092839,7.431 3.22892839,7.72 C3.56992839,8.021 3.82092839,7.75 4.02592839,7.581 C4.41592839,7.26 4.77992839,6.895 5.08692839,6.495 C5.16092839,6.399 4.96992839,6.098 4.87892839,5.822 C4.20192839,6.004 3.59592839,6.168 2.90892839,6.353 L2.90892839,6.353 Z M46.9569284,6.155 C46.9029284,5.721 46.8779284,5.349 46.8049284,4.986 C46.7299284,4.608 46.8629284,4.129 46.3579284,3.91 C45.9189284,4.62 45.4859284,5.32 45.0639284,6.001 C45.7619284,6.706 45.7619284,6.706 46.9569284,6.155 L46.9569284,6.155 Z M46.9869284,9.418 C45.8029284,8.896 44.7639284,8.437 43.7199284,7.975 C43.6069284,8.109 43.4519284,8.209 43.4459284,8.316 C43.4349284,8.541 43.5999284,8.918 43.5199284,8.972 C43.0629284,9.273 43.3649284,9.52 43.5439284,9.741 C43.8079284,10.067 44.1259284,10.15 44.4969284,9.851 C44.6269284,9.745 44.8369284,9.676 44.9989284,9.693 C45.1449284,9.709 45.2749284,9.865 45.4659284,9.996 C45.1369284,10.303 44.8779284,10.544 44.6189284,10.785 C45.4179284,10.311 46.8059284,10.794 46.9869284,9.418 L46.9869284,9.418 Z M5.74192839,19.908 C6.31492839,20.261 6.50492839,20.252 7.11892839,19.764 C7.32292839,19.602 7.65592839,19.267 7.71692839,19.31 C8.46092839,19.841 8.75792839,18.928 9.30592839,18.832 C9.68592839,18.767 10.1209284,18.378 9.77292839,17.912 C9.47392839,17.512 10.5109284,17.452 9.90292839,17.097 C10.0699284,17.016 10.2319284,16.921 10.4049284,16.856 C11.1279284,16.581 10.7479284,16.209 10.5959284,15.781 C8.90992839,17.215 7.30892839,18.576 5.74192839,19.908 L5.74192839,19.908 Z M6.15392839,8.792 C4.93992839,9.242 3.80292839,9.663 2.64392839,10.093 C2.70792839,10.704 2.76492839,11.244 2.81792839,11.747 C3.94092839,12.084 4.59692839,11.355 5.34892839,10.883 C5.24892839,10.699 5.14492839,10.51 5.06092839,10.357 C5.45692839,10.271 5.84992839,10.186 6.15392839,10.12 L6.15392839,8.792 Z M39.5379284,12.858 C39.3319284,13.287 39.1909284,13.583 39.0499284,13.878 C39.4369284,13.899 39.4259284,14.438 39.5619284,14.454 C40.6289284,14.579 40.5239284,15.439 40.6359284,16.063 C40.9909284,16.15 41.2779284,16.287 41.5529284,16.269 C41.8799284,16.247 42.1969284,16.09 42.5519284,15.982 C42.6969284,16.214 42.8429284,16.447 42.9739284,16.658 C43.1839284,16.4 43.3209284,16.064 43.5289284,16.012 C43.8169284,15.941 44.1699284,16.108 44.2509284,15.566 C42.6629284,14.831 40.9489284,14.258 39.5379284,12.858 L39.5379284,12.858 Z M41.9579284,18.134 C41.1479284,17.595 40.2909284,17.126 39.5579284,16.509 C38.8569284,15.918 38.2849284,15.175 37.6559284,14.498 C37.5579284,15.852 37.8319284,17.04 38.4699284,18.102 C38.6309284,18.367 39.2529284,18.657 39.4229284,18.551 C39.7469284,18.349 39.8719284,18.267 40.2239284,18.514 C40.9039284,18.991 41.5109284,18.795 41.9579284,18.134 L41.9579284,18.134 Z M40.9619284,11.717 C41.4169284,12.256 41.8659284,12.703 42.2089284,13.22 C42.4499284,13.585 42.6329284,14.018 43.1279284,13.752 C43.8339284,13.373 44.5209284,13.618 45.2279284,13.667 C45.4589284,13.307 45.6939284,12.941 45.8779284,12.652 C44.4179284,11.939 43.0369284,11.264 41.6139284,10.567 C41.3659284,11.005 41.1229284,11.434 40.9619284,11.717 L40.9619284,11.717 Z M16.6269284,66.076 C16.6379284,66.075 16.6489284,66.075 16.6599284,66.074 C16.6129284,65.24 16.6029284,64.402 16.5049284,63.575 C16.4469284,63.096 16.1829284,62.662 15.6059284,62.692 C15.0309284,62.723 14.7939284,63.173 14.8009284,63.659 C14.8189284,65.051 14.8669284,66.444 14.9729284,67.831 C15.0229284,68.482 15.4779284,68.816 15.9789284,68.739 C16.4709284,68.665 16.7839284,68.241 16.7619284,67.603 C16.7449284,67.093 16.6739284,66.585 16.6269284,66.076 L16.6269284,66.076 Z M22.7719284,64.203 C22.8629284,64.959 22.9389284,65.829 23.0809284,66.688 C23.1869284,67.331 23.5899284,67.674 24.0679284,67.645 C24.5899284,67.612 24.9709284,67.127 24.9799284,66.466 C24.9829284,66.283 24.9449284,66.101 24.9299284,65.917 C24.8699284,65.142 24.8099284,64.367 24.7529284,63.592 C24.7329284,63.316 24.7519284,63.034 24.6959284,62.768 C24.5909284,62.262 24.2359284,61.87 23.7459284,61.963 C23.4149284,62.025 23.0239284,62.398 22.8909284,62.726 C22.7279284,63.128 22.8049284,63.628 22.7719284,64.203 L22.7719284,64.203 Z M32.7009284,63.491 L32.7229284,63.491 C32.7229284,63.123 32.7659284,62.749 32.7129284,62.389 C32.6389284,61.885 32.3309284,61.544 31.7939284,61.528 C31.2959284,61.514 30.9709284,61.87 30.9519284,62.287 C30.8879284,63.754 30.8689284,65.226 30.9119284,66.692 C30.9279284,67.236 31.3589284,67.486 31.8779284,67.445 C32.3729284,67.405 32.6829284,67.086 32.6959284,66.515 C32.7169284,65.507 32.7009284,64.499 32.7009284,63.491 L32.7009284,63.491 Z M16.8699284,47.869 C16.7559284,47.848 16.6419284,47.827 16.5289284,47.806 C16.0459284,48.687 15.4739284,49.53 15.1039284,50.455 C14.6379284,51.62 14.4969284,52.876 14.6699284,54.132 C14.7839284,54.956 15.2949284,55.388 16.0519284,55.414 C16.8489284,55.442 17.2119284,55.216 17.3979284,54.335 C17.8619284,52.128 17.8039284,49.953 16.8699284,47.869 L16.8699284,47.869 Z M18.8289284,34.449 C18.6649284,33.967 18.6119284,33.669 18.4689284,33.422 C18.1599284,32.885 17.8699284,33.608 17.6109284,33.412 C16.8889284,33.358 17.3599284,32.108 16.3829284,32.301 C16.3329284,32.311 16.2169284,32.192 16.1969284,32.116 C15.9759284,31.255 15.6569284,30.398 15.5969284,29.523 C15.5599284,28.987 15.3179284,28.346 15.5679284,27.905 C15.8809284,27.353 15.8199284,26.695 16.2089284,26.186 C16.2919284,26.076 16.1529284,25.798 16.1159284,25.599 C15.9699284,25.626 15.9169284,25.619 15.8979284,25.642 C15.8379284,25.712 15.7809284,25.787 15.7419284,25.87 C14.6329284,28.184 14.5369284,30.461 15.7459284,32.81 C16.8719284,34.997 20.1289284,36.883 22.9549284,35.864 C23.4349284,35.691 23.9239284,35.541 24.3979284,35.351 C26.2999284,34.588 27.5889284,33.171 28.0249284,31.225 C28.5309284,28.959 27.6479284,26.938 26.3029284,25.124 C26.1809284,24.96 25.9039284,24.911 25.5129284,24.716 C25.9109284,25.555 26.0719284,26.302 26.5269284,26.755 C27.1259284,27.352 26.3599284,28.375 27.3059284,28.75 C27.2289284,28.8 27.1259284,28.832 27.0799284,28.902 C26.6079284,29.626 27.1169284,30.698 26.2389284,31.281 C26.7779284,32.349 25.7709284,32.07 25.4529284,32.245 C25.3399284,32.759 25.2429284,33.196 25.1399284,33.661 C24.9229284,33.559 24.7579284,33.481 24.5599284,33.388 C24.0579284,33.774 23.7119284,34.498 22.8679284,34.3 C22.7749284,34.278 22.6369284,34.435 22.5239284,34.513 C22.0599284,34.831 21.6279284,34.816 21.0969284,34.576 C20.4099284,34.267 19.6899284,33.809 18.8289284,34.449 L18.8289284,34.449 Z M13.2719284,25.231 L13.0249284,24.982 C11.5529284,26.024 10.0129284,26.983 8.62892839,28.131 C7.16092839,29.349 5.88392839,30.766 5.32592839,32.69 C5.12292839,33.392 5.06892839,34.017 5.40492839,34.7 C5.91792839,35.739 6.32692839,36.829 6.82492839,37.875 C7.68492839,39.682 8.96792839,41.124 10.7039284,42.133 C11.7479284,42.739 12.7809284,43.383 13.8829284,43.862 C14.8489284,44.282 15.8859284,44.626 16.9249284,44.778 C20.8749284,45.354 24.6859284,44.72 28.3649284,43.224 C29.0519284,42.944 29.7099284,42.595 30.3869284,42.29 C32.9209284,41.146 35.2039284,39.693 36.7629284,37.295 C37.1139284,36.754 37.5839284,36.29 38.0019284,35.793 C38.8619284,34.77 38.9939284,34.023 38.2909284,32.882 C37.2919284,31.264 36.2719284,29.649 35.1129284,28.146 C34.5389284,27.402 33.6889284,26.823 32.8669284,26.331 C31.8379284,25.714 30.7139284,25.251 29.6199284,24.744 C29.1519284,24.527 28.6559284,24.366 27.9069284,24.077 C28.1889284,24.74 28.2779284,25.165 28.5159284,25.478 C29.7419284,27.083 30.0039284,28.962 30.0289284,30.879 C30.0639284,33.519 28.9689284,35.662 26.8249284,37.19 C26.0429284,37.746 25.1329284,38.225 24.2109284,38.457 C22.8299284,38.804 21.3839284,39.085 19.9709284,39.065 C17.5379284,39.03 15.7489284,37.643 14.1809284,35.874 C13.1819284,34.748 12.7869284,33.38 12.3279284,32.028 C12.1239284,31.427 11.9949284,30.774 11.9739284,30.141 C11.9159284,28.392 12.4309284,26.766 13.2719284,25.231 L13.2719284,25.231 Z M4.13792839,13.366 C3.72592839,13.249 3.34392839,13.235 3.08892839,13.659 C3.38992839,14.616 3.38992839,14.616 4.12792839,14.569 C4.26092839,14.651 4.39292839,14.801 4.52592839,14.802 C4.95492839,14.805 5.38292839,14.753 5.87492839,14.718 C5.56692839,14.251 5.86492839,14.004 6.32492839,13.749 C6.68292839,13.551 6.85992839,13.21 6.31592839,12.946 C6.28192839,12.93 6.28092839,12.845 6.22892839,12.677 C6.64592839,12.785 6.97692839,12.871 7.31992839,12.96 C7.66592839,12.445 7.72292839,11.896 7.09892839,11.542 C6.31892839,11.975 5.62892839,12.339 4.95892839,12.736 C4.66392839,12.911 4.40992839,13.154 4.13792839,13.366 L4.13792839,13.366 Z M5.33292839,17.422 C5.55592839,17.455 5.77992839,17.488 6.00292839,17.522 C6.13292839,17.243 6.26292839,16.966 6.40192839,16.67 C6.58592839,16.785 6.76892839,16.9 7.01292839,17.053 C7.13892839,16.641 7.73192839,16.334 6.83392839,15.705 C7.87892839,15.941 8.31792839,15.675 8.56392839,14.91 C8.70392839,14.472 8.87592839,14.175 8.42592839,13.962 C7.52092839,14.635 6.64792839,15.291 5.76492839,15.935 C5.51392839,16.118 5.38192839,16.319 5.49692839,16.631 C4.81992839,16.073 4.36092839,16.641 3.85892839,16.851 C3.75392839,17.721 4.30392839,17.809 4.87192839,17.923 C5.02692839,17.755 5.17992839,17.588 5.33292839,17.422 L5.33292839,17.422 Z M3.71092839,19.035 C3.35392839,18.098 2.97792839,17.25 2.70692839,16.37 C1.67192839,13.004 1.93192839,9.577 2.31392839,6.153 C2.56492839,3.895 3.55092839,1.918 4.78792839,0 C5.10092839,2.308 5.71192839,4.507 6.32292839,6.714 C6.93992839,8.94 8.18592839,10.85 9.17192839,13.061 C9.65392839,12.956 10.2109284,12.979 10.5909284,12.73 C12.9199284,11.204 15.6029284,10.837 18.2349284,10.294 C20.7459284,9.775 23.2729284,9.47 25.8439284,9.667 C28.4449284,9.866 31.0399284,10.097 33.3709284,11.418 C34.4979284,12.057 35.5779284,12.778 36.6789284,13.462 C37.6159284,13.053 40.9279284,9.958 42.4169284,7.921 C43.9999284,5.753 45.4689284,3.501 46.9689284,1.313 C47.2379284,3.036 47.6269284,4.843 47.7799284,6.669 C48.0009284,9.301 47.5289284,11.911 46.4339284,14.269 C45.7319284,15.78 44.4039284,17.009 43.3129284,18.327 C43.0249284,18.676 42.5729284,18.888 42.1519284,19.195 C43.7919284,21.503 44.0059284,23.944 44.2649284,26.387 C44.5879284,29.433 45.0269284,32.466 45.3109284,35.514 C45.4129284,36.608 45.2909284,37.741 45.1349284,38.838 C44.6869284,42.008 44.1589284,45.166 43.6889284,48.333 C43.5729284,49.113 43.2429284,49.757 42.6579284,50.248 C41.7379284,51.021 40.7839284,51.753 39.8419284,52.498 C38.9349284,53.217 37.9679284,53.872 37.1269284,54.661 C35.8199284,55.889 35.9849284,57.525 36.1309284,59.105 C36.1739284,59.57 36.5919284,59.797 37.0449284,59.81 C37.5129284,59.823 37.8559284,59.548 37.9849284,59.117 C38.0879284,58.771 38.1339284,58.38 38.0929284,58.021 C37.9759284,56.98 38.4209284,56.197 39.1969284,55.605 C40.1429284,54.881 41.1409284,54.227 42.3319284,53.391 C42.1249284,54.36 42.0139284,55.084 41.8129284,55.782 C41.1829284,57.966 40.4729284,60.128 39.8789284,62.32 C39.1249284,65.105 38.1599284,67.817 36.9899284,70.44 C35.2119284,74.42 33.9589284,78.615 31.9199284,82.49 C30.8309284,84.56 29.5639284,86.496 28.1289284,88.322 C26.6939284,90.148 24.7099284,90.695 22.5179284,89.949 C21.2159284,89.507 20.0479284,88.79 19.2999284,87.617 C17.8029284,85.269 16.2389284,82.943 14.9739284,80.47 C13.4349284,77.459 12.1799284,74.303 10.7939284,71.213 C8.95992839,67.127 8.01692839,62.753 6.67292839,58.51 C6.36992839,57.555 6.11692839,56.584 5.78092839,55.412 C6.95892839,55.997 7.94992839,56.477 8.92892839,56.982 C9.84792839,57.456 10.4369284,58.194 10.6229284,59.232 C10.6639284,59.46 10.7109284,59.691 10.7939284,59.906 C11.0069284,60.457 11.4259284,60.734 11.8429284,60.587 C12.3269284,60.415 12.6169284,60.078 12.5549284,59.532 C12.4019284,58.187 11.9389284,56.973 10.7559284,56.221 C9.90092839,55.678 8.95692839,55.271 8.04092839,54.825 C7.70792839,54.664 7.32192839,54.61 6.99592839,54.44 C6.11592839,53.98 5.41792839,53.405 5.12992839,52.339 C4.29892839,49.251 3.37792839,46.188 2.47692839,43.119 C2.17592839,42.096 1.88392839,41.065 1.49192839,40.074 C-0.0170716137,36.26 -0.353071614,32.338 0.355928386,28.317 C0.580928386,27.04 0.871928386,25.774 1.16592839,24.51 C1.63392839,22.494 2.57492839,20.687 3.71092839,19.035 L3.71092839,19.035 Z" id="Fill-456"></path>
            <path d="M5.33312839,17.422 C5.15512839,17.41 4.97712839,17.4 4.73612839,17.385 C5.01412839,17.084 5.24312839,16.836 5.47212839,16.588 C5.75712839,16.837 6.11912839,17.043 6.00312839,17.522 C5.78012839,17.488 5.55612839,17.455 5.33312839,17.422" id="Fill-458"></path>
            <path d="M31.3175284,27.0577 C31.4795284,27.3987 31.6155284,27.6877 31.7875284,28.0477 C32.0175284,27.9247 32.2285284,27.8137 32.4705284,27.6837 C32.5595284,27.8387 32.6495284,27.9947 32.7305284,28.1367 C32.6895284,28.2037 32.6725284,28.2487 32.6425284,28.2797 C32.5105284,28.4087 30.8125284,28.3647 30.7345284,28.1997 C30.4915284,27.6817 30.6705284,27.3077 31.3175284,27.0577" id="Fill-460"></path>
            <path d="M10.0357284,31.3517 C9.83372839,31.2637 9.63172839,31.1767 9.28472839,31.0277 C9.81072839,30.6057 10.2287284,30.2697 10.7927284,29.8177 C10.8807284,30.3417 10.9307284,30.6327 10.9957284,31.0267 C10.7217284,30.9797 10.5167284,30.9457 10.3137284,30.9117 C10.2207284,31.0577 10.1287284,31.2047 10.0357284,31.3517" id="Fill-462"></path>
            <path d="M10.0357284,31.3517 C10.1287284,31.2047 10.2207284,31.0577 10.3137284,30.9117 C10.3377284,30.9507 10.3527284,31.0017 10.3877284,31.0267 C10.6287284,31.1937 10.9177284,31.3187 11.0997284,31.5347 C11.1857284,31.6357 11.0697284,31.9077 11.0307284,32.2217 C10.6077284,32.4197 10.3187284,31.8907 9.92272839,31.6467 L9.95472839,31.6757 C9.98172839,31.5677 10.0087284,31.4587 10.0357284,31.3517" id="Fill-464"></path>
            <path d="M9.20572839,29.5294 C9.38672839,28.8604 9.64772839,28.4614 10.5717284,28.8244 C9.96572839,28.9594 9.86072839,29.6004 9.20572839,29.5294" id="Fill-466"></path>
            <path d="M8.19592839,33.0118 C7.69792839,32.5468 7.44292839,32.3078 7.09492839,31.9818 C7.36292839,31.8358 7.56692839,31.7248 7.84092839,31.5748 C7.89992839,31.8398 7.93492839,32.0088 7.97592839,32.1768 C8.01592839,32.3418 8.06192839,32.5048 8.19592839,33.0118" id="Fill-468"></path>
            <path d="M9.92292839,31.6466 C9.93692839,31.8676 9.95092839,32.0876 9.96692839,32.3376 L8.44692839,32.3376 C9.07292839,32.0636 9.51392839,31.8696 9.95492839,31.6756 L9.92292839,31.6466 Z" id="Fill-470"></path>
            <path d="M7.85752839,31.215 C8.14852839,30.699 8.31652839,30.4 8.58652839,29.922 C8.69052839,30.808 8.69052839,30.808 7.85752839,31.215" id="Fill-472"></path>
            <path d="M11.5201284,32.6212 C11.5491284,32.8512 11.5641284,32.9802 11.5871284,33.1652 C11.2451284,33.1822 10.9261284,33.1972 10.6081284,33.2132 C10.5861284,33.1462 10.5651284,33.0802 10.5441284,33.0132 C10.8531284,32.8902 11.1611284,32.7662 11.5201284,32.6212" id="Fill-474"></path>
            <path d="M26.1143284,41.6671 C25.7363284,41.5001 25.4673284,41.2731 25.7223284,40.6461 C25.9883284,40.9721 26.1883284,41.2181 26.3873284,41.4631 C26.2963284,41.5311 26.2053284,41.5991 26.1143284,41.6671" id="Fill-476"></path>
        </g>
    </g>
</svg>