<svg xmlns="http://www.w3.org/2000/svg" width="29" height="53" viewBox="0 0 29 53"><g><g><path fill="#fff" d="M11.958 35.738c-.016-.118-.016-.241-.05-.354-.467-1.467-.799-2.959-.888-4.501-.024-.427-.09-.851-.12-1.278-.06-.818.097-1.617.22-2.421.08-.536.353-.976.671-1.386.38-.491.741-.442 1.013.12.975 2.011 1.622 4.117 1.68 6.363a28.164 28.164 0 0 1-.119 3.449c-.072.731-.312 1.451-.53 2.159-.105.343-.079.596.144.871.74.913 1.441 1.858 2.203 2.75.344.404.798.717 1.202 1.07l.11-.079c-.046-.109-.09-.218-.138-.327-.354-.803-.748-1.594-1.05-2.416a5.915 5.915 0 0 1-.35-1.645c-.082-1.263-.046-2.528.22-3.775.185-.875.656-1.629 1.065-2.404.231-.438.56-.443.824-.008.278.458.507.956.691 1.46.654 1.794.992 3.651 1.08 5.559.051 1.08.172 2.156.251 3.235.057.769 0 1.53-.24 2.276l2.24 2.034c.026-.014.051-.029.077-.042l-.269-.74a13.506 13.506 0 0 1-.628-7.124 8.558 8.558 0 0 1 1.72-3.851c.1-.127.28-.287.406-.274.125.015.284.21.332.358.34 1.051.701 2.097.961 3.169.217.894.382 1.816.434 2.733a37.22 37.22 0 0 1 0 3.794c-.058 1.253-.483 2.427-.982 3.569-.017.04-.03.082-.066.175l1.342 1.069c.521-.356 1.017-.7 1.52-1.034.11-.072.238-.132.365-.157.25-.049.428.066.565.279.135.212.078.401-.059.559-.13.15-.3.269-.459.396-.262.209-.527.413-.867.678l1.19.732c.29.177.631.337.553.759-.082.443-.455.482-.822.564-.37.083-.667-.009-.947-.217-.327-.242-.644-.496-1.03-.797l-.653.92c-.13.183-.24.389-.398.542-.227.22-.469.212-.746.057-.26-.146-.317-.38-.264-.637.036-.17.122-.338.22-.484.265-.393.548-.773.832-1.168-.498-.511-.987-1.031-1.5-1.526-.09-.086-.319-.134-.424-.082-1.014.508-2.137.533-3.215.745-1.515.3-3.054.362-4.58.151-1.677-.233-3.348-.536-4.805-1.496-.15-.099-.312-.192-.434-.321-.32-.337-.246-.702.196-.829a47.61 47.61 0 0 1 2.75-.715c1.15-.257 2.322-.301 3.501-.307 1.43-.008 2.771.321 4.061.908.327.15.658.288 1.032.373l-3.238-2.884c-.294.089-.596.173-.892.272a7.896 7.896 0 0 1-2.39.414c-.88.013-1.76.098-2.64.108-1.716.022-3.367-.251-4.899-1.097-.847-.468-1.73-.867-2.599-1.298-.08-.04-.163-.079-.237-.13-.367-.25-.378-.577-.006-.796.271-.159.557-.323.857-.394 1.294-.305 2.587-.638 3.898-.841 1.027-.159 2.073-.002 3.096.192.723.138 1.44.31 2.294.495l-1.746-2.332c-.897-.053-1.822-.054-2.732-.172-1.453-.188-2.904-.426-4.287-.942-1.574-.588-2.757-1.68-3.777-2.973a.983.983 0 0 1-.16-.295c-.109-.334.022-.539.37-.545a5.8 5.8 0 0 1 1.012.046c.934.149 1.875.279 2.792.503 1.692.415 3.331.986 4.794 1.971.13.086.272.15.553.304-.133-.25-.194-.372-.262-.491-.324-.567-.659-1.129-.97-1.703-.125-.23-.265-.381-.533-.465-2.806-.876-5.087-2.58-7.164-4.596a15.008 15.008 0 0 1-.872-.945 1.41 1.41 0 0 1-.24-.406c-.112-.28.01-.515.308-.543.312-.027.634-.024.942.027 2.067.339 3.947 1.1 5.534 2.505.05.044.111.077.228.154-.014-.142-.002-.24-.034-.322-.252-.626-.529-1.244-.762-1.877-.108-.291-.282-.457-.57-.505-1.343-.228-2.422-.951-3.436-1.8-.277-.233-.575-.441-.85-.673-.99-.833-1.669-1.887-2.137-3.081a2.538 2.538 0 0 1-.168-.722c-.028-.359.223-.554.564-.423.483.186 1.003.346 1.407.65a49.079 49.079 0 0 1 2.982 2.445c.4.353.691.828 1.077 1.305.024-.38-.142-.649-.207-.938-.234-1.028-.738-1.829-1.647-2.431-.67-.446-1.224-1.067-1.819-1.62-.72-.67-1.26-1.475-1.697-2.35-.416-.836-.473-1.737-.412-2.647.033-.505.307-.61.728-.296 1.27.942 2.295 2.1 3.048 3.494.106.196.215.389.407.571 0-.726.022-1.451-.014-2.175-.01-.203-.155-.427-.295-.592-1.532-1.812-2.05-4.035-2.53-6.266-.096-.447-.004-.94.031-1.408.008-.112.118-.271.215-.302.09-.029.266.051.336.138.366.456.71.93 1.063 1.397a6.901 6.901 0 0 1 1.041 2.039c.046.142.121.274.25.562.065-.852.123-1.537.165-2.223.006-.104-.05-.214-.09-.316-.465-1.147-.946-2.287-1.392-3.44-.429-1.104-.403-2.256-.26-3.408.016-.124.141-.273.255-.33.06-.029.255.092.306.189.366.697.736 1.394 1.055 2.114.25.565.43 1.163.693 1.895.197-.721.465-1.243.4-1.883-.146-1.434.196-2.787.931-4.014.258-.432.673-.783 1.06-1.122.281-.245.57-.084.584.308.021.587-.014 1.167-.184 1.742a19.499 19.499 0 0 1-1.11 2.904 4.63 4.63 0 0 0-.393 1.345c.47-.491.948-.974 1.408-1.474.471-.512 1.072-.823 1.69-1.095.483-.213.693-.038.636.473-.01.089-.019.182-.047.266-.408 1.174-.83 2.348-1.53 3.381-.3.442-.704.823-1.106 1.182-.52.464-1.084.882-1.635 1.311-.17.133-.267.276-.28.505-.057.966-.135 1.931-.166 2.919 1.088-1.978 2.255-3.871 4.401-4.841.278.105.34.269.276.499-.387 1.391-.706 2.807-1.389 4.092-.61 1.15-1.56 2.004-2.663 2.641-.599.345-.729.796-.726 1.381a15.33 15.33 0 0 0 .47 3.804c.077-.294.136-.459.161-.63.335-2.237 1.622-3.768 3.563-4.812.351-.189.624-.042.624.393.001.538-.026 1.094-.169 1.607a15.28 15.28 0 0 1-.859 2.349c-.565 1.204-1.367 2.227-2.578 2.868-.037.019-.057.067-.105.127.302.896.61 1.809.97 2.882.192-.712.353-1.257.484-1.81.285-1.203 1.023-2.151 1.752-3.099.29-.378.674-.316.815.134.175.556.32 1.134.377 1.713.16 1.604.151 3.211-.33 4.768-.226.729-.554 1.426-.849 2.132-.12.29-.277.566-.414.841.585 1.789 1.574 3.353 2.556 4.935zm-7.462-.234c-.112-.187-.283-.165-.399.028.138.375.398.604.717.692v.536c1.488.714 3.064 1.006 4.821 1.17-.143-.191-.19-.321-.273-.349-.109-.037-.283.061-.363.005-.694-.479-1.506-.634-2.289-.872-.137-.041-.264-.118-.396-.178.218-.079.42-.087.613-.056.658.109 1.311.249 1.971.338.165.022.28.034.384.174.117.157.261.216.467.092.097-.058.258-.009.39-.009a1.83 1.83 0 0 0-.635-.408c-.758-.289-1.514-.587-2.285-.837-.62-.203-1.263-.339-1.893-.512-.303-.083-.469.031-.53.32-.137.047-.212.016-.3-.134zM17.9 41.337c.311-.238.156-.513.117-.798h-.34c-.118.317-.041.58.223.798zm-.222-.798a1.02 1.02 0 0 1 .005-.014.39.39 0 0 0-.01-.006l-.005.02zm.044-.256l.327.11c-.07-.169-.146-.268-.148-.367-.017-.849-.025-1.698-.024-2.547 0-.101.07-.201.141-.399.358 1.331.294 2.631.65 3.896l.417-.161c.07.084.134.164.265.325.015-.234.043-.38.03-.522-.078-.853-.147-1.707-.253-2.556-.102-.805-.247-1.604-.37-2.404-.03-.199-.123-.328-.337-.331l-.41.488-.569-.182c.074-.135.13-.237.196-.361l-.799-.258c-.033.136-.078.241-.08.348-.024.699-.039 1.399-.054 2.098-.022 1.038.262 2.003.721 2.921.035.07.16.095.247.138l.05-.236zm5.216-1.997c-.276-.421-.565.126-.783-.173l-.12.733.372.144c-.484.029-.502.356-.532.677-.13 1.428 0 2.842.243 4.246.1.572.284 1.129.434 1.709l.381-.205a52.019 52.019 0 0 1-.398-.46l.674.117c.01-.027.017-.053.026-.079-.25-.155-.502-.309-.753-.463l.03-.071.735.169c-.174-1.021-.182-2.027-.14-3.033l.154-.014.552 2.995.466-.072c.092-1.437.106-2.881.044-4.324-.012-.267-.045-.528-.233-.709l-.378.067c.038-.153.122-.191.193-.245.205-.156.297-.326.037-.517-.057-.057-.114-.115-.172-.171-.286-.102-.699-.119-.832-.321zm-8.028 5.569c-.206-.24-.389-.26-.812-.433-.2-.081-.333.033-.49-.018-1.069-.344-2.163-.326-3.263-.229-.064.005-.134-.056-.345-.152 1.11-.187 2.053-.39 3.028-.226.082.014.232.009.251-.033.146-.318.354-.066.513-.048.165.021.316.146.486.231l.234-.32c.185.162.358.269.618.046-.405-.268-.717-.632-1.213-.724-1.347-.249-2.662-.674-4.058-.649-.495.01-.904.075-1.13.554a33.342 33.342 0 0 0-.35-.192l-.102.318c-.22-.125-.442-.289-.626.1.185.062.354.119.523.174l-.009.108c-.206.029-.41.058-.61.088l-.335-.457-.056.693c.348.067.366.361.353.629.178.106.411.302.456.265.356-.29.154.243.345.219.115-.013.243.1.37.142 1.346.446 2.738.501 4.14.468.494-.012.988-.061 1.483-.089.352-.02.742.061.92-.387.015-.037.122-.038.242-.071-.304-.283-.304-.283-.563-.007zm4.476 4.731c-.064-.297-.309-.309-.528-.312-.104-.001-.209.107-.29.152-.245-.096-.497-.248-.767-.292-.777-.125-1.56-.202-2.342-.311-.106-.015-.2-.101-.404-.208.642 0 1.173-.074 1.671.02.496.093.964-.221 1.434.018l.097-.311.8.311c.094-.338-.11-.503-.363-.602a7.242 7.242 0 0 0-.906-.266c-1.18-.287-2.379-.183-3.572-.141-.383.013-.77.114-1.14.226-.183.054-.166.235.001.41.16-.191.334-.384.66-.298-.498.368-.498.368-.307.72l.282-.411.244.344c.066.093.133.184.287.395l-.683-.184c-.103.738-.099.769.473.896 1.377.305 2.767.219 4.152.147l.026-.37c.351.389.412.381.937-.118l.097.321.141-.136zM12.65 29.33l-.276.351c-.064-.373-.292-.55-.649-.69-.05.156-.137.297-.13.432.015.381.071.761.11 1.142.052.515.084 1.034.16 1.546.077.511.228 1.011.292 1.523.063.502.458.881.475 1.395.001.032.135.059.345.146-.293-.326.154-.696-.315-.833.25-.359.25-.359.1-.702-.024-.055-.076-.129-.058-.167.235-.502.045-1.022.074-1.532.025-.425.003-.853.248-1.287l.237 2.562.178-.017v.644c.33-.019-.183.481.248.398.017-.04.046-.08.048-.122.09-1.512.025-3.016-.282-4.502-.063-.307-.185-.601-.279-.9-.359.068-.152-.325-.358-.417l-.526.063.358.967zm-8.66-.295c-.01.167.022.353-.045.492-.07.147-.237.249-.362.371 1.073 1.041 3.226 2.572 3.993 2.85.387-.438-.302-.405-.33-.728-.02-.233-.37-.457-.604-.648a7.726 7.726 0 0 0-.837-.572c-.283-.174-.579-.324-.87-.484l.051-.131c.294.082.594.145.878.251.314.117.707.198.896.432.225.277.644.183.78.526l.198-.127c-.822-1-2.722-2.142-3.748-2.232zm3.217-10.326c-.225.356-.34.691.04 1.063l1.013-1.305c-.018.214-.102.391-.175.572-.264.651-.845 1.184-.733 1.977.008.057-.052.122-.074.186-.094.274-.186.548-.279.824 1.336-1.007 1.993-2.389 2.382-3.92.031-.121-.07-.276-.127-.47l-.19.345-.346-.385-.047.456c-.389-.179-.144-.443-.169-.712-.635.321-.963.843-1.295 1.369zm2.124 4.709c-.287-.053-.39.185-.455.405-.24.817-.56 1.615-.597 2.485-.01.264.03.468.29.565l-.353.38.635-.109a89.772 89.772 0 0 1-.239-.644c.461-.272.465-.282.523-.768.058-.481.084-.97.318-1.563.5 1.181-.029 2.232.077 3.299l.37.132c.292-.919.368-1.815.43-2.715.011-.156.024-.325-.024-.469a.81.81 0 0 0-.266-.369c-.087-.063-.237-.041-.417-.065.015-.252.006-.508-.292-.564zm-5.03 1.377c.251.078.211.208.6.144-.71-.789-1.44-1.508-2.344-2.035-.089.137-.168.259-.29.451-.02-.288-.036-.485-.06-.819-.112.31-.133.505-.238.629-.252.297-.137.542.058.782.171.208.346.421.553.589.628.51 1.271 1.002 1.913 1.496.111.086.245.143.372.215.13-.278.01-.395-.165-.545-.657-.566-1.283-1.165-1.71-1.933.54.223.717.844 1.31 1.026zm-1.235-4.687c.077-.774-.703-1.216-.534-2.017.115.133.195.202.248.288.166.268.33.537.48.815.125.226.277.374.57.321-.429-1.141-1.609-2.829-1.885-2.71-.269.224.086.268.11.364-.13.104-.235.253-.335.251-.363-.008.064-.355-.173-.449-.465.282.016.489.062.728l-.247.091c.415.862.907 1.664 1.704 2.318zm5.467-7.736c.021-.056-.08-.157-.124-.238-.007-.012-.007-.03-.016-.076.252.036.407-.038.323-.331-.124 0-.248-.02-.36.007-.08.017-.14.11-.22.145-.047.02-.114-.011-.197-.022l.271-.396c-.057-.073-.094-.131-.142-.176-.029-.028-.077-.037-.155-.071a11.74 11.74 0 0 0-1.547 2.468c.682.18.687.179.976-.24.08-.117.156-.238.233-.359l.108.05-.457 1.191c.735-.633.927-.916 1.307-1.952zm-5.98-.639c.306 1.007.676 1.993 1.017 2.973l.387-.049-.126.552c.335-.44.34-.511.125-.762-.056-.064-.19-.132-.18-.171.115-.438-.245-.749-.288-1.14-.016-.15-.024-.301-.036-.451l.066-.018.585 1.281c-.078-.994-.348-1.922-.704-2.79h-.612l-.059-.558c-.368.371-.282.785-.176 1.133zm6.6-6.217l-.664.252.065-.342c-.617.105-1.407 1.029-1.694 1.969l.357.288c.156-.288.284-.556.44-.807.148-.238.03-.639.493-.776-.09.943-.584 1.646-.977 2.394 1.023-.716 1.601-1.721 1.98-2.978zm-1.77-3.485c-.582.191-.823.647-.947 1.195-.006.024.036.059.054.088l.331-.39-.13 1.01c.416-.521.588-1.014.692-1.903zM4.367 7.629c.013-.062.051-.132.035-.185a2.64 2.64 0 0 1-.118-1.2.69.69 0 0 0-.05-.331c-.098-.265-.274-.326-.569-.158l.616 1.895zm22.055 43.538c.258.449.612.549.994.592.178.02.306-.044.304-.293l-1.298-.299zM17 34.226c.402.329.402.329.626 0"/></g></g></svg>