<svg id="Layer_1" data-name="Layer 1" xmlns="http://www.w3.org/2000/svg" viewBox="0 0 123.77 32.29"><title>logo_sticker_white</title><path d="M-142,407.49v32.29H-18.21V407.49Zm23,25.14a7.51,7.51,0,0,1-7.33-4.81l3.26-2.07c.68,2,2.07,3.45,4.13,3.45,1.26,0,2.52-.61,2.52-1.78s-1.07-1.58-3.42-2.07c-3.13-.61-5.59-2.1-5.59-5s2.87-4.65,6-4.65c3.49,0,5.33,1.32,6.62,4l-2.94,1.74a3.87,3.87,0,0,0-3.62-2.81c-1.32,0-2.42.42-2.42,1.42s1.26,1.74,3.78,2.26c3.78.77,5.36,2.23,5.36,4.94C-112.67,430.31-115,432.64-119,432.64Zm14.79,0c-2.78,0-5.13-1.13-5.13-5.1v-8.07h-2.49v-3.29h2.49v-4.33h4.07v4.33h3.49v3.29h-3.49v7.3c0,1.65.77,2.26,2,2.26a4.68,4.68,0,0,0,1.36-.19l.39,3.36A8.85,8.85,0,0,1-104.21,432.64Zm8.95-.45h-4.07v-16h4.07Zm.19-18.34h-4.46v-4.26h4.46Zm10.56,18.79a8.13,8.13,0,0,1-8.43-8.46,8.24,8.24,0,0,1,8.43-8.46c3.58,0,6.2,1.61,7.33,4.36l-3.33,2.2a4.11,4.11,0,0,0-4-2.74c-2.42,0-4.26,1.81-4.26,4.65s1.81,4.65,4.26,4.65c2.16,0,3.33-1,4.23-2.94L-77,428A7.89,7.89,0,0,1-84.51,432.64Zm19.57-.45-4.78-7.49-1.23,1.19v6.3H-75v-22.6h4.07V421l4.88-4.84h5l-5.84,5.71,6.62,10.3Zm20-7H-57.26a4.21,4.21,0,0,0,4.39,4,4.62,4.62,0,0,0,4.42-2.94l3,1.74a7.62,7.62,0,0,1-7.52,4.68,8.18,8.18,0,0,1-8.23-8.46,8.22,8.22,0,0,1,8.43-8.46,7.63,7.63,0,0,1,7.81,8Zm11.69-5.39a3.57,3.57,0,0,0-1.32-.23c-2.45,0-3.87,2-3.87,4.75v7.91H-42.5v-16h4.07v2.55a4.83,4.83,0,0,1,4.46-3,4.82,4.82,0,0,1,1.39.19Z" transform="translate(141.98 -407.49)" style="fill:#fff"/><path d="M-52.87,418.82a4.58,4.58,0,0,0-4.39,3.36h8.59A3.94,3.94,0,0,0-52.87,418.82Z" transform="translate(141.98 -407.49)" style="fill:#fff"/></svg>