<?xml version="1.0" encoding="UTF-8"?>
<svg width="60px" height="66px" viewBox="0 0 60 66" version="1.1" xmlns="http://www.w3.org/2000/svg" xmlns:xlink="http://www.w3.org/1999/xlink">
    <!-- Generator: Sketch 61.2 (89653) - https://sketch.com -->
    <title>white_bone</title>
    <desc>Created with Sketch.</desc>
    <g id="Page-1" stroke="none" stroke-width="1" fill="none" fill-rule="evenodd">
        <g id="white_bone" fill="#FFFFFF">
            <path d="M51.9758747,10.3555303 C51.6438747,9.70553032 51.6438747,9.70553032 51.0908747,9.76053032 C51.3028747,9.90353032 51.5598747,10.0765303 51.9758747,10.3555303 L51.9758747,10.3555303 Z M50.7988747,8.09553032 C51.0368747,9.10753032 51.0708747,9.13753032 51.5378747,8.90253032 C51.2968747,8.63853032 51.0358747,8.35453032 50.7988747,8.09553032 L50.7988747,8.09553032 Z M18.3918747,43.7465303 C18.8508747,43.4905303 18.6708747,43.2725303 18.4728747,43.0315303 C18.2268747,42.7345303 17.9898747,42.6015303 17.6878747,42.9695303 C17.9118747,43.2155303 18.1278747,43.4555303 18.3918747,43.7465303 L18.3918747,43.7465303 Z M21.6828747,40.6135303 C21.6478747,40.5835303 21.6138747,40.5525303 21.5798747,40.5235303 C21.4498747,40.5735303 21.2858747,40.5895303 21.1958747,40.6805303 C20.8498747,41.0255303 20.5278747,41.3945303 20.1818747,41.7715303 C20.4008747,41.8255303 20.6078747,41.8765303 20.8168747,41.9285303 C20.7748747,42.1035303 20.7378747,42.2575303 20.6788747,42.5045303 C20.9668747,42.3855303 21.1818747,42.2975303 21.4228747,42.1995303 C21.2258747,41.8945303 21.0718747,41.6555303 20.8868747,41.3685303 C21.1668747,41.1025303 21.4248747,40.8575303 21.6828747,40.6135303 L21.6828747,40.6135303 Z M17.6898747,44.0105303 C17.2748747,43.8345303 16.9628747,43.7035303 16.7358747,43.6075303 C16.3578747,43.9845303 16.0528747,44.2885303 15.7298747,44.6085303 C16.9178747,44.7795303 16.9178747,44.7795303 17.6898747,44.0105303 L17.6898747,44.0105303 Z M54.9238747,8.29953032 C54.3198747,9.07953032 54.3198747,9.07953032 54.9038747,9.92653032 C55.3118747,9.77653032 55.7418747,9.61853032 56.2568747,9.42753032 L56.2568747,10.0175303 L56.8858747,10.0175303 C56.9568747,10.6705303 57.0258747,11.3055303 57.1218747,12.1835303 C56.7878747,11.5615303 56.5788747,11.1725303 56.3258747,10.7025303 C56.1798747,11.0985303 56.0818747,11.3605303 55.9898747,11.6095303 C55.6918747,11.4815303 55.4508747,11.3775303 55.1898747,11.2655303 C54.9758747,13.0825303 54.5678747,13.5735303 53.2258747,13.7235303 C53.4668747,13.4145303 53.7198747,13.0875303 53.9728747,12.7625303 C53.9378747,12.7385303 53.9028747,12.7135303 53.8688747,12.6905303 C53.6208747,12.8475303 53.3718747,13.0055303 53.0178747,13.2305303 C53.2228747,12.6845303 53.2628747,12.2985303 53.1828747,12.0135303 C53.3668747,11.9115303 53.5518747,11.8075303 53.7848747,11.6775303 C53.4248747,11.5125303 53.1608747,11.4035303 52.9078747,11.2725303 C52.6748747,11.1525303 52.4538747,11.0075303 52.0918747,10.7935303 C52.1348747,11.4355303 51.7098747,11.5145303 51.2048747,11.4495303 C51.2048747,11.7235303 51.2128747,11.9015303 51.2038747,12.0775303 C51.1668747,12.7805303 51.0698747,12.8705303 50.3568747,12.9365303 C49.4978747,13.0175303 48.8158747,12.7565303 48.1958747,12.1105303 C47.4598747,11.3435303 47.0388747,10.5265303 47.1778747,9.45253032 C47.2098747,9.19853032 47.1508747,8.93253032 47.1908747,8.68153032 C47.2358747,8.40053032 47.2668747,8.05853032 47.4398747,7.86753032 C48.0158747,7.23353032 48.0668747,6.49053032 48.0438747,5.70653032 C48.0288747,5.19253032 47.9798747,4.67053032 48.0428747,4.16453032 C48.1818747,3.04553032 47.6818747,2.18253032 47.0678747,1.32953032 C46.7218747,0.847530319 46.3088747,0.700530319 45.7418747,0.791530319 C45.0968747,0.894530319 44.6638747,1.25153032 44.4168747,1.82453032 C44.1428747,2.46353032 43.9118747,3.12253032 43.6628747,3.77353032 C43.0038747,5.49553032 42.2248747,7.11653032 40.8568747,8.44553032 C39.5968747,9.66953032 38.4628747,11.0335303 37.3488747,12.3975303 C36.6948747,13.1975303 36.1918747,14.1195303 36.1598747,15.3465303 C35.7448747,15.0425303 35.5108747,15.2685303 35.2618747,15.5745303 C34.8698747,16.0555303 34.4088747,16.4815303 34.0108747,16.9595303 C33.2648747,17.8535303 32.7318747,18.8345303 32.8578747,20.0615303 C32.9128747,20.6065303 32.9658747,21.1545303 32.9668747,21.7005303 C32.9678747,21.9775303 32.9268747,22.3075303 32.7758747,22.5235303 C31.5778747,24.2385303 30.3528747,25.9345303 29.1208747,27.6255303 C29.0088747,27.7775303 28.7878747,27.8495303 28.5538747,27.9995303 C28.3838747,27.5955303 28.2478747,27.2755303 28.0948747,26.9115303 C26.9048747,27.3125303 25.8378747,27.8545303 24.9888747,28.7415303 C23.8208747,29.9595303 22.6638747,31.1925303 21.5428747,32.4545303 C20.1048747,34.0725303 18.6988747,35.7185303 17.2998747,37.3705303 C17.0628747,37.6505303 16.9908747,38.0805303 16.7358747,38.3315303 C16.4438747,38.6195303 16.0328747,38.7845303 15.7198747,38.9745303 C15.7658747,39.3315303 15.7948747,39.5575303 15.8278747,39.8135303 C15.4398747,39.7685303 15.1408747,39.6125303 14.9198747,40.0165303 C14.7478747,40.3325303 14.4798747,40.6045303 14.2168747,40.8555303 C13.6848747,41.3645303 13.1788747,41.8715303 13.4568747,42.7515303 C13.3588747,42.7995303 13.2608747,42.8485303 13.1628747,42.8965303 C13.0778747,42.7045303 12.9928747,42.5115303 12.9098747,42.3265303 C12.8228747,42.3765303 12.7518747,42.4055303 12.6988747,42.4525303 C12.5598747,42.5735303 12.4308747,42.7035303 12.2958747,42.8285303 C11.2038747,43.8355303 10.2348747,44.9025303 10.5328747,46.5795303 C10.3018747,46.6385303 10.0698747,46.6995303 9.72887469,46.7885303 C10.0528747,47.0435303 10.2908747,47.2335303 10.5298747,47.4215303 C10.4988747,47.4645303 10.4678747,47.5075303 10.4378747,47.5505303 C10.1128747,47.4455303 9.78887469,47.3385303 9.46387469,47.2325303 C9.42587469,47.2925303 9.38787469,47.3525303 9.34887469,47.4135303 C9.50887469,47.5975303 9.66887469,47.7835303 9.84687469,47.9885303 C9.46387469,48.0105303 9.14487469,48.0295303 8.80887469,48.0485303 C8.75987469,48.4035303 8.48687469,48.7145303 8.90887469,48.9865303 C8.96287469,49.0215303 8.95787469,49.2565303 8.89887469,49.3425303 C8.61687469,49.7535303 8.29587469,50.1385303 8.01087469,50.5465303 C7.90587469,50.6965303 7.85987469,50.8865303 7.74387469,51.1625303 C8.39787469,51.1545303 8.65887469,50.7595303 8.94187469,50.4655303 C10.1388747,49.2245303 11.3038747,47.9535303 12.4918747,46.7035303 C13.6548747,45.4795303 14.8858747,44.3165303 15.9888747,43.0425303 C17.9058747,40.8295303 20.2208747,39.0905303 22.5218747,37.3275303 C22.6658747,37.2165303 22.8278747,37.1175303 22.9968747,37.0545303 C23.1238747,37.0065303 23.2758747,37.0255303 23.5068747,37.0065303 C23.5658747,37.6705303 23.6208747,38.2955303 23.6878747,39.0565303 C24.2998747,38.6165303 24.7648747,38.2815303 25.1298747,38.0175303 C25.9698747,38.0225303 25.8698747,38.8135303 26.3308747,39.2085303 C28.7248747,36.4265303 31.0698747,33.7025303 33.4098747,30.9825303 C33.3008747,30.8235303 33.2088747,30.6875303 33.0908747,30.5145303 C33.8718747,30.4835303 33.8508747,30.4635303 34.3078747,29.9965303 C35.1238747,29.1565303 35.9568747,28.3305303 36.8038747,27.5205303 C38.7308747,25.6765303 40.9848747,24.2145303 42.7138747,22.1165303 C43.7438747,20.8665303 45.2058747,19.9675303 46.4928747,18.9365303 C47.0358747,18.5015303 47.5978747,18.0715303 48.2118747,17.7535303 C48.5498747,17.5795303 48.8498747,17.4175303 49.0498747,17.1035303 C49.5328747,16.3485303 50.2598747,16.0695303 51.1078747,16.0295303 C51.6918747,16.0015303 52.2788747,16.0195303 52.8618747,15.9795303 C53.6298747,15.9275303 54.3728747,15.8305303 55.0088747,15.2905303 C55.6768747,14.7235303 56.4178747,14.2445303 57.1148747,13.7095303 C57.9918747,13.0375303 58.7528747,12.2225303 58.5798747,11.0465303 C58.4368747,10.0855303 58.1628747,9.10053032 57.5188747,8.31353032 C56.5648747,7.14753032 55.2688747,6.59053032 53.8088747,6.37853032 C53.3368747,6.31053032 52.8568747,6.29453032 52.3858747,6.22353032 C51.4208747,6.07953032 50.4588747,5.91253032 49.4288747,5.74453032 C49.5278747,5.93353032 49.6348747,6.22453032 49.6838747,6.21553032 C50.1288747,6.12953032 50.1338747,6.53753032 50.2768747,6.73953032 C50.7248747,7.37653032 50.8378747,7.42553032 51.5018747,7.09053032 C51.8148747,7.42653032 52.1288747,7.76453032 52.4238747,8.08153032 C52.9098747,7.88153032 53.3208747,7.71253032 53.7598747,7.53353032 C53.7828747,7.85653032 53.8018747,8.12653032 53.8208747,8.40653032 C54.2028747,8.15153032 54.5088747,7.64453032 54.8918747,8.32853032 L54.9238747,8.29953032 Z M31.1018747,22.0285303 L30.2898747,22.0285303 C29.4008747,23.4015303 28.5978747,24.6415303 27.7948747,25.8815303 C28.4418747,26.4285303 28.4418747,26.4285303 28.8158747,25.9975303 C28.6708747,25.8555303 28.5268747,25.7145303 28.2438747,25.4405303 C28.6488747,25.4615303 28.8408747,25.4715303 29.0668747,25.4835303 C29.0878747,25.1455303 29.1088747,24.8305303 29.1168747,24.7005303 C29.4558747,24.0845303 30.0398747,24.5165303 30.3988747,24.0435303 C30.8298747,23.4765303 30.5608747,23.1125303 30.1898747,22.7455303 C30.4398747,22.3525303 31.1388747,22.6265303 31.0698747,22.0005303 C31.2588747,21.8085303 31.4478747,21.6175303 31.7848747,21.2765303 L30.5128747,21.2765303 C30.9158747,20.9755303 31.1648747,20.7905303 31.4448747,20.5815303 C31.2628747,20.4445303 31.1248747,20.3395303 30.8878747,20.1625303 C30.6928747,20.6925303 30.5268747,21.1455303 30.4398747,21.3815303 C30.5558747,21.9795303 31.2378747,21.3445303 31.1018747,22.0285303 L31.1018747,22.0285303 Z M25.1738747,39.5005303 C24.5788747,40.1535303 24.0488747,40.7525303 23.4978747,41.3335303 C22.8958747,41.9685303 22.3168747,42.6345303 21.6528747,43.2005303 C20.8678747,43.8685303 20.0628747,44.5025303 19.4628747,45.3545303 C19.3148747,45.5645303 19.1578747,45.7775303 18.9638747,45.9395303 C18.8118747,46.0675303 18.4828747,46.2355303 18.4318747,46.1845303 C18.2738747,46.0275303 18.1458747,45.7805303 18.1258747,45.5565303 C18.1008747,45.2775303 18.1938747,44.9865303 18.2508747,44.5995303 C15.9468747,46.4035303 13.7438747,48.1895303 11.4728747,49.8835303 C9.74287469,51.1735303 7.92387469,52.3425303 6.14987469,53.5755303 C5.85087469,53.7835303 5.56287469,54.0165303 5.30587469,54.2745303 C3.90387469,55.6755303 2.51587469,57.0905303 1.11387469,58.4935303 C0.870874688,58.7365303 0.640874688,59.1735303 0.216874688,58.8835303 C-0.237125312,58.5755303 0.136874688,58.1815303 0.301874688,57.9195303 C0.788874688,57.1485303 1.35087469,56.4235303 1.88087469,55.6795303 C2.15687469,55.2925303 2.41987469,54.8955303 2.70287469,54.5125303 C4.55787469,52.0045303 6.40387469,49.4905303 8.49187469,47.1655303 C9.12987469,46.4545303 9.68187469,45.7035303 9.79087469,44.6775303 C9.83287469,44.2885303 10.1698747,43.8915303 10.4558747,43.5745303 C11.1688747,42.7865303 11.9618747,42.0705303 12.6658747,41.2755303 C15.1238747,38.5035303 17.5558747,35.7095303 20.0018747,32.9275303 C20.4138747,32.4595303 20.8518747,32.0165303 21.2668747,31.5515303 C22.3658747,30.3205303 23.4438747,29.0715303 24.5578747,27.8535303 C25.3998747,26.9335303 26.3108747,26.0765303 27.1428747,25.1485303 C28.1538747,24.0225303 28.9788747,22.7785303 29.4598747,21.3155303 C29.7948747,20.2955303 30.3788747,19.4165303 31.1468747,18.6415303 C32.4898747,17.2855303 33.8028747,15.8975303 35.0918747,14.4895303 C35.4538747,14.0945303 35.6748747,13.5735303 35.9798747,13.1235303 C36.3908747,12.5175303 36.7778747,11.8875303 37.2508747,11.3345303 C38.2778747,10.1345303 39.3058747,8.92953032 40.4208747,7.81553032 C41.5168747,6.71953032 42.2238747,5.42453032 42.7608747,4.00453032 C43.0718747,3.18253032 43.3938747,2.36353032 43.7088747,1.54253032 C43.9448747,0.924530319 44.3758747,0.439530319 44.9728747,0.232530319 C45.5088747,0.0445303191 46.1288747,-0.0464696809 46.6858747,0.0235303191 C47.0028747,0.0645303191 47.2838747,0.501530319 47.5538747,0.784530319 C48.2838747,1.54853032 48.7638747,2.45053032 48.8588747,3.50853032 C48.9368747,4.36853032 49.3898747,4.84853032 50.1998747,5.01853032 C50.9508747,5.17553032 51.7038747,5.33053032 52.4618747,5.43653032 C53.2248747,5.54353032 54.0288747,5.47453032 54.7548747,5.68853032 C56.6278747,6.24053032 58.3198747,7.07453032 58.9208747,9.18253032 C59.0908747,9.77853032 59.3898747,10.3475303 59.4888747,10.9525303 C59.7218747,12.3705303 58.9638747,13.4405303 58.0178747,14.3385303 C57.1708747,15.1435303 56.1868747,15.8015303 55.2838747,16.5495303 C54.8348747,16.9225303 54.3378747,17.0915303 53.7678747,17.1035303 C52.9598747,17.1195303 52.1528747,17.1455303 51.3458747,17.1605303 C50.5468747,17.1735303 49.8548747,17.3585303 49.2998747,18.0235303 C48.9558747,18.4355303 48.4798747,18.7695303 48.0048747,19.0365303 C45.6698747,20.3435303 43.7338747,22.0935303 41.9858747,24.1135303 C41.1568747,25.0705303 40.0908747,25.8365303 39.0738747,26.6155303 C36.0178747,28.9545303 33.5608747,31.8705303 31.0898747,34.7795303 C29.6878747,36.4285303 28.2468747,38.0445303 26.8068747,39.6625303 C26.2218747,40.3195303 25.9928747,40.2985303 25.1738747,39.5005303 L25.1738747,39.5005303 Z" id="Fill-2"></path>
            <path d="M16.7268747,60.7716303 C16.7968747,60.7666303 16.8678747,60.7626303 16.9378747,60.7586303 C16.9678747,60.0916303 16.9808747,59.4236303 17.0318747,58.7586303 C17.0748747,58.1856303 16.7938747,57.9666303 16.2688747,57.9606303 C15.5818747,58.8966303 15.5818747,58.8966303 16.3018747,59.0996303 C16.4538747,59.6976303 16.5898747,60.2346303 16.7268747,60.7716303 M15.2058747,57.0006303 C15.8098747,57.1106303 16.4618747,57.1816303 17.0848747,57.3566303 C17.7038747,57.5316303 17.8568747,57.7576303 17.8308747,58.3986303 C17.7548747,60.1936303 17.6448747,61.9866303 17.5468747,63.7806303 C17.5128747,64.4016303 17.4908747,65.0246303 17.4238747,65.6426303 C17.4078747,65.7866303 17.2518747,65.9996303 17.1288747,66.0246303 C17.0048747,66.0486303 16.8018747,65.9106303 16.7058747,65.7866303 C16.6018747,65.6496303 16.5628747,65.4526303 16.5238747,65.2756303 C16.1648747,63.6296303 15.8158747,61.9826303 15.4528747,60.3386303 C15.3108747,59.6956303 15.1298747,59.0606303 14.9868747,58.4176303 C14.8938747,57.9986303 14.7018747,57.5626303 15.2058747,57.0006303" id="Fill-4"></path>
            <path d="M12.0139747,57.0020303 C11.8699747,56.4710303 11.7319747,55.9590303 11.5939747,55.4470303 C11.5409747,55.4500303 11.4879747,55.4520303 11.4359747,55.4550303 C11.3149747,57.0540303 11.1939747,58.6510303 11.0659747,60.3520303 C11.5619747,60.0950303 11.9379747,59.9410303 12.2679747,59.7220303 C12.7259747,59.4160303 12.7099747,58.8700303 12.2469747,58.5790303 C12.0709747,58.4690303 11.8479747,58.4320303 11.6499747,58.3530303 C11.6079747,58.3360303 11.5819747,58.2790303 11.5629747,58.2580303 C11.8049747,58.0640303 12.0349747,57.8800303 12.3559747,57.6240303 C11.9989747,57.5270303 11.7819747,57.4690303 11.4319747,57.3750303 C11.7169747,57.1920303 11.8849747,57.0850303 12.0139747,57.0020303 M10.7299747,61.1540303 C10.6749747,61.0720303 10.5619747,60.9810303 10.5649747,60.8970303 C10.6819747,58.2690303 10.8059747,55.6410303 10.9419747,53.0140303 C10.9519747,52.8160303 11.0529747,52.6230303 11.1049747,52.4470303 C11.6329747,52.4150303 11.7079747,52.7950303 11.7929747,53.0870303 C12.3329747,54.9390303 12.8399747,56.8000303 13.3749747,58.6520303 C13.5119747,59.1280303 13.3999747,59.5090303 13.0849747,59.8630303 C12.8259747,60.1550303 11.2759747,61.0160303 10.7299747,61.1540303" id="Fill-6"></path>
            <path d="M20.8069747,48.2530303 C20.6839747,48.6580303 20.5849747,48.9830303 20.4869747,49.3060303 C21.4779747,49.4990303 22.3539747,49.6260303 23.2969747,49.2140303 C22.4709747,48.8960303 21.6999747,48.5980303 20.8069747,48.2530303 M20.5909747,47.0510303 C21.1209747,47.8310303 21.8109747,48.0390303 22.5039747,48.2560303 C23.3039747,48.5060303 24.0959747,48.7810303 24.8839747,49.0650303 C25.0359747,49.1200303 25.1549747,49.2670303 25.3649747,49.4310303 C25.1189747,49.5910303 24.9639747,49.7570303 24.7809747,49.8000303 C24.0719747,49.9660303 23.3439747,50.0590303 22.6409747,50.2470303 C22.1199747,50.3870303 21.6239747,50.6270303 21.1219747,50.8350303 C20.6519747,51.0300303 20.1969747,51.2660303 19.7189747,51.4380303 C19.3589747,51.5660303 19.0009747,51.5190303 18.7349747,51.1890303 C18.7519747,51.0630303 18.7419747,50.9440303 18.7859747,50.8510303 C19.3539747,49.6430303 19.9299747,48.4390303 20.5909747,47.0510303" id="Fill-8"></path>
            <path d="M4.84937469,61.4141303 L4.68637469,61.2621303 C4.08437469,61.7681303 4.08437469,61.7681303 4.08437469,62.3661303 C4.37137469,62.0091303 4.61037469,61.7121303 4.84937469,61.4141303 M4.90537469,59.5511303 C5.00337469,59.8451303 5.10237469,60.1381303 5.19837469,60.4331303 C5.29937469,60.7441303 5.39637469,61.0571303 5.53037469,61.4781303 C5.27737469,61.7851303 4.98737469,62.1511303 4.68137469,62.5041303 C3.81937469,63.4981303 2.55637469,63.9051303 1.51237469,64.6351303 C1.28337469,64.7961303 0.913374688,64.7541303 0.367374688,64.8461303 C0.624374688,64.4321303 0.719374688,64.2171303 0.868374688,64.0511303 C1.89437469,62.9081303 2.94437469,61.7871303 3.95637469,60.6331303 C4.23237469,60.3181303 4.40637469,59.9151303 4.62737469,59.5531303 C4.72037469,59.5531303 4.81237469,59.5521303 4.90537469,59.5511303" id="Fill-10"></path>
            <path d="M14.7820747,48.8741303 C15.4580747,49.2841303 16.0000747,49.6121303 16.5350747,49.9361303 C16.0080747,50.9721303 15.8000747,51.0861303 14.7820747,50.9171303 L14.7820747,48.8741303 Z" id="Fill-12"></path>
            <path d="M42.8073747,13.4630303 C43.1193747,13.8820303 43.3703747,14.2200303 43.6383747,14.5790303 C43.5173747,14.7100303 43.3833747,14.8570303 43.2363747,15.0160303 C43.8053747,15.4390303 43.9483747,14.9060303 44.2243747,14.6410303 C44.3183747,14.7980303 44.4103747,14.9500303 44.4943747,15.0900303 C44.1583747,15.4730303 43.8493747,15.8230303 43.5523747,16.1630303 C43.3673747,15.9350303 43.1343747,15.6450303 42.8773747,15.3260303 C42.4103747,15.6770303 42.0343747,15.9600303 41.6573747,16.2420303 L41.7773747,16.4420303 C41.9713747,16.3510303 42.1603747,16.2430303 42.3613747,16.1750303 C42.5393747,16.1140303 42.7333747,16.0990303 43.0143747,16.0450303 C42.8303747,16.6520303 42.3763747,16.6090303 42.0323747,16.7430303 C41.7333747,16.8590303 41.4163747,16.9560303 41.2223747,17.2440303 C40.7213747,16.8750303 40.8353747,17.7650303 40.3263747,17.4470303 C40.5443747,17.7720303 40.6433747,17.9190303 40.7383747,18.0590303 C40.2843747,18.8130303 39.5603747,18.4010303 38.8723747,18.4780303 C39.0193747,18.7370303 39.1383747,18.9470303 39.3403747,19.3040303 C38.9093747,19.2570303 38.6443747,19.2290303 38.3563747,19.1970303 C38.3563747,19.0170303 38.3133747,18.8810303 38.3633747,18.8130303 C38.5363747,18.5800303 38.7473747,18.3770303 38.9323747,18.1520303 C39.4883747,17.4760303 40.0483747,16.8010303 40.5903747,16.1120303 C41.1793747,15.3650303 41.7433747,14.6000303 42.3303747,13.8530303 C42.4383747,13.7150303 42.6053747,13.6250303 42.8073747,13.4630303" id="Fill-14"></path>
            <path d="M40.5393747,12.9444303 C40.6763747,13.1044303 40.7653747,13.2084303 40.8083747,13.2574303 C40.3683747,13.4614303 39.9143747,13.6714303 39.3433747,13.9354303 C39.6803747,13.0164303 40.4853747,12.5164303 40.8413747,11.7244303 C41.1993747,10.9264303 41.2923747,10.0024303 41.9773747,9.12843032 C42.3203747,10.8714303 41.8393747,12.0774303 40.5393747,12.9444303" id="Fill-16"></path>
            <path d="M46.1413747,16.8380303 L46.1413747,15.2270303 C46.7363747,15.2220303 46.0483747,15.9860303 46.6383747,15.9380303 C46.7663747,16.3440303 46.5873747,16.5870303 46.1413747,16.8380303" id="Fill-18"></path>
            <path d="M54.8913747,8.32823032 C55.1003747,8.64523032 55.3093747,8.96323032 55.5513747,9.32823032 C55.3083747,9.46123032 55.1593747,9.54223032 54.8453747,9.71323032 C54.8763747,9.14623032 54.9003747,8.72423032 54.9243747,8.30023032 L54.8913747,8.32823032 Z" id="Fill-20"></path>
            <path d="M32.3308747,25.1143303 C32.3658747,25.3573303 32.4298747,25.5423303 32.4008747,25.7103303 C32.3838747,25.8123303 32.2368747,25.9263303 32.1238747,25.9683303 C32.0518747,25.9943303 31.8728747,25.9173303 31.8518747,25.8503303 C31.8148747,25.7363303 31.8178747,25.5613303 31.8838747,25.4703303 C31.9828747,25.3363303 32.1508747,25.2523303 32.3308747,25.1143303" id="Fill-22"></path>
            <path d="M35.5403747,25.2218303 L35.5403747,25.8498303 C35.4133747,25.8498303 35.2863747,25.8488303 35.1583747,25.8478303 C35.1693747,25.6378303 35.1813747,25.4268303 35.1923747,25.2168303 C35.3083747,25.2178303 35.4243747,25.2198303 35.5403747,25.2218303" id="Fill-24"></path>
        </g>
    </g>
</svg>