<?xml version="1.0" encoding="UTF-8"?>
<svg width="35px" height="127px" viewBox="0 0 35 127" version="1.1" xmlns="http://www.w3.org/2000/svg" xmlns:xlink="http://www.w3.org/1999/xlink">
    <!-- Generator: Sketch 61.2 (89653) - https://sketch.com -->
    <title>white_herb</title>
    <desc>Created with Sketch.</desc>
    <g id="Page-1" stroke="none" stroke-width="1" fill="none" fill-rule="evenodd">
        <g id="white_herb" transform="translate(0.188739, 0.388400)" fill="#FFFFFF">
            <path d="M20.8430614,33.294 C20.5950614,32.82 20.5950614,32.82 18.4820614,32.991 C19.3370614,33.102 20.0070614,33.188 20.8430614,33.294 L20.8430614,33.294 Z M19.4750614,80.101 C18.5780614,79.227 18.5780614,79.227 17.2970614,79.639 C18.1300614,79.815 18.7660614,79.95 19.4750614,80.101 L19.4750614,80.101 Z M4.21906141,59.51 C3.01206141,58.714 2.28906141,57.544 1.66006141,55.877 C1.54506141,58.405 2.01306141,59.021 4.21906141,59.51 L4.21906141,59.51 Z M28.0740614,41.754 C28.9900614,43.057 29.9060614,44.359 31.0450614,45.978 C30.6960614,43.812 29.7190614,42.547 28.0740614,41.754 L28.0740614,41.754 Z M4.84706141,14.914 C3.34806141,15.537 2.68506141,16.777 2.99406141,18.379 C3.60306141,17.24 4.23806141,16.053 4.84706141,14.914 L4.84706141,14.914 Z M11.5590614,58.402 C12.0440614,58.202 12.4450614,58.121 12.7210614,57.891 C12.8880614,57.752 12.9360614,57.371 12.9060614,57.114 C12.8340614,56.484 12.0860614,56.148 10.8690614,56.164 C11.0800614,56.85 11.2880614,57.524 11.5590614,58.402 L11.5590614,58.402 Z M5.97706141,40.946 C5.88506141,40.203 5.69806141,39.457 5.72206141,38.717 C5.75106141,37.823 5.59606141,36.857 6.29406141,36.087 C6.44806141,35.917 6.53206141,35.683 6.81206141,35.19 C4.91406141,36.537 4.57106141,38.894 5.97706141,40.946 L5.97706141,40.946 Z M28.0950614,17.286 C29.6040614,17.941 31.0530614,17.069 31.5510614,15.099 C31.0360614,15.229 30.1900614,15.292 30.1640614,15.474 C29.9820614,16.729 28.6570614,16.56 28.0950614,17.286 L28.0950614,17.286 Z M31.1140614,74.263 C31.7010614,71.417 31.2570614,69.529 29.8460614,68.491 C30.2540614,70.349 30.6910614,72.338 31.1140614,74.263 L31.1140614,74.263 Z M7.41906141,15.784 C6.55306141,17.409 4.56506141,18.129 3.85506141,20.19 C6.21006141,19.102 7.05906141,18.05 7.41906141,15.784 L7.41906141,15.784 Z M31.5740614,30.338 C31.4760614,29.43 30.8520614,29.092 30.1220614,28.772 C29.3780614,28.445 28.6910614,27.986 27.9670614,27.609 C27.8640614,27.556 27.6910614,27.634 27.5270614,27.654 C28.5250614,29.565 29.6450614,30.31 31.5740614,30.338 L31.5740614,30.338 Z M26.8300614,43.436 C26.9880614,45.202 28.1200614,46.322 29.0910614,47.504 C29.4320614,47.92 29.9780614,48.162 30.7810614,47.736 C30.0200614,46.965 29.2910614,46.308 28.6640614,45.565 C28.0890614,44.885 27.7510614,44.008 26.8300614,43.436 L26.8300614,43.436 Z M8.60406141,35.643 C8.49106141,35.629 8.37706141,35.614 8.26406141,35.601 C8.11506141,36.266 8.08706141,36.992 7.78406141,37.577 C7.50006141,38.124 8.00406141,38.692 7.46106141,39.258 C7.06406141,39.67 6.80506141,40.426 6.96406141,41.314 C8.86806141,39.649 9.01106141,37.72 8.60406141,35.643 L8.60406141,35.643 Z M9.18006141,62.966 C10.5820614,61.086 10.6260614,59.168 9.69806141,57.141 C9.52806141,58.744 9.35906141,60.347 9.18806141,61.963 L8.15306141,61.963 C8.60506141,62.403 8.87906141,62.672 9.18006141,62.966 L9.18006141,62.966 Z M26.6080614,15.729 C27.3300614,15.058 27.9240614,14.288 28.7040614,13.841 C29.5860614,13.334 30.5600614,14.081 31.5600614,14.148 C31.1750614,13.083 30.4300614,12.607 29.4420614,12.747 C28.5770614,12.87 27.9000614,13.355 27.3280614,13.983 C26.8870614,14.468 26.3500614,14.928 26.6080614,15.729 L26.6080614,15.729 Z M32.7950614,30.09 C33.2460614,28.141 32.8730614,26.728 31.5120614,25.991 C30.9500614,25.687 30.2430614,25.604 29.5910614,25.538 C29.2970614,25.509 28.9730614,25.769 28.5850614,25.931 C28.8430614,26.106 28.9340614,26.221 29.0230614,26.219 C30.2510614,26.197 31.2640614,26.415 31.6850614,27.83 C31.9280614,28.648 32.4400614,29.386 32.7950614,30.09 L32.7950614,30.09 Z M10.6490614,118.605 C10.3750614,117.471 10.0940614,116.481 9.90806141,115.472 C9.81406141,114.962 9.89306141,114.421 9.89406141,113.894 C10.7090614,113.815 10.0880614,113.451 10.0740614,113.163 C10.0550614,112.743 10.1650614,112.312 10.2610614,111.895 C10.3490614,111.515 10.4920614,111.148 10.6830614,110.549 C8.41306141,112.745 8.43906141,116.236 10.6490614,118.605 L10.6490614,118.605 Z M30.6540614,99.334 C31.7820614,98.027 32.5330614,96.923 32.1680614,95.498 C31.7710614,93.952 31.5660614,92.241 29.6470614,91.193 C30.0240614,91.921 30.2930614,92.373 30.5000614,92.852 C31.2590614,94.61 31.7840614,96.385 30.7950614,98.25 C30.6870614,98.454 30.7250614,98.735 30.6540614,99.334 L30.6540614,99.334 Z M12.8850614,111.053 C12.7070614,113.046 12.7970614,115.059 11.7880614,116.93 C11.5560614,117.36 11.2600614,118.229 11.7560614,118.956 C13.5930614,116.683 14.0500614,113.607 12.8850614,111.053 L12.8850614,111.053 Z M29.1070614,99.586 C29.2640614,99.572 29.4220614,99.56 29.5790614,99.547 C29.5350614,99.068 29.6140614,98.529 29.4160614,98.126 C29.1450614,97.573 28.6330614,97.131 29.0410614,96.442 C28.5320614,95.98 28.5650614,95.312 28.4340614,94.724 C28.1730614,93.54 27.9940614,92.339 27.7200614,90.801 C26.4960614,94.276 27.9200614,96.909 29.1070614,99.586 L29.1070614,99.586 Z M27.5420614,67.409 C26.1100614,70.211 27.3190614,75.028 29.5600614,75.985 C29.1770614,75.282 30.0290614,74.295 28.7640614,73.974 C28.6520614,73.945 28.6470614,73.573 28.5520614,73.38 C27.6860614,71.618 27.5710614,69.714 27.5420614,67.409 L27.5420614,67.409 Z M7.23506141,63.303 C7.28706141,62.168 7.44006141,61.06 7.07706141,59.942 C6.93206141,59.496 6.87006141,58.719 7.12106141,58.504 C7.88506141,57.854 7.92706141,56.848 8.84806141,55.971 C7.01606141,56.39 6.34906141,57.415 5.97006141,58.779 C5.47806141,60.553 6.00606141,62.007 7.23506141,63.303 L7.23506141,63.303 Z M6.89506141,87.559 C6.94806141,87.225 7.00506141,87.059 6.99306141,86.898 C6.95006141,86.292 7.06906141,85.572 6.77906141,85.116 C6.44606141,84.591 7.38406141,83.947 6.51306141,83.625 C6.78906141,82.705 7.03206141,81.773 7.35606141,80.871 C7.50606141,80.451 7.81406141,80.088 8.18006141,79.486 C6.55706141,80.314 5.96506141,81.147 5.71306141,82.877 C5.47306141,84.523 5.11406141,86.222 6.89506141,87.559 L6.89506141,87.559 Z M7.71706141,88.006 C9.19606141,87.075 9.40406141,86.865 9.74606141,85.646 C10.2740614,83.771 10.1870614,81.899 9.52806141,80.036 C9.20506141,81.407 9.17906141,82.864 8.69906141,84.152 C8.24206141,85.379 8.35806141,86.658 7.71706141,88.006 L7.71706141,88.006 Z M12.3650614,72.647 C11.0610614,73.782 9.94106141,74.705 10.1760614,76.395 C10.3470614,77.622 10.9360614,78.546 12.3650614,78.795 L12.3650614,72.647 Z M15.1480614,111.205 C14.4490614,107.799 13.8160614,104.712 13.1720614,101.57 C11.6100614,103.918 12.3480614,107.753 15.1480614,111.205 L15.1480614,111.205 Z M11.5150614,29.524 C8.43006141,29.823 7.80606141,30.167 7.11406141,31.847 C8.28506141,33.249 9.90006141,33.69 11.7300614,33.074 C11.6610614,31.936 11.5910614,30.782 11.5150614,29.524 L11.5150614,29.524 Z M11.1500614,48.36 C9.59206141,49.098 8.45906141,49.964 7.74706141,51.256 C7.55206141,51.607 7.71706141,52.156 7.71706141,52.676 C8.40006141,52.629 8.89806141,52.595 9.71306141,52.539 C9.25006141,53.04 9.01806141,53.292 8.73006141,53.604 C9.88106141,54.333 11.0220614,54.939 12.4680614,55.146 C11.9950614,54.019 11.3970614,53.046 11.1970614,51.997 C10.9850614,50.88 11.1500614,49.691 11.1500614,48.36 L11.1500614,48.36 Z M25.1830614,90.53 C26.3350614,89.46 27.3500614,88.604 28.2590614,87.647 C29.2640614,86.588 29.6740614,85.276 29.5480614,83.805 C29.4470614,82.632 28.9300614,81.825 27.8060614,81.554 C27.1350614,81.949 27.4840614,83.158 26.2200614,83.182 C26.4050614,82.482 26.5510614,81.928 26.7070614,81.338 C26.4280614,81.223 26.2340614,81.101 26.0250614,81.065 C25.7730614,81.023 25.5090614,81.056 25.1830614,81.056 L25.1830614,90.53 Z M15.2590614,65.256 C15.2170614,65.153 15.1760614,65.052 15.1350614,64.95 C15.5050614,64.753 15.8540614,64.461 16.2470614,64.379 C17.1200614,64.198 18.0130614,64.06 18.9030614,64.023 C19.6410614,63.994 20.2360614,63.763 20.7500614,63.198 C19.2740614,63.312 17.7990614,63.425 16.5480614,63.521 C15.4920614,62.896 16.1710614,62.215 16.2820614,61.474 C15.4940614,61.628 15.1620614,61.918 15.0690614,62.572 C14.9830614,63.168 14.8690614,63.794 14.6020614,64.323 C13.9570614,65.599 13.5510614,66.895 13.6800614,68.346 C13.7240614,68.838 13.5750614,69.345 13.5570614,69.847 C13.5480614,70.098 13.6340614,70.352 13.6680614,70.548 C16.0310614,69.76 18.3310614,69.095 20.5500614,68.224 C22.6250614,67.408 24.6350614,66.419 26.6300614,65.418 C27.5910614,64.936 28.1260614,64.104 27.7860614,62.836 C26.4270614,62.798 25.0670614,62.378 23.7140614,63.218 C24.2180614,64.098 24.6560614,64.859 25.1550614,65.732 C24.6560614,66.018 24.2570614,66.392 23.8020614,66.481 C22.0600614,66.822 20.3010614,67.071 18.4760614,67.367 C18.5170614,67.671 18.5640614,68.022 18.6110614,68.372 C18.1000614,68.538 17.6840614,68.723 17.2490614,68.803 C16.6660614,68.909 16.0680614,68.934 15.4760614,68.994 C15.3020614,68.279 15.1090614,67.569 14.9630614,66.849 C14.9110614,66.591 14.9600614,66.31 14.9900614,66.042 C15.0000614,65.951 15.0940614,65.87 15.1670614,65.759 C15.4090614,65.802 15.6630614,65.847 15.9260614,65.893 C16.0310614,65.657 16.1310614,65.435 16.2780614,65.106 C15.8580614,65.167 15.5580614,65.211 15.2590614,65.256 L15.2590614,65.256 Z M24.3890614,18.687 C23.8370614,19.056 24.2940614,20.047 23.3380614,20.322 C23.3210614,19.977 23.2840614,19.72 23.3030614,19.467 C23.3260614,19.151 23.3960614,18.84 23.4680614,18.383 C23.0600614,18.401 22.7750614,18.414 22.5060614,18.426 C22.2830614,20.871 22.2920614,20.867 23.0810614,22.886 C23.2630614,23.349 23.3560614,23.846 23.4960614,24.326 C23.7670614,25.252 24.0410614,26.176 24.3150614,27.105 C27.5970614,25.87 28.2930614,25.062 28.0580614,22.66 C27.8770614,20.816 26.3540614,18.783 24.3890614,18.687 L24.3890614,18.687 Z M15.0760614,16.676 C15.4710614,17.117 15.6200614,17.377 15.8450614,17.515 C16.2770614,17.778 16.3860614,17.649 16.3900614,17.004 C16.3910614,16.88 16.5410614,16.764 16.5970614,16.633 C16.7370614,16.306 16.9060614,15.982 16.9830614,15.639 C17.0760614,15.219 17.0800614,14.779 17.1430614,14.351 C17.1520614,14.297 17.2810614,14.261 17.3940614,14.192 C17.4710614,14.671 17.5430614,15.122 17.6790614,15.966 C18.0250614,15.279 18.1790614,14.952 18.3520614,14.635 C18.5250614,14.316 18.7170614,14.008 18.9850614,13.549 C19.7430614,14.293 20.3780614,14.915 21.2350614,15.755 C20.8820614,14.085 20.0340614,13.284 18.7140614,13.093 C17.1140614,12.86 15.5030614,12.936 14.5140614,14.487 C13.2030614,16.546 13.4870614,18.635 14.6480614,20.669 C14.8870614,21.087 15.1660614,21.481 15.4190614,21.877 C12.9660614,23.795 12.4550614,25.076 12.9180614,28.021 C15.4060614,28.021 17.9000614,28.023 20.3940614,28.019 C20.7860614,28.018 21.1830614,28.025 21.5680614,27.966 C22.1540614,27.876 22.7300614,27.732 23.4470614,27.581 C21.9990614,27.04 20.4760614,28.299 19.2750614,27.031 C19.2720614,27.027 19.1950614,27.1 19.1490614,27.131 C18.3400614,27.684 17.4380614,27.214 16.5940614,27.362 C15.7580614,27.509 15.4040614,26.994 14.9870614,26.262 C16.9710614,25.933 16.7150614,24.362 16.8560614,23.107 C17.6920614,22.814 18.5630614,22.826 19.3400614,21.899 C18.5990614,21.851 18.1240614,21.836 17.6530614,21.783 C16.7460614,21.683 16.6250614,21.545 16.3680614,20.577 C16.3390614,20.467 16.1230614,20.398 15.9850614,20.326 C15.8220614,20.242 15.6500614,20.177 15.4820614,20.103 C15.8860614,19.488 15.1680614,19.445 15.0200614,19.124 C14.8900614,18.841 15.0570614,18.427 15.0720614,18.069 C15.0880614,17.716 15.0760614,17.362 15.0760614,16.676 L15.0760614,16.676 Z M19.4490614,69.461 C20.9490614,73.472 21.6730614,77.491 21.8430614,81.564 C22.0110614,85.587 22.0120614,89.629 21.7050614,93.779 C22.6840614,92.908 23.5970614,92.096 24.3330614,91.441 C24.2200614,90.897 24.0850614,90.549 24.0850614,90.201 C24.0830614,83.428 24.1030614,76.653 24.0930614,69.88 C24.0920614,69.309 24.2530614,68.674 23.8440614,68.075 C22.3530614,68.546 20.9360614,68.992 19.4490614,69.461 L19.4490614,69.461 Z M14.8670614,100 L14.3380614,100.144 C14.3480614,101.905 14.6570614,103.649 14.9950614,105.376 C15.3500614,107.183 15.7900614,108.976 16.2630614,110.757 C16.7220614,112.483 17.1320614,114.244 17.8190614,115.884 C18.5010614,117.514 18.5540614,119.421 19.8980614,121.054 C20.5550614,118.069 21.1750614,115.354 21.7470614,112.628 C22.8260614,107.485 23.6810614,102.308 24.0620614,97.063 C24.1480614,95.868 24.0740614,94.662 24.0740614,93.383 C22.4260614,94.002 21.5300614,94.9 21.7870614,96.584 C21.8120614,96.743 21.7460614,96.915 21.7320614,97.082 C21.5080614,99.746 21.2700614,102.41 21.0700614,105.076 C21.0110614,105.855 21.1210614,106.647 21.0500614,107.423 C20.7920614,110.261 20.4960614,113.096 20.1970614,115.929 C20.1650614,116.227 20.0140614,116.511 19.8340614,117.059 C19.5100614,116.369 19.6350614,115.678 18.9240614,115.621 C19.0630614,115.117 18.8150614,114.784 18.5350614,114.375 C18.2380614,113.941 18.1780614,113.343 18.0260614,112.814 C17.8930614,112.351 17.5220614,111.661 17.6990614,111.461 C18.1730614,110.923 17.7780614,110.607 17.5940614,110.245 C17.9940614,110.008 18.3480614,109.797 18.7010614,109.587 C18.6750614,109.528 18.6490614,109.47 18.6230614,109.41 C18.2600614,109.441 17.8980614,109.473 17.5950614,109.499 C17.5320614,108.746 17.4650614,107.95 17.3960614,107.128 C17.5940614,106.892 17.8360614,106.605 18.0620614,106.335 C17.7650614,105.903 17.5170614,105.545 17.3070614,105.241 C16.9020614,105.292 16.5680614,105.335 16.1180614,105.392 C16.3760614,105.027 16.5310614,104.809 16.6700614,104.612 C16.5860614,104.189 15.8970614,104.17 16.1890614,103.483 C16.3600614,103.082 16.2810614,102.356 16.1790614,101.934 C16.0080614,101.225 15.3310614,100.638 14.8670614,100 L14.8670614,100 Z M19.1580614,39.455 L19.0690614,39.036 C18.2680614,38.851 17.4650614,38.968 16.6520614,39.128 C15.9910614,39.258 15.5330614,38.961 15.4170614,38.312 C15.2380614,37.313 15.1330614,36.3 14.9440614,34.907 C15.4640614,35.477 15.7110614,35.746 15.9600614,36.019 C16.2690614,35.426 16.5750614,34.837 16.8430614,34.323 C16.4240614,34.106 16.0200614,33.898 15.4610614,33.609 C16.1200614,33.484 16.5700614,33.399 17.0970614,33.3 C16.8000614,32.898 16.1480614,33.115 16.3130614,32.387 C16.3780614,32.1 15.6340614,31.811 15.7490614,31.214 C15.8330614,30.784 15.8030614,30.326 15.7750614,29.885 C15.7670614,29.761 15.5880614,29.648 15.4350614,29.468 C15.1280614,29.779 14.8560614,30.055 14.2940614,30.623 C14.3430614,29.895 14.3640614,29.572 14.3920614,29.147 C13.9110614,29.219 13.3450614,29.304 12.8310614,29.381 C12.5050614,31.857 12.7250614,34.062 13.6050614,36.307 C14.1830614,37.78 14.2780614,39.226 13.7700614,40.724 C13.5550614,41.358 13.3800614,42.008 13.2170614,42.658 C12.9380614,43.775 12.6830614,44.898 12.3940614,46.122 C12.7500614,46.085 12.9140614,46.104 13.0510614,46.05 C16.4770614,44.685 19.9650614,43.446 23.3010614,41.887 C25.1490614,41.023 26.7690614,39.651 28.4420614,38.44 C29.3730614,37.768 29.5210614,36.706 29.1670614,35.708 C28.8360614,34.773 28.0380614,34.26 27.1530614,34.164 C26.4680614,34.628 26.7790614,35.644 25.7450614,35.773 C25.7900614,35.114 25.8280614,34.551 25.8760614,33.85 C25.2300614,33.884 24.7100614,33.911 24.1820614,33.939 C24.1300614,34.504 24.1510614,34.907 24.0480614,35.277 C23.5540614,37.056 23.5600614,38.775 24.5140614,40.419 C24.5540614,40.488 24.4740614,40.628 24.4340614,40.805 C24.3040614,40.906 24.1500614,41.088 23.9530614,41.169 C23.1820614,41.487 22.3890614,41.752 21.6220614,42.079 C20.8570614,42.406 20.0710614,43.142 19.3710614,43.057 C18.3470614,42.934 18.0670614,43.999 17.2390614,43.956 C17.1400614,43.951 17.0420614,43.955 16.7710614,43.955 C16.7750614,43.038 17.4570614,42.504 17.9860614,41.92 C17.5070614,41.545 17.0950614,41.222 16.5160614,40.768 C17.5290614,40.265 18.3430614,39.859 19.1580614,39.455 L19.1580614,39.455 Z M15.4660614,95.681 C15.3550614,95.543 15.1250614,95.366 15.1550614,95.274 C15.2410614,95.007 15.4320614,94.773 15.5010614,94.658 C15.3030614,94.351 15.1910614,94.177 14.9890614,93.864 L16.1580614,93.864 C15.1320614,92.954 15.1020614,92.828 15.4340614,91.505 C15.4870614,91.295 15.4460614,90.909 15.5320614,90.884 C16.6350614,90.551 15.6340614,89.754 15.8730614,89.262 C16.6260614,89.16 16.6260614,89.16 16.7200614,87.425 C17.0490614,87.262 17.3760614,87.099 17.7440614,86.916 C17.4990614,86.716 17.3400614,86.586 17.1760614,86.452 C17.5670614,86.221 17.9400614,85.999 18.3830614,85.736 C17.7610614,84.804 18.4670614,84.256 19.0040614,83.765 C18.2790614,83.271 17.6780614,82.861 17.0850614,82.457 C16.8740614,82.718 16.6640614,82.977 16.4540614,83.234 C16.3910614,83.206 16.3280614,83.177 16.2650614,83.148 C16.3340614,82.794 16.4020614,82.44 16.4780614,82.048 C15.9570614,81.949 15.4870614,81.861 14.9890614,81.768 C14.7810614,81.183 14.6010614,80.671 15.1190614,80.2 C15.4040614,80.834 15.5140614,81.681 16.6010614,81.387 C16.2520614,80.763 15.7790614,80.354 15.0750614,80.247 L15.0750614,79.346 C15.6710614,79.797 16.0340614,80.084 16.4130614,80.349 C16.4690614,80.387 16.5970614,80.321 16.7560614,80.292 C16.7770614,80.039 16.7990614,79.771 16.8190614,79.524 C16.1430614,79.157 15.5160614,78.816 14.8890614,78.476 C14.9230614,78.384 14.9560614,78.291 14.9900614,78.199 C15.6570614,78.302 16.3250614,78.403 17.1380614,78.528 C16.9180614,78.038 16.7510614,77.669 16.5560614,77.237 C17.2810614,77.106 17.9900614,76.977 18.7000614,76.848 C18.5990614,75.871 17.9700614,76.534 17.5930614,76.5 C16.9710614,76.442 16.6850614,76.051 17.0120614,75.542 C17.2150614,75.227 17.5450614,74.996 17.7850614,74.701 C17.9390614,74.514 18.0330614,74.278 18.2780614,73.844 C17.5900614,73.991 17.1510614,74.086 16.5760614,74.209 C16.9390614,73.816 17.1770614,73.559 17.6450614,73.052 C16.6790614,72.921 16.0050614,72.829 15.3030614,72.733 C15.1390614,72.198 14.9660614,71.634 14.2090614,71.793 C13.4860614,71.945 13.4400614,72.499 13.4640614,73.091 C13.4760614,73.371 13.4660614,73.65 13.4710614,73.931 C13.5250614,77.063 13.5840614,80.194 13.6350614,83.326 C13.7130614,88.025 13.7820614,92.725 13.8680614,97.423 C13.8770614,97.899 13.9800614,98.373 14.0450614,98.897 C16.0310614,98.041 19.2070614,95.794 20.1410614,94.527 C19.2010614,95.113 18.4630614,95.572 17.7540614,96.013 C16.9500614,95.909 16.2610614,95.237 15.4250614,95.71 L15.4660614,95.681 Z M16.1300614,46.349 C15.1890614,46.637 14.2500614,46.933 13.3070614,47.213 C12.4980614,47.453 12.1980614,47.984 12.1350614,48.824 C11.9760614,50.9 12.2600614,52.832 13.5220614,54.559 C13.7770614,54.906 14.0690614,55.367 14.0410614,55.754 C13.9650614,56.846 13.7310614,57.927 13.5620614,58.997 C12.8560614,59.215 12.1870614,59.422 11.5070614,59.632 C11.6180614,59.892 11.6340614,60.033 11.7080614,60.077 C11.8340614,60.153 12.0030614,60.222 12.1430614,60.204 C16.8230614,59.614 21.5220614,59.299 26.2380614,59.25 C27.2140614,59.24 28.1970614,59.3 29.1690614,59.402 C30.7500614,59.568 31.8140614,60.472 32.4570614,62.081 C32.6370614,60.123 31.8390614,58.967 30.1710614,58.653 C29.4040614,58.509 28.6160614,58.458 27.8360614,58.4 C26.0030614,58.265 24.1680614,58.148 22.3340614,58.032 C22.1130614,58.018 21.8870614,58.046 21.6660614,58.076 C20.3390614,58.259 19.0170614,58.515 17.6840614,58.609 C16.8330614,58.67 15.9200614,58.932 15.0910614,58.426 C15.0910614,57.548 15.1990614,56.702 15.0610614,55.899 C14.9170614,55.067 14.5330614,54.277 14.1450614,53.152 C14.7990614,53.62 15.5620614,54.016 15.5170614,54.158 C15.2030614,55.159 16.3200614,54.455 16.3130614,54.869 C16.2990614,55.697 17.0530614,55.069 17.1200614,55.21 C16.4720614,54.696 16.7570614,53.99 17.3780614,53.337 C16.8970614,53.019 16.8360614,52.904 16.6590614,52.272 C16.6250614,52.148 16.4620614,52.065 16.4070614,51.942 C16.3090614,51.722 16.2480614,51.484 16.1720614,51.254 C16.4340614,51.224 16.6970614,51.193 17.0470614,51.153 C16.4420614,50.513 15.7930614,50.498 15.1190614,50.578 C15.0770614,49.407 15.4410614,48.423 16.1680614,48.395 C16.3540614,48.639 16.6420614,49.018 16.9200614,49.384 C17.2430614,48.947 17.5220614,48.569 17.8430614,48.136 C16.6390614,48.067 16.6390614,48.067 16.3940614,46.878 C16.6220614,47.12 16.8500614,47.362 17.2600614,47.798 C17.2190614,47.099 17.1960614,46.703 17.1690614,46.243 C17.5620614,46.317 17.8230614,46.378 18.0880614,46.413 C18.3160614,46.443 18.5490614,46.444 18.9300614,46.467 C17.8500614,45.523 17.8500614,45.523 17.0220614,45.919 C16.7240614,46.062 16.4270614,46.205 16.1300614,46.349 L16.1300614,46.349 Z M25.5990614,42.06 C25.0880614,43.196 25.3150614,44.343 25.3440614,45.485 C25.3920614,47.276 25.5310614,49.07 25.4620614,50.856 C25.4010614,52.445 24.7600614,53.895 23.8830614,55.229 C23.5900614,55.676 23.3470614,56.155 22.9780614,56.802 C23.6640614,56.854 24.0890614,56.898 24.5150614,56.915 C26.2500614,56.987 27.9850614,57.049 29.7200614,57.118 C31.6220614,57.194 32.7810614,58.321 33.6230614,59.889 C33.7280614,60.084 33.8750614,60.312 33.8560614,60.51 C33.6870614,62.315 33.7770614,64.191 32.5520614,65.898 C31.5590614,64.694 31.4560614,62.63 29.3090614,62.768 C29.2320614,62.986 29.1500614,63.135 29.1310614,63.29 C29.1040614,63.508 29.1240614,63.731 29.1240614,63.815 C29.4140614,64.593 30.5580614,64.299 30.5030614,65.408 C29.9120614,65.305 29.3500614,65.206 28.7170614,65.096 C28.4790614,65.347 28.2140614,65.627 27.9100614,65.947 C28.0720614,66.056 28.1840614,66.184 28.3190614,66.213 C30.3720614,66.661 31.4000614,68.079 31.9550614,69.98 C32.8270614,72.967 32.2030614,75.578 30.1330614,77.866 C26.5860614,76.074 25.1400614,71.748 26.4470614,67.048 C25.1630614,67.591 25.1180614,67.591 25.1100614,68.818 C25.0860614,72.393 25.1010614,75.968 25.1010614,79.612 C26.0510614,79.821 26.9210614,79.982 27.7740614,80.206 C29.7380614,80.723 30.6390614,81.801 30.6540614,83.797 C30.6610614,84.84 30.4690614,85.885 30.3530614,87.075 C30.6600614,87.588 31.7150614,87.518 31.9910614,88.443 C31.0110614,89.039 30.4850614,87.86 29.5770614,87.955 C29.2690614,88.295 28.8990614,88.702 28.3980614,89.253 C28.8770614,89.453 29.2470614,89.631 29.6320614,89.766 C30.7470614,90.156 31.5820614,90.887 32.0990614,91.926 C32.8020614,93.342 33.2150614,94.847 33.2130614,96.445 C33.2100614,98.083 31.7510614,100.258 29.7600614,101.014 C29.5020614,101.111 29.1030614,100.991 28.8330614,100.851 C28.6050614,100.732 28.4190614,100.463 28.3000614,100.219 C26.9720614,97.485 25.6930614,94.738 26.4970614,91.559 C26.5220614,91.461 26.4690614,91.345 26.4520614,91.236 C25.1330614,92.073 25.1210614,92.073 25.1170614,93.486 C25.1040614,98.585 24.6770614,103.635 23.5680614,108.627 C23.0710614,110.86 22.7640614,113.137 22.3690614,115.408 C22.8930614,116.11 23.4240614,116.82 24.0160614,117.614 C24.5140614,117.762 25.1140614,117.94 25.7140614,118.118 C25.7060614,118.228 25.6980614,118.337 25.6910614,118.446 C25.4170614,118.507 25.1460614,118.583 24.8690614,118.622 C24.6070614,118.659 24.3400614,118.657 24.0190614,118.675 C23.7860614,121.908 22.0270614,124.292 20.0720614,126.586 C19.8860614,125.674 20.3940614,125.015 20.8400614,124.349 C21.7200614,123.035 22.4650614,121.648 22.7040614,120.079 C22.8670614,119.009 23.0760614,117.847 21.9680614,116.905 C21.4540614,119.083 20.9630614,121.162 20.4540614,123.315 C19.6160614,123.052 19.2320614,122.576 18.9870614,122.023 C18.5130614,120.953 18.0720614,119.868 17.6790614,118.768 C17.1150614,117.189 16.6120614,115.588 16.0650614,114.003 C16.0190614,113.87 15.8360614,113.783 15.6370614,113.603 C15.5140614,114.011 15.4140614,114.347 15.2970614,114.738 C14.1740614,114.291 15.0420614,113.274 14.5560614,112.64 C14.4990614,113.794 14.4700614,114.898 14.3850614,116 C14.2550614,117.673 13.2740614,118.907 12.1270614,119.994 C11.4540614,120.631 10.8880614,120.552 10.2180614,119.877 C7.95406141,117.594 7.45606141,114.982 8.41206141,111.827 C8.90306141,110.209 10.1800614,109.166 11.8180614,108.544 C11.6450614,107.644 11.4800614,106.78 11.3110614,105.901 C10.7510614,105.818 10.2420614,105.743 9.71106141,105.665 C9.88906141,104.706 10.7900614,105.076 11.3110614,104.495 C11.0920614,102.762 11.5520614,101.087 12.8670614,99.996 C12.6990614,93.206 12.5360614,86.628 12.3650614,79.693 C12.0970614,80.417 11.9510614,80.812 11.8050614,81.206 C11.7190614,81.199 11.6320614,81.193 11.5460614,81.187 C11.4020614,80.662 11.2570614,80.137 11.1130614,79.612 C11.0130614,79.633 10.9140614,79.653 10.8150614,79.674 C10.8540614,80.082 10.8500614,80.501 10.9410614,80.898 C11.4070614,82.953 10.9580614,84.922 10.2890614,86.828 C9.83906141,88.109 8.77006141,88.868 7.32706141,89.33 C5.81206141,88.37 4.64706141,87.084 4.65106141,85.102 C4.65306141,83.995 4.82306141,82.873 5.05506141,81.788 C5.45306141,79.929 6.61906141,78.733 8.47906141,78.252 C8.74206141,78.184 9.01006141,78.135 9.39806141,78.051 C8.80506141,76.244 8.91906141,74.582 10.2050614,73.141 C9.78306141,72.777 9.46006141,72.499 9.06906141,72.162 C9.80606141,71.19 10.3710614,72.197 10.9700614,72.204 C12.1840614,71.871 12.6100614,71.065 12.5220614,69.824 C12.4630614,68.995 12.6600614,68.151 12.6490614,67.316 C12.6370614,66.451 12.7970614,65.656 13.2070614,64.897 C13.5220614,64.313 13.7960614,63.706 14.1860614,62.909 C13.0200614,62.756 11.9910614,62.849 10.9730614,62.911 C10.7420614,62.926 10.5010614,63.167 10.3110614,63.352 C10.1550614,63.503 10.0770614,63.731 9.94806141,63.913 C8.62406141,65.769 7.97906141,65.845 6.49206141,64.135 C5.81606141,63.356 5.13006141,63.02 4.07306141,62.977 C1.75906141,62.883 0.708061413,61.823 0.180061413,59.559 C-0.122938587,58.256 -0.0299385867,56.994 0.357061413,55.75 C0.645061413,54.824 1.19006141,54.159 2.46506141,54.379 C2.42206141,56.128 3.26606141,57.395 4.94306141,58.253 C5.49906141,56.647 6.53206141,55.458 8.20506141,54.917 C5.68406141,51.911 5.72306141,51.318 8.63306141,48.438 C8.43106141,48.061 8.21606141,47.657 7.96706141,47.191 C8.23306141,47.114 8.43106141,46.99 8.51606141,47.044 C8.88506141,47.277 9.21906141,47.564 9.57106141,47.834 C9.95506141,47.616 10.2930614,47.418 10.6370614,47.233 C11.1140614,46.979 11.3130614,46.612 11.4260614,46.054 C11.7890614,44.248 12.2060614,42.447 12.7120614,40.676 C13.1110614,39.276 13.2210614,37.959 12.5580614,36.603 C12.2040614,35.877 12.0260614,35.066 11.7580614,34.264 C10.5620614,34.644 11.7820614,35.542 11.1820614,35.979 C10.0270614,36.225 10.8120614,34.184 9.34906141,34.548 C9.91306141,35.793 9.89506141,37.055 9.72106141,38.321 C9.53006141,39.709 8.88006141,40.872 7.85406141,41.8 C6.49606141,43.028 5.27206141,42.734 4.55806141,41.058 C3.83306141,39.355 3.98906141,37.643 4.66606141,35.997 C4.90306141,35.422 5.47806141,34.964 5.96206141,34.521 C6.27406141,34.234 6.70006141,34.073 7.19706141,33.785 C6.34006141,32.949 5.69306141,32.114 6.01506141,31.059 C5.58806141,30.501 4.70906141,30.527 4.80406141,29.662 C5.50806141,29.196 5.95706141,29.964 6.68206141,29.923 C8.02206141,28.89 9.69006141,28.338 11.6600614,28.41 C11.7210614,25.846 11.6360614,23.362 13.7870614,21.721 C13.3540614,20.586 12.9620614,19.559 12.5430614,18.462 L10.7220614,18.462 C10.4270614,19.014 10.1440614,19.542 9.81106141,20.164 C8.89606141,19.484 9.77906141,18.809 9.63906141,18.04 C9.31406141,17.788 8.88106141,17.453 8.40806141,17.088 C8.16806141,17.501 7.90406141,17.987 7.61106141,18.457 C6.74406141,19.846 5.47106141,20.734 3.96106141,21.273 C3.15406141,21.56 2.81606141,21.378 2.43606141,20.686 C1.17406141,18.388 2.00906141,15.252 4.24006141,13.89 C4.98606141,13.436 5.77206141,13.255 6.64806141,13.381 C8.33906141,13.623 8.34106141,13.608 8.99206141,11.912 C8.66506141,11.576 8.33906141,11.239 8.01706141,10.907 C8.66206141,10.208 9.11906141,10.963 9.71606141,10.916 C11.2570614,9.139 13.4130614,8.379 15.6620614,7.86 C17.2140614,7.503 18.6600614,6.956 19.9530614,6.028 C21.5090614,4.912 21.8380614,3.258 20.8210614,1.646 C20.5040614,1.142 20.1390614,0.668 19.9730614,2.84217094e-14 C20.3530614,0.348 20.7430614,0.687 21.1120614,1.045 C22.7350614,2.625 22.6960614,5.19 20.9760614,6.683 C19.6860614,7.803 18.1450614,8.44 16.4950614,8.885 C15.1500614,9.246 13.8110614,9.679 12.5340614,10.231 C10.6930614,11.027 9.65906141,12.544 9.48206141,14.517 C9.28606141,16.699 10.0620614,17.366 12.3920614,17.228 C12.6250614,16.395 12.7720614,15.51 13.1160614,14.71 C14.2220614,12.137 17.8120614,10.958 20.2630614,12.286 C21.2660614,12.829 21.8790614,13.66 22.1630614,14.731 C22.3330614,15.373 22.4020614,16.043 22.5420614,16.846 C23.3990614,17.06 24.3480614,17.297 25.3960614,17.559 C25.4250614,16.987 25.4680614,16.497 25.4710614,16.007 C25.4820614,13.983 26.7410614,12.822 28.3710614,12.042 C30.1750614,11.18 32.0120614,11.954 32.8150614,13.768 C32.9500614,14.074 33.0510614,14.396 33.1630614,14.694 C32.2280614,17.256 30.5830614,18.87 27.5070614,18.805 C28.0160614,19.564 28.4080614,20.148 28.7690614,20.686 C29.4850614,20.802 30.1130614,20.903 30.7640614,21.009 C30.5220614,21.982 29.7390614,21.469 29.2570614,21.874 L29.2570614,24.252 C29.4340614,24.302 29.5920614,24.393 29.7410614,24.382 C31.9370614,24.215 33.1850614,25.46 33.9780614,27.29 C34.4380614,28.352 34.3330614,29.487 34.0090614,30.57 C33.7350614,31.486 32.9160614,31.599 32.1130614,31.605 C29.6900614,31.621 27.9460614,30.523 26.8720614,28.353 C26.7520614,28.109 26.6340614,27.865 26.5120614,27.615 C25.7260614,28.091 25.7260614,28.091 26.2460614,29.812 C25.8770614,29.683 25.5310614,29.668 25.3900614,29.49 C25.0960614,29.122 24.9110614,28.668 24.5040614,27.927 C24.1220614,29.669 24.2430614,31.074 24.3000614,32.582 C24.9850614,32.623 25.5950614,32.608 26.1870614,32.708 C26.8980614,32.827 27.6390614,32.943 28.2850614,33.239 C29.9980614,34.024 30.6680614,35.314 30.4630614,37.183 C30.4340614,37.452 30.3640614,37.718 30.3120614,37.982 C30.7550614,38.298 31.1470614,38.578 31.6260614,38.92 C30.9250614,39.558 30.4060614,38.921 29.7570614,38.894 C29.2870614,39.305 28.7570614,39.771 28.1930614,40.265 C31.6710614,41.818 32.9540614,46.49 31.3330614,48.972 C29.9920614,49.153 28.8530614,48.737 27.9870614,47.626 C26.8060614,46.109 25.7030614,44.557 25.7610614,42.498 C25.7650614,42.354 25.6550614,42.206 25.5990614,42.06 L25.5990614,42.06 Z" id="Fill-76"></path>
            <path d="M15.4250614,95.71 C15.8600614,95.902 16.2950614,96.095 16.8830614,96.355 C16.4780614,96.743 16.1190614,97.088 15.7710614,97.421 C14.8060614,96.883 15.2360614,96.27 15.4660614,95.681 L15.4250614,95.71 Z" id="Fill-78"></path>
            <path d="M13.7117614,49.7735 L13.7117614,47.7325 C14.1337614,48.4315 14.3577614,48.8005 14.6287614,49.2495 C14.3647614,49.4005 14.1447614,49.5265 13.7117614,49.7735" id="Fill-80"></path>
        </g>
    </g>
</svg>