<?xml version="1.0" encoding="UTF-8"?>
<svg width="49px" height="86px" viewBox="0 0 49 86" version="1.1" xmlns="http://www.w3.org/2000/svg" xmlns:xlink="http://www.w3.org/1999/xlink">
    <!-- Generator: Sketch 61.2 (89653) - https://sketch.com -->
    <title>white_coffin</title>
    <desc>Created with Sketch.</desc>
    <g id="Page-1" stroke="none" stroke-width="1" fill="none" fill-rule="evenodd">
        <g id="white_coffin" fill="#FFFFFF">
            <path d="M26.6480912,27.4098759 C25.9130912,26.5178759 25.0130912,27.2348759 24.2910912,26.7838759 C24.1940912,24.6308759 24.1060912,22.4328759 23.9920912,20.2378759 C23.9600912,19.6168759 23.8730912,18.9968759 23.7730912,18.3828759 C23.7450912,18.2128759 23.5780912,18.0638759 23.4060912,17.7988759 C22.8520912,18.6398759 23.3460912,19.4028759 23.2740912,20.1318759 C23.2010912,20.8718759 23.2780912,21.6298759 23.3150912,22.3778759 C23.3540912,23.1678759 23.4400912,23.9558759 23.4750912,24.7458759 C23.5080912,25.5148759 23.6150912,26.2948759 23.4670912,26.9958759 C22.7220912,27.2988759 21.9820912,26.9278759 21.2840912,27.3818759 C22.0140912,28.0058759 22.8650912,27.4748759 23.4910912,27.8798759 C23.6730912,30.1128759 23.6730912,30.1128759 24.3020912,30.5278759 L24.3020912,27.7768759 C25.1270912,27.6478759 25.8080912,27.5408759 26.6480912,27.4098759 M23.1590912,42.0658759 C22.7190912,41.3888759 22.4090912,40.9088759 22.0940912,40.4308759 C21.9580912,40.2228759 21.8400912,39.9938759 21.6650912,39.8258759 C21.3860912,39.5588759 20.9740912,39.6778759 20.8980912,40.0648759 C20.7880912,40.6368759 20.7840912,41.2288759 20.6750912,41.8008759 C20.0690912,44.9818759 19.4440912,48.1598759 18.7810912,51.5718759 C17.9550912,50.5928759 17.8220912,49.5308759 17.2670912,48.6898759 C15.9510912,49.0588759 15.8190912,50.4008759 14.9390912,51.1738759 C14.3370912,49.7248759 14.0950912,48.2328759 13.7680912,46.7708759 C13.4230912,45.2288759 13.2230912,43.6538759 12.8480912,42.1208759 C12.2140912,39.5338759 11.4650912,36.9748759 10.8180912,34.3908759 C10.1700912,31.8048759 9.59909124,29.1988759 8.96709124,26.6078759 C8.85909124,26.1668759 8.91709124,25.8048759 9.11109124,25.4148759 C10.3560912,22.9168759 11.6330912,20.4338759 12.8150912,17.9068759 C13.8190912,15.7608759 14.7030912,13.5578759 15.6550912,11.3868759 C15.9530912,10.7048759 16.2880912,10.0388759 16.6230912,9.37487594 C17.1860912,8.26087594 17.7620912,7.15287594 18.3860912,5.93587594 C20.4450912,5.85387594 22.5610912,5.75487594 24.6780912,5.69287594 C25.7620912,5.66087594 26.8490912,5.73687594 27.9310912,5.68887594 C28.6690912,5.65587594 29.0490912,5.96087594 29.3710912,6.60487594 C30.9710912,9.80887594 32.5980912,12.9998759 34.2540912,16.1758759 C35.4100912,18.3898759 36.6200912,20.5778759 37.8250912,22.7668759 C38.0750912,23.2208759 38.1840912,23.6358759 38.1090912,24.1788759 C37.5580912,28.1818759 37.0580912,32.1928759 36.5300912,36.2008759 C36.4550912,36.7678759 36.3190912,37.3278759 36.1930912,37.9888759 C35.1110912,37.0628759 34.1020912,36.1488759 32.8050912,35.6348759 C32.3870912,36.0888759 32.5220912,36.5668759 32.5380912,36.9968759 C32.6010912,38.6628759 32.7270912,40.3278759 32.7740912,41.9938759 C32.8150912,43.4498759 32.7830912,44.9078759 32.7830912,46.5108759 C32.5370912,46.2998759 32.3390912,46.1878759 32.2210912,46.0208759 C31.5270912,45.0398759 30.5290912,44.2848759 30.0810912,43.1138759 C30.0100912,42.9288759 29.7040912,42.6978759 29.5260912,42.7148759 C28.8480912,42.7748759 28.4380912,42.3408759 27.9980912,41.9798759 C26.8080912,41.0058759 25.6480912,39.9938759 24.4540912,39.0248759 C24.2530912,38.8618759 23.9210912,38.7338759 23.6820912,38.7768759 C23.3550912,38.8348759 23.3790912,39.1628759 23.3740912,39.4818759 C23.3600912,40.2548759 23.2530912,41.0258759 23.1590912,42.0658759" id="Fill-318"></path>
            <path d="M17.5879912,59.3864759 C18.3819912,59.2294759 18.6639912,58.6814759 18.9489912,58.1124759 C19.2099912,57.5934759 19.5269912,57.1034759 19.8839912,56.4894759 C20.3819912,57.3094759 20.7989912,58.0544759 21.2749912,58.7604759 C21.5389912,59.1544759 21.7069912,59.7984759 22.3149912,59.7014759 C22.8899912,59.6114759 22.9219912,58.9724759 23.0899912,58.5194759 C23.7249912,56.7994759 24.3129912,55.0634759 24.9799912,53.3574759 C25.3239912,52.4784759 25.7979912,51.6514759 26.2759912,50.6694759 C26.8209912,51.7524759 27.2839912,52.6574759 27.7329912,53.5694759 C28.4259912,54.9774759 28.7119912,55.0204759 29.7139912,53.8774759 C30.4219912,53.0704759 31.1509912,52.2794759 32.0019912,51.3354759 C32.1219912,52.6464759 31.7619912,53.6504759 31.4449912,54.6644759 C31.0609912,55.8934759 30.6949912,57.1274759 30.3269912,58.3614759 C30.2919912,58.4794759 30.2529912,58.6204759 30.2859912,58.7304759 C30.3639912,58.9854759 30.4859912,59.2264759 30.5899912,59.4724759 C30.8009912,59.3724759 31.0419912,59.3094759 31.2189912,59.1664759 C32.5129912,58.1304759 33.7949912,57.0774759 35.2439912,55.8984759 C35.3069912,57.3214759 35.4169912,58.4984759 34.7599912,59.6504759 C32.5899912,63.4514759 30.4599912,67.2764759 28.3319912,71.1014759 C26.9539912,73.5784759 25.6049912,76.0734759 24.2419912,78.5584759 C24.1049912,78.8084759 23.9559912,79.0524759 23.7759912,79.3604759 C23.1919912,79.1894759 22.6389912,79.0254759 22.0839912,78.8674759 C21.0029912,78.5624759 19.9189912,78.2624759 18.8379912,77.9534759 C17.3009912,77.5164759 17.1789912,77.3694759 17.2389912,75.7894759 C17.3059912,73.9974759 17.4529912,72.2074759 17.4829912,70.4154759 C17.5259912,67.7034759 17.4919912,64.9904759 17.5049912,62.2784759 C17.5089912,61.3634759 17.5559912,60.4474759 17.5879912,59.3864759" id="Fill-320"></path>
            <path d="M2.08109124,24.8942759 C4.24209124,25.3072759 6.14509124,25.6712759 8.14309124,26.0532759 C8.23609124,26.3522759 8.36609124,26.6952759 8.45009124,27.0482759 C9.35909124,30.8542759 10.2510912,34.6642759 11.1690912,38.4662759 C11.4820912,39.7602759 11.8940912,41.0312759 12.1930912,42.3282759 C12.4920912,43.6222759 12.7120912,44.9332759 12.9520912,46.2402759 C12.9870912,46.4332759 12.9990912,46.6722759 12.9170912,46.8392759 C11.8650912,48.9632759 10.7950912,51.0792759 9.72709124,53.1952759 C9.69109124,53.2642759 9.61709124,53.3152759 9.47709124,53.4642759 C9.38109124,53.2122759 9.28209124,53.0172759 9.23109124,52.8092759 C7.57109124,45.9732759 6.09209124,39.0912759 3.97209124,32.3742759 C3.58309124,31.1442759 3.19309124,29.9122759 2.87409124,28.6632759 C2.57709124,27.4982759 2.37409124,26.3112759 2.08109124,24.8942759" id="Fill-322"></path>
            <path d="M12.1128912,81.3239759 C12.0788912,81.1049759 12.0338912,80.9449759 12.0308912,80.7839759 C11.9478912,75.9929759 11.7928912,71.2009759 11.8158912,66.4099759 C11.8308912,63.3299759 12.1038912,60.2519759 12.2768912,57.1739759 C12.2918912,56.8949759 12.3468912,56.5669759 12.5078912,56.3559759 C13.6098912,54.9089759 14.7448912,53.4869759 15.9588912,51.9449759 C16.0138912,52.6109759 16.0718912,53.1349759 16.0978912,53.6589759 C16.1798912,55.2839759 16.3468912,56.8869759 17.0548912,58.3889759 C17.1728912,58.6369759 17.1778912,58.9579759 17.1688912,59.2419759 C17.1048912,61.1559759 17.0108912,63.0689759 16.9498912,64.9829759 C16.8638912,67.6459759 16.8008912,70.3099759 16.7218912,72.9729759 C16.6798912,74.3869759 16.6408912,75.7999759 16.5648912,77.2109759 C16.5508912,77.4729759 16.4408912,77.8039759 16.2548912,77.9719759 C15.0188912,79.0889759 13.7518912,80.1719759 12.4898912,81.2589759 C12.4388912,81.3029759 12.3358912,81.2879759 12.1128912,81.3239759" id="Fill-324"></path>
            <path d="M25.8511912,84.4381759 C25.4451912,82.8731759 25.1311912,81.4921759 24.7141912,80.1421759 C24.5461912,79.5981759 24.6351912,79.1931759 24.8891912,78.7321759 C26.4201912,75.9581759 27.9381912,73.1761759 29.4551912,70.3941759 C31.2891912,67.0261759 33.1271912,63.6591759 34.9431912,60.2801759 C35.3041912,59.6101759 35.6581912,59.0661759 36.4591912,58.7591759 C37.4171912,58.3911759 38.2721912,57.7511759 39.1601912,57.2091759 C40.0841912,56.6441759 40.9951912,56.0581759 42.2301912,55.8421759 C37.2121912,65.6071759 31.9381912,75.1221759 25.8511912,84.4381759" id="Fill-326"></path>
            <path d="M15.8775912,1.63547594 C16.4325912,3.14547594 16.9605912,4.58147594 17.4705912,5.96947594 C14.5405912,12.4824759 11.6045912,18.9514759 8.40259124,25.2554759 C6.88959124,25.2974759 4.32659124,24.8684759 2.40359124,24.2564759 C2.52259124,23.9944759 2.61859124,23.7314759 2.75659124,23.4914759 C4.75459124,20.0304759 6.85459124,16.6224759 8.73259124,13.0974759 C10.7735912,9.26447594 13.0845912,5.61047594 15.4855912,2.00547594 C15.5715912,1.87747594 15.7135912,1.78747594 15.8775912,1.63547594" id="Fill-328"></path>
            <path d="M43.0440912,22.4557759 C41.5740912,22.6457759 40.1840912,22.8267759 38.7150912,23.0177759 C38.4490912,22.5517759 38.2010912,22.1257759 37.9620912,21.6937759 C37.0940912,20.1297759 36.2240912,18.5657759 35.3660912,16.9957759 C34.9660912,16.2647759 34.5920912,15.5187759 34.2070912,14.7787759 C32.6640912,11.8247759 31.1280912,8.86677594 29.5710912,5.91977594 C29.3620912,5.52477594 29.3430912,5.20077594 29.4460912,4.75377594 C29.8130912,3.17477594 30.3160912,1.65077594 31.0250912,0.00677594489 C31.2500912,0.351775945 31.4160912,0.565775945 31.5400912,0.802775945 C33.6380912,4.83277594 35.7070912,8.87777594 37.8330912,12.8927759 C39.4130912,15.8767759 41.0660912,18.8227759 42.6860912,21.7867759 C42.7840912,21.9657759 42.8780912,22.1447759 43.0440912,22.4557759" id="Fill-330"></path>
            <path d="M39.9390912,42.9811759 C39.3350912,42.1361759 38.7340912,41.2901759 38.1260912,40.4481759 C37.8820912,40.1101759 37.6680912,39.7321759 37.3620912,39.4611759 C36.8560912,39.0141759 36.8110912,38.5011759 36.8910912,37.8821759 C37.2970912,34.7401759 37.6690912,31.5911759 38.0720912,28.4481759 C38.2730912,26.8811759 38.5160912,25.3201759 38.7590912,23.6251759 C40.2990912,23.4591759 41.8140912,23.2961759 43.5030912,23.1151759 C43.2200912,24.5651759 43.0160912,25.8641759 42.7090912,27.1371759 C41.8840912,30.5511759 41.3600912,34.0041759 41.0660912,37.5051759 C40.9140912,39.3201759 40.5160912,41.1141759 40.2290912,42.9171759 L39.9390912,42.9811759 Z" id="Fill-332"></path>
            <path d="M30.4536912,0.0749759449 C29.8816912,1.72597594 29.3126912,3.36897594 28.7276912,5.05997594 C25.1376912,5.18897594 21.5736912,5.31697594 17.8886912,5.44897594 C17.3516912,4.03797594 16.8246912,2.65197594 16.2456912,1.12997594 C21.0696912,1.15097594 25.6646912,-0.347024055 30.4536912,0.0749759449" id="Fill-334"></path>
            <path d="M12.9922912,81.6999759 C14.4362912,80.3809759 15.6902912,79.2359759 16.9932912,78.0449759 C18.3742912,78.4099759 19.7782912,78.7719759 21.1782912,79.1519759 C21.9802912,79.3699759 22.7842912,79.5909759 23.5702912,79.8589759 C23.8122912,79.9419759 24.1322912,80.1509759 24.1892912,80.3639759 C24.6052912,81.8879759 24.9652912,83.4289759 25.3332912,84.9659759 C25.3682912,85.1119759 25.3382912,85.2729759 25.3382912,85.5419759 C21.2422912,84.2669759 17.2422912,83.0229759 12.9922912,81.6999759" id="Fill-336"></path>
            <path d="M6.52009124,51.4743759 C6.43809124,51.6623759 6.40309124,51.9393759 6.24709124,52.0573759 C5.88709124,52.3323759 5.47809124,52.5493759 5.07109124,52.7573759 C4.26109124,53.1713759 3.42409124,53.5373759 2.62609124,53.9743759 C1.85809124,54.3953759 1.33309124,54.1923759 1.20009124,53.3283759 C1.11009124,52.7513759 1.12509124,52.1573759 1.00209124,51.5893759 C0.801091238,50.6603759 0.527091238,49.7453759 0.278091238,48.8263759 C0.246091238,48.7063759 0.187091238,48.5933759 0.134091238,48.4803759 C-0.0199087623,48.1563759 -0.104908762,47.7803759 0.241091238,47.5923759 C0.437091238,47.4863759 0.804091238,47.5653759 1.03309124,47.6813759 C1.36209124,47.8473759 1.63209124,48.1273759 1.93209124,48.3523759 C2.93109124,49.1023759 3.91809124,49.8703759 4.93809124,50.5893759 C5.40409124,50.9183759 5.93709124,51.1533759 6.52009124,51.4743759" id="Fill-338"></path>
            <path d="M47.9903912,55.8512759 C45.9523912,53.5672759 44.7653912,51.0472759 43.3103912,48.5082759 C44.4443912,48.5772759 45.0993912,49.3642759 45.9483912,49.7012759 C46.8303912,50.0512759 47.6553912,50.5482759 48.5753912,51.0162759 C48.3883912,52.5652759 48.2043912,54.0842759 47.9903912,55.8512759" id="Fill-340"></path>
            <path d="M6.06839124,61.9440759 C5.15139124,61.3180759 4.30339124,60.7380759 3.30839124,60.0580759 C4.30339124,59.4650759 5.18739124,58.9560759 6.05139124,58.4160759 C6.89439124,57.8890759 7.71639124,57.3310759 8.58739124,56.7600759 C8.42839124,57.8860759 7.36839124,60.0630759 6.06839124,61.9440759" id="Fill-342"></path>
            <path d="M36.2256912,44.5592759 C37.3086912,45.8352759 38.1976912,46.8722759 39.0696912,47.9202759 C39.1956912,48.0732759 39.3036912,48.2842759 39.3206912,48.4762759 C39.4206912,49.6222759 39.4916912,50.7712759 39.4716912,51.9512759 C38.2056912,50.6752759 36.8386912,49.5212759 36.7576912,47.5172759 C36.7216912,46.6232759 36.4466912,45.7392759 36.2256912,44.5592759" id="Fill-344"></path>
            <path d="M21.4942912,46.0817759 C22.2162912,47.1417759 22.9382912,48.2017759 23.6972912,49.3157759 C23.1162912,49.9137759 22.9682912,50.8097759 22.0422912,51.2737759 C21.5262912,50.0307759 21.4062912,48.7567759 21.1592912,47.5237759 C21.0672912,47.0687759 21.2082912,46.5677759 21.2432912,46.0877759 C21.3262912,46.0857759 21.4102912,46.0837759 21.4942912,46.0817759" id="Fill-346"></path>
            <path d="M42.7686912,42.9196759 C44.1666912,41.9356759 45.3786912,41.0806759 46.8206912,40.0656759 C46.5906912,41.3656759 46.4076912,42.3986759 46.2286912,43.4076759 C44.9906912,43.7506759 44.0136912,43.1946759 42.7686912,42.9196759" id="Fill-348"></path>
            <path d="M35.7749912,48.7262759 C35.8789912,49.0312759 35.9729912,49.1782759 35.9739912,49.3282759 C35.9859912,50.6092759 35.9809912,51.8912759 35.9809912,53.3392759 C35.3179912,53.0592759 34.7089912,52.8022759 34.0999912,52.5442759 C34.6509912,51.2872759 35.1749912,50.0922759 35.7749912,48.7262759" id="Fill-350"></path>
            <path d="M26.1948912,45.8796759 C26.8628912,45.4426759 27.4068912,45.0876759 28.0988912,44.6356759 C28.3358912,45.8196759 27.9068912,46.8476759 27.8668912,47.9516759 C27.3348912,47.2926759 26.8018912,46.6336759 26.1948912,45.8796759" id="Fill-352"></path>
            <path d="M10.2437912,59.8659759 C10.1437912,60.6169759 10.0437912,61.3679759 9.91579124,62.3209759 C9.47279124,61.9079759 9.13679124,61.5949759 8.74079124,61.2259759 C9.21179124,60.7139759 9.63779124,60.2509759 10.0647912,59.7869759 C10.1237912,59.8129759 10.1837912,59.8399759 10.2437912,59.8659759" id="Fill-354"></path>
        </g>
    </g>
</svg>