<svg xmlns="http://www.w3.org/2000/svg" width="39" height="51" viewBox="0 0 39 51"><g><g><path fill="#fff" d="M28.84 21.55a2.837 2.837 0 0 1 1.522.63c.514.42.507.812-.004 1.227a705.889 705.889 0 0 1-5.318 4.284c-.37.295-.79.534-1.203.772-.846.486-1.656 1.02-2.468 1.726.523.17.982.19 1.445.185.398-.005.795-.024 1.192-.01.21.008.427.042.621.117.687.266.802.762.265 1.269-1.097 1.037-2.189 2.083-3.342 3.055-1.05.887-2.186 1.673-3.269 2.522-1.015.794-2.012 1.61-3.062 2.456.802.064 1.561.124 2.32.187.29.024.58.05.87.084.346.04.5.278.55.589.043.272-.106.44-.337.572-1.337.753-2.668 1.515-4.002 2.273-2.7 1.534-5.6 2.66-8.35 4.09-.916.476-1.785 1.04-2.665 1.58-.63.386-1.247.796-1.869 1.195-.222.143-.46.172-.666.004-.22-.18-.345-.445-.164-.702.272-.385.547-.788.9-1.091 1.165-1.001 2.367-1.957 3.55-2.935.523-.434 1.033-.88 1.608-1.371-.163-.051-.253-.096-.347-.108-1.005-.123-1.736-.76-2.48-1.348-.547-.43-.588-.768-.099-1.262a16.227 16.227 0 0 1 1.843-1.612c2.531-1.877 5.084-3.725 7.627-5.586.14-.103.264-.225.481-.413-.637-.23-1.167-.452-1.715-.61-.814-.231-1.473-.721-2.134-1.207-.483-.356-.524-.72-.068-1.104.766-.648 1.55-1.286 2.382-1.843 1.341-.9 2.72-1.744 4.1-2.583.904-.55 1.838-1.052 2.762-1.57.43-.241.865-.468 1.341-.725-.448-.473-1.004-.527-1.462-.768-.56-.295-1.145-.553-1.67-.901-.805-.53-.735-1.063.14-1.516.634-.327 1.326-.587 1.878-1.021 1.801-1.42 3.79-2.522 5.793-3.607.23-.124.443-.276.772-.482-.354-.122-.627-.19-.877-.307-.453-.21-.938-.387-1.325-.69-.489-.38-.436-.61-.028-1.113 1.54-1.91 3.407-3.472 5.278-5.031.447-.372.857-.767 1.206-1.245.817-1.116 1.813-2.073 2.863-2.971a325.294 325.294 0 0 1 3.715-3.113c.283-.235.59-.45.91-.632.268-.154.576-.148.821.064.264.226.35.529.217.863a3.362 3.362 0 0 1-.279.568c-.45.719-.933 1.419-1.36 2.152-.279.475-.455 1.01-.727 1.49-.457.807-.887 1.64-1.448 2.37-.9 1.172-1.403 2.55-2.135 3.805-.05.087-.062.196-.119.389.5.174.984.36 1.48.51.537.164 1.051.368 1.488.728.608.498.633 1.046.014 1.517-2.442 1.859-4.769 3.873-7.443 5.413-.228.13-.436.297-.826.568.542.095.922.182 1.307.224zM19.492 31.62l-.468-.191c-.152-.801.17-1.338.755-1.75a454.507 454.507 0 0 1 3.312-2.31c.408-.28.837-.53 1.25-.791-.088-.347-.139-.63-.235-.895-.147-.41.073-.438.371-.433.11.313-.01.706.443.912.07-.392-.264-.854.28-1.038l.287.442c.354-.244 0-.403-.048-.594-.083-.33.036-.655.236-.666.19-.008.476.279.497.542.006.089-.093.186-.184.354.763-.265.01-.793.327-1.094.01-.01-.027-.07-.048-.118l-.545.086c0-.523-.895-.496-.704-1.145.41-.016.57.307.852.57.007-.264.01-.441.017-.643-.348-.048-.75.103-.91-.333l.153-.447-.747.344.5-1.046c.167-.096.322-.17.46-.267.559-.39 1.08-.848 1.682-1.154a1.01 1.01 0 0 0 .552-.651c.59.12.917-.223 1.26-.565-.325-.227-.563-.482-.368-.922.024-.053-.057-.154-.106-.24.36-.383.681.255 1.046.055-.078-.204-.55 0-.406-.408.52-.132.53-.134.802.172.221-.39.002-.78-.048-1.156-.056-.425-.415-.676-.785-.857-.475.152-.921.288-1.14.836-.105.263-.436.445-.68.645-.28.23-.578.44-.82.623l.018.644-.385-.45c-.193.11-.397.223-.593.346-.022.015-.002.094-.002.14l.65.015c-.487.42-.875.156-1.214.16l-.752.794c.07.047.138.094.206.142-.28.373-.697.057-.935.206-.3.189-.57.24-.926.125-.026.299-.284.547.205.645.254.05.172.269.025.429-.424.013-.876-.388-1.34.103l.603.107-.096.418.287.065c.032.286.06.547.094.839l-.662-.08c.185.185.247.304.33.322.618.134.674.188.747.842l-.035.306c-.122.397.126.597.426.75-.202.135-.381.249-.556.37-.203.143-.384.345-.61.422-.352.122-.037.43-.215.59l-.536-.146.042.599c-.48-.372-.48-.372-.681.04l.027-.003c-.144.098-.288.195-.431.294-.381-.043-.752-.04-1.062.223l.025.737-1.051.443c-.673-.44-.815-.414-.904.177.206-.044.415-.09.617-.131l-.095 1.049-1.05.82c.115.255.109.31-.117.589-.142-.158-.264-.33-.423-.457-.107-.086-.297-.19-.395-.15-.336.14-.373-.215-.591-.31l-.36.52c.474.156.884.29 1.325.437.012.222.01.46.04.692.014.103.077.21.143.295.208.267.212.264-.19.386-.03.008-.055.036-.12.08l.516.234.155-.395c.52.017.394.427.516.73-.593-.148-1.344.122-1.867.644.042.06.079.128.129.186.443.512.453.733.022 1.22-.12.138-.277.242-.423.354-.44.34-.874.686-1.325 1.01-.26.187-.512.36-.461.716l-.436.029c.159.384.429.567.869.64-.144-.425-.192-.784.219-1.003.34-.181.397.254.597.325.237-.138.408-.222.274-.545-.094-.225.12-.302.337-.212.065.157.126.308.19.469.344-.207.193-.36.069-.546-.045-.068.033-.22.055-.332.116.025.252.024.343.086.089.062.133.189.218.32.349-.796.349-.796 1.307-.923-.097.529-.504.697-.978.84.299.357.843.34.81.915.664-.523 1.26-.963 1.818-1.448.242-.211.619-.322.666-.722.377.028.497-.296.727-.492.4-.337.432-.3.175-.823-.082.075-.147.156-.23.208-.082.05-.183.07-.311.119l-.367-.633.628-.234L20 32.04l-.587-.165.079-.256zm10.313-14.224a.818.818 0 0 1-.016.027l.028.014.004-.022a27.455 27.455 0 0 0-.016-.02zm-.052.405c-.004.063.047.13.076.2l.507-.302c-.181-.093-.35-.178-.519-.262-.025.121-.058.241-.064.364zM15.975 36.105c-.07.278-.121.49-.17.687l-.976.064-.015.758c-.148.019-.275.036-.317.04l.117.886c.698-.537 1.428-1.1 2.23-1.72l-.87-.715zm15.64-20.382c-.026-.346-.104-.69-.176-1.11l-.367.347.199 1.017c.149-.105.349-.187.344-.254zm-1.066.073l.189-.757c-.437.389-.796.312-1.176.06.197.458.612.51.987.697zM14.884 32.165c.131.03.251.06.32.077l.332-.62-.661-.195.008.738zm16.23-16.13c-.483.3-.483.3-.929.05l.16.808c.137-.356.684-.332.768-.857zm-9.46 6.936c.083-.467-.447-.375-.637-.75-.06.414-.06.414.637.75zm-8.06 9.097l.16.502c.132-.055.227-.065.265-.116.076-.102.121-.227.218-.417-.26.013-.448.022-.643.03zM31.76 14.432l.48.533c.055-.537.037-.554-.48-.533zM15.663 28.739c-.259.195-.299.404-.11.79.297-.291.375-.502.11-.79zm.982.315l-.33.22c.047.057.122.17.138.162.114-.054.215-.134.32-.206l-.128-.176zm4.753 4.154c-.14-.127-.262-.24-.425-.39.064.54.064.54.425.39zm9.218-18.904c-.28.2-.28.2-.341.658l.48-.556a9.706 9.706 0 0 1-.14-.102z"/></g></g></svg>